ISO-10303-21;
HEADER;
/* Generated by software containing ST-Developer
 * from STEP Tools, Inc. (www.steptools.com) 
 */
/* OPTION: using custom renumber hook */

FILE_DESCRIPTION(
/* description */ ('STEP AP242 Edition 2',
'CAx-IF Rec.Pracs.---Representation and Presentation of Product Manufa
cturing Information (PMI)---4.0---2014-10-13',
'CAx-IF Rec.Pracs.---3D Tessellated Geometry---0.4---2014-09-14','2;1',
'CAx-IF Rec.Pracs.---User Defined Attributes---1.5---2016-08-15'),
/* implementation_level */ '2;1');

FILE_NAME(
/* name */ 'Wheel Mount - Left Front',
/* time_stamp */ '2026-08-05T18:52:51Z',
/* author */ (''),
/* organization */ (''),
/* preprocessor_version */ 'ST-DEVELOPER v20',
/* originating_system */ 'ONSHAPE BY PTC INC, 1.218',
/* authorisation */ '  ');

FILE_SCHEMA (('AP242_MANAGED_MODEL_BASED_3D_ENGINEERING_MIM_LF { 1 0 10303 442 3 1 4 }'));
ENDSEC;

DATA;
#10=SHAPE_REPRESENTATION_RELATIONSHIP('','',#698,#11);
#11=ADVANCED_BREP_SHAPE_REPRESENTATION('',(#696),#1266);
#12=ELLIPSE('',#730,0.0247487373415292,0.0175);
#13=ELLIPSE('',#731,0.0247487373415292,0.0175);
#14=ELLIPSE('',#742,0.0237158347146658,0.0175);
#15=ELLIPSE('',#775,0.0681576280119309,0.046);
#16=ELLIPSE('',#778,0.0637125653155007,0.043);
#17=LINE('',#1025,#50);
#18=LINE('',#1030,#51);
#19=LINE('',#1069,#52);
#20=LINE('',#1096,#53);
#21=LINE('',#1100,#54);
#22=LINE('',#1101,#55);
#23=LINE('',#1105,#56);
#24=LINE('',#1110,#57);
#25=LINE('',#1112,#58);
#26=LINE('',#1114,#59);
#27=LINE('',#1116,#60);
#28=LINE('',#1118,#61);
#29=LINE('',#1119,#62);
#30=LINE('',#1167,#63);
#31=LINE('',#1183,#64);
#32=LINE('',#1207,#65);
#33=LINE('',#1214,#66);
#34=LINE('',#1216,#67);
#35=LINE('',#1218,#68);
#36=LINE('',#1222,#69);
#37=LINE('',#1224,#70);
#38=LINE('',#1226,#71);
#39=LINE('',#1230,#72);
#40=LINE('',#1231,#73);
#41=LINE('',#1233,#74);
#42=LINE('',#1239,#75);
#43=LINE('',#1243,#76);
#44=LINE('',#1247,#77);
#45=LINE('',#1253,#78);
#46=LINE('',#1257,#79);
#47=LINE('',#1258,#80);
#48=LINE('',#1261,#81);
#49=LINE('',#1263,#82);
#50=VECTOR('',#799,1.);
#51=VECTOR('',#802,1.);
#52=VECTOR('',#847,1.);
#53=VECTOR('',#862,1.);
#54=VECTOR('',#865,1.);
#55=VECTOR('',#866,1.);
#56=VECTOR('',#869,1.);
#57=VECTOR('',#874,1.);
#58=VECTOR('',#875,1.);
#59=VECTOR('',#876,1.);
#60=VECTOR('',#877,1.);
#61=VECTOR('',#878,1.);
#62=VECTOR('',#879,1.);
#63=VECTOR('',#886,1.);
#64=VECTOR('',#891,1.);
#65=VECTOR('',#928,1.);
#66=VECTOR('',#929,1.);
#67=VECTOR('',#932,1.);
#68=VECTOR('',#933,1.);
#69=VECTOR('',#938,1.);
#70=VECTOR('',#941,1.);
#71=VECTOR('',#942,1.);
#72=VECTOR('',#947,1.);
#73=VECTOR('',#948,1.);
#74=VECTOR('',#951,1.);
#75=VECTOR('',#960,1.);
#76=VECTOR('',#963,1.);
#77=VECTOR('',#968,1.);
#78=VECTOR('',#973,1.);
#79=VECTOR('',#978,1.);
#80=VECTOR('',#979,1.);
#81=VECTOR('',#984,1.);
#82=VECTOR('',#987,1.);
#83=PLANE('',#703);
#84=PLANE('',#708);
#85=PLANE('',#732);
#86=PLANE('',#738);
#87=PLANE('',#744);
#88=PLANE('',#745);
#89=PLANE('',#746);
#90=PLANE('',#750);
#91=PLANE('',#753);
#92=PLANE('',#756);
#93=PLANE('',#759);
#94=PLANE('',#763);
#95=PLANE('',#764);
#96=PLANE('',#766);
#97=PLANE('',#769);
#98=PLANE('',#770);
#99=PLANE('',#771);
#100=PLANE('',#780);
#101=PLANE('',#781);
#102=PLANE('',#782);
#103=PLANE('',#783);
#104=PLANE('',#784);
#105=B_SPLINE_CURVE_WITH_KNOTS('',3,(#996,#997,#998,#999,#1000,#1001,#1002,
#1003,#1004,#1005,#1006),.UNSPECIFIED.,.T.,.F.,(1,1,1,1,1,1,1,1,1,1,1,1,
1,1,1),(-0.00575447252600117,-0.00383631501733412,-0.00191815750866706,
0.,0.00191815750866706,0.00383631501733412,0.00575447252600117,0.00767263003466823,
0.00959078754333529,0.0115089450520023,0.0134271025606694,0.0153452600693365,
0.0172634175780035,0.0191815750866706,0.0210997325953376),.UNSPECIFIED.);
#106=B_SPLINE_CURVE_WITH_KNOTS('',3,(#1008,#1009,#1010,#1011,#1012,#1013,
#1014,#1015,#1016,#1017,#1018),.UNSPECIFIED.,.T.,.F.,(1,1,1,1,1,1,1,1,1,
1,1,1,1,1,1),(-0.00575447252600117,-0.00383631501733411,-0.00191815750866705,
0.,0.00191815750866706,0.00383631501733411,0.00575447252600117,0.00767263003466822,
0.00959078754333528,0.0115089450520023,0.0134271025606694,0.0153452600693364,
0.0172634175780035,0.0191815750866706,0.0210997325953376),.UNSPECIFIED.);
#107=B_SPLINE_CURVE_WITH_KNOTS('',3,(#1083,#1084,#1085,#1086,#1087,#1088,
#1089,#1090,#1091,#1092,#1093),.UNSPECIFIED.,.F.,.F.,(4,1,1,1,1,1,1,1,4),
(0.00156595387023299,0.00352562857644874,0.00548530328266449,0.00744497798888024,
0.00940465269509598,0.0113643274013117,0.0133240021075275,0.0152836768137432,
0.017243351519959),.UNSPECIFIED.);
#108=B_SPLINE_CURVE_WITH_KNOTS('',3,(#1122,#1123,#1124,#1125,#1126,#1127,
#1128,#1129,#1130,#1131,#1132,#1133,#1134,#1135,#1136,#1137,#1138),
 .UNSPECIFIED.,.F.,.F.,(4,1,1,1,1,1,1,1,1,1,1,1,1,1,4),(0.,0.00343499807772404,
0.00686999615544808,0.0103049942331721,0.0137399923108962,0.0206099884663443,
0.0240449865440683,0.0274799846217923,0.0309149826995164,0.0343499807772404,
0.0412199769326885,0.0446549750104125,0.0480899730881366,0.0515249711658606,
0.0549599692435847),.UNSPECIFIED.);
#109=B_SPLINE_CURVE_WITH_KNOTS('',3,(#1142,#1143,#1144,#1145,#1146,#1147,
#1148,#1149,#1150,#1151,#1152,#1153,#1154,#1155,#1156,#1157,#1158,#1159),
 .UNSPECIFIED.,.F.,.F.,(4,1,1,1,1,1,1,1,1,1,1,1,1,1,1,4),(1.75889020129066E-19,
0.0032289909447249,0.00645798188944979,0.00968697283417469,0.0129159637788996,
0.0161449547236245,0.0193739456683494,0.0226029366130743,0.0258319275577992,
0.032289909447249,0.0355189003919739,0.0387478913366988,0.0419768822814237,
0.0452058732261486,0.0484348641708735,0.0516638551155984),.UNSPECIFIED.);
#110=B_SPLINE_CURVE_WITH_KNOTS('',3,(#1160,#1161,#1162,#1163,#1164,#1165,
#1166),.UNSPECIFIED.,.F.,.F.,(4,1,1,1,4),(3.58361313213717E-21,0.00191685539218061,
0.00383371078436121,0.00575056617654182,0.00766742156872242),
 .UNSPECIFIED.);
#111=B_SPLINE_CURVE_WITH_KNOTS('',3,(#1170,#1171,#1172,#1173,#1174,#1175,
#1176,#1177,#1178,#1179,#1180),.UNSPECIFIED.,.T.,.F.,(1,1,1,1,1,1,1,1,1,
1,1,1,1,1,1),(-0.00575122865212617,-0.00383415243475078,-0.00191707621737539,
0.,0.00191707621737539,0.00383415243475078,0.00575122865212617,0.00766830486950156,
0.00958538108687695,0.0115024573042523,0.0134195335216277,0.0153366097390031,
0.0172536859563785,0.0191707621737539,0.0210878383911293),.UNSPECIFIED.);
#112=B_SPLINE_CURVE_WITH_KNOTS('',3,(#1209,#1210,#1211,#1212),
 .UNSPECIFIED.,.F.,.F.,(4,4),(0.,0.00312980238544548),.UNSPECIFIED.);
#113=ORIENTED_EDGE('',*,*,#283,.F.);
#114=ORIENTED_EDGE('',*,*,#284,.T.);
#115=ORIENTED_EDGE('',*,*,#285,.F.);
#116=ORIENTED_EDGE('',*,*,#286,.F.);
#117=ORIENTED_EDGE('',*,*,#287,.F.);
#118=ORIENTED_EDGE('',*,*,#288,.F.);
#119=ORIENTED_EDGE('',*,*,#289,.F.);
#120=ORIENTED_EDGE('',*,*,#290,.T.);
#121=ORIENTED_EDGE('',*,*,#291,.F.);
#122=ORIENTED_EDGE('',*,*,#292,.T.);
#123=ORIENTED_EDGE('',*,*,#293,.T.);
#124=ORIENTED_EDGE('',*,*,#294,.F.);
#125=ORIENTED_EDGE('',*,*,#295,.F.);
#126=ORIENTED_EDGE('',*,*,#296,.F.);
#127=ORIENTED_EDGE('',*,*,#297,.T.);
#128=ORIENTED_EDGE('',*,*,#298,.F.);
#129=ORIENTED_EDGE('',*,*,#299,.T.);
#130=ORIENTED_EDGE('',*,*,#300,.T.);
#131=ORIENTED_EDGE('',*,*,#301,.F.);
#132=ORIENTED_EDGE('',*,*,#302,.T.);
#133=ORIENTED_EDGE('',*,*,#303,.F.);
#134=ORIENTED_EDGE('',*,*,#304,.T.);
#135=ORIENTED_EDGE('',*,*,#305,.F.);
#136=ORIENTED_EDGE('',*,*,#306,.T.);
#137=ORIENTED_EDGE('',*,*,#307,.F.);
#138=ORIENTED_EDGE('',*,*,#308,.T.);
#139=ORIENTED_EDGE('',*,*,#309,.T.);
#140=ORIENTED_EDGE('',*,*,#310,.T.);
#141=ORIENTED_EDGE('',*,*,#311,.T.);
#142=ORIENTED_EDGE('',*,*,#288,.T.);
#143=ORIENTED_EDGE('',*,*,#287,.T.);
#144=ORIENTED_EDGE('',*,*,#296,.T.);
#145=ORIENTED_EDGE('',*,*,#295,.T.);
#146=ORIENTED_EDGE('',*,*,#312,.F.);
#147=ORIENTED_EDGE('',*,*,#304,.F.);
#148=ORIENTED_EDGE('',*,*,#302,.F.);
#149=ORIENTED_EDGE('',*,*,#300,.F.);
#150=ORIENTED_EDGE('',*,*,#306,.F.);
#151=ORIENTED_EDGE('',*,*,#313,.F.);
#152=ORIENTED_EDGE('',*,*,#314,.F.);
#153=ORIENTED_EDGE('',*,*,#315,.T.);
#154=ORIENTED_EDGE('',*,*,#316,.F.);
#155=ORIENTED_EDGE('',*,*,#317,.T.);
#156=ORIENTED_EDGE('',*,*,#290,.F.);
#157=ORIENTED_EDGE('',*,*,#318,.F.);
#158=ORIENTED_EDGE('',*,*,#319,.F.);
#159=ORIENTED_EDGE('',*,*,#320,.F.);
#160=ORIENTED_EDGE('',*,*,#313,.T.);
#161=ORIENTED_EDGE('',*,*,#321,.T.);
#162=ORIENTED_EDGE('',*,*,#322,.F.);
#163=ORIENTED_EDGE('',*,*,#323,.F.);
#164=ORIENTED_EDGE('',*,*,#324,.F.);
#165=ORIENTED_EDGE('',*,*,#325,.F.);
#166=ORIENTED_EDGE('',*,*,#326,.T.);
#167=ORIENTED_EDGE('',*,*,#308,.F.);
#168=ORIENTED_EDGE('',*,*,#327,.F.);
#169=ORIENTED_EDGE('',*,*,#312,.T.);
#170=ORIENTED_EDGE('',*,*,#297,.F.);
#171=ORIENTED_EDGE('',*,*,#328,.T.);
#172=ORIENTED_EDGE('',*,*,#329,.F.);
#173=ORIENTED_EDGE('',*,*,#330,.F.);
#174=ORIENTED_EDGE('',*,*,#322,.T.);
#175=ORIENTED_EDGE('',*,*,#331,.T.);
#176=ORIENTED_EDGE('',*,*,#327,.T.);
#177=ORIENTED_EDGE('',*,*,#311,.F.);
#178=ORIENTED_EDGE('',*,*,#310,.F.);
#179=ORIENTED_EDGE('',*,*,#332,.F.);
#180=ORIENTED_EDGE('',*,*,#333,.F.);
#181=ORIENTED_EDGE('',*,*,#324,.T.);
#182=ORIENTED_EDGE('',*,*,#334,.T.);
#183=ORIENTED_EDGE('',*,*,#326,.F.);
#184=ORIENTED_EDGE('',*,*,#335,.F.);
#185=ORIENTED_EDGE('',*,*,#332,.T.);
#186=ORIENTED_EDGE('',*,*,#309,.F.);
#187=ORIENTED_EDGE('',*,*,#284,.F.);
#188=ORIENTED_EDGE('',*,*,#325,.T.);
#189=ORIENTED_EDGE('',*,*,#333,.T.);
#190=ORIENTED_EDGE('',*,*,#335,.T.);
#191=ORIENTED_EDGE('',*,*,#336,.T.);
#192=ORIENTED_EDGE('',*,*,#283,.T.);
#193=ORIENTED_EDGE('',*,*,#337,.F.);
#194=ORIENTED_EDGE('',*,*,#294,.T.);
#195=ORIENTED_EDGE('',*,*,#337,.T.);
#196=ORIENTED_EDGE('',*,*,#307,.T.);
#197=ORIENTED_EDGE('',*,*,#338,.F.);
#198=ORIENTED_EDGE('',*,*,#298,.T.);
#199=ORIENTED_EDGE('',*,*,#305,.T.);
#200=ORIENTED_EDGE('',*,*,#338,.T.);
#201=ORIENTED_EDGE('',*,*,#339,.T.);
#202=ORIENTED_EDGE('',*,*,#293,.F.);
#203=ORIENTED_EDGE('',*,*,#339,.F.);
#204=ORIENTED_EDGE('',*,*,#303,.T.);
#205=ORIENTED_EDGE('',*,*,#340,.T.);
#206=ORIENTED_EDGE('',*,*,#299,.F.);
#207=ORIENTED_EDGE('',*,*,#340,.F.);
#208=ORIENTED_EDGE('',*,*,#301,.T.);
#209=ORIENTED_EDGE('',*,*,#331,.F.);
#210=ORIENTED_EDGE('',*,*,#321,.F.);
#211=ORIENTED_EDGE('',*,*,#285,.T.);
#212=ORIENTED_EDGE('',*,*,#334,.F.);
#213=ORIENTED_EDGE('',*,*,#286,.T.);
#214=ORIENTED_EDGE('',*,*,#336,.F.);
#215=ORIENTED_EDGE('',*,*,#314,.T.);
#216=ORIENTED_EDGE('',*,*,#341,.T.);
#217=ORIENTED_EDGE('',*,*,#342,.F.);
#218=ORIENTED_EDGE('',*,*,#343,.F.);
#219=ORIENTED_EDGE('',*,*,#289,.T.);
#220=ORIENTED_EDGE('',*,*,#344,.F.);
#221=ORIENTED_EDGE('',*,*,#345,.F.);
#222=ORIENTED_EDGE('',*,*,#318,.T.);
#223=ORIENTED_EDGE('',*,*,#345,.T.);
#224=ORIENTED_EDGE('',*,*,#346,.F.);
#225=ORIENTED_EDGE('',*,*,#347,.F.);
#226=ORIENTED_EDGE('',*,*,#319,.T.);
#227=ORIENTED_EDGE('',*,*,#291,.T.);
#228=ORIENTED_EDGE('',*,*,#317,.F.);
#229=ORIENTED_EDGE('',*,*,#348,.F.);
#230=ORIENTED_EDGE('',*,*,#349,.T.);
#231=ORIENTED_EDGE('',*,*,#292,.F.);
#232=ORIENTED_EDGE('',*,*,#349,.F.);
#233=ORIENTED_EDGE('',*,*,#350,.T.);
#234=ORIENTED_EDGE('',*,*,#351,.F.);
#235=ORIENTED_EDGE('',*,*,#342,.T.);
#236=ORIENTED_EDGE('',*,*,#352,.T.);
#237=ORIENTED_EDGE('',*,*,#346,.T.);
#238=ORIENTED_EDGE('',*,*,#344,.T.);
#239=ORIENTED_EDGE('',*,*,#348,.T.);
#240=ORIENTED_EDGE('',*,*,#316,.T.);
#241=ORIENTED_EDGE('',*,*,#353,.T.);
#242=ORIENTED_EDGE('',*,*,#350,.F.);
#243=ORIENTED_EDGE('',*,*,#353,.F.);
#244=ORIENTED_EDGE('',*,*,#315,.F.);
#245=ORIENTED_EDGE('',*,*,#343,.T.);
#246=ORIENTED_EDGE('',*,*,#351,.T.);
#247=ORIENTED_EDGE('',*,*,#320,.T.);
#248=ORIENTED_EDGE('',*,*,#347,.T.);
#249=ORIENTED_EDGE('',*,*,#352,.F.);
#250=ORIENTED_EDGE('',*,*,#341,.F.);
#251=ORIENTED_EDGE('',*,*,#328,.F.);
#252=ORIENTED_EDGE('',*,*,#354,.F.);
#253=ORIENTED_EDGE('',*,*,#355,.T.);
#254=ORIENTED_EDGE('',*,*,#356,.T.);
#255=ORIENTED_EDGE('',*,*,#357,.T.);
#256=ORIENTED_EDGE('',*,*,#358,.F.);
#257=ORIENTED_EDGE('',*,*,#359,.F.);
#258=ORIENTED_EDGE('',*,*,#360,.T.);
#259=ORIENTED_EDGE('',*,*,#330,.T.);
#260=ORIENTED_EDGE('',*,*,#361,.F.);
#261=ORIENTED_EDGE('',*,*,#362,.F.);
#262=ORIENTED_EDGE('',*,*,#363,.F.);
#263=ORIENTED_EDGE('',*,*,#355,.F.);
#264=ORIENTED_EDGE('',*,*,#364,.F.);
#265=ORIENTED_EDGE('',*,*,#359,.T.);
#266=ORIENTED_EDGE('',*,*,#365,.T.);
#267=ORIENTED_EDGE('',*,*,#323,.T.);
#268=ORIENTED_EDGE('',*,*,#360,.F.);
#269=ORIENTED_EDGE('',*,*,#364,.T.);
#270=ORIENTED_EDGE('',*,*,#354,.T.);
#271=ORIENTED_EDGE('',*,*,#366,.T.);
#272=ORIENTED_EDGE('',*,*,#361,.T.);
#273=ORIENTED_EDGE('',*,*,#329,.T.);
#274=ORIENTED_EDGE('',*,*,#358,.T.);
#275=ORIENTED_EDGE('',*,*,#366,.F.);
#276=ORIENTED_EDGE('',*,*,#357,.F.);
#277=ORIENTED_EDGE('',*,*,#367,.T.);
#278=ORIENTED_EDGE('',*,*,#362,.T.);
#279=ORIENTED_EDGE('',*,*,#356,.F.);
#280=ORIENTED_EDGE('',*,*,#365,.F.);
#281=ORIENTED_EDGE('',*,*,#363,.T.);
#282=ORIENTED_EDGE('',*,*,#367,.F.);
#283=EDGE_CURVE('',#368,#368,#434,.T.);
#284=EDGE_CURVE('',#369,#369,#435,.T.);
#285=EDGE_CURVE('',#370,#370,#105,.T.);
#286=EDGE_CURVE('',#371,#371,#106,.T.);
#287=EDGE_CURVE('',#372,#373,#436,.F.);
#288=EDGE_CURVE('',#373,#372,#437,.F.);
#289=EDGE_CURVE('',#374,#375,#17,.T.);
#290=EDGE_CURVE('',#374,#376,#438,.F.);
#291=EDGE_CURVE('',#377,#376,#18,.T.);
#292=EDGE_CURVE('',#377,#375,#439,.T.);
#293=EDGE_CURVE('',#378,#378,#440,.T.);
#294=EDGE_CURVE('',#379,#379,#441,.T.);
#295=EDGE_CURVE('',#380,#381,#442,.T.);
#296=EDGE_CURVE('',#381,#380,#443,.T.);
#297=EDGE_CURVE('',#382,#382,#444,.T.);
#298=EDGE_CURVE('',#383,#383,#445,.T.);
#299=EDGE_CURVE('',#384,#384,#446,.T.);
#300=EDGE_CURVE('',#385,#385,#447,.T.);
#301=EDGE_CURVE('',#386,#386,#448,.T.);
#302=EDGE_CURVE('',#387,#387,#449,.T.);
#303=EDGE_CURVE('',#388,#388,#450,.T.);
#304=EDGE_CURVE('',#389,#389,#451,.T.);
#305=EDGE_CURVE('',#390,#390,#452,.T.);
#306=EDGE_CURVE('',#391,#391,#453,.T.);
#307=EDGE_CURVE('',#392,#392,#454,.T.);
#308=EDGE_CURVE('',#393,#394,#19,.F.);
#309=EDGE_CURVE('',#394,#395,#455,.F.);
#310=EDGE_CURVE('',#395,#396,#12,.F.);
#311=EDGE_CURVE('',#396,#393,#13,.F.);
#312=EDGE_CURVE('',#397,#397,#456,.T.);
#313=EDGE_CURVE('',#398,#398,#457,.F.);
#314=EDGE_CURVE('',#399,#400,#107,.T.);
#315=EDGE_CURVE('',#399,#401,#20,.T.);
#316=EDGE_CURVE('',#402,#401,#458,.F.);
#317=EDGE_CURVE('',#402,#376,#21,.T.);
#318=EDGE_CURVE('',#403,#374,#22,.T.);
#319=EDGE_CURVE('',#404,#403,#459,.F.);
#320=EDGE_CURVE('',#400,#404,#23,.T.);
#321=EDGE_CURVE('',#405,#406,#460,.T.);
#322=EDGE_CURVE('',#407,#406,#24,.T.);
#323=EDGE_CURVE('',#408,#407,#25,.T.);
#324=EDGE_CURVE('',#409,#408,#26,.T.);
#325=EDGE_CURVE('',#410,#409,#27,.T.);
#326=EDGE_CURVE('',#410,#394,#28,.T.);
#327=EDGE_CURVE('',#405,#393,#29,.T.);
#328=EDGE_CURVE('',#408,#411,#108,.T.);
#329=EDGE_CURVE('',#412,#411,#14,.T.);
#330=EDGE_CURVE('',#407,#412,#109,.T.);
#331=EDGE_CURVE('',#406,#405,#110,.T.);
#332=EDGE_CURVE('',#413,#395,#30,.T.);
#333=EDGE_CURVE('',#409,#413,#461,.T.);
#334=EDGE_CURVE('',#414,#414,#111,.T.);
#335=EDGE_CURVE('',#413,#410,#31,.T.);
#336=EDGE_CURVE('',#415,#415,#462,.T.);
#337=EDGE_CURVE('',#416,#416,#463,.T.);
#338=EDGE_CURVE('',#417,#417,#464,.T.);
#339=EDGE_CURVE('',#418,#418,#465,.T.);
#340=EDGE_CURVE('',#419,#419,#466,.T.);
#341=EDGE_CURVE('',#400,#420,#32,.T.);
#342=EDGE_CURVE('',#421,#420,#112,.T.);
#343=EDGE_CURVE('',#399,#421,#33,.T.);
#344=EDGE_CURVE('',#422,#375,#34,.T.);
#345=EDGE_CURVE('',#403,#422,#35,.T.);
#346=EDGE_CURVE('',#423,#422,#467,.T.);
#347=EDGE_CURVE('',#404,#423,#36,.T.);
#348=EDGE_CURVE('',#424,#402,#37,.T.);
#349=EDGE_CURVE('',#424,#377,#38,.T.);
#350=EDGE_CURVE('',#424,#425,#468,.T.);
#351=EDGE_CURVE('',#421,#425,#39,.T.);
#352=EDGE_CURVE('',#420,#423,#40,.T.);
#353=EDGE_CURVE('',#401,#425,#41,.T.);
#354=EDGE_CURVE('',#426,#408,#469,.T.);
#355=EDGE_CURVE('',#426,#427,#42,.T.);
#356=EDGE_CURVE('',#427,#428,#470,.T.);
#357=EDGE_CURVE('',#428,#429,#43,.T.);
#358=EDGE_CURVE('',#411,#429,#15,.F.);
#359=EDGE_CURVE('',#430,#431,#44,.T.);
#360=EDGE_CURVE('',#430,#407,#471,.T.);
#361=EDGE_CURVE('',#432,#412,#16,.T.);
#362=EDGE_CURVE('',#433,#432,#45,.T.);
#363=EDGE_CURVE('',#431,#433,#472,.T.);
#364=EDGE_CURVE('',#430,#426,#46,.T.);
#365=EDGE_CURVE('',#431,#427,#47,.T.);
#366=EDGE_CURVE('',#429,#432,#48,.T.);
#367=EDGE_CURVE('',#428,#433,#49,.T.);
#368=VERTEX_POINT('',#993);
#369=VERTEX_POINT('',#995);
#370=VERTEX_POINT('',#1007);
#371=VERTEX_POINT('',#1019);
#372=VERTEX_POINT('',#1022);
#373=VERTEX_POINT('',#1023);
#374=VERTEX_POINT('',#1026);
#375=VERTEX_POINT('',#1027);
#376=VERTEX_POINT('',#1029);
#377=VERTEX_POINT('',#1031);
#378=VERTEX_POINT('',#1035);
#379=VERTEX_POINT('',#1037);
#380=VERTEX_POINT('',#1039);
#381=VERTEX_POINT('',#1040);
#382=VERTEX_POINT('',#1043);
#383=VERTEX_POINT('',#1045);
#384=VERTEX_POINT('',#1047);
#385=VERTEX_POINT('',#1050);
#386=VERTEX_POINT('',#1052);
#387=VERTEX_POINT('',#1055);
#388=VERTEX_POINT('',#1057);
#389=VERTEX_POINT('',#1060);
#390=VERTEX_POINT('',#1062);
#391=VERTEX_POINT('',#1065);
#392=VERTEX_POINT('',#1067);
#393=VERTEX_POINT('',#1070);
#394=VERTEX_POINT('',#1071);
#395=VERTEX_POINT('',#1073);
#396=VERTEX_POINT('',#1075);
#397=VERTEX_POINT('',#1079);
#398=VERTEX_POINT('',#1081);
#399=VERTEX_POINT('',#1094);
#400=VERTEX_POINT('',#1095);
#401=VERTEX_POINT('',#1097);
#402=VERTEX_POINT('',#1099);
#403=VERTEX_POINT('',#1102);
#404=VERTEX_POINT('',#1104);
#405=VERTEX_POINT('',#1108);
#406=VERTEX_POINT('',#1109);
#407=VERTEX_POINT('',#1111);
#408=VERTEX_POINT('',#1113);
#409=VERTEX_POINT('',#1115);
#410=VERTEX_POINT('',#1117);
#411=VERTEX_POINT('',#1139);
#412=VERTEX_POINT('',#1141);
#413=VERTEX_POINT('',#1168);
#414=VERTEX_POINT('',#1181);
#415=VERTEX_POINT('',#1187);
#416=VERTEX_POINT('',#1190);
#417=VERTEX_POINT('',#1194);
#418=VERTEX_POINT('',#1198);
#419=VERTEX_POINT('',#1202);
#420=VERTEX_POINT('',#1208);
#421=VERTEX_POINT('',#1213);
#422=VERTEX_POINT('',#1217);
#423=VERTEX_POINT('',#1221);
#424=VERTEX_POINT('',#1225);
#425=VERTEX_POINT('',#1229);
#426=VERTEX_POINT('',#1238);
#427=VERTEX_POINT('',#1240);
#428=VERTEX_POINT('',#1242);
#429=VERTEX_POINT('',#1244);
#430=VERTEX_POINT('',#1248);
#431=VERTEX_POINT('',#1249);
#432=VERTEX_POINT('',#1252);
#433=VERTEX_POINT('',#1254);
#434=CIRCLE('',#701,0.0145);
#435=CIRCLE('',#702,0.0145);
#436=CIRCLE('',#704,0.0175);
#437=CIRCLE('',#705,0.0175);
#438=CIRCLE('',#706,0.0145);
#439=CIRCLE('',#707,0.0155);
#440=CIRCLE('',#709,0.003);
#441=CIRCLE('',#710,0.003);
#442=CIRCLE('',#711,0.0175);
#443=CIRCLE('',#712,0.0175);
#444=CIRCLE('',#713,0.004);
#445=CIRCLE('',#714,0.003);
#446=CIRCLE('',#715,0.003);
#447=CIRCLE('',#717,0.00175);
#448=CIRCLE('',#718,0.00175);
#449=CIRCLE('',#720,0.00175);
#450=CIRCLE('',#721,0.00175);
#451=CIRCLE('',#723,0.00175);
#452=CIRCLE('',#724,0.00175);
#453=CIRCLE('',#726,0.00175);
#454=CIRCLE('',#727,0.00175);
#455=CIRCLE('',#729,0.0175);
#456=CIRCLE('',#733,0.004);
#457=CIRCLE('',#734,0.0145);
#458=CIRCLE('',#736,0.0145);
#459=CIRCLE('',#737,0.0145);
#460=CIRCLE('',#739,0.00245);
#461=CIRCLE('',#743,0.0175);
#462=CIRCLE('',#747,0.003);
#463=CIRCLE('',#749,0.003);
#464=CIRCLE('',#752,0.003);
#465=CIRCLE('',#755,0.003);
#466=CIRCLE('',#758,0.003);
#467=CIRCLE('',#765,0.0155);
#468=CIRCLE('',#768,0.0155);
#469=CIRCLE('',#773,0.046);
#470=CIRCLE('',#774,0.046);
#471=CIRCLE('',#777,0.043);
#472=CIRCLE('',#779,0.043);
#473=EDGE_LOOP('',(#113));
#474=EDGE_LOOP('',(#114));
#475=EDGE_LOOP('',(#115));
#476=EDGE_LOOP('',(#116));
#477=EDGE_LOOP('',(#117,#118));
#478=EDGE_LOOP('',(#119,#120,#121,#122));
#479=EDGE_LOOP('',(#123));
#480=EDGE_LOOP('',(#124));
#481=EDGE_LOOP('',(#125,#126));
#482=EDGE_LOOP('',(#127));
#483=EDGE_LOOP('',(#128));
#484=EDGE_LOOP('',(#129));
#485=EDGE_LOOP('',(#130));
#486=EDGE_LOOP('',(#131));
#487=EDGE_LOOP('',(#132));
#488=EDGE_LOOP('',(#133));
#489=EDGE_LOOP('',(#134));
#490=EDGE_LOOP('',(#135));
#491=EDGE_LOOP('',(#136));
#492=EDGE_LOOP('',(#137));
#493=EDGE_LOOP('',(#138,#139,#140,#141));
#494=EDGE_LOOP('',(#142,#143));
#495=EDGE_LOOP('',(#144,#145));
#496=EDGE_LOOP('',(#146));
#497=EDGE_LOOP('',(#147));
#498=EDGE_LOOP('',(#148));
#499=EDGE_LOOP('',(#149));
#500=EDGE_LOOP('',(#150));
#501=EDGE_LOOP('',(#151));
#502=EDGE_LOOP('',(#152,#153,#154,#155,#156,#157,#158,#159));
#503=EDGE_LOOP('',(#160));
#504=EDGE_LOOP('',(#161,#162,#163,#164,#165,#166,#167,#168));
#505=EDGE_LOOP('',(#169));
#506=EDGE_LOOP('',(#170));
#507=EDGE_LOOP('',(#171,#172,#173,#174,#175,#176,#177,#178,#179,#180,#181));
#508=EDGE_LOOP('',(#182));
#509=EDGE_LOOP('',(#183,#184,#185,#186));
#510=EDGE_LOOP('',(#187));
#511=EDGE_LOOP('',(#188,#189,#190));
#512=EDGE_LOOP('',(#191));
#513=EDGE_LOOP('',(#192));
#514=EDGE_LOOP('',(#193));
#515=EDGE_LOOP('',(#194));
#516=EDGE_LOOP('',(#195));
#517=EDGE_LOOP('',(#196));
#518=EDGE_LOOP('',(#197));
#519=EDGE_LOOP('',(#198));
#520=EDGE_LOOP('',(#199));
#521=EDGE_LOOP('',(#200));
#522=EDGE_LOOP('',(#201));
#523=EDGE_LOOP('',(#202));
#524=EDGE_LOOP('',(#203));
#525=EDGE_LOOP('',(#204));
#526=EDGE_LOOP('',(#205));
#527=EDGE_LOOP('',(#206));
#528=EDGE_LOOP('',(#207));
#529=EDGE_LOOP('',(#208));
#530=EDGE_LOOP('',(#209,#210));
#531=EDGE_LOOP('',(#211));
#532=EDGE_LOOP('',(#212));
#533=EDGE_LOOP('',(#213));
#534=EDGE_LOOP('',(#214));
#535=EDGE_LOOP('',(#215,#216,#217,#218));
#536=EDGE_LOOP('',(#219,#220,#221,#222));
#537=EDGE_LOOP('',(#223,#224,#225,#226));
#538=EDGE_LOOP('',(#227,#228,#229,#230));
#539=EDGE_LOOP('',(#231,#232,#233,#234,#235,#236,#237,#238));
#540=EDGE_LOOP('',(#239,#240,#241,#242));
#541=EDGE_LOOP('',(#243,#244,#245,#246));
#542=EDGE_LOOP('',(#247,#248,#249,#250));
#543=EDGE_LOOP('',(#251,#252,#253,#254,#255,#256));
#544=EDGE_LOOP('',(#257,#258,#259,#260,#261,#262));
#545=EDGE_LOOP('',(#263,#264,#265,#266));
#546=EDGE_LOOP('',(#267,#268,#269,#270));
#547=EDGE_LOOP('',(#271,#272,#273,#274));
#548=EDGE_LOOP('',(#275,#276,#277,#278));
#549=EDGE_LOOP('',(#279,#280,#281,#282));
#550=FACE_BOUND('',#473,.T.);
#551=FACE_BOUND('',#474,.T.);
#552=FACE_BOUND('',#475,.T.);
#553=FACE_BOUND('',#476,.T.);
#554=FACE_BOUND('',#477,.T.);
#555=FACE_BOUND('',#478,.T.);
#556=FACE_BOUND('',#479,.T.);
#557=FACE_BOUND('',#480,.T.);
#558=FACE_BOUND('',#481,.T.);
#559=FACE_BOUND('',#482,.T.);
#560=FACE_BOUND('',#483,.T.);
#561=FACE_BOUND('',#484,.T.);
#562=FACE_BOUND('',#485,.T.);
#563=FACE_BOUND('',#486,.T.);
#564=FACE_BOUND('',#487,.T.);
#565=FACE_BOUND('',#488,.T.);
#566=FACE_BOUND('',#489,.T.);
#567=FACE_BOUND('',#490,.T.);
#568=FACE_BOUND('',#491,.T.);
#569=FACE_BOUND('',#492,.T.);
#570=FACE_BOUND('',#493,.T.);
#571=FACE_BOUND('',#494,.T.);
#572=FACE_BOUND('',#495,.T.);
#573=FACE_BOUND('',#496,.T.);
#574=FACE_BOUND('',#497,.T.);
#575=FACE_BOUND('',#498,.T.);
#576=FACE_BOUND('',#499,.T.);
#577=FACE_BOUND('',#500,.T.);
#578=FACE_BOUND('',#501,.T.);
#579=FACE_BOUND('',#502,.T.);
#580=FACE_BOUND('',#503,.T.);
#581=FACE_BOUND('',#504,.T.);
#582=FACE_BOUND('',#505,.T.);
#583=FACE_BOUND('',#506,.T.);
#584=FACE_BOUND('',#507,.T.);
#585=FACE_BOUND('',#508,.T.);
#586=FACE_BOUND('',#509,.T.);
#587=FACE_BOUND('',#510,.T.);
#588=FACE_BOUND('',#511,.T.);
#589=FACE_BOUND('',#512,.T.);
#590=FACE_BOUND('',#513,.T.);
#591=FACE_BOUND('',#514,.T.);
#592=FACE_BOUND('',#515,.T.);
#593=FACE_BOUND('',#516,.T.);
#594=FACE_BOUND('',#517,.T.);
#595=FACE_BOUND('',#518,.T.);
#596=FACE_BOUND('',#519,.T.);
#597=FACE_BOUND('',#520,.T.);
#598=FACE_BOUND('',#521,.T.);
#599=FACE_BOUND('',#522,.T.);
#600=FACE_BOUND('',#523,.T.);
#601=FACE_BOUND('',#524,.T.);
#602=FACE_BOUND('',#525,.T.);
#603=FACE_BOUND('',#526,.T.);
#604=FACE_BOUND('',#527,.T.);
#605=FACE_BOUND('',#528,.T.);
#606=FACE_BOUND('',#529,.T.);
#607=FACE_BOUND('',#530,.T.);
#608=FACE_BOUND('',#531,.T.);
#609=FACE_BOUND('',#532,.T.);
#610=FACE_BOUND('',#533,.T.);
#611=FACE_BOUND('',#534,.T.);
#612=FACE_BOUND('',#535,.T.);
#613=FACE_BOUND('',#536,.T.);
#614=FACE_BOUND('',#537,.T.);
#615=FACE_BOUND('',#538,.T.);
#616=FACE_BOUND('',#539,.T.);
#617=FACE_BOUND('',#540,.T.);
#618=FACE_BOUND('',#541,.T.);
#619=FACE_BOUND('',#542,.T.);
#620=FACE_BOUND('',#543,.T.);
#621=FACE_BOUND('',#544,.T.);
#622=FACE_BOUND('',#545,.T.);
#623=FACE_BOUND('',#546,.T.);
#624=FACE_BOUND('',#547,.T.);
#625=FACE_BOUND('',#548,.T.);
#626=FACE_BOUND('',#549,.T.);
#627=CYLINDRICAL_SURFACE('',#700,0.0145);
#628=CYLINDRICAL_SURFACE('',#716,0.00175);
#629=CYLINDRICAL_SURFACE('',#719,0.00175);
#630=CYLINDRICAL_SURFACE('',#722,0.00175);
#631=CYLINDRICAL_SURFACE('',#725,0.00175);
#632=CYLINDRICAL_SURFACE('',#728,0.0175);
#633=CYLINDRICAL_SURFACE('',#735,0.0145);
#634=CYLINDRICAL_SURFACE('',#740,0.004);
#635=CYLINDRICAL_SURFACE('',#741,0.0175);
#636=CYLINDRICAL_SURFACE('',#748,0.003);
#637=CYLINDRICAL_SURFACE('',#751,0.003);
#638=CYLINDRICAL_SURFACE('',#754,0.003);
#639=CYLINDRICAL_SURFACE('',#757,0.003);
#640=CYLINDRICAL_SURFACE('',#760,0.00245);
#641=CYLINDRICAL_SURFACE('',#761,0.00245);
#642=CYLINDRICAL_SURFACE('',#762,0.003);
#643=CYLINDRICAL_SURFACE('',#767,0.0155);
#644=CYLINDRICAL_SURFACE('',#772,0.046);
#645=CYLINDRICAL_SURFACE('',#776,0.043);
#646=ADVANCED_FACE('',(#550,#551,#552,#553),#627,.F.);
#647=ADVANCED_FACE('',(#554,#555),#83,.F.);
#648=ADVANCED_FACE('',(#556,#557,#558,#559,#560,#561),#84,.T.);
#649=ADVANCED_FACE('',(#562,#563),#628,.F.);
#650=ADVANCED_FACE('',(#564,#565),#629,.F.);
#651=ADVANCED_FACE('',(#566,#567),#630,.F.);
#652=ADVANCED_FACE('',(#568,#569),#631,.F.);
#653=ADVANCED_FACE('',(#570,#571,#572),#632,.T.);
#654=ADVANCED_FACE('',(#573,#574,#575,#576,#577,#578),#85,.F.);
#655=ADVANCED_FACE('',(#579,#580),#633,.F.);
#656=ADVANCED_FACE('',(#581),#86,.T.);
#657=ADVANCED_FACE('',(#582,#583),#634,.F.);
#658=ADVANCED_FACE('',(#584,#585),#635,.T.);
#659=ADVANCED_FACE('',(#586),#87,.T.);
#660=ADVANCED_FACE('',(#587,#588),#88,.F.);
#661=ADVANCED_FACE('',(#589,#590),#89,.F.);
#662=ADVANCED_FACE('',(#591,#592),#636,.F.);
#663=ADVANCED_FACE('',(#593,#594),#90,.T.);
#664=ADVANCED_FACE('',(#595,#596),#637,.F.);
#665=ADVANCED_FACE('',(#597,#598),#91,.T.);
#666=ADVANCED_FACE('',(#599,#600),#638,.F.);
#667=ADVANCED_FACE('',(#601,#602),#92,.T.);
#668=ADVANCED_FACE('',(#603,#604),#639,.F.);
#669=ADVANCED_FACE('',(#605,#606),#93,.T.);
#670=ADVANCED_FACE('',(#607,#608),#640,.F.);
#671=ADVANCED_FACE('',(#609,#610),#641,.F.);
#672=ADVANCED_FACE('',(#611,#612),#642,.F.);
#673=ADVANCED_FACE('',(#613),#94,.T.);
#674=ADVANCED_FACE('',(#614),#95,.T.);
#675=ADVANCED_FACE('',(#615),#96,.T.);
#676=ADVANCED_FACE('',(#616),#643,.F.);
#677=ADVANCED_FACE('',(#617),#97,.T.);
#678=ADVANCED_FACE('',(#618),#98,.F.);
#679=ADVANCED_FACE('',(#619),#99,.T.);
#680=ADVANCED_FACE('',(#620),#644,.T.);
#681=ADVANCED_FACE('',(#621),#645,.F.);
#682=ADVANCED_FACE('',(#622),#100,.T.);
#683=ADVANCED_FACE('',(#623),#101,.F.);
#684=ADVANCED_FACE('',(#624),#102,.T.);
#685=ADVANCED_FACE('',(#625),#103,.F.);
#686=ADVANCED_FACE('',(#626),#104,.T.);
#687=CLOSED_SHELL('',(#646,#647,#648,#649,#650,#651,#652,#653,#654,#655,
#656,#657,#658,#659,#660,#661,#662,#663,#664,#665,#666,#667,#668,#669,#670,
#671,#672,#673,#674,#675,#676,#677,#678,#679,#680,#681,#682,#683,#684,#685,
#686));
#688=STYLED_ITEM('',(#689),#696);
#689=PRESENTATION_STYLE_ASSIGNMENT((#690));
#690=SURFACE_STYLE_USAGE(.BOTH.,#691);
#691=SURFACE_SIDE_STYLE('',(#692));
#692=SURFACE_STYLE_FILL_AREA(#693);
#693=FILL_AREA_STYLE('',(#694));
#694=FILL_AREA_STYLE_COLOUR('',#695);
#695=COLOUR_RGB('',0.901960784313726,0.901960784313726,0.901960784313726);
#696=MANIFOLD_SOLID_BREP('Bracket-Mirrored',#687);
#697=SHAPE_DEFINITION_REPRESENTATION(#1271,#698);
#698=SHAPE_REPRESENTATION('Bracket-Mirrored',(#699),#1266);
#699=AXIS2_PLACEMENT_3D('',#990,#785,#786);
#700=AXIS2_PLACEMENT_3D('',#991,#787,#788);
#701=AXIS2_PLACEMENT_3D('',#992,#789,#790);
#702=AXIS2_PLACEMENT_3D('',#994,#791,#792);
#703=AXIS2_PLACEMENT_3D('',#1020,#793,#794);
#704=AXIS2_PLACEMENT_3D('',#1021,#795,#796);
#705=AXIS2_PLACEMENT_3D('',#1024,#797,#798);
#706=AXIS2_PLACEMENT_3D('',#1028,#800,#801);
#707=AXIS2_PLACEMENT_3D('',#1032,#803,#804);
#708=AXIS2_PLACEMENT_3D('',#1033,#805,#806);
#709=AXIS2_PLACEMENT_3D('',#1034,#807,#808);
#710=AXIS2_PLACEMENT_3D('',#1036,#809,#810);
#711=AXIS2_PLACEMENT_3D('',#1038,#811,#812);
#712=AXIS2_PLACEMENT_3D('',#1041,#813,#814);
#713=AXIS2_PLACEMENT_3D('',#1042,#815,#816);
#714=AXIS2_PLACEMENT_3D('',#1044,#817,#818);
#715=AXIS2_PLACEMENT_3D('',#1046,#819,#820);
#716=AXIS2_PLACEMENT_3D('',#1048,#821,#822);
#717=AXIS2_PLACEMENT_3D('',#1049,#823,#824);
#718=AXIS2_PLACEMENT_3D('',#1051,#825,#826);
#719=AXIS2_PLACEMENT_3D('',#1053,#827,#828);
#720=AXIS2_PLACEMENT_3D('',#1054,#829,#830);
#721=AXIS2_PLACEMENT_3D('',#1056,#831,#832);
#722=AXIS2_PLACEMENT_3D('',#1058,#833,#834);
#723=AXIS2_PLACEMENT_3D('',#1059,#835,#836);
#724=AXIS2_PLACEMENT_3D('',#1061,#837,#838);
#725=AXIS2_PLACEMENT_3D('',#1063,#839,#840);
#726=AXIS2_PLACEMENT_3D('',#1064,#841,#842);
#727=AXIS2_PLACEMENT_3D('',#1066,#843,#844);
#728=AXIS2_PLACEMENT_3D('',#1068,#845,#846);
#729=AXIS2_PLACEMENT_3D('',#1072,#848,#849);
#730=AXIS2_PLACEMENT_3D('',#1074,#850,#851);
#731=AXIS2_PLACEMENT_3D('',#1076,#852,#853);
#732=AXIS2_PLACEMENT_3D('',#1077,#854,#855);
#733=AXIS2_PLACEMENT_3D('',#1078,#856,#857);
#734=AXIS2_PLACEMENT_3D('',#1080,#858,#859);
#735=AXIS2_PLACEMENT_3D('',#1082,#860,#861);
#736=AXIS2_PLACEMENT_3D('',#1098,#863,#864);
#737=AXIS2_PLACEMENT_3D('',#1103,#867,#868);
#738=AXIS2_PLACEMENT_3D('',#1106,#870,#871);
#739=AXIS2_PLACEMENT_3D('',#1107,#872,#873);
#740=AXIS2_PLACEMENT_3D('',#1120,#880,#881);
#741=AXIS2_PLACEMENT_3D('',#1121,#882,#883);
#742=AXIS2_PLACEMENT_3D('',#1140,#884,#885);
#743=AXIS2_PLACEMENT_3D('',#1169,#887,#888);
#744=AXIS2_PLACEMENT_3D('',#1182,#889,#890);
#745=AXIS2_PLACEMENT_3D('',#1184,#892,#893);
#746=AXIS2_PLACEMENT_3D('',#1185,#894,#895);
#747=AXIS2_PLACEMENT_3D('',#1186,#896,#897);
#748=AXIS2_PLACEMENT_3D('',#1188,#898,#899);
#749=AXIS2_PLACEMENT_3D('',#1189,#900,#901);
#750=AXIS2_PLACEMENT_3D('',#1191,#902,#903);
#751=AXIS2_PLACEMENT_3D('',#1192,#904,#905);
#752=AXIS2_PLACEMENT_3D('',#1193,#906,#907);
#753=AXIS2_PLACEMENT_3D('',#1195,#908,#909);
#754=AXIS2_PLACEMENT_3D('',#1196,#910,#911);
#755=AXIS2_PLACEMENT_3D('',#1197,#912,#913);
#756=AXIS2_PLACEMENT_3D('',#1199,#914,#915);
#757=AXIS2_PLACEMENT_3D('',#1200,#916,#917);
#758=AXIS2_PLACEMENT_3D('',#1201,#918,#919);
#759=AXIS2_PLACEMENT_3D('',#1203,#920,#921);
#760=AXIS2_PLACEMENT_3D('',#1204,#922,#923);
#761=AXIS2_PLACEMENT_3D('',#1205,#924,#925);
#762=AXIS2_PLACEMENT_3D('',#1206,#926,#927);
#763=AXIS2_PLACEMENT_3D('',#1215,#930,#931);
#764=AXIS2_PLACEMENT_3D('',#1219,#934,#935);
#765=AXIS2_PLACEMENT_3D('',#1220,#936,#937);
#766=AXIS2_PLACEMENT_3D('',#1223,#939,#940);
#767=AXIS2_PLACEMENT_3D('',#1227,#943,#944);
#768=AXIS2_PLACEMENT_3D('',#1228,#945,#946);
#769=AXIS2_PLACEMENT_3D('',#1232,#949,#950);
#770=AXIS2_PLACEMENT_3D('',#1234,#952,#953);
#771=AXIS2_PLACEMENT_3D('',#1235,#954,#955);
#772=AXIS2_PLACEMENT_3D('',#1236,#956,#957);
#773=AXIS2_PLACEMENT_3D('',#1237,#958,#959);
#774=AXIS2_PLACEMENT_3D('',#1241,#961,#962);
#775=AXIS2_PLACEMENT_3D('',#1245,#964,#965);
#776=AXIS2_PLACEMENT_3D('',#1246,#966,#967);
#777=AXIS2_PLACEMENT_3D('',#1250,#969,#970);
#778=AXIS2_PLACEMENT_3D('',#1251,#971,#972);
#779=AXIS2_PLACEMENT_3D('',#1255,#974,#975);
#780=AXIS2_PLACEMENT_3D('',#1256,#976,#977);
#781=AXIS2_PLACEMENT_3D('',#1259,#980,#981);
#782=AXIS2_PLACEMENT_3D('',#1260,#982,#983);
#783=AXIS2_PLACEMENT_3D('',#1262,#985,#986);
#784=AXIS2_PLACEMENT_3D('',#1264,#988,#989);
#785=DIRECTION('',(0.,0.,1.));
#786=DIRECTION('',(1.,0.,0.));
#787=DIRECTION('',(0.,-1.,0.));
#788=DIRECTION('',(1.,0.,0.));
#789=DIRECTION('',(0.,1.,0.));
#790=DIRECTION('',(1.,0.,0.));
#791=DIRECTION('',(0.,1.,0.));
#792=DIRECTION('',(1.,0.,0.));
#793=DIRECTION('',(1.,0.,0.));
#794=DIRECTION('',(0.,1.,0.));
#795=DIRECTION('',(-1.,0.,0.));
#796=DIRECTION('',(0.,1.,0.));
#797=DIRECTION('',(-1.,0.,0.));
#798=DIRECTION('',(0.,1.,0.));
#799=DIRECTION('',(0.,0.,1.));
#800=DIRECTION('',(-1.,0.,0.));
#801=DIRECTION('',(0.,1.,0.));
#802=DIRECTION('',(0.,0.,1.));
#803=DIRECTION('',(1.,0.,0.));
#804=DIRECTION('',(0.,-1.,0.));
#805=DIRECTION('',(1.,0.,0.));
#806=DIRECTION('',(0.,1.,0.));
#807=DIRECTION('',(-1.,0.,0.));
#808=DIRECTION('',(0.,1.,0.));
#809=DIRECTION('',(1.,0.,0.));
#810=DIRECTION('',(0.,1.,0.));
#811=DIRECTION('',(-1.,0.,0.));
#812=DIRECTION('',(0.,1.,0.));
#813=DIRECTION('',(-1.,0.,0.));
#814=DIRECTION('',(0.,1.,0.));
#815=DIRECTION('',(-1.,0.,0.));
#816=DIRECTION('',(0.,1.,0.));
#817=DIRECTION('',(1.,0.,0.));
#818=DIRECTION('',(0.,1.,0.));
#819=DIRECTION('',(-1.,0.,0.));
#820=DIRECTION('',(0.,1.,0.));
#821=DIRECTION('',(1.,0.,0.));
#822=DIRECTION('',(0.,1.,0.));
#823=DIRECTION('',(-1.,0.,0.));
#824=DIRECTION('',(0.,1.,0.));
#825=DIRECTION('',(-1.,0.,0.));
#826=DIRECTION('',(0.,1.,0.));
#827=DIRECTION('',(1.,0.,0.));
#828=DIRECTION('',(0.,1.,0.));
#829=DIRECTION('',(-1.,0.,0.));
#830=DIRECTION('',(0.,1.,0.));
#831=DIRECTION('',(-1.,0.,0.));
#832=DIRECTION('',(0.,1.,0.));
#833=DIRECTION('',(1.,0.,0.));
#834=DIRECTION('',(0.,1.,0.));
#835=DIRECTION('',(-1.,0.,0.));
#836=DIRECTION('',(0.,1.,0.));
#837=DIRECTION('',(-1.,0.,0.));
#838=DIRECTION('',(0.,1.,0.));
#839=DIRECTION('',(1.,0.,0.));
#840=DIRECTION('',(0.,1.,0.));
#841=DIRECTION('',(-1.,0.,0.));
#842=DIRECTION('',(0.,1.,0.));
#843=DIRECTION('',(-1.,0.,0.));
#844=DIRECTION('',(0.,1.,0.));
#845=DIRECTION('',(1.,0.,0.));
#846=DIRECTION('',(0.,1.,0.));
#847=DIRECTION('',(1.,0.,0.));
#848=DIRECTION('',(1.,0.,0.));
#849=DIRECTION('',(0.,-1.,0.));
#850=DIRECTION('',(0.707106781186548,0.707106781186548,0.));
#851=DIRECTION('',(-0.707106781186548,0.707106781186548,0.));
#852=DIRECTION('',(-0.707106781186548,0.707106781186548,0.));
#853=DIRECTION('',(0.707106781186548,0.707106781186548,0.));
#854=DIRECTION('',(1.,0.,0.));
#855=DIRECTION('',(0.,0.,-1.));
#856=DIRECTION('',(-1.,0.,0.));
#857=DIRECTION('',(0.,1.,0.));
#858=DIRECTION('',(-1.,0.,0.));
#859=DIRECTION('',(0.,1.,0.));
#860=DIRECTION('',(1.,0.,0.));
#861=DIRECTION('',(0.,1.,0.));
#862=DIRECTION('',(-1.,0.,0.));
#863=DIRECTION('',(-1.,0.,0.));
#864=DIRECTION('',(0.,1.,0.));
#865=DIRECTION('',(-1.,0.,0.));
#866=DIRECTION('',(-1.,0.,0.));
#867=DIRECTION('',(-1.,0.,0.));
#868=DIRECTION('',(0.,1.,0.));
#869=DIRECTION('',(-1.,0.,0.));
#870=DIRECTION('',(0.,0.,1.));
#871=DIRECTION('',(0.,1.,0.));
#872=DIRECTION('',(0.,0.,-1.));
#873=DIRECTION('',(0.,1.,0.));
#874=DIRECTION('',(0.,-1.,0.));
#875=DIRECTION('',(0.,-1.,0.));
#876=DIRECTION('',(0.,-1.,0.));
#877=DIRECTION('',(1.,0.,0.));
#878=DIRECTION('',(0.,-1.,0.));
#879=DIRECTION('',(0.,-1.,0.));
#880=DIRECTION('',(1.,0.,0.));
#881=DIRECTION('',(0.,1.,0.));
#882=DIRECTION('',(0.,-1.,0.));
#883=DIRECTION('',(1.,0.,0.));
#884=DIRECTION('',(0.674906116039539,0.737903607886846,-9.73581190285648E-17));
#885=DIRECTION('',(0.737903607886846,-0.674906116039539,-1.06445779021576E-16));
#886=DIRECTION('',(0.,-1.,0.));
#887=DIRECTION('',(0.,1.,0.));
#888=DIRECTION('',(1.,0.,0.));
#889=DIRECTION('',(-1.,0.,0.));
#890=DIRECTION('',(0.,-1.,0.));
#891=DIRECTION('',(0.,0.,1.));
#892=DIRECTION('',(0.,-1.,0.));
#893=DIRECTION('',(1.,0.,0.));
#894=DIRECTION('',(0.,-1.,0.));
#895=DIRECTION('',(1.,0.,0.));
#896=DIRECTION('',(0.,-1.,0.));
#897=DIRECTION('',(-1.,0.,0.));
#898=DIRECTION('',(1.,0.,0.));
#899=DIRECTION('',(0.,1.,0.));
#900=DIRECTION('',(1.,0.,0.));
#901=DIRECTION('',(0.,1.,0.));
#902=DIRECTION('',(1.,0.,0.));
#903=DIRECTION('',(0.,0.,-1.));
#904=DIRECTION('',(1.,0.,0.));
#905=DIRECTION('',(0.,1.,0.));
#906=DIRECTION('',(1.,0.,0.));
#907=DIRECTION('',(0.,1.,0.));
#908=DIRECTION('',(1.,0.,0.));
#909=DIRECTION('',(0.,0.,-1.));
#910=DIRECTION('',(1.,0.,0.));
#911=DIRECTION('',(0.,1.,0.));
#912=DIRECTION('',(-1.,0.,0.));
#913=DIRECTION('',(0.,1.,0.));
#914=DIRECTION('',(1.,0.,0.));
#915=DIRECTION('',(0.,0.,-1.));
#916=DIRECTION('',(1.,0.,0.));
#917=DIRECTION('',(0.,1.,0.));
#918=DIRECTION('',(-1.,0.,0.));
#919=DIRECTION('',(0.,1.,0.));
#920=DIRECTION('',(1.,0.,0.));
#921=DIRECTION('',(0.,0.,-1.));
#922=DIRECTION('',(0.,0.,1.));
#923=DIRECTION('',(0.,1.,0.));
#924=DIRECTION('',(0.,0.,1.));
#925=DIRECTION('',(0.,1.,0.));
#926=DIRECTION('',(0.,1.,0.));
#927=DIRECTION('',(-1.,0.,0.));
#928=DIRECTION('',(0.,1.,0.));
#929=DIRECTION('',(0.,1.,0.));
#930=DIRECTION('',(0.,1.,0.));
#931=DIRECTION('',(-1.,0.,0.));
#932=DIRECTION('',(-1.,0.,0.));
#933=DIRECTION('',(0.,0.,1.));
#934=DIRECTION('',(-1.,0.,0.));
#935=DIRECTION('',(0.,0.,1.));
#936=DIRECTION('',(1.,0.,0.));
#937=DIRECTION('',(0.,-1.,0.));
#938=DIRECTION('',(0.,1.,0.));
#939=DIRECTION('',(0.,1.,0.));
#940=DIRECTION('',(-1.,0.,0.));
#941=DIRECTION('',(0.,0.,1.));
#942=DIRECTION('',(-1.,0.,0.));
#943=DIRECTION('',(-1.,0.,0.));
#944=DIRECTION('',(0.,-1.,0.));
#945=DIRECTION('',(1.,0.,0.));
#946=DIRECTION('',(0.,-1.,0.));
#947=DIRECTION('',(-1.,0.,0.));
#948=DIRECTION('',(-1.,0.,0.));
#949=DIRECTION('',(-1.,0.,0.));
#950=DIRECTION('',(0.,0.,1.));
#951=DIRECTION('',(0.,1.,0.));
#952=DIRECTION('',(0.,0.,-1.));
#953=DIRECTION('',(0.,-1.,0.));
#954=DIRECTION('',(0.,0.,-1.));
#955=DIRECTION('',(0.,-1.,0.));
#956=DIRECTION('',(1.,0.,0.));
#957=DIRECTION('',(0.,1.,0.));
#958=DIRECTION('',(-1.,0.,0.));
#959=DIRECTION('',(0.,1.,0.));
#960=DIRECTION('',(1.,0.,0.));
#961=DIRECTION('',(-1.,0.,0.));
#962=DIRECTION('',(0.,1.,0.));
#963=DIRECTION('',(-1.,0.,0.));
#964=DIRECTION('',(0.674906116039539,0.737903607886846,-9.73581190285648E-17));
#965=DIRECTION('',(0.737903607886846,-0.674906116039539,8.90463053387859E-17));
#966=DIRECTION('',(1.,0.,0.));
#967=DIRECTION('',(0.,1.,0.));
#968=DIRECTION('',(1.,0.,0.));
#969=DIRECTION('',(-1.,0.,0.));
#970=DIRECTION('',(0.,1.,0.));
#971=DIRECTION('',(0.674906116039539,0.737903607886846,-9.73581190285648E-17));
#972=DIRECTION('',(0.737903607886846,-0.674906116039539,8.90463053387859E-17));
#973=DIRECTION('',(-1.,0.,0.));
#974=DIRECTION('',(-1.,0.,0.));
#975=DIRECTION('',(0.,1.,0.));
#976=DIRECTION('',(0.,-0.642787609686538,0.766044443118979));
#977=DIRECTION('',(0.,0.766044443118979,0.642787609686538));
#978=DIRECTION('',(0.,0.766044443118979,0.642787609686538));
#979=DIRECTION('',(0.,0.766044443118979,0.642787609686538));
#980=DIRECTION('',(1.,0.,0.));
#981=DIRECTION('',(0.,0.,-1.));
#982=DIRECTION('',(-0.674906116039539,-0.737903607886846,9.73581190285648E-17));
#983=DIRECTION('',(0.,-1.31938803372126E-16,-1.));
#984=DIRECTION('',(0.,1.31938803372126E-16,1.));
#985=DIRECTION('',(0.,1.,-1.31938803372126E-16));
#986=DIRECTION('',(0.,-1.31938803372126E-16,-1.));
#987=DIRECTION('',(0.,1.31938803372126E-16,1.));
#988=DIRECTION('',(1.,0.,0.));
#989=DIRECTION('',(0.,0.,-1.));
#990=CARTESIAN_POINT('',(0.,0.,0.));
#991=CARTESIAN_POINT('',(0.0269,0.03,-0.0175));
#992=CARTESIAN_POINT('',(0.0269,0.,-0.0175));
#993=CARTESIAN_POINT('',(0.0414,0.,-0.0175));
#994=CARTESIAN_POINT('',(0.0269,0.03,-0.0175));
#995=CARTESIAN_POINT('',(0.0414,0.03,-0.0175));
#996=CARTESIAN_POINT('',(0.0249780542570445,0.0169181886428772,-0.00310374334750012));
#997=CARTESIAN_POINT('',(0.0269004535027455,0.0177157675315023,-0.00294817483635259));
#998=CARTESIAN_POINT('',(0.0288201317319734,0.0169187412311136,-0.00310355730708952));
#999=CARTESIAN_POINT('',(0.0296148432322237,0.0150023830716734,-0.00326093907493925));
#1000=CARTESIAN_POINT('',(0.0288204928951976,0.0130802030179217,-0.00310357519162757));
#1001=CARTESIAN_POINT('',(0.0269007289008595,0.0122854101130028,-0.00294831033153985));
#1002=CARTESIAN_POINT('',(0.0249823550803766,0.0130781576599598,-0.00310318367312594));
#1003=CARTESIAN_POINT('',(0.0241848988359681,0.0149979805289324,-0.00326099034857421));
#1004=CARTESIAN_POINT('',(0.0249780542570445,0.0169181886428772,-0.00310374334750012));
#1005=CARTESIAN_POINT('',(0.0269004535027455,0.0177157675315023,-0.00294817483635259));
#1006=CARTESIAN_POINT('',(0.0288201317319734,0.0169187412311136,-0.00310355730708952));
#1007=CARTESIAN_POINT('',(0.0269,0.01745,-0.003));
#1008=CARTESIAN_POINT('',(0.0288219457429555,0.0169181886428772,-0.0318962566524999));
#1009=CARTESIAN_POINT('',(0.0268995464972545,0.0177157675315023,-0.0320518251636474));
#1010=CARTESIAN_POINT('',(0.0249798682680266,0.0169187412311136,-0.0318964426929105));
#1011=CARTESIAN_POINT('',(0.0241851567677763,0.0150023830716734,-0.0317390609250608));
#1012=CARTESIAN_POINT('',(0.0249795071048023,0.0130802030179217,-0.0318964248083724));
#1013=CARTESIAN_POINT('',(0.0268992710991405,0.0122854101130028,-0.0320516896684602));
#1014=CARTESIAN_POINT('',(0.0288176449196234,0.0130781576599598,-0.0318968163268741));
#1015=CARTESIAN_POINT('',(0.0296151011640319,0.0149979805289324,-0.0317390096514258));
#1016=CARTESIAN_POINT('',(0.0288219457429555,0.0169181886428772,-0.0318962566524999));
#1017=CARTESIAN_POINT('',(0.0268995464972545,0.0177157675315023,-0.0320518251636474));
#1018=CARTESIAN_POINT('',(0.0249798682680266,0.0169187412311136,-0.0318964426929105));
#1019=CARTESIAN_POINT('',(0.0269,0.01745,-0.032));
#1020=CARTESIAN_POINT('',(0.,-0.003,-0.0175));
#1021=CARTESIAN_POINT('',(0.,-0.0175,-0.0175));
#1022=CARTESIAN_POINT('',(0.,-0.0175,-0.035));
#1023=CARTESIAN_POINT('',(0.,-0.0175,0.));
#1024=CARTESIAN_POINT('',(0.,-0.0175,-0.0175));
#1025=CARTESIAN_POINT('',(0.,-0.0175,-0.0175));
#1026=CARTESIAN_POINT('',(0.,-0.0175,-0.003));
#1027=CARTESIAN_POINT('',(0.,-0.0175,-0.002));
#1028=CARTESIAN_POINT('',(0.,-0.0175,-0.0175));
#1029=CARTESIAN_POINT('',(0.,-0.0175,-0.032));
#1030=CARTESIAN_POINT('',(0.,-0.0175,-0.0175));
#1031=CARTESIAN_POINT('',(0.,-0.0175,-0.033));
#1032=CARTESIAN_POINT('',(0.,-0.0175,-0.0175));
#1033=CARTESIAN_POINT('',(0.0538,-0.003,-0.0175));
#1034=CARTESIAN_POINT('',(0.0538,-0.0175,-0.026));
#1035=CARTESIAN_POINT('',(0.0538,-0.0145,-0.026));
#1036=CARTESIAN_POINT('',(0.0538,-0.009,-0.0175));
#1037=CARTESIAN_POINT('',(0.0538,-0.006,-0.0175));
#1038=CARTESIAN_POINT('',(0.0538,-0.0175,-0.0175));
#1039=CARTESIAN_POINT('',(0.0538,-0.0175,-0.035));
#1040=CARTESIAN_POINT('',(0.0538,-0.0175,0.));
#1041=CARTESIAN_POINT('',(0.0538,-0.0175,-0.0175));
#1042=CARTESIAN_POINT('',(0.0538,-0.0175,-0.0175));
#1043=CARTESIAN_POINT('',(0.0538,-0.0135,-0.0175));
#1044=CARTESIAN_POINT('',(0.0538,-0.026,-0.0175));
#1045=CARTESIAN_POINT('',(0.0538,-0.023,-0.0175));
#1046=CARTESIAN_POINT('',(0.0538,-0.0175,-0.009));
#1047=CARTESIAN_POINT('',(0.0538,-0.0145,-0.009));
#1048=CARTESIAN_POINT('',(0.0508,-0.0175,-0.009));
#1049=CARTESIAN_POINT('',(0.0508,-0.0175,-0.009));
#1050=CARTESIAN_POINT('',(0.0508,-0.01575,-0.009));
#1051=CARTESIAN_POINT('',(0.0528,-0.0175,-0.009));
#1052=CARTESIAN_POINT('',(0.0528,-0.01575,-0.009));
#1053=CARTESIAN_POINT('',(0.0508,-0.0175,-0.026));
#1054=CARTESIAN_POINT('',(0.0508,-0.0175,-0.026));
#1055=CARTESIAN_POINT('',(0.0508,-0.01575,-0.026));
#1056=CARTESIAN_POINT('',(0.0528,-0.0175,-0.026));
#1057=CARTESIAN_POINT('',(0.0528,-0.01575,-0.026));
#1058=CARTESIAN_POINT('',(0.0508,-0.026,-0.0175));
#1059=CARTESIAN_POINT('',(0.0508,-0.026,-0.0175));
#1060=CARTESIAN_POINT('',(0.0508,-0.02425,-0.0175));
#1061=CARTESIAN_POINT('',(0.0528,-0.026,-0.0175));
#1062=CARTESIAN_POINT('',(0.0528,-0.02425,-0.0175));
#1063=CARTESIAN_POINT('',(0.0508,-0.009,-0.0175));
#1064=CARTESIAN_POINT('',(0.0508,-0.009,-0.0175));
#1065=CARTESIAN_POINT('',(0.0508,-0.00725,-0.0175));
#1066=CARTESIAN_POINT('',(0.0528,-0.009,-0.0175));
#1067=CARTESIAN_POINT('',(0.0528,-0.00725,-0.0175));
#1068=CARTESIAN_POINT('',(-7.70371977754894E-34,-0.0175,-0.0175));
#1069=CARTESIAN_POINT('',(0.0269,-0.0175,0.));
#1070=CARTESIAN_POINT('',(0.0269,-0.0175,0.));
#1071=CARTESIAN_POINT('',(0.0094,-0.0175,0.));
#1072=CARTESIAN_POINT('',(0.0094,-0.0175,-0.0175));
#1073=CARTESIAN_POINT('',(0.0094,0.,-0.0175));
#1074=CARTESIAN_POINT('',(0.0269,-0.0175,-0.0175));
#1075=CARTESIAN_POINT('',(0.0269,-0.0175,-0.035));
#1076=CARTESIAN_POINT('',(0.0269,-0.0175,-0.0175));
#1077=CARTESIAN_POINT('',(0.0508,-0.016,-0.0175));
#1078=CARTESIAN_POINT('',(0.0508,-0.0175,-0.0175));
#1079=CARTESIAN_POINT('',(0.0508,-0.0135,-0.0175));
#1080=CARTESIAN_POINT('',(0.0508,-0.0175,-0.0175));
#1081=CARTESIAN_POINT('',(0.0508,-0.003,-0.0175));
#1082=CARTESIAN_POINT('',(-4.89858719658942E-19,-0.0175,-0.0175));
#1083=CARTESIAN_POINT('',(0.0243019237886467,-0.00307779489814404,-0.019));
#1084=CARTESIAN_POINT('',(0.0246274404034507,-0.00313643481952567,-0.0195638113155484));
#1085=CARTESIAN_POINT('',(0.0256614364326261,-0.00330299638001141,-0.0204756094552656));
#1086=CARTESIAN_POINT('',(0.0277368411693882,-0.00333751713067162,-0.0206117363123402));
#1087=CARTESIAN_POINT('',(0.0294538131577401,-0.00310175944605836,-0.0194630723530496));
#1088=CARTESIAN_POINT('',(0.0301231609532003,-0.00294911334588407,-0.01750033024019));
#1089=CARTESIAN_POINT('',(0.0294535430039769,-0.00310178717567744,-0.0155365644656755));
#1090=CARTESIAN_POINT('',(0.0277372970055215,-0.00333750954978625,-0.0143882425373848));
#1091=CARTESIAN_POINT('',(0.0256611237891833,-0.00330293111131519,-0.0145251710742966));
#1092=CARTESIAN_POINT('',(0.0246286787023776,-0.00313665789186182,-0.0154340438877954));
#1093=CARTESIAN_POINT('',(0.0243019237886467,-0.00307779489814406,-0.0159999999999999));
#1094=CARTESIAN_POINT('',(0.0243019237886467,-0.00307779489814404,-0.019));
#1095=CARTESIAN_POINT('',(0.0243019237886462,-0.00307779489814399,-0.0159999999999996));
#1096=CARTESIAN_POINT('',(0.028,-0.00307779489814404,-0.019));
#1097=CARTESIAN_POINT('',(0.001,-0.00307779489814404,-0.019));
#1098=CARTESIAN_POINT('',(0.001,-0.0175,-0.0175));
#1099=CARTESIAN_POINT('',(0.001,-0.0175,-0.032));
#1100=CARTESIAN_POINT('',(0.001,-0.0175,-0.032));
#1101=CARTESIAN_POINT('',(0.001,-0.0175,-0.003));
#1102=CARTESIAN_POINT('',(0.001,-0.0175,-0.003));
#1103=CARTESIAN_POINT('',(0.001,-0.0175,-0.0175));
#1104=CARTESIAN_POINT('',(0.001,-0.00307779489814404,-0.016));
#1105=CARTESIAN_POINT('',(0.028,-0.00307779489814404,-0.016));
#1106=CARTESIAN_POINT('',(0.0269,-0.003,0.));
#1107=CARTESIAN_POINT('',(0.0269,0.015,0.));
#1108=CARTESIAN_POINT('',(0.0269,0.01255,0.));
#1109=CARTESIAN_POINT('',(0.0269,0.01745,0.));
#1110=CARTESIAN_POINT('',(0.0269,0.03,0.));
#1111=CARTESIAN_POINT('',(0.0269,0.0217778563569857,0.));
#1112=CARTESIAN_POINT('',(0.0269,0.03,6.93889390390723E-18));
#1113=CARTESIAN_POINT('',(0.0269,0.0250411565428116,6.93889390390723E-18));
#1114=CARTESIAN_POINT('',(0.0269,0.03,0.));
#1115=CARTESIAN_POINT('',(0.0269,0.03,0.));
#1116=CARTESIAN_POINT('',(0.01815,0.03,0.));
#1117=CARTESIAN_POINT('',(0.0094,0.03,0.));
#1118=CARTESIAN_POINT('',(0.0094,0.03,0.));
#1119=CARTESIAN_POINT('',(0.0269,0.03,0.));
#1120=CARTESIAN_POINT('',(0.0508,-0.0175,-0.0175));
#1121=CARTESIAN_POINT('',(0.0269,0.03,-0.0175));
#1122=CARTESIAN_POINT('',(0.0269,0.0250411565428116,6.93889390390723E-18));
#1123=CARTESIAN_POINT('',(0.0280624501488305,0.0250411565428116,6.93889390390723E-18));
#1124=CARTESIAN_POINT('',(0.0303383912248864,0.0251352331737116,-0.00022592897722043));
#1125=CARTESIAN_POINT('',(0.0336622514607805,0.0255370165872759,-0.00123791159016406));
#1126=CARTESIAN_POINT('',(0.0366584717841496,0.0261170293462967,-0.00284165316418716));
#1127=CARTESIAN_POINT('',(0.0401902701159934,0.027019290460994,-0.00572411622811681));
#1128=CARTESIAN_POINT('',(0.0427657828756568,0.0278926129531793,-0.00951339692413098));
#1129=CARTESIAN_POINT('',(0.0441457578590166,0.0284024124243484,-0.0139235008393001));
#1130=CARTESIAN_POINT('',(0.0445132395325914,0.0285434857299457,-0.0173426859419339));
#1131=CARTESIAN_POINT('',(0.044197572083542,0.0284222325310467,-0.0208228675702103));
#1132=CARTESIAN_POINT('',(0.0428962082683289,0.0279389344622171,-0.0252187669794196));
#1133=CARTESIAN_POINT('',(0.0403429146101874,0.0270678729341404,-0.0290964079671776));
#1134=CARTESIAN_POINT('',(0.036897416002243,0.0261713665470226,-0.031996914123384));
#1135=CARTESIAN_POINT('',(0.0338848005152133,0.025573663593652,-0.0336667150671501));
#1136=CARTESIAN_POINT('',(0.0306399640733245,0.0251610029922941,-0.0347108202967934));
#1137=CARTESIAN_POINT('',(0.0283169069212581,0.0250489116028323,-0.034981145803423));
#1138=CARTESIAN_POINT('',(0.0271559610015038,0.0250419265670267,-0.0349981280131821));
#1139=CARTESIAN_POINT('',(0.0271559610015037,0.0250419265670267,-0.0349981280131822));
#1140=CARTESIAN_POINT('',(0.0269,0.0252760352548501,-0.0175));
#1141=CARTESIAN_POINT('',(0.0305406300491783,0.0219462189208926,-0.0346171204600838));
#1142=CARTESIAN_POINT('',(0.0269,0.0217778563569857,6.93889390390723E-18));
#1143=CARTESIAN_POINT('',(0.0279928932524983,0.0217778563569857,6.93889390390723E-18));
#1144=CARTESIAN_POINT('',(0.0301334189582278,0.0218678585210612,-0.000199748005278347));
#1145=CARTESIAN_POINT('',(0.0332704865860176,0.0222540048929896,-0.00109489824342868));
#1146=CARTESIAN_POINT('',(0.036125013734886,0.0228177606979305,-0.00251495112552828));
#1147=CARTESIAN_POINT('',(0.038697023541664,0.02349031695653,-0.00444416036254352));
#1148=CARTESIAN_POINT('',(0.0408435063696459,0.0241661954013285,-0.00676646218108939));
#1149=CARTESIAN_POINT('',(0.0425681844896787,0.024780433116467,-0.00948819402676164));
#1150=CARTESIAN_POINT('',(0.0437609141406397,0.0252411220569466,-0.0124579549711324));
#1151=CARTESIAN_POINT('',(0.0446194898941496,0.0255895655157234,-0.0167255111476262));
#1152=CARTESIAN_POINT('',(0.0442654620184183,0.0254397964952768,-0.0211001239754955));
#1153=CARTESIAN_POINT('',(0.042744053928343,0.0248465164971,-0.0251578992289117));
#1154=CARTESIAN_POINT('',(0.0411035361501466,0.0242545608397496,-0.0278881086162129));
#1155=CARTESIAN_POINT('',(0.0389774444938649,0.0235731150719689,-0.0302966885014172));
#1156=CARTESIAN_POINT('',(0.0364907108989568,0.022903765896362,-0.0322534386513498));
#1157=CARTESIAN_POINT('',(0.0336334139490163,0.022315083598601,-0.0337586649571862));
#1158=CARTESIAN_POINT('',(0.0316004870375024,0.0220440368437526,-0.0343917001150835));
#1159=CARTESIAN_POINT('',(0.0305406300491783,0.0219462189208925,-0.0346171204600838));
#1160=CARTESIAN_POINT('',(0.0269,0.01745,6.93889390390723E-18));
#1161=CARTESIAN_POINT('',(0.0275482124494237,0.01745,6.93889390390723E-18));
#1162=CARTESIAN_POINT('',(0.0288159578926662,0.0169190114212675,-8.57718840526919E-5));
#1163=CARTESIAN_POINT('',(0.0296165697153453,0.015002658371553,-0.000215592138764081));
#1164=CARTESIAN_POINT('',(0.0288177591924715,0.0130812717005815,-8.59511140720719E-5));
#1165=CARTESIAN_POINT('',(0.0275482117600248,0.01255,7.7123903266845E-18));
#1166=CARTESIAN_POINT('',(0.0269,0.01255,7.7123903266845E-18));
#1167=CARTESIAN_POINT('',(0.0094,0.03,-0.0175));
#1168=CARTESIAN_POINT('',(0.0094,0.03,-0.0175));
#1169=CARTESIAN_POINT('',(0.0269,0.03,-0.0175));
#1170=CARTESIAN_POINT('',(0.0288219749519842,0.0169182383210699,-0.0349140365237474));
#1171=CARTESIAN_POINT('',(0.0268995318708399,0.0177157361595823,-0.0350429419201893));
#1172=CARTESIAN_POINT('',(0.0249798975646562,0.0169188170406009,-0.0349141957954954));
#1173=CARTESIAN_POINT('',(0.0241852009560477,0.0150022579901849,-0.0347843880514067));
#1174=CARTESIAN_POINT('',(0.0249793009333673,0.0130804137523405,-0.0349141602009086));
#1175=CARTESIAN_POINT('',(0.026899391031256,0.0122853532550689,-0.0350428328067843));
#1176=CARTESIAN_POINT('',(0.0288175405027624,0.0130781742919332,-0.0349145084229173));
#1177=CARTESIAN_POINT('',(0.0296151197390813,0.0149976922166984,-0.0347843409293137));
#1178=CARTESIAN_POINT('',(0.0288219749519842,0.0169182383210699,-0.0349140365237474));
#1179=CARTESIAN_POINT('',(0.0268995318708399,0.0177157361595823,-0.0350429419201893));
#1180=CARTESIAN_POINT('',(0.0249798975646562,0.0169188170406009,-0.0349141957954954));
#1181=CARTESIAN_POINT('',(0.0269,0.01745,-0.035));
#1182=CARTESIAN_POINT('',(0.0094,0.03,-0.00875));
#1183=CARTESIAN_POINT('',(0.0094,0.03,-0.00875));
#1184=CARTESIAN_POINT('',(0.0269,0.03,-0.0175));
#1185=CARTESIAN_POINT('',(0.0269,0.,-0.0175));
#1186=CARTESIAN_POINT('',(0.0269,0.,-0.0175));
#1187=CARTESIAN_POINT('',(0.0239,0.,-0.0175));
#1188=CARTESIAN_POINT('',(0.0528,-0.009,-0.0175));
#1189=CARTESIAN_POINT('',(0.0528,-0.009,-0.0175));
#1190=CARTESIAN_POINT('',(0.0528,-0.006,-0.0175));
#1191=CARTESIAN_POINT('',(0.0528,-0.016,-0.0175));
#1192=CARTESIAN_POINT('',(0.0528,-0.026,-0.0175));
#1193=CARTESIAN_POINT('',(0.0528,-0.026,-0.0175));
#1194=CARTESIAN_POINT('',(0.0528,-0.023,-0.0175));
#1195=CARTESIAN_POINT('',(0.0528,-0.016,-0.0175));
#1196=CARTESIAN_POINT('',(0.0528,-0.0175,-0.026));
#1197=CARTESIAN_POINT('',(0.0528,-0.0175,-0.026));
#1198=CARTESIAN_POINT('',(0.0528,-0.0145,-0.026));
#1199=CARTESIAN_POINT('',(0.0528,-0.016,-0.0175));
#1200=CARTESIAN_POINT('',(0.0528,-0.0175,-0.009));
#1201=CARTESIAN_POINT('',(0.0528,-0.0175,-0.009));
#1202=CARTESIAN_POINT('',(0.0528,-0.0145,-0.009));
#1203=CARTESIAN_POINT('',(0.0528,-0.016,-0.0175));
#1204=CARTESIAN_POINT('',(0.0269,0.015,-0.05));
#1205=CARTESIAN_POINT('',(0.0269,0.015,-0.05));
#1206=CARTESIAN_POINT('',(0.0269,-0.025,-0.0175));
#1207=CARTESIAN_POINT('',(0.0243019237886467,-0.025,-0.016));
#1208=CARTESIAN_POINT('',(0.0243019237886467,-0.00207275137945848,-0.016));
#1209=CARTESIAN_POINT('',(0.0243019237886467,-0.00207275137945848,-0.019));
#1210=CARTESIAN_POINT('',(0.0237747464459696,-0.00198397035655139,-0.0180869020578842));
#1211=CARTESIAN_POINT('',(0.0237747326462283,-0.00198396803256087,-0.0169131218439689));
#1212=CARTESIAN_POINT('',(0.0243019237886467,-0.00207275137945848,-0.016));
#1213=CARTESIAN_POINT('',(0.0243019237886467,-0.00207275137945848,-0.019));
#1214=CARTESIAN_POINT('',(0.0243019237886467,-0.025,-0.019));
#1215=CARTESIAN_POINT('',(0.001,-0.0175,-0.0175));
#1216=CARTESIAN_POINT('',(0.001,-0.0175,-0.002));
#1217=CARTESIAN_POINT('',(0.001,-0.0175,-0.002));
#1218=CARTESIAN_POINT('',(0.001,-0.0175,-0.0175));
#1219=CARTESIAN_POINT('',(0.001,-0.0175,-0.0175));
#1220=CARTESIAN_POINT('',(0.001,-0.0175,-0.0175));
#1221=CARTESIAN_POINT('',(0.001,-0.00207275137945848,-0.016));
#1222=CARTESIAN_POINT('',(0.001,-0.00257527313880126,-0.016));
#1223=CARTESIAN_POINT('',(0.001,-0.0175,-0.0175));
#1224=CARTESIAN_POINT('',(0.001,-0.0175,-0.0175));
#1225=CARTESIAN_POINT('',(0.001,-0.0175,-0.033));
#1226=CARTESIAN_POINT('',(0.001,-0.0175,-0.033));
#1227=CARTESIAN_POINT('',(0.001,-0.0175,-0.0175));
#1228=CARTESIAN_POINT('',(0.001,-0.0175,-0.0175));
#1229=CARTESIAN_POINT('',(0.001,-0.00207275137945848,-0.019));
#1230=CARTESIAN_POINT('',(0.028,-0.00207275137945848,-0.019));
#1231=CARTESIAN_POINT('',(0.028,-0.00207275137945848,-0.016));
#1232=CARTESIAN_POINT('',(0.001,-0.0175,-0.0175));
#1233=CARTESIAN_POINT('',(0.001,-0.00257527313880126,-0.019));
#1234=CARTESIAN_POINT('',(0.028,-0.00257527313880126,-0.019));
#1235=CARTESIAN_POINT('',(0.028,-0.00257527313880126,-0.016));
#1236=CARTESIAN_POINT('',(0.0269,-0.0175,-0.0175));
#1237=CARTESIAN_POINT('',(0.0269,-0.0175,-0.0175));
#1238=CARTESIAN_POINT('',(0.0269,0.017738044383473,0.0120682300455808));
#1239=CARTESIAN_POINT('',(0.0269,0.017738044383473,0.0120682300455808));
#1240=CARTESIAN_POINT('',(0.0888,0.017738044383473,0.0120682300455808));
#1241=CARTESIAN_POINT('',(0.0888,-0.0175,-0.0175));
#1242=CARTESIAN_POINT('',(0.0888,0.000672585254850033,-0.0597582198531269));
#1243=CARTESIAN_POINT('',(0.0888,0.000672585254850033,-0.0597582198531269));
#1244=CARTESIAN_POINT('',(0.0538,0.000672585254850033,-0.0597582198531269));
#1245=CARTESIAN_POINT('',(0.0736688616171905,-0.0175,-0.0175));
#1246=CARTESIAN_POINT('',(0.0269,-0.0175,-0.0175));
#1247=CARTESIAN_POINT('',(0.0269,0.015439911054116,0.0101398672165212));
#1248=CARTESIAN_POINT('',(0.0269,0.015439911054116,0.0101398672165212));
#1249=CARTESIAN_POINT('',(0.0888,0.015439911054116,0.0101398672165212));
#1250=CARTESIAN_POINT('',(0.0269,-0.0175,-0.0175));
#1251=CARTESIAN_POINT('',(0.0736688616171905,-0.0175,-0.0175));
#1252=CARTESIAN_POINT('',(0.0538,0.000672585254850037,-0.056471234842576));
#1253=CARTESIAN_POINT('',(0.0888,0.000672585254850037,-0.056471234842576));
#1254=CARTESIAN_POINT('',(0.0888,0.000672585254850037,-0.056471234842576));
#1255=CARTESIAN_POINT('',(0.0888,-0.0175,-0.0175));
#1256=CARTESIAN_POINT('',(0.0269,0.0165889777187945,0.011104048631051));
#1257=CARTESIAN_POINT('',(0.0269,0.0165889777187945,0.011104048631051));
#1258=CARTESIAN_POINT('',(0.0888,0.0165889777187945,0.011104048631051));
#1259=CARTESIAN_POINT('',(0.0269,0.0633872498749318,-0.0261414120309398));
#1260=CARTESIAN_POINT('',(0.0538,0.00067258525485003,-0.0581147273478514));
#1261=CARTESIAN_POINT('',(0.0538,0.00067258525485003,-0.0581147273478514));
#1262=CARTESIAN_POINT('',(0.0888,0.00067258525485003,-0.0581147273478514));
#1263=CARTESIAN_POINT('',(0.0888,0.00067258525485003,-0.0581147273478514));
#1264=CARTESIAN_POINT('',(0.0888,0.0633872498749318,-0.0261414120309398));
#1265=MECHANICAL_DESIGN_GEOMETRIC_PRESENTATION_REPRESENTATION('',(#688),
#1266);
#1266=(
GEOMETRIC_REPRESENTATION_CONTEXT(3)
GLOBAL_UNCERTAINTY_ASSIGNED_CONTEXT((#1267))
GLOBAL_UNIT_ASSIGNED_CONTEXT((#1270,#1269,#1268))
REPRESENTATION_CONTEXT('Bracket-Mirrored','TOP_LEVEL_ASSEMBLY_PART')
);
#1267=UNCERTAINTY_MEASURE_WITH_UNIT(LENGTH_MEASURE(2.E-5),#1270,
'DISTANCE_ACCURACY_VALUE','Maximum Tolerance applied to model');
#1268=(
NAMED_UNIT(*)
SI_UNIT($,.STERADIAN.)
SOLID_ANGLE_UNIT()
);
#1269=(
NAMED_UNIT(*)
PLANE_ANGLE_UNIT()
SI_UNIT($,.RADIAN.)
);
#1270=(
LENGTH_UNIT()
NAMED_UNIT(*)
SI_UNIT($,.METRE.)
);
#1271=PRODUCT_DEFINITION_SHAPE('','',#1272);
#1272=PRODUCT_DEFINITION('','',#1274,#1273);
#1273=PRODUCT_DEFINITION_CONTEXT('',#1280,'design');
#1274=PRODUCT_DEFINITION_FORMATION_WITH_SPECIFIED_SOURCE('','',#1276,
 .NOT_KNOWN.);
#1275=PRODUCT_RELATED_PRODUCT_CATEGORY('','',(#1276));
#1276=PRODUCT('Bracket-Mirrored','Bracket-Mirrored','Bracket-Mirrored',
(#1278));
#1277=PRODUCT_CATEGORY('','');
#1278=PRODUCT_CONTEXT('',#1280,'mechanical');
#1279=APPLICATION_PROTOCOL_DEFINITION('international standard',
'ap242_managed_model_based_3d_engineering',2020,#1280);
#1280=APPLICATION_CONTEXT('managed model based 3d engineering');
ENDSEC;
END-ISO-10303-21;
