ISO-10303-21;
HEADER;
/* Generated by software containing ST-Developer
 * from STEP Tools, Inc. (www.steptools.com) 
 */
/* OPTION: using custom renumber hook */

FILE_DESCRIPTION(
/* description */ ('STEP AP242 Edition 2',
'CAx-IF Rec.Pracs.---Representation and Presentation of Product Manufa
cturing Information (PMI)---4.0---2014-10-13',
'CAx-IF Rec.Pracs.---3D Tessellated Geometry---0.4---2014-09-14','2;1',
'CAx-IF Rec.Pracs.---User Defined Attributes---1.5---2016-08-15'),
/* implementation_level */ '2;1');

FILE_NAME(
/* name */ 'Right Rear wheels mount',
/* time_stamp */ '2026-08-05T18:48:03Z',
/* author */ (''),
/* organization */ (''),
/* preprocessor_version */ 'ST-DEVELOPER v20',
/* originating_system */ 'ONSHAPE BY PTC INC, 1.218',
/* authorisation */ '  ');

FILE_SCHEMA (('AP242_MANAGED_MODEL_BASED_3D_ENGINEERING_MIM_LF { 1 0 10303 442 3 1 4 }'));
ENDSEC;

DATA;
#10=SHAPE_REPRESENTATION_RELATIONSHIP('','',#718,#11);
#11=ADVANCED_BREP_SHAPE_REPRESENTATION('',(#716),#1301);
#12=ELLIPSE('',#749,0.0247487373415292,0.0175);
#13=ELLIPSE('',#750,0.0247487373415292,0.0175);
#14=ELLIPSE('',#763,0.0367096254674601,0.0175);
#15=ELLIPSE('',#795,0.0523287225884895,0.046);
#16=ELLIPSE('',#800,0.0489159798109793,0.043);
#17=LINE('',#1053,#52);
#18=LINE('',#1058,#53);
#19=LINE('',#1102,#54);
#20=LINE('',#1124,#55);
#21=LINE('',#1128,#56);
#22=LINE('',#1129,#57);
#23=LINE('',#1133,#58);
#24=LINE('',#1135,#59);
#25=LINE('',#1139,#60);
#26=LINE('',#1141,#61);
#27=LINE('',#1143,#62);
#28=LINE('',#1145,#63);
#29=LINE('',#1147,#64);
#30=LINE('',#1150,#65);
#31=LINE('',#1152,#66);
#32=LINE('',#1173,#67);
#33=LINE('',#1238,#68);
#34=LINE('',#1245,#69);
#35=LINE('',#1247,#70);
#36=LINE('',#1249,#71);
#37=LINE('',#1251,#72);
#38=LINE('',#1255,#73);
#39=LINE('',#1257,#74);
#40=LINE('',#1259,#75);
#41=LINE('',#1260,#76);
#42=LINE('',#1264,#77);
#43=LINE('',#1268,#78);
#44=LINE('',#1274,#79);
#45=LINE('',#1278,#80);
#46=LINE('',#1282,#81);
#47=LINE('',#1287,#82);
#48=LINE('',#1292,#83);
#49=LINE('',#1293,#84);
#50=LINE('',#1296,#85);
#51=LINE('',#1298,#86);
#52=VECTOR('',#821,1.);
#53=VECTOR('',#824,1.);
#54=VECTOR('',#873,1.);
#55=VECTOR('',#884,1.);
#56=VECTOR('',#887,1.);
#57=VECTOR('',#888,1.);
#58=VECTOR('',#891,1.);
#59=VECTOR('',#894,1.);
#60=VECTOR('',#897,1.);
#61=VECTOR('',#898,1.);
#62=VECTOR('',#899,1.);
#63=VECTOR('',#900,1.);
#64=VECTOR('',#901,1.);
#65=VECTOR('',#906,1.);
#66=VECTOR('',#907,1.);
#67=VECTOR('',#910,1.);
#68=VECTOR('',#951,1.);
#69=VECTOR('',#952,1.);
#70=VECTOR('',#955,1.);
#71=VECTOR('',#956,1.);
#72=VECTOR('',#959,1.);
#73=VECTOR('',#964,1.);
#74=VECTOR('',#965,1.);
#75=VECTOR('',#968,1.);
#76=VECTOR('',#969,1.);
#77=VECTOR('',#974,1.);
#78=VECTOR('',#981,1.);
#79=VECTOR('',#988,1.);
#80=VECTOR('',#991,1.);
#81=VECTOR('',#996,1.);
#82=VECTOR('',#999,1.);
#83=VECTOR('',#1006,1.);
#84=VECTOR('',#1007,1.);
#85=VECTOR('',#1012,1.);
#86=VECTOR('',#1015,1.);
#87=PLANE('',#723);
#88=PLANE('',#728);
#89=PLANE('',#752);
#90=PLANE('',#758);
#91=PLANE('',#761);
#92=PLANE('',#765);
#93=PLANE('',#766);
#94=PLANE('',#770);
#95=PLANE('',#773);
#96=PLANE('',#776);
#97=PLANE('',#779);
#98=PLANE('',#783);
#99=PLANE('',#784);
#100=PLANE('',#786);
#101=PLANE('',#789);
#102=PLANE('',#790);
#103=PLANE('',#791);
#104=PLANE('',#792);
#105=PLANE('',#802);
#106=PLANE('',#803);
#107=PLANE('',#804);
#108=PLANE('',#805);
#109=PLANE('',#806);
#110=B_SPLINE_CURVE_WITH_KNOTS('',3,(#1024,#1025,#1026,#1027,#1028,#1029,
#1030,#1031,#1032,#1033,#1034),.UNSPECIFIED.,.T.,.F.,(1,1,1,1,1,1,1,1,1,
1,1,1,1,1,1),(-0.00575447252600117,-0.00383631501733412,-0.00191815750866706,
0.,0.00191815750866706,0.00383631501733412,0.00575447252600117,0.00767263003466823,
0.00959078754333529,0.0115089450520023,0.0134271025606694,0.0153452600693365,
0.0172634175780035,0.0191815750866706,0.0210997325953376),.UNSPECIFIED.);
#111=B_SPLINE_CURVE_WITH_KNOTS('',3,(#1036,#1037,#1038,#1039,#1040,#1041,
#1042,#1043,#1044,#1045,#1046),.UNSPECIFIED.,.T.,.F.,(1,1,1,1,1,1,1,1,1,
1,1,1,1,1,1),(-0.00575447252600117,-0.00383631501733411,-0.00191815750866705,
0.,0.00191815750866706,0.00383631501733411,0.00575447252600117,0.00767263003466822,
0.00959078754333528,0.0115089450520023,0.0134271025606694,0.0153452600693364,
0.0172634175780035,0.0191815750866706,0.0210997325953376),.UNSPECIFIED.);
#112=B_SPLINE_CURVE_WITH_KNOTS('',3,(#1111,#1112,#1113,#1114,#1115,#1116,
#1117,#1118,#1119,#1120,#1121),.UNSPECIFIED.,.F.,.F.,(4,1,1,1,1,1,1,1,4),
(0.00156595387023299,0.00352562857644874,0.00548530328266449,0.00744497798888024,
0.00940465269509598,0.0113643274013117,0.0133240021075275,0.0152836768137432,
0.017243351519959),.UNSPECIFIED.);
#113=B_SPLINE_CURVE_WITH_KNOTS('',3,(#1154,#1155,#1156,#1157,#1158,#1159,
#1160,#1161,#1162,#1163,#1164,#1165,#1166,#1167,#1168,#1169,#1170,#1171),
 .UNSPECIFIED.,.F.,.F.,(4,1,1,1,1,1,1,1,1,1,1,1,1,1,1,4),(0.,0.00345076415672876,
0.00690152831345753,0.0103522924701863,0.0138030566269151,0.0172538207836438,
0.0207045849403726,0.0241553490971013,0.0276061132538301,0.0310568774105589,
0.0345076415672876,0.0414091698807452,0.0448599340374739,0.0483106981942027,
0.0517614623509314,0.0552122265076602),.UNSPECIFIED.);
#114=B_SPLINE_CURVE_WITH_KNOTS('',3,(#1175,#1176,#1177,#1178,#1179,#1180,
#1181,#1182,#1183,#1184,#1185,#1186,#1187,#1188,#1189,#1190,#1191,#1192),
 .UNSPECIFIED.,.F.,.F.,(4,1,1,1,1,1,1,1,1,1,1,1,1,1,1,4),(0.,0.00336086915540071,
0.00672173831080143,0.0100826074662021,0.0134434766216029,0.0201652149324043,
0.023526084087805,0.0268869532432057,0.0302478223986064,0.0336086915540071,
0.0369695607094079,0.0403304298648086,0.0436912990202093,0.04705216817561,
0.0504130373310107,0.0537739064864114),.UNSPECIFIED.);
#115=B_SPLINE_CURVE_WITH_KNOTS('',3,(#1195,#1196,#1197,#1198,#1199,#1200,
#1201),.UNSPECIFIED.,.F.,.F.,(4,1,1,1,4),(0.,0.00191685539218061,0.00383371078436122,
0.00575056617654183,0.00766742156872244),.UNSPECIFIED.);
#116=B_SPLINE_CURVE_WITH_KNOTS('',3,(#1203,#1204,#1205,#1206,#1207,#1208,
#1209,#1210,#1211,#1212,#1213),.UNSPECIFIED.,.T.,.F.,(1,1,1,1,1,1,1,1,1,
1,1,1,1,1,1),(-0.00575122865212618,-0.00383415243475079,-0.00191707621737539,
7.74776709799425E-22,0.00191707621737539,0.00383415243475079,0.00575122865212618,
0.00766830486950157,0.00958538108687696,0.0115024573042524,0.0134195335216277,
0.0153366097390031,0.0172536859563785,0.0191707621737539,0.0210878383911293),
 .UNSPECIFIED.);
#117=B_SPLINE_CURVE_WITH_KNOTS('',3,(#1240,#1241,#1242,#1243),
 .UNSPECIFIED.,.F.,.F.,(4,4),(0.,0.00312980238544548),.UNSPECIFIED.);
#118=ORIENTED_EDGE('',*,*,#294,.T.);
#119=ORIENTED_EDGE('',*,*,#295,.F.);
#120=ORIENTED_EDGE('',*,*,#296,.T.);
#121=ORIENTED_EDGE('',*,*,#297,.T.);
#122=ORIENTED_EDGE('',*,*,#298,.T.);
#123=ORIENTED_EDGE('',*,*,#299,.T.);
#124=ORIENTED_EDGE('',*,*,#300,.T.);
#125=ORIENTED_EDGE('',*,*,#301,.F.);
#126=ORIENTED_EDGE('',*,*,#302,.T.);
#127=ORIENTED_EDGE('',*,*,#303,.F.);
#128=ORIENTED_EDGE('',*,*,#304,.F.);
#129=ORIENTED_EDGE('',*,*,#305,.T.);
#130=ORIENTED_EDGE('',*,*,#306,.T.);
#131=ORIENTED_EDGE('',*,*,#307,.T.);
#132=ORIENTED_EDGE('',*,*,#308,.F.);
#133=ORIENTED_EDGE('',*,*,#309,.T.);
#134=ORIENTED_EDGE('',*,*,#310,.F.);
#135=ORIENTED_EDGE('',*,*,#311,.F.);
#136=ORIENTED_EDGE('',*,*,#312,.T.);
#137=ORIENTED_EDGE('',*,*,#313,.F.);
#138=ORIENTED_EDGE('',*,*,#314,.T.);
#139=ORIENTED_EDGE('',*,*,#315,.F.);
#140=ORIENTED_EDGE('',*,*,#316,.T.);
#141=ORIENTED_EDGE('',*,*,#317,.F.);
#142=ORIENTED_EDGE('',*,*,#318,.T.);
#143=ORIENTED_EDGE('',*,*,#299,.F.);
#144=ORIENTED_EDGE('',*,*,#298,.F.);
#145=ORIENTED_EDGE('',*,*,#319,.F.);
#146=ORIENTED_EDGE('',*,*,#320,.F.);
#147=ORIENTED_EDGE('',*,*,#321,.F.);
#148=ORIENTED_EDGE('',*,*,#322,.F.);
#149=ORIENTED_EDGE('',*,*,#307,.F.);
#150=ORIENTED_EDGE('',*,*,#306,.F.);
#151=ORIENTED_EDGE('',*,*,#323,.T.);
#152=ORIENTED_EDGE('',*,*,#315,.T.);
#153=ORIENTED_EDGE('',*,*,#313,.T.);
#154=ORIENTED_EDGE('',*,*,#311,.T.);
#155=ORIENTED_EDGE('',*,*,#317,.T.);
#156=ORIENTED_EDGE('',*,*,#324,.T.);
#157=ORIENTED_EDGE('',*,*,#325,.T.);
#158=ORIENTED_EDGE('',*,*,#326,.T.);
#159=ORIENTED_EDGE('',*,*,#327,.T.);
#160=ORIENTED_EDGE('',*,*,#328,.T.);
#161=ORIENTED_EDGE('',*,*,#303,.T.);
#162=ORIENTED_EDGE('',*,*,#329,.F.);
#163=ORIENTED_EDGE('',*,*,#330,.T.);
#164=ORIENTED_EDGE('',*,*,#331,.F.);
#165=ORIENTED_EDGE('',*,*,#324,.F.);
#166=ORIENTED_EDGE('',*,*,#332,.F.);
#167=ORIENTED_EDGE('',*,*,#333,.T.);
#168=ORIENTED_EDGE('',*,*,#334,.F.);
#169=ORIENTED_EDGE('',*,*,#335,.T.);
#170=ORIENTED_EDGE('',*,*,#336,.F.);
#171=ORIENTED_EDGE('',*,*,#337,.F.);
#172=ORIENTED_EDGE('',*,*,#338,.T.);
#173=ORIENTED_EDGE('',*,*,#321,.T.);
#174=ORIENTED_EDGE('',*,*,#323,.F.);
#175=ORIENTED_EDGE('',*,*,#308,.T.);
#176=ORIENTED_EDGE('',*,*,#339,.T.);
#177=ORIENTED_EDGE('',*,*,#322,.T.);
#178=ORIENTED_EDGE('',*,*,#338,.F.);
#179=ORIENTED_EDGE('',*,*,#340,.F.);
#180=ORIENTED_EDGE('',*,*,#341,.F.);
#181=ORIENTED_EDGE('',*,*,#342,.T.);
#182=ORIENTED_EDGE('',*,*,#343,.T.);
#183=ORIENTED_EDGE('',*,*,#344,.T.);
#184=ORIENTED_EDGE('',*,*,#334,.T.);
#185=ORIENTED_EDGE('',*,*,#345,.F.);
#186=ORIENTED_EDGE('',*,*,#332,.T.);
#187=ORIENTED_EDGE('',*,*,#320,.T.);
#188=ORIENTED_EDGE('',*,*,#319,.T.);
#189=ORIENTED_EDGE('',*,*,#339,.F.);
#190=ORIENTED_EDGE('',*,*,#346,.T.);
#191=ORIENTED_EDGE('',*,*,#336,.T.);
#192=ORIENTED_EDGE('',*,*,#347,.F.);
#193=ORIENTED_EDGE('',*,*,#295,.T.);
#194=ORIENTED_EDGE('',*,*,#340,.T.);
#195=ORIENTED_EDGE('',*,*,#337,.T.);
#196=ORIENTED_EDGE('',*,*,#346,.F.);
#197=ORIENTED_EDGE('',*,*,#348,.F.);
#198=ORIENTED_EDGE('',*,*,#294,.F.);
#199=ORIENTED_EDGE('',*,*,#349,.T.);
#200=ORIENTED_EDGE('',*,*,#305,.F.);
#201=ORIENTED_EDGE('',*,*,#349,.F.);
#202=ORIENTED_EDGE('',*,*,#318,.F.);
#203=ORIENTED_EDGE('',*,*,#350,.T.);
#204=ORIENTED_EDGE('',*,*,#309,.F.);
#205=ORIENTED_EDGE('',*,*,#316,.F.);
#206=ORIENTED_EDGE('',*,*,#350,.F.);
#207=ORIENTED_EDGE('',*,*,#351,.F.);
#208=ORIENTED_EDGE('',*,*,#304,.T.);
#209=ORIENTED_EDGE('',*,*,#351,.T.);
#210=ORIENTED_EDGE('',*,*,#314,.F.);
#211=ORIENTED_EDGE('',*,*,#352,.F.);
#212=ORIENTED_EDGE('',*,*,#310,.T.);
#213=ORIENTED_EDGE('',*,*,#352,.T.);
#214=ORIENTED_EDGE('',*,*,#312,.F.);
#215=ORIENTED_EDGE('',*,*,#347,.T.);
#216=ORIENTED_EDGE('',*,*,#296,.F.);
#217=ORIENTED_EDGE('',*,*,#297,.F.);
#218=ORIENTED_EDGE('',*,*,#345,.T.);
#219=ORIENTED_EDGE('',*,*,#333,.F.);
#220=ORIENTED_EDGE('',*,*,#348,.T.);
#221=ORIENTED_EDGE('',*,*,#325,.F.);
#222=ORIENTED_EDGE('',*,*,#353,.T.);
#223=ORIENTED_EDGE('',*,*,#354,.T.);
#224=ORIENTED_EDGE('',*,*,#355,.F.);
#225=ORIENTED_EDGE('',*,*,#300,.F.);
#226=ORIENTED_EDGE('',*,*,#328,.F.);
#227=ORIENTED_EDGE('',*,*,#356,.T.);
#228=ORIENTED_EDGE('',*,*,#357,.T.);
#229=ORIENTED_EDGE('',*,*,#356,.F.);
#230=ORIENTED_EDGE('',*,*,#327,.F.);
#231=ORIENTED_EDGE('',*,*,#358,.T.);
#232=ORIENTED_EDGE('',*,*,#359,.T.);
#233=ORIENTED_EDGE('',*,*,#302,.F.);
#234=ORIENTED_EDGE('',*,*,#360,.F.);
#235=ORIENTED_EDGE('',*,*,#361,.T.);
#236=ORIENTED_EDGE('',*,*,#329,.T.);
#237=ORIENTED_EDGE('',*,*,#301,.T.);
#238=ORIENTED_EDGE('',*,*,#357,.F.);
#239=ORIENTED_EDGE('',*,*,#359,.F.);
#240=ORIENTED_EDGE('',*,*,#362,.F.);
#241=ORIENTED_EDGE('',*,*,#354,.F.);
#242=ORIENTED_EDGE('',*,*,#363,.T.);
#243=ORIENTED_EDGE('',*,*,#364,.F.);
#244=ORIENTED_EDGE('',*,*,#360,.T.);
#245=ORIENTED_EDGE('',*,*,#361,.F.);
#246=ORIENTED_EDGE('',*,*,#364,.T.);
#247=ORIENTED_EDGE('',*,*,#365,.F.);
#248=ORIENTED_EDGE('',*,*,#330,.F.);
#249=ORIENTED_EDGE('',*,*,#365,.T.);
#250=ORIENTED_EDGE('',*,*,#363,.F.);
#251=ORIENTED_EDGE('',*,*,#353,.F.);
#252=ORIENTED_EDGE('',*,*,#331,.T.);
#253=ORIENTED_EDGE('',*,*,#326,.F.);
#254=ORIENTED_EDGE('',*,*,#355,.T.);
#255=ORIENTED_EDGE('',*,*,#362,.T.);
#256=ORIENTED_EDGE('',*,*,#358,.F.);
#257=ORIENTED_EDGE('',*,*,#335,.F.);
#258=ORIENTED_EDGE('',*,*,#366,.T.);
#259=ORIENTED_EDGE('',*,*,#367,.F.);
#260=ORIENTED_EDGE('',*,*,#367,.T.);
#261=ORIENTED_EDGE('',*,*,#368,.T.);
#262=ORIENTED_EDGE('',*,*,#369,.F.);
#263=ORIENTED_EDGE('',*,*,#370,.F.);
#264=ORIENTED_EDGE('',*,*,#371,.F.);
#265=ORIENTED_EDGE('',*,*,#372,.T.);
#266=ORIENTED_EDGE('',*,*,#341,.T.);
#267=ORIENTED_EDGE('',*,*,#373,.T.);
#268=ORIENTED_EDGE('',*,*,#374,.T.);
#269=ORIENTED_EDGE('',*,*,#375,.T.);
#270=ORIENTED_EDGE('',*,*,#376,.T.);
#271=ORIENTED_EDGE('',*,*,#343,.F.);
#272=ORIENTED_EDGE('',*,*,#377,.F.);
#273=ORIENTED_EDGE('',*,*,#371,.T.);
#274=ORIENTED_EDGE('',*,*,#378,.F.);
#275=ORIENTED_EDGE('',*,*,#373,.F.);
#276=ORIENTED_EDGE('',*,*,#379,.T.);
#277=ORIENTED_EDGE('',*,*,#342,.F.);
#278=ORIENTED_EDGE('',*,*,#372,.F.);
#279=ORIENTED_EDGE('',*,*,#379,.F.);
#280=ORIENTED_EDGE('',*,*,#377,.T.);
#281=ORIENTED_EDGE('',*,*,#368,.F.);
#282=ORIENTED_EDGE('',*,*,#366,.F.);
#283=ORIENTED_EDGE('',*,*,#344,.F.);
#284=ORIENTED_EDGE('',*,*,#376,.F.);
#285=ORIENTED_EDGE('',*,*,#380,.F.);
#286=ORIENTED_EDGE('',*,*,#380,.T.);
#287=ORIENTED_EDGE('',*,*,#375,.F.);
#288=ORIENTED_EDGE('',*,*,#381,.F.);
#289=ORIENTED_EDGE('',*,*,#369,.T.);
#290=ORIENTED_EDGE('',*,*,#370,.T.);
#291=ORIENTED_EDGE('',*,*,#381,.T.);
#292=ORIENTED_EDGE('',*,*,#374,.F.);
#293=ORIENTED_EDGE('',*,*,#378,.T.);
#294=EDGE_CURVE('',#382,#382,#450,.T.);
#295=EDGE_CURVE('',#383,#383,#451,.T.);
#296=EDGE_CURVE('',#384,#384,#110,.T.);
#297=EDGE_CURVE('',#385,#385,#111,.T.);
#298=EDGE_CURVE('',#386,#387,#452,.F.);
#299=EDGE_CURVE('',#387,#386,#453,.F.);
#300=EDGE_CURVE('',#388,#389,#17,.T.);
#301=EDGE_CURVE('',#390,#389,#454,.T.);
#302=EDGE_CURVE('',#390,#391,#18,.T.);
#303=EDGE_CURVE('',#388,#391,#455,.F.);
#304=EDGE_CURVE('',#392,#392,#456,.T.);
#305=EDGE_CURVE('',#393,#393,#457,.T.);
#306=EDGE_CURVE('',#394,#395,#458,.T.);
#307=EDGE_CURVE('',#395,#394,#459,.T.);
#308=EDGE_CURVE('',#396,#396,#460,.T.);
#309=EDGE_CURVE('',#397,#397,#461,.T.);
#310=EDGE_CURVE('',#398,#398,#462,.T.);
#311=EDGE_CURVE('',#399,#399,#463,.T.);
#312=EDGE_CURVE('',#400,#400,#464,.T.);
#313=EDGE_CURVE('',#401,#401,#465,.T.);
#314=EDGE_CURVE('',#402,#402,#466,.T.);
#315=EDGE_CURVE('',#403,#403,#467,.T.);
#316=EDGE_CURVE('',#404,#404,#468,.T.);
#317=EDGE_CURVE('',#405,#405,#469,.T.);
#318=EDGE_CURVE('',#406,#406,#470,.T.);
#319=EDGE_CURVE('',#407,#408,#12,.T.);
#320=EDGE_CURVE('',#409,#407,#13,.F.);
#321=EDGE_CURVE('',#410,#409,#19,.F.);
#322=EDGE_CURVE('',#408,#410,#471,.T.);
#323=EDGE_CURVE('',#411,#411,#472,.T.);
#324=EDGE_CURVE('',#412,#412,#473,.F.);
#325=EDGE_CURVE('',#413,#414,#112,.T.);
#326=EDGE_CURVE('',#414,#415,#20,.T.);
#327=EDGE_CURVE('',#415,#416,#474,.F.);
#328=EDGE_CURVE('',#416,#388,#21,.T.);
#329=EDGE_CURVE('',#417,#391,#22,.T.);
#330=EDGE_CURVE('',#417,#418,#475,.F.);
#331=EDGE_CURVE('',#413,#418,#23,.T.);
#332=EDGE_CURVE('',#419,#409,#24,.T.);
#333=EDGE_CURVE('',#419,#420,#476,.T.);
#334=EDGE_CURVE('',#421,#420,#25,.T.);
#335=EDGE_CURVE('',#421,#422,#26,.F.);
#336=EDGE_CURVE('',#423,#422,#27,.T.);
#337=EDGE_CURVE('',#424,#423,#28,.T.);
#338=EDGE_CURVE('',#424,#410,#29,.T.);
#339=EDGE_CURVE('',#425,#408,#30,.T.);
#340=EDGE_CURVE('',#425,#424,#31,.T.);
#341=EDGE_CURVE('',#426,#422,#113,.T.);
#342=EDGE_CURVE('',#426,#427,#32,.T.);
#343=EDGE_CURVE('',#427,#428,#114,.T.);
#344=EDGE_CURVE('',#428,#421,#14,.T.);
#345=EDGE_CURVE('',#419,#420,#115,.T.);
#346=EDGE_CURVE('',#425,#423,#477,.T.);
#347=EDGE_CURVE('',#429,#429,#116,.T.);
#348=EDGE_CURVE('',#430,#430,#478,.T.);
#349=EDGE_CURVE('',#431,#431,#479,.T.);
#350=EDGE_CURVE('',#432,#432,#480,.T.);
#351=EDGE_CURVE('',#433,#433,#481,.T.);
#352=EDGE_CURVE('',#434,#434,#482,.T.);
#353=EDGE_CURVE('',#413,#435,#33,.T.);
#354=EDGE_CURVE('',#435,#436,#117,.T.);
#355=EDGE_CURVE('',#414,#436,#34,.T.);
#356=EDGE_CURVE('',#416,#437,#35,.T.);
#357=EDGE_CURVE('',#437,#389,#36,.T.);
#358=EDGE_CURVE('',#415,#438,#37,.T.);
#359=EDGE_CURVE('',#438,#437,#483,.T.);
#360=EDGE_CURVE('',#439,#390,#38,.T.);
#361=EDGE_CURVE('',#439,#417,#39,.T.);
#362=EDGE_CURVE('',#436,#438,#40,.T.);
#363=EDGE_CURVE('',#435,#440,#41,.T.);
#364=EDGE_CURVE('',#439,#440,#484,.T.);
#365=EDGE_CURVE('',#418,#440,#42,.T.);
#366=EDGE_CURVE('',#421,#441,#43,.T.);
#367=EDGE_CURVE('',#422,#441,#485,.T.);
#368=EDGE_CURVE('',#441,#442,#15,.F.);
#369=EDGE_CURVE('',#443,#442,#44,.T.);
#370=EDGE_CURVE('',#444,#443,#486,.T.);
#371=EDGE_CURVE('',#445,#444,#45,.T.);
#372=EDGE_CURVE('',#445,#426,#487,.T.);
#373=EDGE_CURVE('',#446,#447,#46,.T.);
#374=EDGE_CURVE('',#447,#448,#488,.T.);
#375=EDGE_CURVE('',#448,#449,#47,.T.);
#376=EDGE_CURVE('',#449,#428,#16,.T.);
#377=EDGE_CURVE('',#446,#427,#489,.T.);
#378=EDGE_CURVE('',#447,#444,#48,.T.);
#379=EDGE_CURVE('',#446,#445,#49,.T.);
#380=EDGE_CURVE('',#442,#449,#50,.T.);
#381=EDGE_CURVE('',#443,#448,#51,.T.);
#382=VERTEX_POINT('',#1021);
#383=VERTEX_POINT('',#1023);
#384=VERTEX_POINT('',#1035);
#385=VERTEX_POINT('',#1047);
#386=VERTEX_POINT('',#1050);
#387=VERTEX_POINT('',#1051);
#388=VERTEX_POINT('',#1054);
#389=VERTEX_POINT('',#1055);
#390=VERTEX_POINT('',#1057);
#391=VERTEX_POINT('',#1059);
#392=VERTEX_POINT('',#1063);
#393=VERTEX_POINT('',#1065);
#394=VERTEX_POINT('',#1067);
#395=VERTEX_POINT('',#1068);
#396=VERTEX_POINT('',#1071);
#397=VERTEX_POINT('',#1073);
#398=VERTEX_POINT('',#1075);
#399=VERTEX_POINT('',#1078);
#400=VERTEX_POINT('',#1080);
#401=VERTEX_POINT('',#1083);
#402=VERTEX_POINT('',#1085);
#403=VERTEX_POINT('',#1088);
#404=VERTEX_POINT('',#1090);
#405=VERTEX_POINT('',#1093);
#406=VERTEX_POINT('',#1095);
#407=VERTEX_POINT('',#1098);
#408=VERTEX_POINT('',#1099);
#409=VERTEX_POINT('',#1101);
#410=VERTEX_POINT('',#1103);
#411=VERTEX_POINT('',#1107);
#412=VERTEX_POINT('',#1109);
#413=VERTEX_POINT('',#1122);
#414=VERTEX_POINT('',#1123);
#415=VERTEX_POINT('',#1125);
#416=VERTEX_POINT('',#1127);
#417=VERTEX_POINT('',#1130);
#418=VERTEX_POINT('',#1132);
#419=VERTEX_POINT('',#1136);
#420=VERTEX_POINT('',#1138);
#421=VERTEX_POINT('',#1140);
#422=VERTEX_POINT('',#1142);
#423=VERTEX_POINT('',#1144);
#424=VERTEX_POINT('',#1146);
#425=VERTEX_POINT('',#1151);
#426=VERTEX_POINT('',#1172);
#427=VERTEX_POINT('',#1174);
#428=VERTEX_POINT('',#1193);
#429=VERTEX_POINT('',#1214);
#430=VERTEX_POINT('',#1218);
#431=VERTEX_POINT('',#1221);
#432=VERTEX_POINT('',#1225);
#433=VERTEX_POINT('',#1229);
#434=VERTEX_POINT('',#1233);
#435=VERTEX_POINT('',#1239);
#436=VERTEX_POINT('',#1244);
#437=VERTEX_POINT('',#1248);
#438=VERTEX_POINT('',#1252);
#439=VERTEX_POINT('',#1256);
#440=VERTEX_POINT('',#1261);
#441=VERTEX_POINT('',#1269);
#442=VERTEX_POINT('',#1273);
#443=VERTEX_POINT('',#1275);
#444=VERTEX_POINT('',#1277);
#445=VERTEX_POINT('',#1279);
#446=VERTEX_POINT('',#1283);
#447=VERTEX_POINT('',#1284);
#448=VERTEX_POINT('',#1286);
#449=VERTEX_POINT('',#1288);
#450=CIRCLE('',#721,0.0145);
#451=CIRCLE('',#722,0.0145);
#452=CIRCLE('',#724,0.0175);
#453=CIRCLE('',#725,0.0175);
#454=CIRCLE('',#726,0.0155);
#455=CIRCLE('',#727,0.0145);
#456=CIRCLE('',#729,0.003);
#457=CIRCLE('',#730,0.003);
#458=CIRCLE('',#731,0.0175);
#459=CIRCLE('',#732,0.0175);
#460=CIRCLE('',#733,0.004);
#461=CIRCLE('',#734,0.003);
#462=CIRCLE('',#735,0.003);
#463=CIRCLE('',#737,0.00175);
#464=CIRCLE('',#738,0.00175);
#465=CIRCLE('',#740,0.00175);
#466=CIRCLE('',#741,0.00175);
#467=CIRCLE('',#743,0.00175);
#468=CIRCLE('',#744,0.00175);
#469=CIRCLE('',#746,0.00175);
#470=CIRCLE('',#747,0.00175);
#471=CIRCLE('',#751,0.0175);
#472=CIRCLE('',#753,0.004);
#473=CIRCLE('',#754,0.0145);
#474=CIRCLE('',#756,0.0145);
#475=CIRCLE('',#757,0.0145);
#476=CIRCLE('',#759,0.00245);
#477=CIRCLE('',#764,0.0175);
#478=CIRCLE('',#767,0.003);
#479=CIRCLE('',#769,0.003);
#480=CIRCLE('',#772,0.003);
#481=CIRCLE('',#775,0.003);
#482=CIRCLE('',#778,0.003);
#483=CIRCLE('',#785,0.0155);
#484=CIRCLE('',#788,0.0155);
#485=CIRCLE('',#793,0.046);
#486=CIRCLE('',#796,0.046);
#487=CIRCLE('',#797,0.046);
#488=CIRCLE('',#799,0.043);
#489=CIRCLE('',#801,0.043);
#490=EDGE_LOOP('',(#118));
#491=EDGE_LOOP('',(#119));
#492=EDGE_LOOP('',(#120));
#493=EDGE_LOOP('',(#121));
#494=EDGE_LOOP('',(#122,#123));
#495=EDGE_LOOP('',(#124,#125,#126,#127));
#496=EDGE_LOOP('',(#128));
#497=EDGE_LOOP('',(#129));
#498=EDGE_LOOP('',(#130,#131));
#499=EDGE_LOOP('',(#132));
#500=EDGE_LOOP('',(#133));
#501=EDGE_LOOP('',(#134));
#502=EDGE_LOOP('',(#135));
#503=EDGE_LOOP('',(#136));
#504=EDGE_LOOP('',(#137));
#505=EDGE_LOOP('',(#138));
#506=EDGE_LOOP('',(#139));
#507=EDGE_LOOP('',(#140));
#508=EDGE_LOOP('',(#141));
#509=EDGE_LOOP('',(#142));
#510=EDGE_LOOP('',(#143,#144));
#511=EDGE_LOOP('',(#145,#146,#147,#148));
#512=EDGE_LOOP('',(#149,#150));
#513=EDGE_LOOP('',(#151));
#514=EDGE_LOOP('',(#152));
#515=EDGE_LOOP('',(#153));
#516=EDGE_LOOP('',(#154));
#517=EDGE_LOOP('',(#155));
#518=EDGE_LOOP('',(#156));
#519=EDGE_LOOP('',(#157,#158,#159,#160,#161,#162,#163,#164));
#520=EDGE_LOOP('',(#165));
#521=EDGE_LOOP('',(#166,#167,#168,#169,#170,#171,#172,#173));
#522=EDGE_LOOP('',(#174));
#523=EDGE_LOOP('',(#175));
#524=EDGE_LOOP('',(#176,#177,#178,#179));
#525=EDGE_LOOP('',(#180,#181,#182,#183,#184,#185,#186,#187,#188,#189,#190,
#191));
#526=EDGE_LOOP('',(#192));
#527=EDGE_LOOP('',(#193));
#528=EDGE_LOOP('',(#194,#195,#196));
#529=EDGE_LOOP('',(#197));
#530=EDGE_LOOP('',(#198));
#531=EDGE_LOOP('',(#199));
#532=EDGE_LOOP('',(#200));
#533=EDGE_LOOP('',(#201));
#534=EDGE_LOOP('',(#202));
#535=EDGE_LOOP('',(#203));
#536=EDGE_LOOP('',(#204));
#537=EDGE_LOOP('',(#205));
#538=EDGE_LOOP('',(#206));
#539=EDGE_LOOP('',(#207));
#540=EDGE_LOOP('',(#208));
#541=EDGE_LOOP('',(#209));
#542=EDGE_LOOP('',(#210));
#543=EDGE_LOOP('',(#211));
#544=EDGE_LOOP('',(#212));
#545=EDGE_LOOP('',(#213));
#546=EDGE_LOOP('',(#214));
#547=EDGE_LOOP('',(#215));
#548=EDGE_LOOP('',(#216));
#549=EDGE_LOOP('',(#217));
#550=EDGE_LOOP('',(#218,#219));
#551=EDGE_LOOP('',(#220));
#552=EDGE_LOOP('',(#221,#222,#223,#224));
#553=EDGE_LOOP('',(#225,#226,#227,#228));
#554=EDGE_LOOP('',(#229,#230,#231,#232));
#555=EDGE_LOOP('',(#233,#234,#235,#236));
#556=EDGE_LOOP('',(#237,#238,#239,#240,#241,#242,#243,#244));
#557=EDGE_LOOP('',(#245,#246,#247,#248));
#558=EDGE_LOOP('',(#249,#250,#251,#252));
#559=EDGE_LOOP('',(#253,#254,#255,#256));
#560=EDGE_LOOP('',(#257,#258,#259));
#561=EDGE_LOOP('',(#260,#261,#262,#263,#264,#265,#266));
#562=EDGE_LOOP('',(#267,#268,#269,#270,#271,#272));
#563=EDGE_LOOP('',(#273,#274,#275,#276));
#564=EDGE_LOOP('',(#277,#278,#279,#280));
#565=EDGE_LOOP('',(#281,#282,#283,#284,#285));
#566=EDGE_LOOP('',(#286,#287,#288,#289));
#567=EDGE_LOOP('',(#290,#291,#292,#293));
#568=FACE_BOUND('',#490,.T.);
#569=FACE_BOUND('',#491,.T.);
#570=FACE_BOUND('',#492,.T.);
#571=FACE_BOUND('',#493,.T.);
#572=FACE_BOUND('',#494,.T.);
#573=FACE_BOUND('',#495,.T.);
#574=FACE_BOUND('',#496,.T.);
#575=FACE_BOUND('',#497,.T.);
#576=FACE_BOUND('',#498,.T.);
#577=FACE_BOUND('',#499,.T.);
#578=FACE_BOUND('',#500,.T.);
#579=FACE_BOUND('',#501,.T.);
#580=FACE_BOUND('',#502,.T.);
#581=FACE_BOUND('',#503,.T.);
#582=FACE_BOUND('',#504,.T.);
#583=FACE_BOUND('',#505,.T.);
#584=FACE_BOUND('',#506,.T.);
#585=FACE_BOUND('',#507,.T.);
#586=FACE_BOUND('',#508,.T.);
#587=FACE_BOUND('',#509,.T.);
#588=FACE_BOUND('',#510,.T.);
#589=FACE_BOUND('',#511,.T.);
#590=FACE_BOUND('',#512,.T.);
#591=FACE_BOUND('',#513,.T.);
#592=FACE_BOUND('',#514,.T.);
#593=FACE_BOUND('',#515,.T.);
#594=FACE_BOUND('',#516,.T.);
#595=FACE_BOUND('',#517,.T.);
#596=FACE_BOUND('',#518,.T.);
#597=FACE_BOUND('',#519,.T.);
#598=FACE_BOUND('',#520,.T.);
#599=FACE_BOUND('',#521,.T.);
#600=FACE_BOUND('',#522,.T.);
#601=FACE_BOUND('',#523,.T.);
#602=FACE_BOUND('',#524,.T.);
#603=FACE_BOUND('',#525,.T.);
#604=FACE_BOUND('',#526,.T.);
#605=FACE_BOUND('',#527,.T.);
#606=FACE_BOUND('',#528,.T.);
#607=FACE_BOUND('',#529,.T.);
#608=FACE_BOUND('',#530,.T.);
#609=FACE_BOUND('',#531,.T.);
#610=FACE_BOUND('',#532,.T.);
#611=FACE_BOUND('',#533,.T.);
#612=FACE_BOUND('',#534,.T.);
#613=FACE_BOUND('',#535,.T.);
#614=FACE_BOUND('',#536,.T.);
#615=FACE_BOUND('',#537,.T.);
#616=FACE_BOUND('',#538,.T.);
#617=FACE_BOUND('',#539,.T.);
#618=FACE_BOUND('',#540,.T.);
#619=FACE_BOUND('',#541,.T.);
#620=FACE_BOUND('',#542,.T.);
#621=FACE_BOUND('',#543,.T.);
#622=FACE_BOUND('',#544,.T.);
#623=FACE_BOUND('',#545,.T.);
#624=FACE_BOUND('',#546,.T.);
#625=FACE_BOUND('',#547,.T.);
#626=FACE_BOUND('',#548,.T.);
#627=FACE_BOUND('',#549,.T.);
#628=FACE_BOUND('',#550,.T.);
#629=FACE_BOUND('',#551,.T.);
#630=FACE_BOUND('',#552,.T.);
#631=FACE_BOUND('',#553,.T.);
#632=FACE_BOUND('',#554,.T.);
#633=FACE_BOUND('',#555,.T.);
#634=FACE_BOUND('',#556,.T.);
#635=FACE_BOUND('',#557,.T.);
#636=FACE_BOUND('',#558,.T.);
#637=FACE_BOUND('',#559,.T.);
#638=FACE_BOUND('',#560,.T.);
#639=FACE_BOUND('',#561,.T.);
#640=FACE_BOUND('',#562,.T.);
#641=FACE_BOUND('',#563,.T.);
#642=FACE_BOUND('',#564,.T.);
#643=FACE_BOUND('',#565,.T.);
#644=FACE_BOUND('',#566,.T.);
#645=FACE_BOUND('',#567,.T.);
#646=CYLINDRICAL_SURFACE('',#720,0.0145);
#647=CYLINDRICAL_SURFACE('',#736,0.00175);
#648=CYLINDRICAL_SURFACE('',#739,0.00175);
#649=CYLINDRICAL_SURFACE('',#742,0.00175);
#650=CYLINDRICAL_SURFACE('',#745,0.00175);
#651=CYLINDRICAL_SURFACE('',#748,0.0175);
#652=CYLINDRICAL_SURFACE('',#755,0.0145);
#653=CYLINDRICAL_SURFACE('',#760,0.004);
#654=CYLINDRICAL_SURFACE('',#762,0.0175);
#655=CYLINDRICAL_SURFACE('',#768,0.003);
#656=CYLINDRICAL_SURFACE('',#771,0.003);
#657=CYLINDRICAL_SURFACE('',#774,0.003);
#658=CYLINDRICAL_SURFACE('',#777,0.003);
#659=CYLINDRICAL_SURFACE('',#780,0.00245);
#660=CYLINDRICAL_SURFACE('',#781,0.00245);
#661=CYLINDRICAL_SURFACE('',#782,0.003);
#662=CYLINDRICAL_SURFACE('',#787,0.0155);
#663=CYLINDRICAL_SURFACE('',#794,0.046);
#664=CYLINDRICAL_SURFACE('',#798,0.043);
#665=ADVANCED_FACE('',(#568,#569,#570,#571),#646,.F.);
#666=ADVANCED_FACE('',(#572,#573),#87,.F.);
#667=ADVANCED_FACE('',(#574,#575,#576,#577,#578,#579),#88,.T.);
#668=ADVANCED_FACE('',(#580,#581),#647,.F.);
#669=ADVANCED_FACE('',(#582,#583),#648,.F.);
#670=ADVANCED_FACE('',(#584,#585),#649,.F.);
#671=ADVANCED_FACE('',(#586,#587),#650,.F.);
#672=ADVANCED_FACE('',(#588,#589,#590),#651,.T.);
#673=ADVANCED_FACE('',(#591,#592,#593,#594,#595,#596),#89,.F.);
#674=ADVANCED_FACE('',(#597,#598),#652,.F.);
#675=ADVANCED_FACE('',(#599),#90,.F.);
#676=ADVANCED_FACE('',(#600,#601),#653,.F.);
#677=ADVANCED_FACE('',(#602),#91,.F.);
#678=ADVANCED_FACE('',(#603,#604),#654,.T.);
#679=ADVANCED_FACE('',(#605,#606),#92,.F.);
#680=ADVANCED_FACE('',(#607,#608),#93,.F.);
#681=ADVANCED_FACE('',(#609,#610),#655,.F.);
#682=ADVANCED_FACE('',(#611,#612),#94,.T.);
#683=ADVANCED_FACE('',(#613,#614),#656,.F.);
#684=ADVANCED_FACE('',(#615,#616),#95,.T.);
#685=ADVANCED_FACE('',(#617,#618),#657,.F.);
#686=ADVANCED_FACE('',(#619,#620),#96,.T.);
#687=ADVANCED_FACE('',(#621,#622),#658,.F.);
#688=ADVANCED_FACE('',(#623,#624),#97,.T.);
#689=ADVANCED_FACE('',(#625,#626),#659,.F.);
#690=ADVANCED_FACE('',(#627,#628),#660,.F.);
#691=ADVANCED_FACE('',(#629,#630),#661,.F.);
#692=ADVANCED_FACE('',(#631),#98,.T.);
#693=ADVANCED_FACE('',(#632),#99,.T.);
#694=ADVANCED_FACE('',(#633),#100,.T.);
#695=ADVANCED_FACE('',(#634),#662,.F.);
#696=ADVANCED_FACE('',(#635),#101,.T.);
#697=ADVANCED_FACE('',(#636),#102,.F.);
#698=ADVANCED_FACE('',(#637),#103,.T.);
#699=ADVANCED_FACE('',(#638),#104,.F.);
#700=ADVANCED_FACE('',(#639),#663,.T.);
#701=ADVANCED_FACE('',(#640),#664,.F.);
#702=ADVANCED_FACE('',(#641),#105,.T.);
#703=ADVANCED_FACE('',(#642),#106,.F.);
#704=ADVANCED_FACE('',(#643),#107,.T.);
#705=ADVANCED_FACE('',(#644),#108,.F.);
#706=ADVANCED_FACE('',(#645),#109,.T.);
#707=CLOSED_SHELL('',(#665,#666,#667,#668,#669,#670,#671,#672,#673,#674,
#675,#676,#677,#678,#679,#680,#681,#682,#683,#684,#685,#686,#687,#688,#689,
#690,#691,#692,#693,#694,#695,#696,#697,#698,#699,#700,#701,#702,#703,#704,
#705,#706));
#708=STYLED_ITEM('',(#709),#716);
#709=PRESENTATION_STYLE_ASSIGNMENT((#710));
#710=SURFACE_STYLE_USAGE(.BOTH.,#711);
#711=SURFACE_SIDE_STYLE('',(#712));
#712=SURFACE_STYLE_FILL_AREA(#713);
#713=FILL_AREA_STYLE('',(#714));
#714=FILL_AREA_STYLE_COLOUR('',#715);
#715=COLOUR_RGB('',0.901960784313726,0.901960784313726,0.901960784313726);
#716=MANIFOLD_SOLID_BREP('Bracket',#707);
#717=SHAPE_DEFINITION_REPRESENTATION(#1306,#718);
#718=SHAPE_REPRESENTATION('Bracket',(#719),#1301);
#719=AXIS2_PLACEMENT_3D('',#1018,#807,#808);
#720=AXIS2_PLACEMENT_3D('',#1019,#809,#810);
#721=AXIS2_PLACEMENT_3D('',#1020,#811,#812);
#722=AXIS2_PLACEMENT_3D('',#1022,#813,#814);
#723=AXIS2_PLACEMENT_3D('',#1048,#815,#816);
#724=AXIS2_PLACEMENT_3D('',#1049,#817,#818);
#725=AXIS2_PLACEMENT_3D('',#1052,#819,#820);
#726=AXIS2_PLACEMENT_3D('',#1056,#822,#823);
#727=AXIS2_PLACEMENT_3D('',#1060,#825,#826);
#728=AXIS2_PLACEMENT_3D('',#1061,#827,#828);
#729=AXIS2_PLACEMENT_3D('',#1062,#829,#830);
#730=AXIS2_PLACEMENT_3D('',#1064,#831,#832);
#731=AXIS2_PLACEMENT_3D('',#1066,#833,#834);
#732=AXIS2_PLACEMENT_3D('',#1069,#835,#836);
#733=AXIS2_PLACEMENT_3D('',#1070,#837,#838);
#734=AXIS2_PLACEMENT_3D('',#1072,#839,#840);
#735=AXIS2_PLACEMENT_3D('',#1074,#841,#842);
#736=AXIS2_PLACEMENT_3D('',#1076,#843,#844);
#737=AXIS2_PLACEMENT_3D('',#1077,#845,#846);
#738=AXIS2_PLACEMENT_3D('',#1079,#847,#848);
#739=AXIS2_PLACEMENT_3D('',#1081,#849,#850);
#740=AXIS2_PLACEMENT_3D('',#1082,#851,#852);
#741=AXIS2_PLACEMENT_3D('',#1084,#853,#854);
#742=AXIS2_PLACEMENT_3D('',#1086,#855,#856);
#743=AXIS2_PLACEMENT_3D('',#1087,#857,#858);
#744=AXIS2_PLACEMENT_3D('',#1089,#859,#860);
#745=AXIS2_PLACEMENT_3D('',#1091,#861,#862);
#746=AXIS2_PLACEMENT_3D('',#1092,#863,#864);
#747=AXIS2_PLACEMENT_3D('',#1094,#865,#866);
#748=AXIS2_PLACEMENT_3D('',#1096,#867,#868);
#749=AXIS2_PLACEMENT_3D('',#1097,#869,#870);
#750=AXIS2_PLACEMENT_3D('',#1100,#871,#872);
#751=AXIS2_PLACEMENT_3D('',#1104,#874,#875);
#752=AXIS2_PLACEMENT_3D('',#1105,#876,#877);
#753=AXIS2_PLACEMENT_3D('',#1106,#878,#879);
#754=AXIS2_PLACEMENT_3D('',#1108,#880,#881);
#755=AXIS2_PLACEMENT_3D('',#1110,#882,#883);
#756=AXIS2_PLACEMENT_3D('',#1126,#885,#886);
#757=AXIS2_PLACEMENT_3D('',#1131,#889,#890);
#758=AXIS2_PLACEMENT_3D('',#1134,#892,#893);
#759=AXIS2_PLACEMENT_3D('',#1137,#895,#896);
#760=AXIS2_PLACEMENT_3D('',#1148,#902,#903);
#761=AXIS2_PLACEMENT_3D('',#1149,#904,#905);
#762=AXIS2_PLACEMENT_3D('',#1153,#908,#909);
#763=AXIS2_PLACEMENT_3D('',#1194,#911,#912);
#764=AXIS2_PLACEMENT_3D('',#1202,#913,#914);
#765=AXIS2_PLACEMENT_3D('',#1215,#915,#916);
#766=AXIS2_PLACEMENT_3D('',#1216,#917,#918);
#767=AXIS2_PLACEMENT_3D('',#1217,#919,#920);
#768=AXIS2_PLACEMENT_3D('',#1219,#921,#922);
#769=AXIS2_PLACEMENT_3D('',#1220,#923,#924);
#770=AXIS2_PLACEMENT_3D('',#1222,#925,#926);
#771=AXIS2_PLACEMENT_3D('',#1223,#927,#928);
#772=AXIS2_PLACEMENT_3D('',#1224,#929,#930);
#773=AXIS2_PLACEMENT_3D('',#1226,#931,#932);
#774=AXIS2_PLACEMENT_3D('',#1227,#933,#934);
#775=AXIS2_PLACEMENT_3D('',#1228,#935,#936);
#776=AXIS2_PLACEMENT_3D('',#1230,#937,#938);
#777=AXIS2_PLACEMENT_3D('',#1231,#939,#940);
#778=AXIS2_PLACEMENT_3D('',#1232,#941,#942);
#779=AXIS2_PLACEMENT_3D('',#1234,#943,#944);
#780=AXIS2_PLACEMENT_3D('',#1235,#945,#946);
#781=AXIS2_PLACEMENT_3D('',#1236,#947,#948);
#782=AXIS2_PLACEMENT_3D('',#1237,#949,#950);
#783=AXIS2_PLACEMENT_3D('',#1246,#953,#954);
#784=AXIS2_PLACEMENT_3D('',#1250,#957,#958);
#785=AXIS2_PLACEMENT_3D('',#1253,#960,#961);
#786=AXIS2_PLACEMENT_3D('',#1254,#962,#963);
#787=AXIS2_PLACEMENT_3D('',#1258,#966,#967);
#788=AXIS2_PLACEMENT_3D('',#1262,#970,#971);
#789=AXIS2_PLACEMENT_3D('',#1263,#972,#973);
#790=AXIS2_PLACEMENT_3D('',#1265,#975,#976);
#791=AXIS2_PLACEMENT_3D('',#1266,#977,#978);
#792=AXIS2_PLACEMENT_3D('',#1267,#979,#980);
#793=AXIS2_PLACEMENT_3D('',#1270,#982,#983);
#794=AXIS2_PLACEMENT_3D('',#1271,#984,#985);
#795=AXIS2_PLACEMENT_3D('',#1272,#986,#987);
#796=AXIS2_PLACEMENT_3D('',#1276,#989,#990);
#797=AXIS2_PLACEMENT_3D('',#1280,#992,#993);
#798=AXIS2_PLACEMENT_3D('',#1281,#994,#995);
#799=AXIS2_PLACEMENT_3D('',#1285,#997,#998);
#800=AXIS2_PLACEMENT_3D('',#1289,#1000,#1001);
#801=AXIS2_PLACEMENT_3D('',#1290,#1002,#1003);
#802=AXIS2_PLACEMENT_3D('',#1291,#1004,#1005);
#803=AXIS2_PLACEMENT_3D('',#1294,#1008,#1009);
#804=AXIS2_PLACEMENT_3D('',#1295,#1010,#1011);
#805=AXIS2_PLACEMENT_3D('',#1297,#1013,#1014);
#806=AXIS2_PLACEMENT_3D('',#1299,#1016,#1017);
#807=DIRECTION('',(0.,0.,1.));
#808=DIRECTION('',(1.,0.,0.));
#809=DIRECTION('',(0.,1.,0.));
#810=DIRECTION('',(1.,0.,0.));
#811=DIRECTION('',(0.,1.,0.));
#812=DIRECTION('',(1.,0.,0.));
#813=DIRECTION('',(0.,1.,0.));
#814=DIRECTION('',(1.,0.,0.));
#815=DIRECTION('',(1.,0.,0.));
#816=DIRECTION('',(0.,-1.,0.));
#817=DIRECTION('',(1.,0.,0.));
#818=DIRECTION('',(0.,-1.,0.));
#819=DIRECTION('',(1.,0.,0.));
#820=DIRECTION('',(0.,-1.,0.));
#821=DIRECTION('',(0.,0.,1.));
#822=DIRECTION('',(-1.,0.,0.));
#823=DIRECTION('',(0.,1.,0.));
#824=DIRECTION('',(0.,0.,1.));
#825=DIRECTION('',(1.,0.,0.));
#826=DIRECTION('',(0.,-1.,0.));
#827=DIRECTION('',(1.,0.,0.));
#828=DIRECTION('',(0.,-1.,0.));
#829=DIRECTION('',(1.,0.,0.));
#830=DIRECTION('',(0.,-1.,0.));
#831=DIRECTION('',(-1.,0.,0.));
#832=DIRECTION('',(0.,-1.,0.));
#833=DIRECTION('',(1.,0.,0.));
#834=DIRECTION('',(0.,-1.,0.));
#835=DIRECTION('',(1.,0.,0.));
#836=DIRECTION('',(0.,-1.,0.));
#837=DIRECTION('',(1.,0.,0.));
#838=DIRECTION('',(0.,-1.,0.));
#839=DIRECTION('',(-1.,0.,0.));
#840=DIRECTION('',(0.,-1.,0.));
#841=DIRECTION('',(1.,0.,0.));
#842=DIRECTION('',(0.,-1.,0.));
#843=DIRECTION('',(1.,0.,0.));
#844=DIRECTION('',(0.,-1.,0.));
#845=DIRECTION('',(1.,0.,0.));
#846=DIRECTION('',(0.,-1.,0.));
#847=DIRECTION('',(1.,0.,0.));
#848=DIRECTION('',(0.,-1.,0.));
#849=DIRECTION('',(1.,0.,0.));
#850=DIRECTION('',(0.,-1.,0.));
#851=DIRECTION('',(1.,0.,0.));
#852=DIRECTION('',(0.,-1.,0.));
#853=DIRECTION('',(1.,0.,0.));
#854=DIRECTION('',(0.,-1.,0.));
#855=DIRECTION('',(1.,0.,0.));
#856=DIRECTION('',(0.,-1.,0.));
#857=DIRECTION('',(1.,0.,0.));
#858=DIRECTION('',(0.,-1.,0.));
#859=DIRECTION('',(1.,0.,0.));
#860=DIRECTION('',(0.,-1.,0.));
#861=DIRECTION('',(1.,0.,0.));
#862=DIRECTION('',(0.,-1.,0.));
#863=DIRECTION('',(1.,0.,0.));
#864=DIRECTION('',(0.,-1.,0.));
#865=DIRECTION('',(1.,0.,0.));
#866=DIRECTION('',(0.,-1.,0.));
#867=DIRECTION('',(1.,0.,0.));
#868=DIRECTION('',(0.,-1.,0.));
#869=DIRECTION('',(0.707106781186548,-0.707106781186548,0.));
#870=DIRECTION('',(0.707106781186548,0.707106781186548,0.));
#871=DIRECTION('',(0.707106781186548,0.707106781186548,0.));
#872=DIRECTION('',(0.707106781186548,-0.707106781186548,0.));
#873=DIRECTION('',(-1.,0.,0.));
#874=DIRECTION('',(1.,0.,0.));
#875=DIRECTION('',(0.,-1.,0.));
#876=DIRECTION('',(1.,0.,0.));
#877=DIRECTION('',(0.,0.,-1.));
#878=DIRECTION('',(1.,0.,0.));
#879=DIRECTION('',(0.,-1.,0.));
#880=DIRECTION('',(1.,0.,0.));
#881=DIRECTION('',(0.,-1.,0.));
#882=DIRECTION('',(1.,0.,0.));
#883=DIRECTION('',(0.,-1.,0.));
#884=DIRECTION('',(-1.,0.,0.));
#885=DIRECTION('',(1.,0.,0.));
#886=DIRECTION('',(0.,-1.,0.));
#887=DIRECTION('',(-1.,0.,0.));
#888=DIRECTION('',(-1.,0.,0.));
#889=DIRECTION('',(1.,0.,0.));
#890=DIRECTION('',(0.,-1.,0.));
#891=DIRECTION('',(-1.,0.,0.));
#892=DIRECTION('',(0.,0.,1.));
#893=DIRECTION('',(0.,-1.,0.));
#894=DIRECTION('',(0.,1.,0.));
#895=DIRECTION('',(0.,0.,1.));
#896=DIRECTION('',(0.,-1.,0.));
#897=DIRECTION('',(0.,1.,0.));
#898=DIRECTION('',(0.,1.,0.));
#899=DIRECTION('',(0.,1.,0.));
#900=DIRECTION('',(1.,0.,0.));
#901=DIRECTION('',(0.,1.,0.));
#902=DIRECTION('',(1.,0.,0.));
#903=DIRECTION('',(0.,-1.,0.));
#904=DIRECTION('',(1.,0.,0.));
#905=DIRECTION('',(0.,-1.,0.));
#906=DIRECTION('',(0.,1.,0.));
#907=DIRECTION('',(0.,0.,-1.));
#908=DIRECTION('',(0.,1.,0.));
#909=DIRECTION('',(1.,0.,0.));
#910=DIRECTION('',(0.,1.,0.));
#911=DIRECTION('',(-0.879058339752372,0.476714207163793,0.));
#912=DIRECTION('',(0.476714207163793,0.879058339752372,0.));
#913=DIRECTION('',(0.,1.,0.));
#914=DIRECTION('',(1.,0.,0.));
#915=DIRECTION('',(0.,1.,0.));
#916=DIRECTION('',(1.,0.,0.));
#917=DIRECTION('',(0.,1.,0.));
#918=DIRECTION('',(1.,0.,0.));
#919=DIRECTION('',(0.,-1.,0.));
#920=DIRECTION('',(-1.,0.,0.));
#921=DIRECTION('',(1.,0.,0.));
#922=DIRECTION('',(0.,-1.,0.));
#923=DIRECTION('',(-1.,0.,0.));
#924=DIRECTION('',(0.,-1.,0.));
#925=DIRECTION('',(1.,0.,0.));
#926=DIRECTION('',(0.,0.,-1.));
#927=DIRECTION('',(1.,0.,0.));
#928=DIRECTION('',(0.,-1.,0.));
#929=DIRECTION('',(-1.,0.,0.));
#930=DIRECTION('',(0.,-1.,0.));
#931=DIRECTION('',(1.,0.,0.));
#932=DIRECTION('',(0.,0.,-1.));
#933=DIRECTION('',(1.,0.,0.));
#934=DIRECTION('',(0.,-1.,0.));
#935=DIRECTION('',(1.,0.,0.));
#936=DIRECTION('',(0.,-1.,0.));
#937=DIRECTION('',(1.,0.,0.));
#938=DIRECTION('',(0.,0.,-1.));
#939=DIRECTION('',(1.,0.,0.));
#940=DIRECTION('',(0.,-1.,0.));
#941=DIRECTION('',(1.,0.,0.));
#942=DIRECTION('',(0.,-1.,0.));
#943=DIRECTION('',(1.,0.,0.));
#944=DIRECTION('',(0.,0.,-1.));
#945=DIRECTION('',(0.,0.,1.));
#946=DIRECTION('',(0.,-1.,0.));
#947=DIRECTION('',(0.,0.,1.));
#948=DIRECTION('',(0.,-1.,0.));
#949=DIRECTION('',(0.,-1.,0.));
#950=DIRECTION('',(-1.,0.,0.));
#951=DIRECTION('',(0.,-1.,0.));
#952=DIRECTION('',(0.,-1.,0.));
#953=DIRECTION('',(0.,-1.,0.));
#954=DIRECTION('',(-1.,0.,0.));
#955=DIRECTION('',(0.,0.,1.));
#956=DIRECTION('',(-1.,0.,0.));
#957=DIRECTION('',(-1.,0.,0.));
#958=DIRECTION('',(0.,0.,1.));
#959=DIRECTION('',(0.,-1.,0.));
#960=DIRECTION('',(-1.,0.,0.));
#961=DIRECTION('',(0.,1.,0.));
#962=DIRECTION('',(0.,-1.,0.));
#963=DIRECTION('',(-1.,0.,0.));
#964=DIRECTION('',(-1.,0.,0.));
#965=DIRECTION('',(0.,0.,1.));
#966=DIRECTION('',(-1.,0.,0.));
#967=DIRECTION('',(0.,1.,0.));
#968=DIRECTION('',(-1.,0.,0.));
#969=DIRECTION('',(-1.,0.,0.));
#970=DIRECTION('',(-1.,0.,0.));
#971=DIRECTION('',(0.,1.,0.));
#972=DIRECTION('',(-1.,0.,0.));
#973=DIRECTION('',(0.,0.,1.));
#974=DIRECTION('',(0.,-1.,0.));
#975=DIRECTION('',(0.,0.,-1.));
#976=DIRECTION('',(0.,1.,0.));
#977=DIRECTION('',(0.,0.,-1.));
#978=DIRECTION('',(0.,1.,0.));
#979=DIRECTION('',(1.,0.,0.));
#980=DIRECTION('',(0.,0.,-1.));
#981=DIRECTION('',(0.,0.,-1.));
#982=DIRECTION('',(1.,0.,0.));
#983=DIRECTION('',(0.,-1.,0.));
#984=DIRECTION('',(1.,0.,0.));
#985=DIRECTION('',(0.,-1.,0.));
#986=DIRECTION('',(-0.879058339752372,0.476714207163793,0.));
#987=DIRECTION('',(0.476714207163793,0.879058339752372,0.));
#988=DIRECTION('',(-1.,0.,0.));
#989=DIRECTION('',(1.,0.,0.));
#990=DIRECTION('',(0.,-1.,0.));
#991=DIRECTION('',(1.,0.,0.));
#992=DIRECTION('',(1.,0.,0.));
#993=DIRECTION('',(0.,-1.,0.));
#994=DIRECTION('',(1.,0.,0.));
#995=DIRECTION('',(0.,-1.,0.));
#996=DIRECTION('',(1.,0.,0.));
#997=DIRECTION('',(1.,0.,0.));
#998=DIRECTION('',(0.,-1.,0.));
#999=DIRECTION('',(-1.,0.,0.));
#1000=DIRECTION('',(-0.879058339752372,0.476714207163793,0.));
#1001=DIRECTION('',(0.476714207163793,0.879058339752372,0.));
#1002=DIRECTION('',(1.,0.,0.));
#1003=DIRECTION('',(0.,-1.,0.));
#1004=DIRECTION('',(0.,-4.52912110073767E-16,1.));
#1005=DIRECTION('',(0.,-1.,-4.52912110073767E-16));
#1006=DIRECTION('',(0.,-1.,-4.52912110073767E-16));
#1007=DIRECTION('',(0.,-1.,-4.52912110073767E-16));
#1008=DIRECTION('',(1.,0.,0.));
#1009=DIRECTION('',(0.,0.,-1.));
#1010=DIRECTION('',(-0.879058339752372,0.476714207163793,0.));
#1011=DIRECTION('',(0.,0.,-1.));
#1012=DIRECTION('',(0.,0.,1.));
#1013=DIRECTION('',(0.,-1.,0.));
#1014=DIRECTION('',(-1.,0.,0.));
#1015=DIRECTION('',(0.,0.,1.));
#1016=DIRECTION('',(1.,0.,0.));
#1017=DIRECTION('',(0.,0.,-1.));
#1018=CARTESIAN_POINT('',(0.,0.,0.));
#1019=CARTESIAN_POINT('',(0.0269,-0.03,-0.0175));
#1020=CARTESIAN_POINT('',(0.0269,0.,-0.0175));
#1021=CARTESIAN_POINT('',(0.0414,0.,-0.0175));
#1022=CARTESIAN_POINT('',(0.0269,-0.03,-0.0175));
#1023=CARTESIAN_POINT('',(0.0414,-0.03,-0.0175));
#1024=CARTESIAN_POINT('',(0.0249780542570445,-0.0169181886428772,-0.00310374334750012));
#1025=CARTESIAN_POINT('',(0.0269004535027455,-0.0177157675315023,-0.00294817483635259));
#1026=CARTESIAN_POINT('',(0.0288201317319734,-0.0169187412311136,-0.00310355730708952));
#1027=CARTESIAN_POINT('',(0.0296148432322237,-0.0150023830716734,-0.00326093907493925));
#1028=CARTESIAN_POINT('',(0.0288204928951976,-0.0130802030179217,-0.00310357519162757));
#1029=CARTESIAN_POINT('',(0.0269007289008595,-0.0122854101130028,-0.00294831033153985));
#1030=CARTESIAN_POINT('',(0.0249823550803766,-0.0130781576599598,-0.00310318367312594));
#1031=CARTESIAN_POINT('',(0.0241848988359681,-0.0149979805289324,-0.00326099034857421));
#1032=CARTESIAN_POINT('',(0.0249780542570445,-0.0169181886428772,-0.00310374334750012));
#1033=CARTESIAN_POINT('',(0.0269004535027455,-0.0177157675315023,-0.00294817483635259));
#1034=CARTESIAN_POINT('',(0.0288201317319734,-0.0169187412311136,-0.00310355730708952));
#1035=CARTESIAN_POINT('',(0.0269,-0.01745,-0.003));
#1036=CARTESIAN_POINT('',(0.0288219457429555,-0.0169181886428772,-0.0318962566524999));
#1037=CARTESIAN_POINT('',(0.0268995464972545,-0.0177157675315023,-0.0320518251636474));
#1038=CARTESIAN_POINT('',(0.0249798682680266,-0.0169187412311136,-0.0318964426929105));
#1039=CARTESIAN_POINT('',(0.0241851567677763,-0.0150023830716734,-0.0317390609250608));
#1040=CARTESIAN_POINT('',(0.0249795071048023,-0.0130802030179217,-0.0318964248083724));
#1041=CARTESIAN_POINT('',(0.0268992710991405,-0.0122854101130028,-0.0320516896684602));
#1042=CARTESIAN_POINT('',(0.0288176449196234,-0.0130781576599598,-0.0318968163268741));
#1043=CARTESIAN_POINT('',(0.0296151011640319,-0.0149979805289324,-0.0317390096514258));
#1044=CARTESIAN_POINT('',(0.0288219457429555,-0.0169181886428772,-0.0318962566524999));
#1045=CARTESIAN_POINT('',(0.0268995464972545,-0.0177157675315023,-0.0320518251636474));
#1046=CARTESIAN_POINT('',(0.0249798682680266,-0.0169187412311136,-0.0318964426929105));
#1047=CARTESIAN_POINT('',(0.0269,-0.01745,-0.032));
#1048=CARTESIAN_POINT('',(0.,0.003,-0.0175));
#1049=CARTESIAN_POINT('',(0.,0.0175,-0.0175));
#1050=CARTESIAN_POINT('',(0.,0.0175,-0.035));
#1051=CARTESIAN_POINT('',(0.,0.0175,0.));
#1052=CARTESIAN_POINT('',(0.,0.0175,-0.0175));
#1053=CARTESIAN_POINT('',(0.,0.0175,-0.0175));
#1054=CARTESIAN_POINT('',(0.,0.0175,-0.003));
#1055=CARTESIAN_POINT('',(0.,0.0175,-0.002));
#1056=CARTESIAN_POINT('',(0.,0.0175,-0.0175));
#1057=CARTESIAN_POINT('',(0.,0.0175,-0.033));
#1058=CARTESIAN_POINT('',(0.,0.0175,-0.0175));
#1059=CARTESIAN_POINT('',(0.,0.0175,-0.032));
#1060=CARTESIAN_POINT('',(0.,0.0175,-0.0175));
#1061=CARTESIAN_POINT('',(0.0538,0.003,-0.0175));
#1062=CARTESIAN_POINT('',(0.0538,0.0175,-0.026));
#1063=CARTESIAN_POINT('',(0.0538,0.0145,-0.026));
#1064=CARTESIAN_POINT('',(0.0538,0.009,-0.0175));
#1065=CARTESIAN_POINT('',(0.0538,0.006,-0.0175));
#1066=CARTESIAN_POINT('',(0.0538,0.0175,-0.0175));
#1067=CARTESIAN_POINT('',(0.0538,0.0175,-0.035));
#1068=CARTESIAN_POINT('',(0.0538,0.0175,0.));
#1069=CARTESIAN_POINT('',(0.0538,0.0175,-0.0175));
#1070=CARTESIAN_POINT('',(0.0538,0.0175,-0.0175));
#1071=CARTESIAN_POINT('',(0.0538,0.0135,-0.0175));
#1072=CARTESIAN_POINT('',(0.0538,0.026,-0.0175));
#1073=CARTESIAN_POINT('',(0.0538,0.023,-0.0175));
#1074=CARTESIAN_POINT('',(0.0538,0.0175,-0.009));
#1075=CARTESIAN_POINT('',(0.0538,0.0145,-0.009));
#1076=CARTESIAN_POINT('',(0.0508,0.0175,-0.009));
#1077=CARTESIAN_POINT('',(0.0508,0.0175,-0.009));
#1078=CARTESIAN_POINT('',(0.0508,0.01575,-0.009));
#1079=CARTESIAN_POINT('',(0.0528,0.0175,-0.009));
#1080=CARTESIAN_POINT('',(0.0528,0.01575,-0.009));
#1081=CARTESIAN_POINT('',(0.0508,0.0175,-0.026));
#1082=CARTESIAN_POINT('',(0.0508,0.0175,-0.026));
#1083=CARTESIAN_POINT('',(0.0508,0.01575,-0.026));
#1084=CARTESIAN_POINT('',(0.0528,0.0175,-0.026));
#1085=CARTESIAN_POINT('',(0.0528,0.01575,-0.026));
#1086=CARTESIAN_POINT('',(0.0508,0.026,-0.0175));
#1087=CARTESIAN_POINT('',(0.0508,0.026,-0.0175));
#1088=CARTESIAN_POINT('',(0.0508,0.02425,-0.0175));
#1089=CARTESIAN_POINT('',(0.0528,0.026,-0.0175));
#1090=CARTESIAN_POINT('',(0.0528,0.02425,-0.0175));
#1091=CARTESIAN_POINT('',(0.0508,0.009,-0.0175));
#1092=CARTESIAN_POINT('',(0.0508,0.009,-0.0175));
#1093=CARTESIAN_POINT('',(0.0508,0.00725,-0.0175));
#1094=CARTESIAN_POINT('',(0.0528,0.009,-0.0175));
#1095=CARTESIAN_POINT('',(0.0528,0.00725,-0.0175));
#1096=CARTESIAN_POINT('',(-7.70371977754894E-34,0.0175,-0.0175));
#1097=CARTESIAN_POINT('',(0.0269,0.0175,-0.0175));
#1098=CARTESIAN_POINT('',(0.0269,0.0175,-3.46944695195361E-18));
#1099=CARTESIAN_POINT('',(0.0094,0.,-0.0175));
#1100=CARTESIAN_POINT('',(0.0269,0.0175,-0.0175));
#1101=CARTESIAN_POINT('',(0.0269,0.0175,-0.035));
#1102=CARTESIAN_POINT('',(-7.70371977754894E-34,0.0175,-0.035));
#1103=CARTESIAN_POINT('',(0.0094,0.0175,-0.035));
#1104=CARTESIAN_POINT('',(0.0094,0.0175,-0.0175));
#1105=CARTESIAN_POINT('',(0.0508,0.016,-0.0175));
#1106=CARTESIAN_POINT('',(0.0508,0.0175,-0.0175));
#1107=CARTESIAN_POINT('',(0.0508,0.0135,-0.0175));
#1108=CARTESIAN_POINT('',(0.0508,0.0175,-0.0175));
#1109=CARTESIAN_POINT('',(0.0508,0.003,-0.0175));
#1110=CARTESIAN_POINT('',(-4.89858719658942E-19,0.0175,-0.0175));
#1111=CARTESIAN_POINT('',(0.0243019237886467,0.00307779489814404,-0.019));
#1112=CARTESIAN_POINT('',(0.0246274404034507,0.00313643481952567,-0.0195638113155484));
#1113=CARTESIAN_POINT('',(0.0256614364326261,0.00330299638001141,-0.0204756094552656));
#1114=CARTESIAN_POINT('',(0.0277368411693882,0.00333751713067162,-0.0206117363123402));
#1115=CARTESIAN_POINT('',(0.0294538131577401,0.00310175944605836,-0.0194630723530496));
#1116=CARTESIAN_POINT('',(0.0301231609532003,0.00294911334588407,-0.01750033024019));
#1117=CARTESIAN_POINT('',(0.0294535430039769,0.00310178717567744,-0.0155365644656755));
#1118=CARTESIAN_POINT('',(0.0277372970055215,0.00333750954978625,-0.0143882425373848));
#1119=CARTESIAN_POINT('',(0.0256611237891833,0.00330293111131519,-0.0145251710742966));
#1120=CARTESIAN_POINT('',(0.0246286787023776,0.00313665789186182,-0.0154340438877954));
#1121=CARTESIAN_POINT('',(0.0243019237886467,0.00307779489814406,-0.0159999999999999));
#1122=CARTESIAN_POINT('',(0.0243019237886467,0.00307779489814404,-0.019));
#1123=CARTESIAN_POINT('',(0.0243019237886462,0.00307779489814399,-0.0159999999999996));
#1124=CARTESIAN_POINT('',(0.028,0.00307779489814404,-0.016));
#1125=CARTESIAN_POINT('',(0.001,0.00307779489814404,-0.016));
#1126=CARTESIAN_POINT('',(0.001,0.0175,-0.0175));
#1127=CARTESIAN_POINT('',(0.001,0.0175,-0.003));
#1128=CARTESIAN_POINT('',(0.001,0.0175,-0.003));
#1129=CARTESIAN_POINT('',(0.001,0.0175,-0.032));
#1130=CARTESIAN_POINT('',(0.001,0.0175,-0.032));
#1131=CARTESIAN_POINT('',(0.001,0.0175,-0.0175));
#1132=CARTESIAN_POINT('',(0.001,0.00307779489814404,-0.019));
#1133=CARTESIAN_POINT('',(0.028,0.00307779489814404,-0.019));
#1134=CARTESIAN_POINT('',(0.0269,0.003,-0.035));
#1135=CARTESIAN_POINT('',(0.0269,-0.03,-0.035));
#1136=CARTESIAN_POINT('',(0.0269,-0.01255,-0.035));
#1137=CARTESIAN_POINT('',(0.0269,-0.015,-0.035));
#1138=CARTESIAN_POINT('',(0.0269,-0.01745,-0.035));
#1139=CARTESIAN_POINT('',(0.0269,-0.03,-0.035));
#1140=CARTESIAN_POINT('',(0.0269,-0.0246365783603219,-0.035));
#1141=CARTESIAN_POINT('',(0.0269,-0.03,-0.035));
#1142=CARTESIAN_POINT('',(0.0269,-0.0250411565428116,-0.035));
#1143=CARTESIAN_POINT('',(0.0269,-0.03,-0.035));
#1144=CARTESIAN_POINT('',(0.0269,-0.03,-0.035));
#1145=CARTESIAN_POINT('',(0.01815,-0.03,-0.035));
#1146=CARTESIAN_POINT('',(0.0094,-0.03,-0.035));
#1147=CARTESIAN_POINT('',(0.0094,-0.03,-0.035));
#1148=CARTESIAN_POINT('',(0.0508,0.0175,-0.0175));
#1149=CARTESIAN_POINT('',(0.0094,-0.03,-0.02625));
#1150=CARTESIAN_POINT('',(0.0094,-0.03,-0.0175));
#1151=CARTESIAN_POINT('',(0.0094,-0.03,-0.0175));
#1152=CARTESIAN_POINT('',(0.0094,-0.03,-0.02625));
#1153=CARTESIAN_POINT('',(0.0269,-0.03,-0.0175));
#1154=CARTESIAN_POINT('',(0.0269,-0.0250411565428116,0.));
#1155=CARTESIAN_POINT('',(0.0280677856047669,-0.0250411565428116,0.));
#1156=CARTESIAN_POINT('',(0.0303541002291237,-0.0251361224009344,-0.000228042077303266));
#1157=CARTESIAN_POINT('',(0.0336918098799367,-0.0255413440627188,-0.00124901910584856));
#1158=CARTESIAN_POINT('',(0.0366983429496894,-0.0261259587699052,-0.00286742340328422));
#1159=CARTESIAN_POINT('',(0.0393519826913241,-0.0268057367995539,-0.00504541266287681));
#1160=CARTESIAN_POINT('',(0.0415227890927549,-0.0274723756579289,-0.00768756866394581));
#1161=CARTESIAN_POINT('',(0.0431481938674961,-0.0280330099941148,-0.0107007105536262));
#1162=CARTESIAN_POINT('',(0.0441692821538669,-0.0284114694772669,-0.0140333432889663));
#1163=CARTESIAN_POINT('',(0.0445148422115945,-0.028544071726538,-0.0174699627570945));
#1164=CARTESIAN_POINT('',(0.0441712757505505,-0.0284122157500441,-0.0209627801707836));
#1165=CARTESIAN_POINT('',(0.0428250717093715,-0.0279133026929597,-0.0253699074026363));
#1166=CARTESIAN_POINT('',(0.0402240740534495,-0.0270306037631191,-0.0292362356664198));
#1167=CARTESIAN_POINT('',(0.0367293376969873,-0.0261324462480809,-0.0321125869624987));
#1168=CARTESIAN_POINT('',(0.0336840477049867,-0.0255406710132611,-0.0337533102303432));
#1169=CARTESIAN_POINT('',(0.0304046883512339,-0.0251402358029677,-0.0347615373741612));
#1170=CARTESIAN_POINT('',(0.0280680131415258,-0.0250411565428116,-0.035));
#1171=CARTESIAN_POINT('',(0.0269,-0.0250411565428116,-0.035));
#1172=CARTESIAN_POINT('',(0.0269,-0.0250411565428116,0.));
#1173=CARTESIAN_POINT('',(0.0269,-0.03,0.));
#1174=CARTESIAN_POINT('',(0.0269,-0.0217778563569857,0.));
#1175=CARTESIAN_POINT('',(0.0269,-0.0217778563569857,0.));
#1176=CARTESIAN_POINT('',(0.0280375291183358,-0.0217778563569857,0.));
#1177=CARTESIAN_POINT('',(0.0302645186241738,-0.0218754200770584,-0.000216381719712065));
#1178=CARTESIAN_POINT('',(0.0335196679434281,-0.0222921435170297,-0.00118482308930145));
#1179=CARTESIAN_POINT('',(0.0364621191350952,-0.0228948650204891,-0.00271898708159679));
#1180=CARTESIAN_POINT('',(0.0399520352799317,-0.0238376888835278,-0.00547827039287255));
#1181=CARTESIAN_POINT('',(0.042544975806777,-0.0247664086436853,-0.00911798805186939));
#1182=CARTESIAN_POINT('',(0.0440161915056049,-0.0253432487633956,-0.0133695449342051));
#1183=CARTESIAN_POINT('',(0.0444914521572843,-0.0255374919759654,-0.0167052033954562));
#1184=CARTESIAN_POINT('',(0.0443131754521968,-0.0254641400051486,-0.020118997755727));
#1185=CARTESIAN_POINT('',(0.043496721512307,-0.0251363877967122,-0.0233774873986757));
#1186=CARTESIAN_POINT('',(0.0420737236728005,-0.0245970578419704,-0.0264308565321685));
#1187=CARTESIAN_POINT('',(0.0401168583639148,-0.0239249480137281,-0.0291270493444151));
#1188=CARTESIAN_POINT('',(0.0377141912790237,-0.0232130411989557,-0.0313922811958387));
#1189=CARTESIAN_POINT('',(0.03488442112792,-0.0225461147286386,-0.0331902571219957));
#1190=CARTESIAN_POINT('',(0.0317996726360298,-0.0220389157378858,-0.0344112665859114));
#1191=CARTESIAN_POINT('',(0.0295609403445978,-0.0218517807944161,-0.0348334680930066));
#1192=CARTESIAN_POINT('',(0.0284340481786547,-0.0218078020730546,-0.0349326330823994));
#1193=CARTESIAN_POINT('',(0.0284340481786548,-0.0218078020730546,-0.0349326330823994));
#1194=CARTESIAN_POINT('',(0.0269,-0.0246365783603219,-0.0175));
#1195=CARTESIAN_POINT('',(0.0269,-0.01255,-0.035));
#1196=CARTESIAN_POINT('',(0.0275482124494237,-0.01255,-0.035));
#1197=CARTESIAN_POINT('',(0.0288159578926662,-0.0130809885787325,-0.0349142281159473));
#1198=CARTESIAN_POINT('',(0.0296165697153453,-0.014997341628447,-0.0347844078612359));
#1199=CARTESIAN_POINT('',(0.0288177591924715,-0.0169187282994185,-0.0349140488859279));
#1200=CARTESIAN_POINT('',(0.0275482117600248,-0.01745,-0.035));
#1201=CARTESIAN_POINT('',(0.0269,-0.01745,-0.035));
#1202=CARTESIAN_POINT('',(0.0269,-0.03,-0.0175));
#1203=CARTESIAN_POINT('',(0.0249780250480158,-0.0169182383210699,-8.59634762526207E-5));
#1204=CARTESIAN_POINT('',(0.0269004681291601,-0.0177157361595823,4.29419201893118E-5));
#1205=CARTESIAN_POINT('',(0.0288201024353439,-0.0169188170406009,-8.58042045046264E-5));
#1206=CARTESIAN_POINT('',(0.0296147990439523,-0.0150022579901849,-0.000215611948593288));
#1207=CARTESIAN_POINT('',(0.0288206990666327,-0.0130804137523406,-8.58397990914156E-5));
#1208=CARTESIAN_POINT('',(0.026900608968744,-0.0122853532550689,4.28328067843166E-5));
#1209=CARTESIAN_POINT('',(0.0249824594972376,-0.0130781742919332,-8.54915770827347E-5));
#1210=CARTESIAN_POINT('',(0.0241848802609187,-0.0149976922166983,-0.000215659070686274));
#1211=CARTESIAN_POINT('',(0.0249780250480158,-0.0169182383210699,-8.59634762526207E-5));
#1212=CARTESIAN_POINT('',(0.0269004681291601,-0.0177157361595823,4.29419201893118E-5));
#1213=CARTESIAN_POINT('',(0.0288201024353439,-0.0169188170406009,-8.58042045046264E-5));
#1214=CARTESIAN_POINT('',(0.0269,-0.01745,-1.50018799191916E-18));
#1215=CARTESIAN_POINT('',(0.0269,-0.03,-0.0175));
#1216=CARTESIAN_POINT('',(0.0269,0.,-0.0175));
#1217=CARTESIAN_POINT('',(0.0269,0.,-0.0175));
#1218=CARTESIAN_POINT('',(0.0239,0.,-0.0175));
#1219=CARTESIAN_POINT('',(0.0528,0.009,-0.0175));
#1220=CARTESIAN_POINT('',(0.0528,0.009,-0.0175));
#1221=CARTESIAN_POINT('',(0.0528,0.006,-0.0175));
#1222=CARTESIAN_POINT('',(0.0528,0.016,-0.0175));
#1223=CARTESIAN_POINT('',(0.0528,0.026,-0.0175));
#1224=CARTESIAN_POINT('',(0.0528,0.026,-0.0175));
#1225=CARTESIAN_POINT('',(0.0528,0.023,-0.0175));
#1226=CARTESIAN_POINT('',(0.0528,0.016,-0.0175));
#1227=CARTESIAN_POINT('',(0.0528,0.0175,-0.026));
#1228=CARTESIAN_POINT('',(0.0528,0.0175,-0.026));
#1229=CARTESIAN_POINT('',(0.0528,0.0145,-0.026));
#1230=CARTESIAN_POINT('',(0.0528,0.016,-0.0175));
#1231=CARTESIAN_POINT('',(0.0528,0.0175,-0.009));
#1232=CARTESIAN_POINT('',(0.0528,0.0175,-0.009));
#1233=CARTESIAN_POINT('',(0.0528,0.0145,-0.009));
#1234=CARTESIAN_POINT('',(0.0528,0.016,-0.0175));
#1235=CARTESIAN_POINT('',(0.0269,-0.015,-0.05));
#1236=CARTESIAN_POINT('',(0.0269,-0.015,-0.05));
#1237=CARTESIAN_POINT('',(0.0269,0.025,-0.0175));
#1238=CARTESIAN_POINT('',(0.0243019237886467,0.025,-0.019));
#1239=CARTESIAN_POINT('',(0.0243019237886467,0.00207275137945848,-0.019));
#1240=CARTESIAN_POINT('',(0.0243019237886467,0.00207275137945848,-0.019));
#1241=CARTESIAN_POINT('',(0.0237747464459696,0.00198397035655139,-0.0180869020578842));
#1242=CARTESIAN_POINT('',(0.0237747326462283,0.00198396803256087,-0.0169131218439689));
#1243=CARTESIAN_POINT('',(0.0243019237886467,0.00207275137945848,-0.016));
#1244=CARTESIAN_POINT('',(0.0243019237886467,0.00207275137945848,-0.016));
#1245=CARTESIAN_POINT('',(0.0243019237886467,0.025,-0.016));
#1246=CARTESIAN_POINT('',(0.001,0.0175,-0.0175));
#1247=CARTESIAN_POINT('',(0.001,0.0175,-0.0175));
#1248=CARTESIAN_POINT('',(0.001,0.0175,-0.002));
#1249=CARTESIAN_POINT('',(0.001,0.0175,-0.002));
#1250=CARTESIAN_POINT('',(0.001,0.0175,-0.0175));
#1251=CARTESIAN_POINT('',(0.001,0.00257527313880126,-0.016));
#1252=CARTESIAN_POINT('',(0.001,0.00207275137945848,-0.016));
#1253=CARTESIAN_POINT('',(0.001,0.0175,-0.0175));
#1254=CARTESIAN_POINT('',(0.001,0.0175,-0.0175));
#1255=CARTESIAN_POINT('',(0.001,0.0175,-0.033));
#1256=CARTESIAN_POINT('',(0.001,0.0175,-0.033));
#1257=CARTESIAN_POINT('',(0.001,0.0175,-0.0175));
#1258=CARTESIAN_POINT('',(0.001,0.0175,-0.0175));
#1259=CARTESIAN_POINT('',(0.028,0.00207275137945848,-0.016));
#1260=CARTESIAN_POINT('',(0.028,0.00207275137945848,-0.019));
#1261=CARTESIAN_POINT('',(0.001,0.00207275137945848,-0.019));
#1262=CARTESIAN_POINT('',(0.001,0.0175,-0.0175));
#1263=CARTESIAN_POINT('',(0.001,0.0175,-0.0175));
#1264=CARTESIAN_POINT('',(0.001,0.00257527313880126,-0.019));
#1265=CARTESIAN_POINT('',(0.028,0.00257527313880126,-0.019));
#1266=CARTESIAN_POINT('',(0.028,0.00257527313880126,-0.016));
#1267=CARTESIAN_POINT('',(0.0269,-0.0633872498749318,-0.0285945684561133));
#1268=CARTESIAN_POINT('',(0.0269,-0.0246365783603219,-0.0628899309089205));
#1269=CARTESIAN_POINT('',(0.0269,-0.0246365783603219,-0.0359528795607744));
#1270=CARTESIAN_POINT('',(0.0269,0.0175,-0.0175));
#1271=CARTESIAN_POINT('',(0.0269,0.0175,-0.0175));
#1272=CARTESIAN_POINT('',(0.0497507081239845,0.0175,-0.0175));
#1273=CARTESIAN_POINT('',(0.0538,0.024966871639678,-0.0628899309089205));
#1274=CARTESIAN_POINT('',(0.0888,0.024966871639678,-0.0628899309089205));
#1275=CARTESIAN_POINT('',(0.0888,0.024966871639678,-0.0628899309089205));
#1276=CARTESIAN_POINT('',(0.0888,0.0175,-0.0175));
#1277=CARTESIAN_POINT('',(0.0888,-0.0192700658179051,0.0101398672165212));
#1278=CARTESIAN_POINT('',(0.0269,-0.0192700658179051,0.0101398672165212));
#1279=CARTESIAN_POINT('',(0.0269,-0.0192700658179051,0.0101398672165212));
#1280=CARTESIAN_POINT('',(0.0269,0.0175,-0.0175));
#1281=CARTESIAN_POINT('',(0.0269,0.0175,-0.0175));
#1282=CARTESIAN_POINT('',(0.0269,-0.015439911054116,0.0101398672165212));
#1283=CARTESIAN_POINT('',(0.0269,-0.015439911054116,0.0101398672165212));
#1284=CARTESIAN_POINT('',(0.0888,-0.015439911054116,0.0101398672165212));
#1285=CARTESIAN_POINT('',(0.0888,0.0175,-0.0175));
#1286=CARTESIAN_POINT('',(0.0888,0.024966871639678,-0.059846733379525));
#1287=CARTESIAN_POINT('',(0.0888,0.024966871639678,-0.059846733379525));
#1288=CARTESIAN_POINT('',(0.0538,0.024966871639678,-0.059846733379525));
#1289=CARTESIAN_POINT('',(0.0497507081239845,0.0175,-0.0175));
#1290=CARTESIAN_POINT('',(0.0269,0.0175,-0.0175));
#1291=CARTESIAN_POINT('',(0.0269,-0.0173549884360106,0.0101398672165212));
#1292=CARTESIAN_POINT('',(0.0888,-0.0173549884360106,0.0101398672165212));
#1293=CARTESIAN_POINT('',(0.0269,-0.0173549884360106,0.0101398672165212));
#1294=CARTESIAN_POINT('',(0.0269,-0.0633872498749318,-0.0285945684561133));
#1295=CARTESIAN_POINT('',(0.0538,0.024966871639678,-0.0613683321442227));
#1296=CARTESIAN_POINT('',(0.0538,0.024966871639678,-0.0613683321442227));
#1297=CARTESIAN_POINT('',(0.0888,0.024966871639678,-0.0613683321442227));
#1298=CARTESIAN_POINT('',(0.0888,0.024966871639678,-0.0613683321442227));
#1299=CARTESIAN_POINT('',(0.0888,-0.0633872498749318,-0.0285945684561133));
#1300=MECHANICAL_DESIGN_GEOMETRIC_PRESENTATION_REPRESENTATION('',(#708),
#1301);
#1301=(
GEOMETRIC_REPRESENTATION_CONTEXT(3)
GLOBAL_UNCERTAINTY_ASSIGNED_CONTEXT((#1302))
GLOBAL_UNIT_ASSIGNED_CONTEXT((#1305,#1304,#1303))
REPRESENTATION_CONTEXT('Bracket','TOP_LEVEL_ASSEMBLY_PART')
);
#1302=UNCERTAINTY_MEASURE_WITH_UNIT(LENGTH_MEASURE(2.E-5),#1305,
'DISTANCE_ACCURACY_VALUE','Maximum Tolerance applied to model');
#1303=(
NAMED_UNIT(*)
SI_UNIT($,.STERADIAN.)
SOLID_ANGLE_UNIT()
);
#1304=(
NAMED_UNIT(*)
PLANE_ANGLE_UNIT()
SI_UNIT($,.RADIAN.)
);
#1305=(
LENGTH_UNIT()
NAMED_UNIT(*)
SI_UNIT($,.METRE.)
);
#1306=PRODUCT_DEFINITION_SHAPE('','',#1307);
#1307=PRODUCT_DEFINITION('','',#1309,#1308);
#1308=PRODUCT_DEFINITION_CONTEXT('',#1315,'design');
#1309=PRODUCT_DEFINITION_FORMATION_WITH_SPECIFIED_SOURCE('','',#1311,
 .NOT_KNOWN.);
#1310=PRODUCT_RELATED_PRODUCT_CATEGORY('','',(#1311));
#1311=PRODUCT('Bracket','Bracket','Bracket',(#1313));
#1312=PRODUCT_CATEGORY('','');
#1313=PRODUCT_CONTEXT('',#1315,'mechanical');
#1314=APPLICATION_PROTOCOL_DEFINITION('international standard',
'ap242_managed_model_based_3d_engineering',2020,#1315);
#1315=APPLICATION_CONTEXT('managed model based 3d engineering');
ENDSEC;
END-ISO-10303-21;
