ISO-10303-21;
HEADER;
/* Generated by software containing ST-Developer
 * from STEP Tools, Inc. (www.steptools.com) 
 */
/* OPTION: using custom renumber hook */

FILE_DESCRIPTION(
/* description */ ('STEP AP242 Edition 2',
'CAx-IF Rec.Pracs.---Representation and Presentation of Product Manufa
cturing Information (PMI)---4.0---2014-10-13',
'CAx-IF Rec.Pracs.---3D Tessellated Geometry---0.4---2014-09-14','2;1',
'CAx-IF Rec.Pracs.---User Defined Attributes---1.5---2016-08-15'),
/* implementation_level */ '2;1');

FILE_NAME(
/* name */ 'PVC Pipe Joint - Right- Rear-Left-Front',
/* time_stamp */ '2026-08-05T18:45:11Z',
/* author */ (''),
/* organization */ (''),
/* preprocessor_version */ 'ST-DEVELOPER v20',
/* originating_system */ 'ONSHAPE BY PTC INC, 1.218',
/* authorisation */ '  ');

FILE_SCHEMA (('AP242_MANAGED_MODEL_BASED_3D_ENGINEERING_MIM_LF { 1 0 10303 442 3 1 4 }'));
ENDSEC;

DATA;
#10=SHAPE_REPRESENTATION_RELATIONSHIP('','',#337,#11);
#11=ADVANCED_BREP_SHAPE_REPRESENTATION('',(#335),#629);
#12=ELLIPSE('',#369,0.0016574411943006,0.00165);
#13=TOROIDAL_SURFACE('',#361,0.017,0.017);
#14=TOROIDAL_SURFACE('',#362,0.017,0.017);
#15=TOROIDAL_SURFACE('',#365,0.017,0.0115);
#16=PLANE('',#353);
#17=PLANE('',#356);
#18=PLANE('',#358);
#19=PLANE('',#359);
#20=PLANE('',#367);
#21=PLANE('',#368);
#22=PLANE('',#370);
#23=CIRCLE('',#340,0.017);
#24=CIRCLE('',#341,0.017);
#25=CIRCLE('',#342,0.017);
#26=CIRCLE('',#344,0.0145);
#27=CIRCLE('',#345,0.0145);
#28=CIRCLE('',#347,0.017);
#29=CIRCLE('',#348,0.017);
#30=CIRCLE('',#349,0.017);
#31=CIRCLE('',#351,0.0145);
#32=CIRCLE('',#352,0.0145);
#33=CIRCLE('',#354,0.017);
#34=CIRCLE('',#355,0.034);
#35=CIRCLE('',#357,0.00165);
#36=CIRCLE('',#360,0.0115);
#37=CIRCLE('',#363,0.034);
#38=CIRCLE('',#366,0.0115);
#39=LINE('',#486,#53);
#40=LINE('',#492,#54);
#41=LINE('',#496,#55);
#42=LINE('',#536,#56);
#43=LINE('',#540,#57);
#44=LINE('',#545,#58);
#45=LINE('',#593,#59);
#46=LINE('',#596,#60);
#47=LINE('',#598,#61);
#48=LINE('',#600,#62);
#49=LINE('',#605,#63);
#50=LINE('',#606,#64);
#51=LINE('',#615,#65);
#52=LINE('',#622,#66);
#53=VECTOR('',#379,1.);
#54=VECTOR('',#384,1.);
#55=VECTOR('',#387,1.);
#56=VECTOR('',#396,1.);
#57=VECTOR('',#399,1.);
#58=VECTOR('',#404,1.);
#59=VECTOR('',#413,1.);
#60=VECTOR('',#414,1.);
#61=VECTOR('',#417,1.);
#62=VECTOR('',#418,1.);
#63=VECTOR('',#425,1.);
#64=VECTOR('',#426,1.);
#65=VECTOR('',#441,1.);
#66=VECTOR('',#452,1.);
#67=ORIENTED_EDGE('',*,*,#147,.T.);
#68=ORIENTED_EDGE('',*,*,#148,.T.);
#69=ORIENTED_EDGE('',*,*,#149,.T.);
#70=ORIENTED_EDGE('',*,*,#150,.F.);
#71=ORIENTED_EDGE('',*,*,#151,.F.);
#72=ORIENTED_EDGE('',*,*,#152,.F.);
#73=ORIENTED_EDGE('',*,*,#153,.T.);
#74=ORIENTED_EDGE('',*,*,#154,.T.);
#75=ORIENTED_EDGE('',*,*,#155,.T.);
#76=ORIENTED_EDGE('',*,*,#156,.F.);
#77=ORIENTED_EDGE('',*,*,#157,.F.);
#78=ORIENTED_EDGE('',*,*,#158,.F.);
#79=ORIENTED_EDGE('',*,*,#159,.T.);
#80=ORIENTED_EDGE('',*,*,#160,.F.);
#81=ORIENTED_EDGE('',*,*,#161,.F.);
#82=ORIENTED_EDGE('',*,*,#162,.T.);
#83=ORIENTED_EDGE('',*,*,#163,.T.);
#84=ORIENTED_EDGE('',*,*,#164,.T.);
#85=ORIENTED_EDGE('',*,*,#165,.F.);
#86=ORIENTED_EDGE('',*,*,#166,.T.);
#87=ORIENTED_EDGE('',*,*,#167,.F.);
#88=ORIENTED_EDGE('',*,*,#168,.T.);
#89=ORIENTED_EDGE('',*,*,#169,.F.);
#90=ORIENTED_EDGE('',*,*,#170,.F.);
#91=ORIENTED_EDGE('',*,*,#171,.F.);
#92=ORIENTED_EDGE('',*,*,#172,.F.);
#93=ORIENTED_EDGE('',*,*,#173,.T.);
#94=ORIENTED_EDGE('',*,*,#152,.T.);
#95=ORIENTED_EDGE('',*,*,#174,.F.);
#96=ORIENTED_EDGE('',*,*,#162,.F.);
#97=ORIENTED_EDGE('',*,*,#175,.F.);
#98=ORIENTED_EDGE('',*,*,#176,.T.);
#99=ORIENTED_EDGE('',*,*,#177,.T.);
#100=ORIENTED_EDGE('',*,*,#178,.T.);
#101=ORIENTED_EDGE('',*,*,#154,.F.);
#102=ORIENTED_EDGE('',*,*,#179,.T.);
#103=ORIENTED_EDGE('',*,*,#172,.T.);
#104=ORIENTED_EDGE('',*,*,#180,.F.);
#105=ORIENTED_EDGE('',*,*,#149,.F.);
#106=ORIENTED_EDGE('',*,*,#156,.T.);
#107=ORIENTED_EDGE('',*,*,#173,.F.);
#108=ORIENTED_EDGE('',*,*,#179,.F.);
#109=ORIENTED_EDGE('',*,*,#153,.F.);
#110=ORIENTED_EDGE('',*,*,#181,.T.);
#111=ORIENTED_EDGE('',*,*,#155,.F.);
#112=ORIENTED_EDGE('',*,*,#151,.T.);
#113=ORIENTED_EDGE('',*,*,#163,.F.);
#114=ORIENTED_EDGE('',*,*,#174,.T.);
#115=ORIENTED_EDGE('',*,*,#182,.F.);
#116=ORIENTED_EDGE('',*,*,#164,.F.);
#117=ORIENTED_EDGE('',*,*,#150,.T.);
#118=ORIENTED_EDGE('',*,*,#183,.F.);
#119=ORIENTED_EDGE('',*,*,#182,.T.);
#120=ORIENTED_EDGE('',*,*,#180,.T.);
#121=ORIENTED_EDGE('',*,*,#177,.F.);
#122=ORIENTED_EDGE('',*,*,#184,.T.);
#123=ORIENTED_EDGE('',*,*,#181,.F.);
#124=ORIENTED_EDGE('',*,*,#167,.T.);
#125=ORIENTED_EDGE('',*,*,#184,.F.);
#126=ORIENTED_EDGE('',*,*,#185,.T.);
#127=ORIENTED_EDGE('',*,*,#165,.T.);
#128=ORIENTED_EDGE('',*,*,#183,.T.);
#129=ORIENTED_EDGE('',*,*,#176,.F.);
#130=ORIENTED_EDGE('',*,*,#186,.F.);
#131=ORIENTED_EDGE('',*,*,#160,.T.);
#132=ORIENTED_EDGE('',*,*,#168,.F.);
#133=ORIENTED_EDGE('',*,*,#175,.T.);
#134=ORIENTED_EDGE('',*,*,#161,.T.);
#135=ORIENTED_EDGE('',*,*,#186,.T.);
#136=ORIENTED_EDGE('',*,*,#169,.T.);
#137=ORIENTED_EDGE('',*,*,#159,.F.);
#138=ORIENTED_EDGE('',*,*,#185,.F.);
#139=ORIENTED_EDGE('',*,*,#157,.T.);
#140=ORIENTED_EDGE('',*,*,#147,.F.);
#141=ORIENTED_EDGE('',*,*,#158,.T.);
#142=ORIENTED_EDGE('',*,*,#148,.F.);
#143=ORIENTED_EDGE('',*,*,#178,.F.);
#144=ORIENTED_EDGE('',*,*,#170,.T.);
#145=ORIENTED_EDGE('',*,*,#171,.T.);
#146=ORIENTED_EDGE('',*,*,#166,.F.);
#147=EDGE_CURVE('',#187,#187,#217,.T.);
#148=EDGE_CURVE('',#188,#189,#218,.T.);
#149=EDGE_CURVE('',#189,#190,#39,.T.);
#150=EDGE_CURVE('',#191,#190,#23,.T.);
#151=EDGE_CURVE('',#192,#191,#24,.T.);
#152=EDGE_CURVE('',#193,#192,#40,.T.);
#153=EDGE_CURVE('',#193,#194,#25,.T.);
#154=EDGE_CURVE('',#194,#188,#41,.T.);
#155=EDGE_CURVE('',#195,#195,#26,.T.);
#156=EDGE_CURVE('',#196,#196,#27,.T.);
#157=EDGE_CURVE('',#197,#197,#219,.T.);
#158=EDGE_CURVE('',#198,#198,#220,.T.);
#159=EDGE_CURVE('',#199,#200,#221,.T.);
#160=EDGE_CURVE('',#201,#200,#42,.T.);
#161=EDGE_CURVE('',#202,#201,#28,.T.);
#162=EDGE_CURVE('',#202,#203,#43,.T.);
#163=EDGE_CURVE('',#203,#191,#29,.T.);
#164=EDGE_CURVE('',#191,#204,#30,.T.);
#165=EDGE_CURVE('',#199,#204,#44,.T.);
#166=EDGE_CURVE('',#205,#205,#222,.T.);
#167=EDGE_CURVE('',#206,#206,#31,.T.);
#168=EDGE_CURVE('',#207,#207,#32,.T.);
#169=EDGE_CURVE('',#208,#208,#223,.T.);
#170=EDGE_CURVE('',#209,#210,#224,.T.);
#171=EDGE_CURVE('',#210,#209,#225,.T.);
#172=EDGE_CURVE('',#211,#212,#45,.T.);
#173=EDGE_CURVE('',#211,#193,#46,.T.);
#174=EDGE_CURVE('',#203,#192,#33,.T.);
#175=EDGE_CURVE('',#213,#202,#47,.T.);
#176=EDGE_CURVE('',#213,#214,#48,.T.);
#177=EDGE_CURVE('',#214,#212,#34,.T.);
#178=EDGE_CURVE('',#189,#188,#35,.F.);
#179=EDGE_CURVE('',#194,#211,#49,.T.);
#180=EDGE_CURVE('',#190,#212,#50,.T.);
#181=EDGE_CURVE('',#215,#215,#36,.T.);
#182=EDGE_CURVE('',#204,#190,#37,.T.);
#183=EDGE_CURVE('',#204,#214,#51,.T.);
#184=EDGE_CURVE('',#216,#216,#38,.T.);
#185=EDGE_CURVE('',#200,#199,#12,.F.);
#186=EDGE_CURVE('',#201,#213,#52,.T.);
#187=VERTEX_POINT('',#476);
#188=VERTEX_POINT('',#484);
#189=VERTEX_POINT('',#485);
#190=VERTEX_POINT('',#487);
#191=VERTEX_POINT('',#489);
#192=VERTEX_POINT('',#491);
#193=VERTEX_POINT('',#493);
#194=VERTEX_POINT('',#495);
#195=VERTEX_POINT('',#499);
#196=VERTEX_POINT('',#501);
#197=VERTEX_POINT('',#513);
#198=VERTEX_POINT('',#525);
#199=VERTEX_POINT('',#534);
#200=VERTEX_POINT('',#535);
#201=VERTEX_POINT('',#537);
#202=VERTEX_POINT('',#539);
#203=VERTEX_POINT('',#541);
#204=VERTEX_POINT('',#544);
#205=VERTEX_POINT('',#557);
#206=VERTEX_POINT('',#560);
#207=VERTEX_POINT('',#562);
#208=VERTEX_POINT('',#574);
#209=VERTEX_POINT('',#579);
#210=VERTEX_POINT('',#580);
#211=VERTEX_POINT('',#594);
#212=VERTEX_POINT('',#595);
#213=VERTEX_POINT('',#599);
#214=VERTEX_POINT('',#601);
#215=VERTEX_POINT('',#610);
#216=VERTEX_POINT('',#618);
#217=B_SPLINE_CURVE_WITH_KNOTS('',3,(#465,#466,#467,#468,#469,#470,#471,
#472,#473,#474,#475),.UNSPECIFIED.,.T.,.F.,(1,1,1,1,1,1,1,1,1,1,1,1,1,1,
1),(-0.00387081269588955,-0.0025805417972597,-0.00129027089862985,0.,0.00129027089862985,
0.0025805417972597,0.00387081269588955,0.00516108359451941,0.00645135449314926,
0.00774162539177911,0.00903189629040896,0.0103221671890388,0.0116124380876687,
0.0129027089862985,0.0141929798849284),.UNSPECIFIED.);
#218=B_SPLINE_CURVE_WITH_KNOTS('',3,(#477,#478,#479,#480,#481,#482,#483),
 .UNSPECIFIED.,.F.,.F.,(4,1,1,1,4),(8.42837910103097E-19,0.00129013792952442,
0.00258027585904885,0.00387041378857327,0.00516055171809769),
 .UNSPECIFIED.);
#219=B_SPLINE_CURVE_WITH_KNOTS('',3,(#502,#503,#504,#505,#506,#507,#508,
#509,#510,#511,#512),.UNSPECIFIED.,.T.,.F.,(1,1,1,1,1,1,1,1,1,1,1,1,1,1,
1),(-0.00387166308566497,-0.00258110872377665,-0.00129055436188832,0.,0.00129055436188832,
0.00258110872377665,0.00387166308566497,0.00516221744755329,0.00645277180944162,
0.00774332617132994,0.00903388053321827,0.0103244348951066,0.0116149892569949,
0.0129055436188832,0.0141960979807716),.UNSPECIFIED.);
#220=B_SPLINE_CURVE_WITH_KNOTS('',3,(#514,#515,#516,#517,#518,#519,#520,
#521,#522,#523,#524),.UNSPECIFIED.,.T.,.F.,(1,1,1,1,1,1,1,1,1,1,1,1,1,1,
1),(-0.00387166308566498,-0.00258110872377665,-0.00129055436188832,0.,0.00129055436188833,
0.00258110872377665,0.00387166308566498,0.0051622174475533,0.00645277180944163,
0.00774332617132995,0.00903388053321828,0.0103244348951066,0.0116149892569949,
0.0129055436188833,0.0141960979807716),.UNSPECIFIED.);
#221=B_SPLINE_CURVE_WITH_KNOTS('',3,(#527,#528,#529,#530,#531,#532,#533),
 .UNSPECIFIED.,.F.,.F.,(4,1,1,1,4),(8.42669201511568E-19,0.00129307880861457,
0.00258615761722913,0.0038792364258437,0.00517231523445826),
 .UNSPECIFIED.);
#222=B_SPLINE_CURVE_WITH_KNOTS('',3,(#546,#547,#548,#549,#550,#551,#552,
#553,#554,#555,#556),.UNSPECIFIED.,.T.,.F.,(1,1,1,1,1,1,1,1,1,1,1,1,1,1,
1),(-0.00387974333067142,-0.00258649555378094,-0.00129324777689047,8.38089480678334E-19,
0.00129324777689047,0.00258649555378094,0.00387974333067142,0.00517299110756189,
0.00646623888445236,0.00775948666134283,0.0090527344382333,0.0103459822151238,
0.0116392299920142,0.0129324777689047,0.0142257255457952),.UNSPECIFIED.);
#223=B_SPLINE_CURVE_WITH_KNOTS('',3,(#563,#564,#565,#566,#567,#568,#569,
#570,#571,#572,#573),.UNSPECIFIED.,.T.,.F.,(1,1,1,1,1,1,1,1,1,1,1,1,1,1,
1),(-0.00388044539381604,-0.00258696359587736,-0.00129348179793868,8.22625897845208E-20,
0.00129348179793868,0.00258696359587736,0.00388044539381604,0.00517392719175472,
0.0064674089896934,0.00776089078763208,0.00905437258557076,0.0103478543835094,
0.0116413361814481,0.0129348179793868,0.0142282997773255),.UNSPECIFIED.);
#224=B_SPLINE_CURVE_WITH_KNOTS('',3,(#575,#576,#577,#578),.UNSPECIFIED.,
 .F.,.F.,(4,4),(0.0084070105880455,0.01034820556021),.UNSPECIFIED.);
#225=B_SPLINE_CURVE_WITH_KNOTS('',3,(#581,#582,#583,#584,#585,#586,#587,
#588,#589,#590,#591),.UNSPECIFIED.,.F.,.F.,(4,1,1,1,1,1,1,1,4),(1.46642768749696E-15,
0.00105087632350697,0.00210175264701248,0.00315262897051799,0.0042035052940235,
0.00525438161752901,0.00630525794103451,0.00735613426454002,0.00840701058804553),
 .UNSPECIFIED.);
#226=EDGE_LOOP('',(#67));
#227=EDGE_LOOP('',(#68,#69,#70,#71,#72,#73,#74));
#228=EDGE_LOOP('',(#75));
#229=EDGE_LOOP('',(#76));
#230=EDGE_LOOP('',(#77));
#231=EDGE_LOOP('',(#78));
#232=EDGE_LOOP('',(#79,#80,#81,#82,#83,#84,#85));
#233=EDGE_LOOP('',(#86));
#234=EDGE_LOOP('',(#87));
#235=EDGE_LOOP('',(#88));
#236=EDGE_LOOP('',(#89));
#237=EDGE_LOOP('',(#90,#91));
#238=EDGE_LOOP('',(#92,#93,#94,#95,#96,#97,#98,#99));
#239=EDGE_LOOP('',(#100,#101,#102,#103,#104,#105));
#240=EDGE_LOOP('',(#106));
#241=EDGE_LOOP('',(#107,#108,#109));
#242=EDGE_LOOP('',(#110));
#243=EDGE_LOOP('',(#111));
#244=EDGE_LOOP('',(#112,#113,#114));
#245=EDGE_LOOP('',(#115,#116,#117));
#246=EDGE_LOOP('',(#118,#119,#120,#121));
#247=EDGE_LOOP('',(#122));
#248=EDGE_LOOP('',(#123));
#249=EDGE_LOOP('',(#124));
#250=EDGE_LOOP('',(#125));
#251=EDGE_LOOP('',(#126,#127,#128,#129,#130,#131));
#252=EDGE_LOOP('',(#132));
#253=EDGE_LOOP('',(#133,#134,#135));
#254=EDGE_LOOP('',(#136));
#255=EDGE_LOOP('',(#137,#138));
#256=EDGE_LOOP('',(#139));
#257=EDGE_LOOP('',(#140));
#258=EDGE_LOOP('',(#141));
#259=EDGE_LOOP('',(#142,#143));
#260=EDGE_LOOP('',(#144,#145));
#261=EDGE_LOOP('',(#146));
#262=FACE_BOUND('',#226,.T.);
#263=FACE_BOUND('',#227,.T.);
#264=FACE_BOUND('',#228,.T.);
#265=FACE_BOUND('',#229,.T.);
#266=FACE_BOUND('',#230,.T.);
#267=FACE_BOUND('',#231,.T.);
#268=FACE_BOUND('',#232,.T.);
#269=FACE_BOUND('',#233,.T.);
#270=FACE_BOUND('',#234,.T.);
#271=FACE_BOUND('',#235,.T.);
#272=FACE_BOUND('',#236,.T.);
#273=FACE_BOUND('',#237,.T.);
#274=FACE_BOUND('',#238,.T.);
#275=FACE_BOUND('',#239,.T.);
#276=FACE_BOUND('',#240,.T.);
#277=FACE_BOUND('',#241,.T.);
#278=FACE_BOUND('',#242,.T.);
#279=FACE_BOUND('',#243,.T.);
#280=FACE_BOUND('',#244,.T.);
#281=FACE_BOUND('',#245,.T.);
#282=FACE_BOUND('',#246,.T.);
#283=FACE_BOUND('',#247,.T.);
#284=FACE_BOUND('',#248,.T.);
#285=FACE_BOUND('',#249,.T.);
#286=FACE_BOUND('',#250,.T.);
#287=FACE_BOUND('',#251,.T.);
#288=FACE_BOUND('',#252,.T.);
#289=FACE_BOUND('',#253,.T.);
#290=FACE_BOUND('',#254,.T.);
#291=FACE_BOUND('',#255,.T.);
#292=FACE_BOUND('',#256,.T.);
#293=FACE_BOUND('',#257,.T.);
#294=FACE_BOUND('',#258,.T.);
#295=FACE_BOUND('',#259,.T.);
#296=FACE_BOUND('',#260,.T.);
#297=FACE_BOUND('',#261,.T.);
#298=CYLINDRICAL_SURFACE('',#339,0.017);
#299=CYLINDRICAL_SURFACE('',#343,0.0145);
#300=CYLINDRICAL_SURFACE('',#346,0.017);
#301=CYLINDRICAL_SURFACE('',#350,0.0145);
#302=CYLINDRICAL_SURFACE('',#364,0.034);
#303=CYLINDRICAL_SURFACE('',#371,0.00165);
#304=CYLINDRICAL_SURFACE('',#372,0.00165);
#305=CYLINDRICAL_SURFACE('',#373,0.00165);
#306=CYLINDRICAL_SURFACE('',#374,0.00165);
#307=ADVANCED_FACE('',(#262,#263),#298,.T.);
#308=ADVANCED_FACE('',(#264,#265,#266,#267),#299,.F.);
#309=ADVANCED_FACE('',(#268,#269),#300,.T.);
#310=ADVANCED_FACE('',(#270,#271,#272,#273),#301,.F.);
#311=ADVANCED_FACE('',(#274),#16,.F.);
#312=ADVANCED_FACE('',(#275),#17,.F.);
#313=ADVANCED_FACE('',(#276,#277),#18,.T.);
#314=ADVANCED_FACE('',(#278,#279),#19,.T.);
#315=ADVANCED_FACE('',(#280),#13,.T.);
#316=ADVANCED_FACE('',(#281),#14,.T.);
#317=ADVANCED_FACE('',(#282),#302,.T.);
#318=ADVANCED_FACE('',(#283,#284),#15,.F.);
#319=ADVANCED_FACE('',(#285,#286),#20,.F.);
#320=ADVANCED_FACE('',(#287),#21,.F.);
#321=ADVANCED_FACE('',(#288,#289),#22,.T.);
#322=ADVANCED_FACE('',(#290,#291),#303,.F.);
#323=ADVANCED_FACE('',(#292,#293),#304,.F.);
#324=ADVANCED_FACE('',(#294,#295),#305,.F.);
#325=ADVANCED_FACE('',(#296,#297),#306,.F.);
#326=CLOSED_SHELL('',(#307,#308,#309,#310,#311,#312,#313,#314,#315,#316,
#317,#318,#319,#320,#321,#322,#323,#324,#325));
#327=STYLED_ITEM('',(#328),#335);
#328=PRESENTATION_STYLE_ASSIGNMENT((#329));
#329=SURFACE_STYLE_USAGE(.BOTH.,#330);
#330=SURFACE_SIDE_STYLE('',(#331));
#331=SURFACE_STYLE_FILL_AREA(#332);
#332=FILL_AREA_STYLE('',(#333));
#333=FILL_AREA_STYLE_COLOUR('',#334);
#334=COLOUR_RGB('',0.901960784313726,0.901960784313726,0.901960784313726);
#335=MANIFOLD_SOLID_BREP('Right- Rear/Left-Front',#326);
#336=SHAPE_DEFINITION_REPRESENTATION(#634,#337);
#337=SHAPE_REPRESENTATION('Right- Rear/Left-Front',(#338),#629);
#338=AXIS2_PLACEMENT_3D('',#463,#375,#376);
#339=AXIS2_PLACEMENT_3D('',#464,#377,#378);
#340=AXIS2_PLACEMENT_3D('',#488,#380,#381);
#341=AXIS2_PLACEMENT_3D('',#490,#382,#383);
#342=AXIS2_PLACEMENT_3D('',#494,#385,#386);
#343=AXIS2_PLACEMENT_3D('',#497,#388,#389);
#344=AXIS2_PLACEMENT_3D('',#498,#390,#391);
#345=AXIS2_PLACEMENT_3D('',#500,#392,#393);
#346=AXIS2_PLACEMENT_3D('',#526,#394,#395);
#347=AXIS2_PLACEMENT_3D('',#538,#397,#398);
#348=AXIS2_PLACEMENT_3D('',#542,#400,#401);
#349=AXIS2_PLACEMENT_3D('',#543,#402,#403);
#350=AXIS2_PLACEMENT_3D('',#558,#405,#406);
#351=AXIS2_PLACEMENT_3D('',#559,#407,#408);
#352=AXIS2_PLACEMENT_3D('',#561,#409,#410);
#353=AXIS2_PLACEMENT_3D('',#592,#411,#412);
#354=AXIS2_PLACEMENT_3D('',#597,#415,#416);
#355=AXIS2_PLACEMENT_3D('',#602,#419,#420);
#356=AXIS2_PLACEMENT_3D('',#603,#421,#422);
#357=AXIS2_PLACEMENT_3D('',#604,#423,#424);
#358=AXIS2_PLACEMENT_3D('',#607,#427,#428);
#359=AXIS2_PLACEMENT_3D('',#608,#429,#430);
#360=AXIS2_PLACEMENT_3D('',#609,#431,#432);
#361=AXIS2_PLACEMENT_3D('',#611,#433,#434);
#362=AXIS2_PLACEMENT_3D('',#612,#435,#436);
#363=AXIS2_PLACEMENT_3D('',#613,#437,#438);
#364=AXIS2_PLACEMENT_3D('',#614,#439,#440);
#365=AXIS2_PLACEMENT_3D('',#616,#442,#443);
#366=AXIS2_PLACEMENT_3D('',#617,#444,#445);
#367=AXIS2_PLACEMENT_3D('',#619,#446,#447);
#368=AXIS2_PLACEMENT_3D('',#620,#448,#449);
#369=AXIS2_PLACEMENT_3D('',#621,#450,#451);
#370=AXIS2_PLACEMENT_3D('',#623,#453,#454);
#371=AXIS2_PLACEMENT_3D('',#624,#455,#456);
#372=AXIS2_PLACEMENT_3D('',#625,#457,#458);
#373=AXIS2_PLACEMENT_3D('',#626,#459,#460);
#374=AXIS2_PLACEMENT_3D('',#627,#461,#462);
#375=DIRECTION('',(0.,0.,1.));
#376=DIRECTION('',(1.,0.,0.));
#377=DIRECTION('',(0.,0.,1.));
#378=DIRECTION('',(0.,1.,0.));
#379=DIRECTION('',(0.,0.,1.));
#380=DIRECTION('',(0.,0.,1.));
#381=DIRECTION('',(0.,-1.,0.));
#382=DIRECTION('',(0.,0.,1.));
#383=DIRECTION('',(0.,-1.,0.));
#384=DIRECTION('',(0.,0.,1.));
#385=DIRECTION('',(0.,0.,1.));
#386=DIRECTION('',(0.,-1.,0.));
#387=DIRECTION('',(0.,0.,1.));
#388=DIRECTION('',(0.,0.,1.));
#389=DIRECTION('',(0.,1.,0.));
#390=DIRECTION('',(0.,0.,1.));
#391=DIRECTION('',(0.,-1.,0.));
#392=DIRECTION('',(0.,0.,1.));
#393=DIRECTION('',(0.,-1.,0.));
#394=DIRECTION('',(0.,0.866025403784439,-0.5));
#395=DIRECTION('',(0.,0.5,0.866025403784439));
#396=DIRECTION('',(0.,0.866025403784439,-0.5));
#397=DIRECTION('',(0.,-0.866025403784439,0.5));
#398=DIRECTION('',(0.,-0.5,-0.866025403784439));
#399=DIRECTION('',(0.,0.866025403784439,-0.5));
#400=DIRECTION('',(0.,-0.866025403784439,0.5));
#401=DIRECTION('',(0.,-0.5,-0.866025403784439));
#402=DIRECTION('',(0.,-0.866025403784439,0.5));
#403=DIRECTION('',(0.,-0.5,-0.866025403784439));
#404=DIRECTION('',(0.,0.866025403784439,-0.5));
#405=DIRECTION('',(0.,0.866025403784439,-0.5));
#406=DIRECTION('',(0.,0.5,0.866025403784439));
#407=DIRECTION('',(0.,-0.866025403784439,0.5));
#408=DIRECTION('',(0.,-0.5,-0.866025403784439));
#409=DIRECTION('',(0.,-0.866025403784439,0.5));
#410=DIRECTION('',(0.,-0.5,-0.866025403784439));
#411=DIRECTION('',(1.,0.,0.));
#412=DIRECTION('',(0.,-1.,0.));
#413=DIRECTION('',(0.,0.,1.));
#414=DIRECTION('',(0.,-1.,0.));
#415=DIRECTION('',(-1.,0.,0.));
#416=DIRECTION('',(0.,-1.,0.));
#417=DIRECTION('',(0.,-0.5,-0.866025403784439));
#418=DIRECTION('',(0.,0.866025403784439,-0.5));
#419=DIRECTION('',(-1.,0.,0.));
#420=DIRECTION('',(0.,-1.,0.));
#421=DIRECTION('',(0.,-1.,0.));
#422=DIRECTION('',(-1.,0.,0.));
#423=DIRECTION('',(0.,1.,0.));
#424=DIRECTION('',(-1.,0.,0.));
#425=DIRECTION('',(-1.,0.,0.));
#426=DIRECTION('',(-1.,0.,0.));
#427=DIRECTION('',(0.,0.,-1.));
#428=DIRECTION('',(1.,0.,0.));
#429=DIRECTION('',(0.,0.,-1.));
#430=DIRECTION('',(1.,0.,0.));
#431=DIRECTION('',(0.,0.,1.));
#432=DIRECTION('',(0.,-1.,0.));
#433=DIRECTION('',(1.,0.,0.));
#434=DIRECTION('',(0.,-1.,0.));
#435=DIRECTION('',(1.,0.,0.));
#436=DIRECTION('',(0.,-1.,0.));
#437=DIRECTION('',(-1.,0.,0.));
#438=DIRECTION('',(0.,-1.,0.));
#439=DIRECTION('',(1.,0.,0.));
#440=DIRECTION('',(0.,-1.,0.));
#441=DIRECTION('',(-1.,0.,0.));
#442=DIRECTION('',(1.,0.,0.));
#443=DIRECTION('',(0.,-1.,0.));
#444=DIRECTION('',(0.,-0.866025403784439,0.5));
#445=DIRECTION('',(0.,-0.5,-0.866025403784439));
#446=DIRECTION('',(0.,0.866025403784439,-0.5));
#447=DIRECTION('',(1.,0.,0.));
#448=DIRECTION('',(0.,-0.5,-0.866025403784439));
#449=DIRECTION('',(-1.,0.,0.));
#450=DIRECTION('',(0.,0.5,0.866025403784439));
#451=DIRECTION('',(0.,0.866025403784439,-0.5));
#452=DIRECTION('',(-1.,0.,0.));
#453=DIRECTION('',(0.,-0.866025403784439,0.5));
#454=DIRECTION('',(1.,0.,0.));
#455=DIRECTION('',(0.,0.57972615160086,0.814811382560441));
#456=DIRECTION('',(0.,0.814811382560441,-0.57972615160086));
#457=DIRECTION('',(0.,-1.,0.));
#458=DIRECTION('',(-1.,0.,0.));
#459=DIRECTION('',(0.,1.,0.));
#460=DIRECTION('',(1.,0.,0.));
#461=DIRECTION('',(0.,-0.57972615160086,-0.814811382560441));
#462=DIRECTION('',(0.,-0.814811382560441,0.57972615160086));
#463=CARTESIAN_POINT('',(0.,0.,0.));
#464=CARTESIAN_POINT('',(-8.67361737988404E-19,-1.73588041286846E-19,0.08));
#465=CARTESIAN_POINT('',(-0.00129192235630135,-0.0169600648677277,0.0937055933068632));
#466=CARTESIAN_POINT('',(-0.00182893830739618,-0.0168995922098734,0.0950003244996863));
#467=CARTESIAN_POINT('',(-0.00129232441411395,-0.0169599882663297,0.0962931086943916));
#468=CARTESIAN_POINT('',(-1.42149846005874E-6,-0.0170199987263918,0.0968282974580051));
#469=CARTESIAN_POINT('',(0.00129260897652347,-0.0169600166850863,0.0962937000000798));
#470=CARTESIAN_POINT('',(0.00182828298285546,-0.0168996408478405,0.0950003180818998));
#471=CARTESIAN_POINT('',(0.00129425842619329,-0.0169598419620372,0.0937086586577159));
#472=CARTESIAN_POINT('',(1.78193388532423E-6,-0.0170200231827994,0.0931714381397092));
#473=CARTESIAN_POINT('',(-0.00129192235630135,-0.0169600648677277,0.0937055933068632));
#474=CARTESIAN_POINT('',(-0.00182893830739618,-0.0168995922098734,0.0950003244996863));
#475=CARTESIAN_POINT('',(-0.00129232441411395,-0.0169599882663297,0.0962931086943916));
#476=CARTESIAN_POINT('',(-0.00165,-0.0169197369955918,0.095));
#477=CARTESIAN_POINT('',(-8.67361737988404E-19,0.017,0.09335));
#478=CARTESIAN_POINT('',(0.000436257582168578,0.017,0.09335));
#479=CARTESIAN_POINT('',(0.00129048314833165,0.0169599524757578,0.0937075557994548));
#480=CARTESIAN_POINT('',(0.00182942627709121,0.0168996521254768,0.0949983441069869));
#481=CARTESIAN_POINT('',(0.00129180926566834,0.0169598612375033,0.0962920636902264));
#482=CARTESIAN_POINT('',(0.000436256841540711,0.017,0.09665));
#483=CARTESIAN_POINT('',(-8.26759254503811E-19,0.017,0.09665));
#484=CARTESIAN_POINT('',(-1.7347234759768E-18,0.017,0.09335));
#485=CARTESIAN_POINT('',(-1.7347234759768E-18,0.017,0.09665));
#486=CARTESIAN_POINT('',(-1.7347234759768E-18,0.017,0.08));
#487=CARTESIAN_POINT('',(-1.7347234759768E-18,0.017,0.11));
#488=CARTESIAN_POINT('',(-8.67361737988404E-19,-1.73588041286846E-19,0.11));
#489=CARTESIAN_POINT('',(-8.67361737988404E-19,-0.017,0.11));
#490=CARTESIAN_POINT('',(-8.67361737988404E-19,-1.73588041286846E-19,0.11));
#491=CARTESIAN_POINT('',(-0.017,0.,0.11));
#492=CARTESIAN_POINT('',(-0.017,0.,0.08));
#493=CARTESIAN_POINT('',(-0.017,0.,0.08));
#494=CARTESIAN_POINT('',(-8.67361737988404E-19,-1.73588041286846E-19,0.08));
#495=CARTESIAN_POINT('',(-1.7347234759768E-18,0.017,0.08));
#496=CARTESIAN_POINT('',(-1.7347234759768E-18,0.017,0.08));
#497=CARTESIAN_POINT('',(0.,8.87868929381831E-19,0.08));
#498=CARTESIAN_POINT('',(0.,8.87868929381831E-19,0.11));
#499=CARTESIAN_POINT('',(0.,-0.0145,0.11));
#500=CARTESIAN_POINT('',(0.,8.87868929381831E-19,0.08));
#501=CARTESIAN_POINT('',(0.,-0.0145,0.08));
#502=CARTESIAN_POINT('',(-0.00129191055715569,-0.0144531790123637,0.0937056029610062));
#503=CARTESIAN_POINT('',(-0.00182894522921555,-0.0143821549257539,0.0950003214396288));
#504=CARTESIAN_POINT('',(-0.0012923085259821,-0.0144530900738128,0.0962931112804786));
#505=CARTESIAN_POINT('',(-1.45550772129518E-6,-0.0145234478091223,0.0968283127905674));
#506=CARTESIAN_POINT('',(0.00129267482945501,-0.0144531185186349,0.096293636053971));
#507=CARTESIAN_POINT('',(0.00182826211194803,-0.0143822129606193,0.0950003501781834));
#508=CARTESIAN_POINT('',(0.00129427603874176,-0.0144529185064247,0.0937086433717926));
#509=CARTESIAN_POINT('',(1.70470254756859E-6,-0.0145234754991086,0.0931714394818411));
#510=CARTESIAN_POINT('',(-0.00129191055715569,-0.0144531790123637,0.0937056029610062));
#511=CARTESIAN_POINT('',(-0.00182894522921555,-0.0143821549257539,0.0950003214396288));
#512=CARTESIAN_POINT('',(-0.0012923085259821,-0.0144530900738128,0.0962931112804786));
#513=CARTESIAN_POINT('',(-0.00165,-0.0144058147981987,0.095));
#514=CARTESIAN_POINT('',(0.00129191055715569,0.0144531790123637,0.0937056029610062));
#515=CARTESIAN_POINT('',(0.00182894522921555,0.0143821549257539,0.0950003214396288));
#516=CARTESIAN_POINT('',(0.0012923085259821,0.0144530900738128,0.0962931112804785));
#517=CARTESIAN_POINT('',(1.45550772129166E-6,0.0145234478091223,0.0968283127905674));
#518=CARTESIAN_POINT('',(-0.00129267482945501,0.0144531185186349,0.096293636053971));
#519=CARTESIAN_POINT('',(-0.00182826211194803,0.0143822129606193,0.0950003501781835));
#520=CARTESIAN_POINT('',(-0.00129427603874176,0.0144529185064247,0.0937086433717926));
#521=CARTESIAN_POINT('',(-1.70470254756348E-6,0.0145234754991086,0.0931714394818411));
#522=CARTESIAN_POINT('',(0.00129191055715569,0.0144531790123637,0.0937056029610062));
#523=CARTESIAN_POINT('',(0.00182894522921555,0.0143821549257539,0.0950003214396288));
#524=CARTESIAN_POINT('',(0.0012923085259821,0.0144530900738128,0.0962931112804785));
#525=CARTESIAN_POINT('',(0.00165,0.0144058147981987,0.095));
#526=CARTESIAN_POINT('',(-8.67361737988404E-19,-0.0344807621135331,0.139722431864335));
#527=CARTESIAN_POINT('',(-8.67361737988404E-19,-0.00975961936960425,0.1450795825989));
#528=CARTESIAN_POINT('',(0.000437295802951487,-0.00975961936960425,0.1450795825989));
#529=CARTESIAN_POINT('',(0.00129053451262447,-0.0100960187185838,0.145227514607831));
#530=CARTESIAN_POINT('',(0.00182827824953209,-0.0112454357112052,0.145821659240077));
#531=CARTESIAN_POINT('',(0.00129628309718672,-0.0123404645518837,0.146522891207323));
#532=CARTESIAN_POINT('',(0.000437221336633361,-0.0126303917286905,0.146737023793201));
#533=CARTESIAN_POINT('',(-1.53961807802924E-18,-0.0126303917286905,0.146737023793201));
#534=CARTESIAN_POINT('',(-1.7347234759768E-18,-0.00975961936960425,0.1450795825989));
#535=CARTESIAN_POINT('',(-1.7347234759768E-18,-0.0126303917286905,0.146737023793201));
#536=CARTESIAN_POINT('',(-1.7347234759768E-18,-0.0259807621135331,0.154444863728671));
#537=CARTESIAN_POINT('',(-1.7347234759768E-18,-0.0259807621135331,0.154444863728671));
#538=CARTESIAN_POINT('',(-8.67361737988404E-19,-0.0344807621135331,0.139722431864335));
#539=CARTESIAN_POINT('',(-0.017,-0.0344807621135331,0.139722431864335));
#540=CARTESIAN_POINT('',(-0.017,-0.0344807621135331,0.139722431864335));
#541=CARTESIAN_POINT('',(-0.017,-0.0085,0.124722431864335));
#542=CARTESIAN_POINT('',(-8.67361737988404E-19,-0.0085,0.124722431864335));
#543=CARTESIAN_POINT('',(-8.67361737988404E-19,-0.0085,0.124722431864335));
#544=CARTESIAN_POINT('',(-1.7347234759768E-18,3.46944695195361E-18,0.139444863728671));
#545=CARTESIAN_POINT('',(-1.7347234759768E-18,-0.0259807621135331,0.154444863728671));
#546=CARTESIAN_POINT('',(-0.00129455827347161,-0.0320931770349633,0.118760419378654));
#547=CARTESIAN_POINT('',(2.35285339614689E-7,-0.0325983028355864,0.118982515610273));
#548=CARTESIAN_POINT('',(0.00129361713211315,-0.0320934462588524,0.118760510628973));
#549=CARTESIAN_POINT('',(0.00182710187770665,-0.0309438837313038,0.11816627760852));
#550=CARTESIAN_POINT('',(0.00129791332645022,-0.0298485848118849,0.117464809622054));
#551=CARTESIAN_POINT('',(1.71303056963699E-7,-0.0294148635739838,0.117144436633105));
#552=CARTESIAN_POINT('',(-0.00129551924228859,-0.0298471617633591,0.117463789407009));
#553=CARTESIAN_POINT('',(-0.00182747411482412,-0.030941621323169,0.118165006028037));
#554=CARTESIAN_POINT('',(-0.00129455827347161,-0.0320931770349633,0.118760419378654));
#555=CARTESIAN_POINT('',(2.35285339614689E-7,-0.0325983028355864,0.118982515610273));
#556=CARTESIAN_POINT('',(0.00129361713211315,-0.0320934462588524,0.118760510628973));
#557=CARTESIAN_POINT('',(8.62647818677811E-19,-0.0324299724393603,0.118908498741453));
#558=CARTESIAN_POINT('',(0.,-0.0344807621135331,0.139722431864335));
#559=CARTESIAN_POINT('',(0.,-0.0085,0.124722431864335));
#560=CARTESIAN_POINT('',(0.,-0.01575,0.112165063509461));
#561=CARTESIAN_POINT('',(0.,-0.0344807621135331,0.139722431864335));
#562=CARTESIAN_POINT('',(0.,-0.0417307621135331,0.127165063509461));
#563=CARTESIAN_POINT('',(0.00129902812153099,-0.0138002849367092,0.144470876828553));
#564=CARTESIAN_POINT('',(-3.70717477640693E-7,-0.0142291088297675,0.144800679578043));
#565=CARTESIAN_POINT('',(-0.00129754525162043,-0.0138007392534242,0.144471257154475));
#566=CARTESIAN_POINT('',(-0.00182720693993635,-0.0127128231402951,0.143761980208365));
#567=CARTESIAN_POINT('',(-0.00129358005886269,-0.0115556766725096,0.143175509305127));
#568=CARTESIAN_POINT('',(-6.68426402458357E-7,-0.0110457465264447,0.1429624586516));
#569=CARTESIAN_POINT('',(0.00129152470070306,-0.0115541636338297,0.143174861679964));
#570=CARTESIAN_POINT('',(0.00182733664186422,-0.012710236756372,0.143760461758271));
#571=CARTESIAN_POINT('',(0.00129902812153099,-0.0138002849367092,0.144470876828553));
#572=CARTESIAN_POINT('',(-3.70717477640693E-7,-0.0142291088297675,0.144800679578043));
#573=CARTESIAN_POINT('',(-0.00129754525162043,-0.0138007392534242,0.144471257154475));
#574=CARTESIAN_POINT('',(-8.46489144999266E-20,-0.0140862432515339,0.144690808715866));
#575=CARTESIAN_POINT('',(0.000920031556480857,-0.0283301870814511,0.119461975539029));
#576=CARTESIAN_POINT('',(0.000379364586573278,-0.0280342711285786,0.119251435750033));
#577=CARTESIAN_POINT('',(-0.000375178813750113,-0.0280319801860513,0.119249805778578));
#578=CARTESIAN_POINT('',(-0.000920031556484794,-0.0283301870814533,0.119461975539031));
#579=CARTESIAN_POINT('',(0.000920031556481084,-0.0283301870814512,0.119461975539029));
#580=CARTESIAN_POINT('',(-0.000920031556483555,-0.0283301870814525,0.11946197553903));
#581=CARTESIAN_POINT('',(-0.000920031556484794,-0.0283301870814533,0.119461975539031));
#582=CARTESIAN_POINT('',(-0.00121499051493423,-0.0284916229858202,0.119576834778325));
#583=CARTESIAN_POINT('',(-0.00166405650540381,-0.0289711946315634,0.119907882217967));
#584=CARTESIAN_POINT('',(-0.00168703991441064,-0.0299323982579047,0.120466541915738));
#585=CARTESIAN_POINT('',(-0.00105363357694157,-0.0307533015468794,0.120860987484191));
#586=CARTESIAN_POINT('',(-7.76791042090007E-7,-0.0310843715248037,0.121001502177673));
#587=CARTESIAN_POINT('',(0.00105314482507338,-0.0307539372416125,0.120861286450663));
#588=CARTESIAN_POINT('',(0.001686646490307,-0.0299325294343262,0.120466583576703));
#589=CARTESIAN_POINT('',(0.00166536391785635,-0.0289722255995611,0.119908586373398));
#590=CARTESIAN_POINT('',(0.00121272452433033,-0.028490382771776,0.119575952384521));
#591=CARTESIAN_POINT('',(0.000920031556480832,-0.0283301870814511,0.119461975539029));
#592=CARTESIAN_POINT('',(-0.017,0.0085,0.08));
#593=CARTESIAN_POINT('',(-0.017,0.017,0.08));
#594=CARTESIAN_POINT('',(-0.017,0.017,0.08));
#595=CARTESIAN_POINT('',(-0.017,0.017,0.11));
#596=CARTESIAN_POINT('',(-0.017,0.0085,0.08));
#597=CARTESIAN_POINT('',(-0.017,-0.017,0.11));
#598=CARTESIAN_POINT('',(-0.017,-0.0302307621135331,0.147083647796503));
#599=CARTESIAN_POINT('',(-0.017,-0.0259807621135331,0.154444863728671));
#600=CARTESIAN_POINT('',(-0.017,-0.0259807621135331,0.154444863728671));
#601=CARTESIAN_POINT('',(-0.017,3.46944695195361E-18,0.139444863728671));
#602=CARTESIAN_POINT('',(-0.017,-0.017,0.11));
#603=CARTESIAN_POINT('',(-0.0085,0.017,0.08));
#604=CARTESIAN_POINT('',(0.,0.017,0.095));
#605=CARTESIAN_POINT('',(-0.0085,0.017,0.08));
#606=CARTESIAN_POINT('',(-0.0085,0.017,0.11));
#607=CARTESIAN_POINT('',(-3.46944695195361E-18,0.,0.08));
#608=CARTESIAN_POINT('',(-3.46944695195361E-18,0.,0.11));
#609=CARTESIAN_POINT('',(0.,7.04171909509728E-19,0.11));
#610=CARTESIAN_POINT('',(0.,-0.0115,0.11));
#611=CARTESIAN_POINT('',(-8.67361737988404E-19,-0.017,0.11));
#612=CARTESIAN_POINT('',(-8.67361737988404E-19,-0.017,0.11));
#613=CARTESIAN_POINT('',(-1.7347234759768E-18,-0.017,0.11));
#614=CARTESIAN_POINT('',(0.,-0.017,0.11));
#615=CARTESIAN_POINT('',(-0.0085,3.46944695195361E-18,0.139444863728671));
#616=CARTESIAN_POINT('',(0.,-0.017,0.11));
#617=CARTESIAN_POINT('',(0.,-0.0085,0.124722431864335));
#618=CARTESIAN_POINT('',(0.,-0.01425,0.114763139720814));
#619=CARTESIAN_POINT('',(-3.46944695195361E-18,-0.0085,0.124722431864335));
#620=CARTESIAN_POINT('',(-0.0085,-0.0259807621135331,0.154444863728671));
#621=CARTESIAN_POINT('',(0.,-0.0111950055491474,0.14590830319605));
#622=CARTESIAN_POINT('',(-0.0085,-0.0259807621135331,0.154444863728671));
#623=CARTESIAN_POINT('',(-3.46944695195361E-18,-0.0344807621135331,0.139722431864335));
#624=CARTESIAN_POINT('',(0.,-0.0212403810567665,0.131789419162443));
#625=CARTESIAN_POINT('',(0.,0.,0.095));
#626=CARTESIAN_POINT('',(0.,0.,0.095));
#627=CARTESIAN_POINT('',(0.,-0.0212403810567665,0.131789419162443));
#628=MECHANICAL_DESIGN_GEOMETRIC_PRESENTATION_REPRESENTATION('',(#327),
#629);
#629=(
GEOMETRIC_REPRESENTATION_CONTEXT(3)
GLOBAL_UNCERTAINTY_ASSIGNED_CONTEXT((#630))
GLOBAL_UNIT_ASSIGNED_CONTEXT((#633,#632,#631))
REPRESENTATION_CONTEXT('Right- Rear/Left-Front',
'TOP_LEVEL_ASSEMBLY_PART')
);
#630=UNCERTAINTY_MEASURE_WITH_UNIT(LENGTH_MEASURE(2.E-5),#633,
'DISTANCE_ACCURACY_VALUE','Maximum Tolerance applied to model');
#631=(
NAMED_UNIT(*)
SI_UNIT($,.STERADIAN.)
SOLID_ANGLE_UNIT()
);
#632=(
NAMED_UNIT(*)
PLANE_ANGLE_UNIT()
SI_UNIT($,.RADIAN.)
);
#633=(
LENGTH_UNIT()
NAMED_UNIT(*)
SI_UNIT($,.METRE.)
);
#634=PRODUCT_DEFINITION_SHAPE('','',#635);
#635=PRODUCT_DEFINITION('','',#637,#636);
#636=PRODUCT_DEFINITION_CONTEXT('',#643,'design');
#637=PRODUCT_DEFINITION_FORMATION_WITH_SPECIFIED_SOURCE('','',#639,
 .NOT_KNOWN.);
#638=PRODUCT_RELATED_PRODUCT_CATEGORY('','',(#639));
#639=PRODUCT('Right- Rear/Left-Front','Right- Rear/Left-Front',
'Right- Rear/Left-Front',(#641));
#640=PRODUCT_CATEGORY('','');
#641=PRODUCT_CONTEXT('',#643,'mechanical');
#642=APPLICATION_PROTOCOL_DEFINITION('international standard',
'ap242_managed_model_based_3d_engineering',2020,#643);
#643=APPLICATION_CONTEXT('managed model based 3d engineering');
ENDSEC;
END-ISO-10303-21;
