ISO-10303-21;
HEADER;
/* Generated by software containing ST-Developer
 * from STEP Tools, Inc. (www.steptools.com) 
 */
/* OPTION: using custom renumber hook */

FILE_DESCRIPTION(
/* description */ ('STEP AP242 Edition 2',
'CAx-IF Rec.Pracs.---Representation and Presentation of Product Manufa
cturing Information (PMI)---4.0---2014-10-13',
'CAx-IF Rec.Pracs.---3D Tessellated Geometry---0.4---2014-09-14','2;1',
'CAx-IF Rec.Pracs.---User Defined Attributes---1.5---2016-08-15'),
/* implementation_level */ '2;1');

FILE_NAME(
/* name */ 'PVC Pipe Joint - Right-Front-Left-Rear',
/* time_stamp */ '2026-08-05T18:44:12Z',
/* author */ (''),
/* organization */ (''),
/* preprocessor_version */ 'ST-DEVELOPER v20',
/* originating_system */ 'ONSHAPE BY PTC INC, 1.218',
/* authorisation */ '  ');

FILE_SCHEMA (('AP242_MANAGED_MODEL_BASED_3D_ENGINEERING_MIM_LF { 1 0 10303 442 3 1 4 }'));
ENDSEC;

DATA;
#10=SHAPE_REPRESENTATION_RELATIONSHIP('','',#337,#11);
#11=ADVANCED_BREP_SHAPE_REPRESENTATION('',(#335),#629);
#12=ELLIPSE('',#369,0.0016574411943006,0.00165);
#13=TOROIDAL_SURFACE('',#361,0.017,0.017);
#14=TOROIDAL_SURFACE('',#362,0.017,0.017);
#15=TOROIDAL_SURFACE('',#365,0.017,0.0115);
#16=PLANE('',#353);
#17=PLANE('',#356);
#18=PLANE('',#358);
#19=PLANE('',#359);
#20=PLANE('',#367);
#21=PLANE('',#368);
#22=PLANE('',#370);
#23=CIRCLE('',#340,0.017);
#24=CIRCLE('',#341,0.017);
#25=CIRCLE('',#342,0.017);
#26=CIRCLE('',#344,0.0145);
#27=CIRCLE('',#345,0.0145);
#28=CIRCLE('',#347,0.017);
#29=CIRCLE('',#348,0.017);
#30=CIRCLE('',#349,0.017);
#31=CIRCLE('',#351,0.0145);
#32=CIRCLE('',#352,0.0145);
#33=CIRCLE('',#354,0.034);
#34=CIRCLE('',#355,0.017);
#35=CIRCLE('',#357,0.00165);
#36=CIRCLE('',#360,0.0115);
#37=CIRCLE('',#363,0.034);
#38=CIRCLE('',#366,0.0115);
#39=LINE('',#486,#53);
#40=LINE('',#490,#54);
#41=LINE('',#496,#55);
#42=LINE('',#536,#56);
#43=LINE('',#541,#57);
#44=LINE('',#545,#58);
#45=LINE('',#593,#59);
#46=LINE('',#598,#60);
#47=LINE('',#600,#61);
#48=LINE('',#602,#62);
#49=LINE('',#605,#63);
#50=LINE('',#606,#64);
#51=LINE('',#615,#65);
#52=LINE('',#622,#66);
#53=VECTOR('',#379,1.);
#54=VECTOR('',#382,1.);
#55=VECTOR('',#387,1.);
#56=VECTOR('',#396,1.);
#57=VECTOR('',#401,1.);
#58=VECTOR('',#404,1.);
#59=VECTOR('',#413,1.);
#60=VECTOR('',#416,1.);
#61=VECTOR('',#417,1.);
#62=VECTOR('',#420,1.);
#63=VECTOR('',#425,1.);
#64=VECTOR('',#426,1.);
#65=VECTOR('',#441,1.);
#66=VECTOR('',#452,1.);
#67=ORIENTED_EDGE('',*,*,#147,.F.);
#68=ORIENTED_EDGE('',*,*,#148,.F.);
#69=ORIENTED_EDGE('',*,*,#149,.F.);
#70=ORIENTED_EDGE('',*,*,#150,.F.);
#71=ORIENTED_EDGE('',*,*,#151,.T.);
#72=ORIENTED_EDGE('',*,*,#152,.T.);
#73=ORIENTED_EDGE('',*,*,#153,.T.);
#74=ORIENTED_EDGE('',*,*,#154,.F.);
#75=ORIENTED_EDGE('',*,*,#155,.F.);
#76=ORIENTED_EDGE('',*,*,#156,.T.);
#77=ORIENTED_EDGE('',*,*,#157,.T.);
#78=ORIENTED_EDGE('',*,*,#158,.T.);
#79=ORIENTED_EDGE('',*,*,#159,.F.);
#80=ORIENTED_EDGE('',*,*,#160,.T.);
#81=ORIENTED_EDGE('',*,*,#161,.F.);
#82=ORIENTED_EDGE('',*,*,#162,.F.);
#83=ORIENTED_EDGE('',*,*,#163,.F.);
#84=ORIENTED_EDGE('',*,*,#164,.T.);
#85=ORIENTED_EDGE('',*,*,#165,.T.);
#86=ORIENTED_EDGE('',*,*,#166,.F.);
#87=ORIENTED_EDGE('',*,*,#167,.T.);
#88=ORIENTED_EDGE('',*,*,#168,.F.);
#89=ORIENTED_EDGE('',*,*,#169,.T.);
#90=ORIENTED_EDGE('',*,*,#170,.T.);
#91=ORIENTED_EDGE('',*,*,#171,.T.);
#92=ORIENTED_EDGE('',*,*,#172,.T.);
#93=ORIENTED_EDGE('',*,*,#173,.F.);
#94=ORIENTED_EDGE('',*,*,#174,.F.);
#95=ORIENTED_EDGE('',*,*,#175,.T.);
#96=ORIENTED_EDGE('',*,*,#163,.T.);
#97=ORIENTED_EDGE('',*,*,#176,.T.);
#98=ORIENTED_EDGE('',*,*,#151,.F.);
#99=ORIENTED_EDGE('',*,*,#177,.F.);
#100=ORIENTED_EDGE('',*,*,#178,.F.);
#101=ORIENTED_EDGE('',*,*,#154,.T.);
#102=ORIENTED_EDGE('',*,*,#179,.T.);
#103=ORIENTED_EDGE('',*,*,#172,.F.);
#104=ORIENTED_EDGE('',*,*,#180,.F.);
#105=ORIENTED_EDGE('',*,*,#149,.T.);
#106=ORIENTED_EDGE('',*,*,#156,.F.);
#107=ORIENTED_EDGE('',*,*,#177,.T.);
#108=ORIENTED_EDGE('',*,*,#150,.T.);
#109=ORIENTED_EDGE('',*,*,#180,.T.);
#110=ORIENTED_EDGE('',*,*,#181,.F.);
#111=ORIENTED_EDGE('',*,*,#155,.T.);
#112=ORIENTED_EDGE('',*,*,#152,.F.);
#113=ORIENTED_EDGE('',*,*,#176,.F.);
#114=ORIENTED_EDGE('',*,*,#162,.T.);
#115=ORIENTED_EDGE('',*,*,#182,.T.);
#116=ORIENTED_EDGE('',*,*,#153,.F.);
#117=ORIENTED_EDGE('',*,*,#161,.T.);
#118=ORIENTED_EDGE('',*,*,#183,.T.);
#119=ORIENTED_EDGE('',*,*,#173,.T.);
#120=ORIENTED_EDGE('',*,*,#179,.F.);
#121=ORIENTED_EDGE('',*,*,#182,.F.);
#122=ORIENTED_EDGE('',*,*,#184,.F.);
#123=ORIENTED_EDGE('',*,*,#181,.T.);
#124=ORIENTED_EDGE('',*,*,#167,.F.);
#125=ORIENTED_EDGE('',*,*,#184,.T.);
#126=ORIENTED_EDGE('',*,*,#185,.F.);
#127=ORIENTED_EDGE('',*,*,#165,.F.);
#128=ORIENTED_EDGE('',*,*,#186,.T.);
#129=ORIENTED_EDGE('',*,*,#174,.T.);
#130=ORIENTED_EDGE('',*,*,#183,.F.);
#131=ORIENTED_EDGE('',*,*,#160,.F.);
#132=ORIENTED_EDGE('',*,*,#168,.T.);
#133=ORIENTED_EDGE('',*,*,#175,.F.);
#134=ORIENTED_EDGE('',*,*,#186,.F.);
#135=ORIENTED_EDGE('',*,*,#164,.F.);
#136=ORIENTED_EDGE('',*,*,#169,.F.);
#137=ORIENTED_EDGE('',*,*,#159,.T.);
#138=ORIENTED_EDGE('',*,*,#185,.T.);
#139=ORIENTED_EDGE('',*,*,#157,.F.);
#140=ORIENTED_EDGE('',*,*,#147,.T.);
#141=ORIENTED_EDGE('',*,*,#158,.F.);
#142=ORIENTED_EDGE('',*,*,#148,.T.);
#143=ORIENTED_EDGE('',*,*,#178,.T.);
#144=ORIENTED_EDGE('',*,*,#170,.F.);
#145=ORIENTED_EDGE('',*,*,#171,.F.);
#146=ORIENTED_EDGE('',*,*,#166,.T.);
#147=EDGE_CURVE('',#187,#187,#217,.T.);
#148=EDGE_CURVE('',#188,#189,#218,.T.);
#149=EDGE_CURVE('',#190,#188,#39,.T.);
#150=EDGE_CURVE('',#191,#190,#23,.T.);
#151=EDGE_CURVE('',#191,#192,#40,.T.);
#152=EDGE_CURVE('',#192,#193,#24,.T.);
#153=EDGE_CURVE('',#193,#194,#25,.T.);
#154=EDGE_CURVE('',#189,#194,#41,.T.);
#155=EDGE_CURVE('',#195,#195,#26,.T.);
#156=EDGE_CURVE('',#196,#196,#27,.T.);
#157=EDGE_CURVE('',#197,#197,#219,.T.);
#158=EDGE_CURVE('',#198,#198,#220,.T.);
#159=EDGE_CURVE('',#199,#200,#221,.T.);
#160=EDGE_CURVE('',#199,#201,#42,.T.);
#161=EDGE_CURVE('',#193,#201,#28,.T.);
#162=EDGE_CURVE('',#202,#193,#29,.T.);
#163=EDGE_CURVE('',#203,#202,#43,.T.);
#164=EDGE_CURVE('',#203,#204,#30,.T.);
#165=EDGE_CURVE('',#204,#200,#44,.T.);
#166=EDGE_CURVE('',#205,#205,#222,.T.);
#167=EDGE_CURVE('',#206,#206,#31,.T.);
#168=EDGE_CURVE('',#207,#207,#32,.T.);
#169=EDGE_CURVE('',#208,#208,#223,.T.);
#170=EDGE_CURVE('',#209,#210,#224,.T.);
#171=EDGE_CURVE('',#210,#209,#225,.T.);
#172=EDGE_CURVE('',#211,#212,#45,.T.);
#173=EDGE_CURVE('',#213,#212,#33,.T.);
#174=EDGE_CURVE('',#214,#213,#46,.T.);
#175=EDGE_CURVE('',#214,#203,#47,.T.);
#176=EDGE_CURVE('',#202,#192,#34,.T.);
#177=EDGE_CURVE('',#211,#191,#48,.T.);
#178=EDGE_CURVE('',#189,#188,#35,.F.);
#179=EDGE_CURVE('',#194,#212,#49,.T.);
#180=EDGE_CURVE('',#190,#211,#50,.T.);
#181=EDGE_CURVE('',#215,#215,#36,.T.);
#182=EDGE_CURVE('',#201,#194,#37,.T.);
#183=EDGE_CURVE('',#201,#213,#51,.T.);
#184=EDGE_CURVE('',#216,#216,#38,.T.);
#185=EDGE_CURVE('',#200,#199,#12,.F.);
#186=EDGE_CURVE('',#204,#214,#52,.T.);
#187=VERTEX_POINT('',#476);
#188=VERTEX_POINT('',#484);
#189=VERTEX_POINT('',#485);
#190=VERTEX_POINT('',#487);
#191=VERTEX_POINT('',#489);
#192=VERTEX_POINT('',#491);
#193=VERTEX_POINT('',#493);
#194=VERTEX_POINT('',#495);
#195=VERTEX_POINT('',#499);
#196=VERTEX_POINT('',#501);
#197=VERTEX_POINT('',#513);
#198=VERTEX_POINT('',#525);
#199=VERTEX_POINT('',#534);
#200=VERTEX_POINT('',#535);
#201=VERTEX_POINT('',#537);
#202=VERTEX_POINT('',#540);
#203=VERTEX_POINT('',#542);
#204=VERTEX_POINT('',#544);
#205=VERTEX_POINT('',#557);
#206=VERTEX_POINT('',#560);
#207=VERTEX_POINT('',#562);
#208=VERTEX_POINT('',#574);
#209=VERTEX_POINT('',#579);
#210=VERTEX_POINT('',#580);
#211=VERTEX_POINT('',#594);
#212=VERTEX_POINT('',#595);
#213=VERTEX_POINT('',#597);
#214=VERTEX_POINT('',#599);
#215=VERTEX_POINT('',#610);
#216=VERTEX_POINT('',#618);
#217=B_SPLINE_CURVE_WITH_KNOTS('',3,(#465,#466,#467,#468,#469,#470,#471,
#472,#473,#474,#475),.UNSPECIFIED.,.T.,.F.,(1,1,1,1,1,1,1,1,1,1,1,1,1,1,
1),(-0.00387081269588957,-0.00258054179725971,-0.00129027089862986,0.,0.00129027089862986,
0.00258054179725971,0.00387081269588957,0.00516108359451942,0.00645135449314928,
0.00774162539177913,0.00903189629040899,0.0103221671890388,0.0116124380876687,
0.0129027089862986,0.0141929798849284),.UNSPECIFIED.);
#218=B_SPLINE_CURVE_WITH_KNOTS('',3,(#477,#478,#479,#480,#481,#482,#483),
 .UNSPECIFIED.,.F.,.F.,(4,1,1,1,4),(8.4283791010312E-19,0.00129013792952445,
0.00258027585904889,0.00387041378857333,0.00516055171809778),
 .UNSPECIFIED.);
#219=B_SPLINE_CURVE_WITH_KNOTS('',3,(#502,#503,#504,#505,#506,#507,#508,
#509,#510,#511,#512),.UNSPECIFIED.,.T.,.F.,(1,1,1,1,1,1,1,1,1,1,1,1,1,1,
1),(-0.00387166308566497,-0.00258110872377665,-0.00129055436188832,0.,0.00129055436188832,
0.00258110872377665,0.00387166308566497,0.00516221744755329,0.00645277180944162,
0.00774332617132994,0.00903388053321827,0.0103244348951066,0.0116149892569949,
0.0129055436188832,0.0141960979807716),.UNSPECIFIED.);
#220=B_SPLINE_CURVE_WITH_KNOTS('',3,(#514,#515,#516,#517,#518,#519,#520,
#521,#522,#523,#524),.UNSPECIFIED.,.T.,.F.,(1,1,1,1,1,1,1,1,1,1,1,1,1,1,
1),(-0.00387166308566497,-0.00258110872377665,-0.00129055436188832,0.,0.00129055436188832,
0.00258110872377665,0.00387166308566497,0.0051622174475533,0.00645277180944162,
0.00774332617132995,0.00903388053321827,0.0103244348951066,0.0116149892569949,
0.0129055436188832,0.0141960979807716),.UNSPECIFIED.);
#221=B_SPLINE_CURVE_WITH_KNOTS('',3,(#527,#528,#529,#530,#531,#532,#533),
 .UNSPECIFIED.,.F.,.F.,(4,1,1,1,4),(4.21533098007584E-18,0.00129307880861458,
0.00258615761722916,0.00387923642584374,0.00517231523445832),
 .UNSPECIFIED.);
#222=B_SPLINE_CURVE_WITH_KNOTS('',3,(#546,#547,#548,#549,#550,#551,#552,
#553,#554,#555,#556),.UNSPECIFIED.,.T.,.F.,(1,1,1,1,1,1,1,1,1,1,1,1,1,1,
1),(-0.0038797433306714,-0.00258649555378094,-0.00129324777689047,8.38089480678307E-19,
0.00129324777689047,0.00258649555378094,0.00387974333067141,0.00517299110756187,
0.00646623888445234,0.00775948666134281,0.00905273443823328,0.0103459822151237,
0.0116392299920142,0.0129324777689047,0.0142257255457952),.UNSPECIFIED.);
#223=B_SPLINE_CURVE_WITH_KNOTS('',3,(#563,#564,#565,#566,#567,#568,#569,
#570,#571,#572,#573),.UNSPECIFIED.,.T.,.F.,(1,1,1,1,1,1,1,1,1,1,1,1,1,1,
1),(-0.00388044539381602,-0.00258696359587735,-0.00129348179793867,8.22625897845179E-20,
0.00129348179793867,0.00258696359587735,0.00388044539381602,0.00517392719175469,
0.00646740898969336,0.00776089078763204,0.00905437258557071,0.0103478543835094,
0.0116413361814481,0.0129348179793867,0.0142282997773254),.UNSPECIFIED.);
#224=B_SPLINE_CURVE_WITH_KNOTS('',3,(#575,#576,#577,#578),.UNSPECIFIED.,
 .F.,.F.,(4,4),(0.0084070105880455,0.0103482055602101),.UNSPECIFIED.);
#225=B_SPLINE_CURVE_WITH_KNOTS('',3,(#581,#582,#583,#584,#585,#586,#587,
#588,#589,#590,#591),.UNSPECIFIED.,.F.,.F.,(4,1,1,1,1,1,1,1,4),(0.,0.00105087632350569,
0.00210175264701138,0.00315262897051706,0.00420350529402275,0.00525438161752844,
0.00630525794103413,0.00735613426453981,0.0084070105880455),
 .UNSPECIFIED.);
#226=EDGE_LOOP('',(#67));
#227=EDGE_LOOP('',(#68,#69,#70,#71,#72,#73,#74));
#228=EDGE_LOOP('',(#75));
#229=EDGE_LOOP('',(#76));
#230=EDGE_LOOP('',(#77));
#231=EDGE_LOOP('',(#78));
#232=EDGE_LOOP('',(#79,#80,#81,#82,#83,#84,#85));
#233=EDGE_LOOP('',(#86));
#234=EDGE_LOOP('',(#87));
#235=EDGE_LOOP('',(#88));
#236=EDGE_LOOP('',(#89));
#237=EDGE_LOOP('',(#90,#91));
#238=EDGE_LOOP('',(#92,#93,#94,#95,#96,#97,#98,#99));
#239=EDGE_LOOP('',(#100,#101,#102,#103,#104,#105));
#240=EDGE_LOOP('',(#106));
#241=EDGE_LOOP('',(#107,#108,#109));
#242=EDGE_LOOP('',(#110));
#243=EDGE_LOOP('',(#111));
#244=EDGE_LOOP('',(#112,#113,#114));
#245=EDGE_LOOP('',(#115,#116,#117));
#246=EDGE_LOOP('',(#118,#119,#120,#121));
#247=EDGE_LOOP('',(#122));
#248=EDGE_LOOP('',(#123));
#249=EDGE_LOOP('',(#124));
#250=EDGE_LOOP('',(#125));
#251=EDGE_LOOP('',(#126,#127,#128,#129,#130,#131));
#252=EDGE_LOOP('',(#132));
#253=EDGE_LOOP('',(#133,#134,#135));
#254=EDGE_LOOP('',(#136));
#255=EDGE_LOOP('',(#137,#138));
#256=EDGE_LOOP('',(#139));
#257=EDGE_LOOP('',(#140));
#258=EDGE_LOOP('',(#141));
#259=EDGE_LOOP('',(#142,#143));
#260=EDGE_LOOP('',(#144,#145));
#261=EDGE_LOOP('',(#146));
#262=FACE_BOUND('',#226,.T.);
#263=FACE_BOUND('',#227,.T.);
#264=FACE_BOUND('',#228,.T.);
#265=FACE_BOUND('',#229,.T.);
#266=FACE_BOUND('',#230,.T.);
#267=FACE_BOUND('',#231,.T.);
#268=FACE_BOUND('',#232,.T.);
#269=FACE_BOUND('',#233,.T.);
#270=FACE_BOUND('',#234,.T.);
#271=FACE_BOUND('',#235,.T.);
#272=FACE_BOUND('',#236,.T.);
#273=FACE_BOUND('',#237,.T.);
#274=FACE_BOUND('',#238,.T.);
#275=FACE_BOUND('',#239,.T.);
#276=FACE_BOUND('',#240,.T.);
#277=FACE_BOUND('',#241,.T.);
#278=FACE_BOUND('',#242,.T.);
#279=FACE_BOUND('',#243,.T.);
#280=FACE_BOUND('',#244,.T.);
#281=FACE_BOUND('',#245,.T.);
#282=FACE_BOUND('',#246,.T.);
#283=FACE_BOUND('',#247,.T.);
#284=FACE_BOUND('',#248,.T.);
#285=FACE_BOUND('',#249,.T.);
#286=FACE_BOUND('',#250,.T.);
#287=FACE_BOUND('',#251,.T.);
#288=FACE_BOUND('',#252,.T.);
#289=FACE_BOUND('',#253,.T.);
#290=FACE_BOUND('',#254,.T.);
#291=FACE_BOUND('',#255,.T.);
#292=FACE_BOUND('',#256,.T.);
#293=FACE_BOUND('',#257,.T.);
#294=FACE_BOUND('',#258,.T.);
#295=FACE_BOUND('',#259,.T.);
#296=FACE_BOUND('',#260,.T.);
#297=FACE_BOUND('',#261,.T.);
#298=CYLINDRICAL_SURFACE('',#339,0.017);
#299=CYLINDRICAL_SURFACE('',#343,0.0145);
#300=CYLINDRICAL_SURFACE('',#346,0.017);
#301=CYLINDRICAL_SURFACE('',#350,0.0145);
#302=CYLINDRICAL_SURFACE('',#364,0.034);
#303=CYLINDRICAL_SURFACE('',#371,0.00165);
#304=CYLINDRICAL_SURFACE('',#372,0.00165);
#305=CYLINDRICAL_SURFACE('',#373,0.00165);
#306=CYLINDRICAL_SURFACE('',#374,0.00165);
#307=ADVANCED_FACE('',(#262,#263),#298,.T.);
#308=ADVANCED_FACE('',(#264,#265,#266,#267),#299,.F.);
#309=ADVANCED_FACE('',(#268,#269),#300,.T.);
#310=ADVANCED_FACE('',(#270,#271,#272,#273),#301,.F.);
#311=ADVANCED_FACE('',(#274),#16,.F.);
#312=ADVANCED_FACE('',(#275),#17,.F.);
#313=ADVANCED_FACE('',(#276,#277),#18,.T.);
#314=ADVANCED_FACE('',(#278,#279),#19,.T.);
#315=ADVANCED_FACE('',(#280),#13,.T.);
#316=ADVANCED_FACE('',(#281),#14,.T.);
#317=ADVANCED_FACE('',(#282),#302,.T.);
#318=ADVANCED_FACE('',(#283,#284),#15,.F.);
#319=ADVANCED_FACE('',(#285,#286),#20,.F.);
#320=ADVANCED_FACE('',(#287),#21,.F.);
#321=ADVANCED_FACE('',(#288,#289),#22,.T.);
#322=ADVANCED_FACE('',(#290,#291),#303,.F.);
#323=ADVANCED_FACE('',(#292,#293),#304,.F.);
#324=ADVANCED_FACE('',(#294,#295),#305,.F.);
#325=ADVANCED_FACE('',(#296,#297),#306,.F.);
#326=CLOSED_SHELL('',(#307,#308,#309,#310,#311,#312,#313,#314,#315,#316,
#317,#318,#319,#320,#321,#322,#323,#324,#325));
#327=STYLED_ITEM('',(#328),#335);
#328=PRESENTATION_STYLE_ASSIGNMENT((#329));
#329=SURFACE_STYLE_USAGE(.BOTH.,#330);
#330=SURFACE_SIDE_STYLE('',(#331));
#331=SURFACE_STYLE_FILL_AREA(#332);
#332=FILL_AREA_STYLE('',(#333));
#333=FILL_AREA_STYLE_COLOUR('',#334);
#334=COLOUR_RGB('',0.901960784313726,0.901960784313726,0.901960784313726);
#335=MANIFOLD_SOLID_BREP('Right-Front/Left-Rear',#326);
#336=SHAPE_DEFINITION_REPRESENTATION(#634,#337);
#337=SHAPE_REPRESENTATION('Right-Front/Left-Rear',(#338),#629);
#338=AXIS2_PLACEMENT_3D('',#463,#375,#376);
#339=AXIS2_PLACEMENT_3D('',#464,#377,#378);
#340=AXIS2_PLACEMENT_3D('',#488,#380,#381);
#341=AXIS2_PLACEMENT_3D('',#492,#383,#384);
#342=AXIS2_PLACEMENT_3D('',#494,#385,#386);
#343=AXIS2_PLACEMENT_3D('',#497,#388,#389);
#344=AXIS2_PLACEMENT_3D('',#498,#390,#391);
#345=AXIS2_PLACEMENT_3D('',#500,#392,#393);
#346=AXIS2_PLACEMENT_3D('',#526,#394,#395);
#347=AXIS2_PLACEMENT_3D('',#538,#397,#398);
#348=AXIS2_PLACEMENT_3D('',#539,#399,#400);
#349=AXIS2_PLACEMENT_3D('',#543,#402,#403);
#350=AXIS2_PLACEMENT_3D('',#558,#405,#406);
#351=AXIS2_PLACEMENT_3D('',#559,#407,#408);
#352=AXIS2_PLACEMENT_3D('',#561,#409,#410);
#353=AXIS2_PLACEMENT_3D('',#592,#411,#412);
#354=AXIS2_PLACEMENT_3D('',#596,#414,#415);
#355=AXIS2_PLACEMENT_3D('',#601,#418,#419);
#356=AXIS2_PLACEMENT_3D('',#603,#421,#422);
#357=AXIS2_PLACEMENT_3D('',#604,#423,#424);
#358=AXIS2_PLACEMENT_3D('',#607,#427,#428);
#359=AXIS2_PLACEMENT_3D('',#608,#429,#430);
#360=AXIS2_PLACEMENT_3D('',#609,#431,#432);
#361=AXIS2_PLACEMENT_3D('',#611,#433,#434);
#362=AXIS2_PLACEMENT_3D('',#612,#435,#436);
#363=AXIS2_PLACEMENT_3D('',#613,#437,#438);
#364=AXIS2_PLACEMENT_3D('',#614,#439,#440);
#365=AXIS2_PLACEMENT_3D('',#616,#442,#443);
#366=AXIS2_PLACEMENT_3D('',#617,#444,#445);
#367=AXIS2_PLACEMENT_3D('',#619,#446,#447);
#368=AXIS2_PLACEMENT_3D('',#620,#448,#449);
#369=AXIS2_PLACEMENT_3D('',#621,#450,#451);
#370=AXIS2_PLACEMENT_3D('',#623,#453,#454);
#371=AXIS2_PLACEMENT_3D('',#624,#455,#456);
#372=AXIS2_PLACEMENT_3D('',#625,#457,#458);
#373=AXIS2_PLACEMENT_3D('',#626,#459,#460);
#374=AXIS2_PLACEMENT_3D('',#627,#461,#462);
#375=DIRECTION('',(0.,0.,1.));
#376=DIRECTION('',(1.,0.,0.));
#377=DIRECTION('',(0.,0.,-1.));
#378=DIRECTION('',(0.,1.,0.));
#379=DIRECTION('',(0.,0.,-1.));
#380=DIRECTION('',(0.,0.,1.));
#381=DIRECTION('',(0.,-1.,0.));
#382=DIRECTION('',(0.,0.,-1.));
#383=DIRECTION('',(0.,0.,1.));
#384=DIRECTION('',(0.,-1.,0.));
#385=DIRECTION('',(0.,0.,1.));
#386=DIRECTION('',(0.,-1.,0.));
#387=DIRECTION('',(0.,0.,-1.));
#388=DIRECTION('',(0.,0.,-1.));
#389=DIRECTION('',(0.,1.,0.));
#390=DIRECTION('',(0.,0.,1.));
#391=DIRECTION('',(0.,-1.,0.));
#392=DIRECTION('',(0.,0.,1.));
#393=DIRECTION('',(0.,-1.,0.));
#394=DIRECTION('',(0.,0.866025403784439,0.5));
#395=DIRECTION('',(0.,0.5,-0.866025403784439));
#396=DIRECTION('',(0.,0.866025403784439,0.5));
#397=DIRECTION('',(0.,0.866025403784439,0.5));
#398=DIRECTION('',(0.,-0.5,0.866025403784439));
#399=DIRECTION('',(0.,0.866025403784439,0.5));
#400=DIRECTION('',(0.,-0.5,0.866025403784439));
#401=DIRECTION('',(0.,0.866025403784439,0.5));
#402=DIRECTION('',(0.,0.866025403784439,0.5));
#403=DIRECTION('',(0.,-0.5,0.866025403784439));
#404=DIRECTION('',(0.,0.866025403784439,0.5));
#405=DIRECTION('',(0.,0.866025403784439,0.5));
#406=DIRECTION('',(0.,0.5,-0.866025403784439));
#407=DIRECTION('',(0.,0.866025403784439,0.5));
#408=DIRECTION('',(0.,-0.5,0.866025403784439));
#409=DIRECTION('',(0.,0.866025403784439,0.5));
#410=DIRECTION('',(0.,-0.5,0.866025403784439));
#411=DIRECTION('',(1.,0.,0.));
#412=DIRECTION('',(0.,-1.,0.));
#413=DIRECTION('',(0.,0.,-1.));
#414=DIRECTION('',(1.,0.,0.));
#415=DIRECTION('',(0.,-1.,0.));
#416=DIRECTION('',(0.,0.866025403784439,0.5));
#417=DIRECTION('',(0.,-0.5,0.866025403784439));
#418=DIRECTION('',(1.,0.,0.));
#419=DIRECTION('',(0.,-1.,0.));
#420=DIRECTION('',(0.,-1.,0.));
#421=DIRECTION('',(0.,-1.,0.));
#422=DIRECTION('',(-1.,0.,0.));
#423=DIRECTION('',(0.,-1.,0.));
#424=DIRECTION('',(-1.,0.,0.));
#425=DIRECTION('',(-1.,0.,0.));
#426=DIRECTION('',(-1.,0.,0.));
#427=DIRECTION('',(0.,0.,1.));
#428=DIRECTION('',(1.,0.,0.));
#429=DIRECTION('',(0.,0.,1.));
#430=DIRECTION('',(1.,0.,0.));
#431=DIRECTION('',(0.,0.,1.));
#432=DIRECTION('',(0.,-1.,0.));
#433=DIRECTION('',(1.,0.,0.));
#434=DIRECTION('',(0.,-1.,0.));
#435=DIRECTION('',(1.,0.,0.));
#436=DIRECTION('',(0.,-1.,0.));
#437=DIRECTION('',(1.,0.,0.));
#438=DIRECTION('',(0.,-1.,0.));
#439=DIRECTION('',(1.,0.,0.));
#440=DIRECTION('',(0.,-1.,0.));
#441=DIRECTION('',(-1.,0.,0.));
#442=DIRECTION('',(1.,0.,0.));
#443=DIRECTION('',(0.,-1.,0.));
#444=DIRECTION('',(0.,0.866025403784439,0.5));
#445=DIRECTION('',(0.,-0.5,0.866025403784439));
#446=DIRECTION('',(0.,0.866025403784439,0.5));
#447=DIRECTION('',(1.,0.,0.));
#448=DIRECTION('',(0.,-0.5,0.866025403784439));
#449=DIRECTION('',(-1.,0.,0.));
#450=DIRECTION('',(0.,-0.5,0.866025403784439));
#451=DIRECTION('',(0.,0.866025403784439,0.5));
#452=DIRECTION('',(-1.,0.,0.));
#453=DIRECTION('',(0.,-0.866025403784439,-0.5));
#454=DIRECTION('',(1.,0.,0.));
#455=DIRECTION('',(0.,0.57972615160086,-0.814811382560441));
#456=DIRECTION('',(0.,0.814811382560441,0.57972615160086));
#457=DIRECTION('',(0.,-1.,0.));
#458=DIRECTION('',(-1.,0.,0.));
#459=DIRECTION('',(0.,1.,0.));
#460=DIRECTION('',(1.,0.,0.));
#461=DIRECTION('',(0.,-0.57972615160086,0.814811382560441));
#462=DIRECTION('',(0.,-0.814811382560441,-0.57972615160086));
#463=CARTESIAN_POINT('',(0.,0.,0.));
#464=CARTESIAN_POINT('',(-8.67361737988404E-19,-1.73588041286846E-19,0.03));
#465=CARTESIAN_POINT('',(-0.00129192235630137,-0.0169600648677277,0.0162944066931368));
#466=CARTESIAN_POINT('',(-0.00182893830739617,-0.0168995922098734,0.0149996755003137));
#467=CARTESIAN_POINT('',(-0.00129232441411394,-0.0169599882663297,0.0137068913056084));
#468=CARTESIAN_POINT('',(-1.42149846005993E-6,-0.0170199987263918,0.0131717025419949));
#469=CARTESIAN_POINT('',(0.00129260897652347,-0.0169600166850863,0.0137062999999202));
#470=CARTESIAN_POINT('',(0.00182828298285547,-0.0168996408478405,0.0149996819181002));
#471=CARTESIAN_POINT('',(0.00129425842619328,-0.0169598419620372,0.0162913413422841));
#472=CARTESIAN_POINT('',(1.78193388534258E-6,-0.0170200231827994,0.0168285618602908));
#473=CARTESIAN_POINT('',(-0.00129192235630137,-0.0169600648677277,0.0162944066931368));
#474=CARTESIAN_POINT('',(-0.00182893830739617,-0.0168995922098734,0.0149996755003137));
#475=CARTESIAN_POINT('',(-0.00129232441411394,-0.0169599882663297,0.0137068913056084));
#476=CARTESIAN_POINT('',(-0.00165,-0.0169197369955918,0.015));
#477=CARTESIAN_POINT('',(-8.67361737988404E-19,0.017,0.01665));
#478=CARTESIAN_POINT('',(0.000436257582168579,0.017,0.01665));
#479=CARTESIAN_POINT('',(0.00129048314833165,0.0169599524757578,0.0162924442005452));
#480=CARTESIAN_POINT('',(0.00182942627709121,0.0168996521254768,0.0150016558930131));
#481=CARTESIAN_POINT('',(0.00129180926566834,0.0169598612375033,0.0137079363097735));
#482=CARTESIAN_POINT('',(0.00043625684154071,0.017,0.01335));
#483=CARTESIAN_POINT('',(-8.26759254503811E-19,0.017,0.01335));
#484=CARTESIAN_POINT('',(-1.7347234759768E-18,0.017,0.01665));
#485=CARTESIAN_POINT('',(-1.7347234759768E-18,0.017,0.01335));
#486=CARTESIAN_POINT('',(-1.7347234759768E-18,0.017,0.03));
#487=CARTESIAN_POINT('',(-1.7347234759768E-18,0.017,0.03));
#488=CARTESIAN_POINT('',(-8.67361737988404E-19,-1.73588041286846E-19,0.03));
#489=CARTESIAN_POINT('',(-0.017,0.,0.03));
#490=CARTESIAN_POINT('',(-0.017,0.,0.03));
#491=CARTESIAN_POINT('',(-0.017,0.,0.));
#492=CARTESIAN_POINT('',(-8.67361737988404E-19,-1.73588041286846E-19,0.));
#493=CARTESIAN_POINT('',(-8.67361737988404E-19,-0.017,0.));
#494=CARTESIAN_POINT('',(-8.67361737988404E-19,-1.73588041286846E-19,0.));
#495=CARTESIAN_POINT('',(-1.7347234759768E-18,0.017,0.));
#496=CARTESIAN_POINT('',(-1.7347234759768E-18,0.017,0.03));
#497=CARTESIAN_POINT('',(0.,8.87868929381831E-19,0.03));
#498=CARTESIAN_POINT('',(0.,8.87868929381831E-19,0.));
#499=CARTESIAN_POINT('',(0.,-0.0145,0.));
#500=CARTESIAN_POINT('',(0.,8.87868929381831E-19,0.03));
#501=CARTESIAN_POINT('',(0.,-0.0145,0.03));
#502=CARTESIAN_POINT('',(-0.00129191055715568,-0.0144531790123637,0.0162943970389938));
#503=CARTESIAN_POINT('',(-0.00182894522921555,-0.0143821549257539,0.0149996785603712));
#504=CARTESIAN_POINT('',(-0.0012923085259821,-0.0144530900738128,0.0137068887195215));
#505=CARTESIAN_POINT('',(-1.4555077212858E-6,-0.0145234478091223,0.0131716872094326));
#506=CARTESIAN_POINT('',(0.001292674829455,-0.0144531185186349,0.013706363946029));
#507=CARTESIAN_POINT('',(0.00182826211194803,-0.0143822129606193,0.0149996498218166));
#508=CARTESIAN_POINT('',(0.00129427603874177,-0.0144529185064247,0.0162913566282074));
#509=CARTESIAN_POINT('',(1.70470254754792E-6,-0.0145234754991086,0.0168285605181589));
#510=CARTESIAN_POINT('',(-0.00129191055715568,-0.0144531790123637,0.0162943970389938));
#511=CARTESIAN_POINT('',(-0.00182894522921555,-0.0143821549257539,0.0149996785603712));
#512=CARTESIAN_POINT('',(-0.0012923085259821,-0.0144530900738128,0.0137068887195215));
#513=CARTESIAN_POINT('',(-0.00165,-0.0144058147981987,0.015));
#514=CARTESIAN_POINT('',(0.00129191055715568,0.0144531790123637,0.0162943970389938));
#515=CARTESIAN_POINT('',(0.00182894522921555,0.0143821549257539,0.0149996785603712));
#516=CARTESIAN_POINT('',(0.0012923085259821,0.0144530900738128,0.0137068887195215));
#517=CARTESIAN_POINT('',(1.45550772128367E-6,0.0145234478091223,0.0131716872094326));
#518=CARTESIAN_POINT('',(-0.001292674829455,0.0144531185186349,0.013706363946029));
#519=CARTESIAN_POINT('',(-0.00182826211194803,0.0143822129606193,0.0149996498218166));
#520=CARTESIAN_POINT('',(-0.00129427603874177,0.0144529185064247,0.0162913566282074));
#521=CARTESIAN_POINT('',(-1.70470254754627E-6,0.0145234754991086,0.0168285605181589));
#522=CARTESIAN_POINT('',(0.00129191055715568,0.0144531790123637,0.0162943970389938));
#523=CARTESIAN_POINT('',(0.00182894522921555,0.0143821549257539,0.0149996785603712));
#524=CARTESIAN_POINT('',(0.0012923085259821,0.0144530900738128,0.0137068887195215));
#525=CARTESIAN_POINT('',(0.00165,0.0144058147981987,0.015));
#526=CARTESIAN_POINT('',(-8.67361737988404E-19,-0.0344807621135331,-0.0297224318643355));
#527=CARTESIAN_POINT('',(-8.67361737988404E-19,-0.00975961936960425,-0.0350795825989002));
#528=CARTESIAN_POINT('',(0.000437295802951486,-0.00975961936960425,-0.0350795825989002));
#529=CARTESIAN_POINT('',(0.00129053451262447,-0.0100960187185838,-0.0352275146078307));
#530=CARTESIAN_POINT('',(0.0018282782495321,-0.0112454357112052,-0.0358216592400774));
#531=CARTESIAN_POINT('',(0.00129628309718672,-0.0123404645518837,-0.0365228912073236));
#532=CARTESIAN_POINT('',(0.000437221336633353,-0.0126303917286905,-0.0367370237932008));
#533=CARTESIAN_POINT('',(-1.53961807802924E-18,-0.0126303917286905,-0.0367370237932008));
#534=CARTESIAN_POINT('',(-1.7347234759768E-18,-0.00975961936960425,-0.0350795825989002));
#535=CARTESIAN_POINT('',(-1.7347234759768E-18,-0.0126303917286905,-0.0367370237932008));
#536=CARTESIAN_POINT('',(-1.7347234759768E-18,-0.0259807621135331,-0.0444448637286709));
#537=CARTESIAN_POINT('',(-1.7347234759768E-18,3.46944695195361E-18,-0.0294448637286709));
#538=CARTESIAN_POINT('',(-8.67361737988404E-19,-0.0085,-0.0147224318643355));
#539=CARTESIAN_POINT('',(-8.67361737988404E-19,-0.0085,-0.0147224318643355));
#540=CARTESIAN_POINT('',(-0.017,-0.0085,-0.0147224318643355));
#541=CARTESIAN_POINT('',(-0.017,-0.0344807621135331,-0.0297224318643355));
#542=CARTESIAN_POINT('',(-0.017,-0.0344807621135331,-0.0297224318643355));
#543=CARTESIAN_POINT('',(-8.67361737988404E-19,-0.0344807621135331,-0.0297224318643355));
#544=CARTESIAN_POINT('',(-1.7347234759768E-18,-0.0259807621135331,-0.0444448637286709));
#545=CARTESIAN_POINT('',(-1.7347234759768E-18,-0.0259807621135331,-0.0444448637286709));
#546=CARTESIAN_POINT('',(-0.00129455827347161,-0.0320931770349633,-0.00876041937865356));
#547=CARTESIAN_POINT('',(2.35285339619297E-7,-0.0325983028355864,-0.00898251561027296));
#548=CARTESIAN_POINT('',(0.00129361713211314,-0.0320934462588524,-0.00876051062897341));
#549=CARTESIAN_POINT('',(0.00182710187770665,-0.0309438837313038,-0.0081662776085201));
#550=CARTESIAN_POINT('',(0.00129791332645023,-0.0298485848118849,-0.0074648096220544));
#551=CARTESIAN_POINT('',(1.71303056970238E-7,-0.0294148635739838,-0.00714443663310544));
#552=CARTESIAN_POINT('',(-0.00129551924228859,-0.0298471617633591,-0.00746378940700879));
#553=CARTESIAN_POINT('',(-0.00182747411482412,-0.0309416213231691,-0.00816500602803698));
#554=CARTESIAN_POINT('',(-0.00129455827347161,-0.0320931770349633,-0.00876041937865356));
#555=CARTESIAN_POINT('',(2.35285339619297E-7,-0.0325983028355864,-0.00898251561027296));
#556=CARTESIAN_POINT('',(0.00129361713211314,-0.0320934462588524,-0.00876051062897341));
#557=CARTESIAN_POINT('',(8.62647818677811E-19,-0.0324299724393603,-0.00890849874145314));
#558=CARTESIAN_POINT('',(0.,-0.0344807621135331,-0.0297224318643355));
#559=CARTESIAN_POINT('',(0.,-0.0085,-0.0147224318643355));
#560=CARTESIAN_POINT('',(0.,-0.01575,-0.00216506350946109));
#561=CARTESIAN_POINT('',(0.,-0.0344807621135331,-0.0297224318643355));
#562=CARTESIAN_POINT('',(0.,-0.0417307621135331,-0.0171650635094611));
#563=CARTESIAN_POINT('',(0.00129902812153096,-0.0138002849367092,-0.0344708768285527));
#564=CARTESIAN_POINT('',(-3.70717477624213E-7,-0.0142291088297675,-0.0348006795780428));
#565=CARTESIAN_POINT('',(-0.00129754525162046,-0.0138007392534242,-0.0344712571544747));
#566=CARTESIAN_POINT('',(-0.00182720693993635,-0.0127128231402951,-0.0337619802083652));
#567=CARTESIAN_POINT('',(-0.00129358005886266,-0.0115556766725096,-0.0331755093051273));
#568=CARTESIAN_POINT('',(-6.6842640241325E-7,-0.0110457465264447,-0.0329624586516001));
#569=CARTESIAN_POINT('',(0.00129152470070308,-0.0115541636338297,-0.0331748616799637));
#570=CARTESIAN_POINT('',(0.00182733664186422,-0.0127102367563721,-0.0337604617582711));
#571=CARTESIAN_POINT('',(0.00129902812153096,-0.0138002849367092,-0.0344708768285527));
#572=CARTESIAN_POINT('',(-3.70717477624213E-7,-0.0142291088297675,-0.0348006795780428));
#573=CARTESIAN_POINT('',(-0.00129754525162046,-0.0138007392534242,-0.0344712571544747));
#574=CARTESIAN_POINT('',(-8.46489144999266E-20,-0.0140862432515339,-0.0346908087158664));
#575=CARTESIAN_POINT('',(0.000920031556480991,-0.0283301870814511,-0.0094619755390293));
#576=CARTESIAN_POINT('',(0.000379364586573385,-0.0280342711285786,-0.00925143575003294));
#577=CARTESIAN_POINT('',(-0.000375178813750053,-0.0280319801860512,-0.00924980577857782));
#578=CARTESIAN_POINT('',(-0.000920031556484794,-0.0283301870814533,-0.00946197553903078));
#579=CARTESIAN_POINT('',(0.000920031556481033,-0.0283301870814513,-0.0094619755390294));
#580=CARTESIAN_POINT('',(-0.000920031556480991,-0.0283301870814513,-0.00946197553902942));
#581=CARTESIAN_POINT('',(-0.000920031556484794,-0.0283301870814533,-0.00946197553903078));
#582=CARTESIAN_POINT('',(-0.00121499051493429,-0.0284916229858203,-0.00957683477832464));
#583=CARTESIAN_POINT('',(-0.00166405650540287,-0.0289711946315618,-0.00990788221796589));
#584=CARTESIAN_POINT('',(-0.00168703991441117,-0.0299323982579038,-0.0104665419157376));
#585=CARTESIAN_POINT('',(-0.0010536335769424,-0.0307533015468788,-0.0108609874841904));
#586=CARTESIAN_POINT('',(-7.76791042985355E-7,-0.0310843715248038,-0.0110015021776734));
#587=CARTESIAN_POINT('',(0.00105314482507283,-0.0307539372416129,-0.0108612864506628));
#588=CARTESIAN_POINT('',(0.00168664649030688,-0.0299325294343266,-0.0104665835767037));
#589=CARTESIAN_POINT('',(0.00166536391785649,-0.0289722255995613,-0.0099085863733984));
#590=CARTESIAN_POINT('',(0.00121272452433053,-0.0284903827717762,-0.00957595238452126));
#591=CARTESIAN_POINT('',(0.000920031556480991,-0.0283301870814511,-0.0094619755390293));
#592=CARTESIAN_POINT('',(-0.017,0.0085,0.03));
#593=CARTESIAN_POINT('',(-0.017,0.017,0.03));
#594=CARTESIAN_POINT('',(-0.017,0.017,0.03));
#595=CARTESIAN_POINT('',(-0.017,0.017,0.));
#596=CARTESIAN_POINT('',(-0.017,-0.017,0.));
#597=CARTESIAN_POINT('',(-0.017,3.46944695195361E-18,-0.0294448637286709));
#598=CARTESIAN_POINT('',(-0.017,-0.0259807621135331,-0.0444448637286709));
#599=CARTESIAN_POINT('',(-0.017,-0.0259807621135331,-0.0444448637286709));
#600=CARTESIAN_POINT('',(-0.017,-0.0302307621135331,-0.0370836477965032));
#601=CARTESIAN_POINT('',(-0.017,-0.017,0.));
#602=CARTESIAN_POINT('',(-0.017,0.0085,0.03));
#603=CARTESIAN_POINT('',(-0.0085,0.017,0.03));
#604=CARTESIAN_POINT('',(0.,0.017,0.015));
#605=CARTESIAN_POINT('',(-0.0085,0.017,0.));
#606=CARTESIAN_POINT('',(-0.0085,0.017,0.03));
#607=CARTESIAN_POINT('',(-3.46944695195361E-18,0.,0.03));
#608=CARTESIAN_POINT('',(-3.46944695195361E-18,0.,0.));
#609=CARTESIAN_POINT('',(0.,7.04171909509728E-19,0.));
#610=CARTESIAN_POINT('',(0.,-0.0115,0.));
#611=CARTESIAN_POINT('',(-8.67361737988404E-19,-0.017,0.));
#612=CARTESIAN_POINT('',(-8.67361737988404E-19,-0.017,0.));
#613=CARTESIAN_POINT('',(-1.7347234759768E-18,-0.017,0.));
#614=CARTESIAN_POINT('',(0.,-0.017,0.));
#615=CARTESIAN_POINT('',(-0.0085,3.46944695195361E-18,-0.0294448637286709));
#616=CARTESIAN_POINT('',(0.,-0.017,0.));
#617=CARTESIAN_POINT('',(0.,-0.0085,-0.0147224318643355));
#618=CARTESIAN_POINT('',(0.,-0.01425,-0.00476313972081441));
#619=CARTESIAN_POINT('',(-3.46944695195361E-18,-0.0085,-0.0147224318643355));
#620=CARTESIAN_POINT('',(-0.0085,-0.0259807621135331,-0.0444448637286709));
#621=CARTESIAN_POINT('',(0.,-0.0111950055491474,-0.0359083031960505));
#622=CARTESIAN_POINT('',(-0.0085,-0.0259807621135331,-0.0444448637286709));
#623=CARTESIAN_POINT('',(-3.46944695195361E-18,-0.0344807621135331,-0.0297224318643355));
#624=CARTESIAN_POINT('',(0.,-0.0212403810567665,-0.0217894191624432));
#625=CARTESIAN_POINT('',(0.,0.,0.015));
#626=CARTESIAN_POINT('',(0.,0.,0.015));
#627=CARTESIAN_POINT('',(0.,-0.0212403810567665,-0.0217894191624432));
#628=MECHANICAL_DESIGN_GEOMETRIC_PRESENTATION_REPRESENTATION('',(#327),
#629);
#629=(
GEOMETRIC_REPRESENTATION_CONTEXT(3)
GLOBAL_UNCERTAINTY_ASSIGNED_CONTEXT((#630))
GLOBAL_UNIT_ASSIGNED_CONTEXT((#633,#632,#631))
REPRESENTATION_CONTEXT('Right-Front/Left-Rear',
'TOP_LEVEL_ASSEMBLY_PART')
);
#630=UNCERTAINTY_MEASURE_WITH_UNIT(LENGTH_MEASURE(2.E-5),#633,
'DISTANCE_ACCURACY_VALUE','Maximum Tolerance applied to model');
#631=(
NAMED_UNIT(*)
SI_UNIT($,.STERADIAN.)
SOLID_ANGLE_UNIT()
);
#632=(
NAMED_UNIT(*)
PLANE_ANGLE_UNIT()
SI_UNIT($,.RADIAN.)
);
#633=(
LENGTH_UNIT()
NAMED_UNIT(*)
SI_UNIT($,.METRE.)
);
#634=PRODUCT_DEFINITION_SHAPE('','',#635);
#635=PRODUCT_DEFINITION('','',#637,#636);
#636=PRODUCT_DEFINITION_CONTEXT('',#643,'design');
#637=PRODUCT_DEFINITION_FORMATION_WITH_SPECIFIED_SOURCE('','',#639,
 .NOT_KNOWN.);
#638=PRODUCT_RELATED_PRODUCT_CATEGORY('','',(#639));
#639=PRODUCT('Right-Front/Left-Rear','Right-Front/Left-Rear',
'Right-Front/Left-Rear',(#641));
#640=PRODUCT_CATEGORY('','');
#641=PRODUCT_CONTEXT('',#643,'mechanical');
#642=APPLICATION_PROTOCOL_DEFINITION('international standard',
'ap242_managed_model_based_3d_engineering',2020,#643);
#643=APPLICATION_CONTEXT('managed model based 3d engineering');
ENDSEC;
END-ISO-10303-21;
