ISO-10303-21;
HEADER;
/* Generated by software containing ST-Developer
 * from STEP Tools, Inc. (www.steptools.com) 
 */
/* OPTION: using custom renumber hook */

FILE_DESCRIPTION(
/* description */ ('STEP AP242 Edition 2',
'CAx-IF Rec.Pracs.---Representation and Presentation of Product Manufa
cturing Information (PMI)---4.0---2014-10-13',
'CAx-IF Rec.Pracs.---3D Tessellated Geometry---0.4---2014-09-14','2;1',
'CAx-IF Rec.Pracs.---User Defined Attributes---1.5---2016-08-15'),
/* implementation_level */ '2;1');

FILE_NAME(
/* name */ 'Chasis - Right hand',
/* time_stamp */ '2026-08-09T23:13:58Z',
/* author */ (''),
/* organization */ (''),
/* preprocessor_version */ 'ST-DEVELOPER v20',
/* originating_system */ 'ONSHAPE BY PTC INC, 1.219',
/* authorisation */ '  ');

FILE_SCHEMA (('AP242_MANAGED_MODEL_BASED_3D_ENGINEERING_MIM_LF { 1 0 10303 442 3 1 4 }'));
ENDSEC;

DATA;
#10=SHAPE_REPRESENTATION_RELATIONSHIP('','',#676,#11);
#11=ADVANCED_BREP_SHAPE_REPRESENTATION('',(#674),#1140);
#12=B_SPLINE_CURVE_WITH_KNOTS('',3,(#934,#935,#936,#937,#938,#939,#940,
#941,#942,#943,#944),.UNSPECIFIED.,.T.,.F.,(1,1,1,1,1,1,1,1,1,1,1,1,1,1,
1),(-0.00387166308566494,-0.00258110872377663,-0.00129055436188831,0.,0.00129055436188831,
0.00258110872377663,0.00387166308566494,0.00516221744755325,0.00645277180944157,
0.00774332617132988,0.00903388053321819,0.0103244348951065,0.0116149892569948,
0.0129055436188831,0.0141960979807714),.UNSPECIFIED.);
#13=B_SPLINE_CURVE_WITH_KNOTS('',3,(#948,#949,#950,#951,#952,#953,#954,
#955,#956,#957,#958),.UNSPECIFIED.,.T.,.F.,(1,1,1,1,1,1,1,1,1,1,1,1,1,1,
1),(-0.00387166460249259,-0.00258110973499506,-0.00129055486749753,0.,0.00129055486749753,
0.00258110973499506,0.00387166460249259,0.00516221946999012,0.00645277433748765,
0.00774332920498518,0.00903388407248271,0.0103244389399802,0.0116149938074778,
0.0129055486749753,0.0141961035424728),.UNSPECIFIED.);
#14=B_SPLINE_CURVE_WITH_KNOTS('',3,(#963,#964,#965,#966,#967,#968,#969),
 .UNSPECIFIED.,.F.,.F.,(4,1,1,1,4),(0.,0.00129009613915044,0.00258019227830088,
0.00387028841745132,0.00516038455660176),.UNSPECIFIED.);
#15=B_SPLINE_CURVE_WITH_KNOTS('',3,(#973,#974,#975,#976,#977,#978,#979),
 .UNSPECIFIED.,.F.,.F.,(4,1,1,1,4),(0.,0.00129009613915044,0.00258019227830088,
0.00387028841745132,0.00516038455660176),.UNSPECIFIED.);
#16=B_SPLINE_CURVE_WITH_KNOTS('',3,(#984,#985,#986,#987,#988,#989,#990,
#991,#992,#993,#994),.UNSPECIFIED.,.T.,.F.,(1,1,1,1,1,1,1,1,1,1,1,1,1,1,
1),(-0.00387166308566495,-0.00258110872377664,-0.00129055436188832,0.,0.00129055436188832,
0.00258110872377664,0.00387166308566495,0.00516221744755327,0.00645277180944159,
0.00774332617132991,0.00903388053321822,0.0103244348951065,0.0116149892569949,
0.0129055436188832,0.0141960979807715),.UNSPECIFIED.);
#17=B_SPLINE_CURVE_WITH_KNOTS('',3,(#998,#999,#1000,#1001,#1002,#1003,#1004,
#1005,#1006,#1007,#1008),.UNSPECIFIED.,.T.,.F.,(1,1,1,1,1,1,1,1,1,1,1,1,
1,1,1),(-0.00387166460249254,-0.00258110973499503,-0.00129055486749751,
0.,0.00129055486749751,0.00258110973499503,0.00387166460249254,0.00516221946999006,
0.00645277433748757,0.00774332920498509,0.0090338840724826,0.0103244389399801,
0.0116149938074776,0.0129055486749751,0.0141961035424727),.UNSPECIFIED.);
#18=CYLINDRICAL_SURFACE('',#684,0.0145);
#19=CYLINDRICAL_SURFACE('',#686,0.0175);
#20=CYLINDRICAL_SURFACE('',#687,0.0145);
#21=CYLINDRICAL_SURFACE('',#694,0.0115);
#22=CYLINDRICAL_SURFACE('',#714,0.00165);
#23=CYLINDRICAL_SURFACE('',#715,0.00165);
#24=CYLINDRICAL_SURFACE('',#716,0.00165);
#25=CYLINDRICAL_SURFACE('',#717,0.00165);
#26=CYLINDRICAL_SURFACE('',#731,0.00165);
#27=CYLINDRICAL_SURFACE('',#732,0.00165);
#28=CYLINDRICAL_SURFACE('',#733,0.00165);
#29=CYLINDRICAL_SURFACE('',#734,0.00165);
#30=LINE('',#910,#85);
#31=LINE('',#913,#86);
#32=LINE('',#915,#87);
#33=LINE('',#919,#88);
#34=LINE('',#923,#89);
#35=LINE('',#926,#90);
#36=LINE('',#928,#91);
#37=LINE('',#932,#92);
#38=LINE('',#961,#93);
#39=LINE('',#971,#94);
#40=LINE('',#981,#95);
#41=LINE('',#982,#96);
#42=LINE('',#1019,#97);
#43=LINE('',#1022,#98);
#44=LINE('',#1024,#99);
#45=LINE('',#1026,#100);
#46=LINE('',#1027,#101);
#47=LINE('',#1030,#102);
#48=LINE('',#1032,#103);
#49=LINE('',#1034,#104);
#50=LINE('',#1040,#105);
#51=LINE('',#1045,#106);
#52=LINE('',#1050,#107);
#53=LINE('',#1052,#108);
#54=LINE('',#1053,#109);
#55=LINE('',#1055,#110);
#56=LINE('',#1062,#111);
#57=LINE('',#1064,#112);
#58=LINE('',#1065,#113);
#59=LINE('',#1066,#114);
#60=LINE('',#1068,#115);
#61=LINE('',#1073,#116);
#62=LINE('',#1076,#117);
#63=LINE('',#1078,#118);
#64=LINE('',#1080,#119);
#65=LINE('',#1081,#120);
#66=LINE('',#1083,#121);
#67=LINE('',#1086,#122);
#68=LINE('',#1087,#123);
#69=LINE('',#1089,#124);
#70=LINE('',#1091,#125);
#71=LINE('',#1093,#126);
#72=LINE('',#1095,#127);
#73=LINE('',#1097,#128);
#74=LINE('',#1099,#129);
#75=LINE('',#1105,#130);
#76=LINE('',#1107,#131);
#77=LINE('',#1109,#132);
#78=LINE('',#1111,#133);
#79=LINE('',#1113,#134);
#80=LINE('',#1115,#135);
#81=LINE('',#1117,#136);
#82=LINE('',#1119,#137);
#83=LINE('',#1126,#138);
#84=LINE('',#1133,#139);
#85=VECTOR('',#741,1.);
#86=VECTOR('',#742,1.);
#87=VECTOR('',#743,1.);
#88=VECTOR('',#746,1.);
#89=VECTOR('',#751,1.);
#90=VECTOR('',#752,1.);
#91=VECTOR('',#753,1.);
#92=VECTOR('',#756,1.);
#93=VECTOR('',#763,1.);
#94=VECTOR('',#764,1.);
#95=VECTOR('',#765,1.);
#96=VECTOR('',#766,1.);
#97=VECTOR('',#781,1.);
#98=VECTOR('',#782,1.);
#99=VECTOR('',#783,1.);
#100=VECTOR('',#784,1.);
#101=VECTOR('',#785,1.);
#102=VECTOR('',#786,1.);
#103=VECTOR('',#787,1.);
#104=VECTOR('',#788,1.);
#105=VECTOR('',#795,1.);
#106=VECTOR('',#798,1.);
#107=VECTOR('',#805,1.);
#108=VECTOR('',#806,1.);
#109=VECTOR('',#807,1.);
#110=VECTOR('',#808,1.);
#111=VECTOR('',#817,1.);
#112=VECTOR('',#818,1.);
#113=VECTOR('',#819,1.);
#114=VECTOR('',#820,1.);
#115=VECTOR('',#821,1.);
#116=VECTOR('',#830,1.);
#117=VECTOR('',#831,1.);
#118=VECTOR('',#832,1.);
#119=VECTOR('',#833,1.);
#120=VECTOR('',#834,1.);
#121=VECTOR('',#837,1.);
#122=VECTOR('',#838,1.);
#123=VECTOR('',#839,1.);
#124=VECTOR('',#840,1.);
#125=VECTOR('',#841,1.);
#126=VECTOR('',#844,1.);
#127=VECTOR('',#847,1.);
#128=VECTOR('',#850,1.);
#129=VECTOR('',#853,1.);
#130=VECTOR('',#864,1.);
#131=VECTOR('',#865,1.);
#132=VECTOR('',#866,1.);
#133=VECTOR('',#869,1.);
#134=VECTOR('',#870,1.);
#135=VECTOR('',#873,1.);
#136=VECTOR('',#874,1.);
#137=VECTOR('',#877,1.);
#138=VECTOR('',#886,1.);
#139=VECTOR('',#895,1.);
#140=ORIENTED_EDGE('',*,*,#306,.T.);
#141=ORIENTED_EDGE('',*,*,#307,.T.);
#142=ORIENTED_EDGE('',*,*,#308,.T.);
#143=ORIENTED_EDGE('',*,*,#309,.F.);
#144=ORIENTED_EDGE('',*,*,#310,.T.);
#145=ORIENTED_EDGE('',*,*,#311,.T.);
#146=ORIENTED_EDGE('',*,*,#312,.F.);
#147=ORIENTED_EDGE('',*,*,#313,.F.);
#148=ORIENTED_EDGE('',*,*,#314,.F.);
#149=ORIENTED_EDGE('',*,*,#315,.F.);
#150=ORIENTED_EDGE('',*,*,#316,.T.);
#151=ORIENTED_EDGE('',*,*,#317,.T.);
#152=ORIENTED_EDGE('',*,*,#318,.T.);
#153=ORIENTED_EDGE('',*,*,#312,.T.);
#154=ORIENTED_EDGE('',*,*,#319,.F.);
#155=ORIENTED_EDGE('',*,*,#320,.T.);
#156=ORIENTED_EDGE('',*,*,#321,.F.);
#157=ORIENTED_EDGE('',*,*,#322,.T.);
#158=ORIENTED_EDGE('',*,*,#323,.F.);
#159=ORIENTED_EDGE('',*,*,#324,.T.);
#160=ORIENTED_EDGE('',*,*,#325,.F.);
#161=ORIENTED_EDGE('',*,*,#316,.F.);
#162=ORIENTED_EDGE('',*,*,#326,.F.);
#163=ORIENTED_EDGE('',*,*,#310,.F.);
#164=ORIENTED_EDGE('',*,*,#327,.T.);
#165=ORIENTED_EDGE('',*,*,#328,.F.);
#166=ORIENTED_EDGE('',*,*,#306,.F.);
#167=ORIENTED_EDGE('',*,*,#329,.T.);
#168=ORIENTED_EDGE('',*,*,#330,.T.);
#169=ORIENTED_EDGE('',*,*,#331,.T.);
#170=ORIENTED_EDGE('',*,*,#332,.T.);
#171=ORIENTED_EDGE('',*,*,#333,.T.);
#172=ORIENTED_EDGE('',*,*,#334,.F.);
#173=ORIENTED_EDGE('',*,*,#335,.T.);
#174=ORIENTED_EDGE('',*,*,#336,.T.);
#175=ORIENTED_EDGE('',*,*,#337,.F.);
#176=ORIENTED_EDGE('',*,*,#338,.F.);
#177=ORIENTED_EDGE('',*,*,#339,.T.);
#178=ORIENTED_EDGE('',*,*,#340,.T.);
#179=ORIENTED_EDGE('',*,*,#341,.F.);
#180=ORIENTED_EDGE('',*,*,#342,.T.);
#181=ORIENTED_EDGE('',*,*,#343,.F.);
#182=ORIENTED_EDGE('',*,*,#344,.F.);
#183=ORIENTED_EDGE('',*,*,#345,.T.);
#184=ORIENTED_EDGE('',*,*,#346,.F.);
#185=ORIENTED_EDGE('',*,*,#347,.F.);
#186=ORIENTED_EDGE('',*,*,#323,.T.);
#187=ORIENTED_EDGE('',*,*,#348,.T.);
#188=ORIENTED_EDGE('',*,*,#321,.T.);
#189=ORIENTED_EDGE('',*,*,#309,.T.);
#190=ORIENTED_EDGE('',*,*,#349,.F.);
#191=ORIENTED_EDGE('',*,*,#350,.F.);
#192=ORIENTED_EDGE('',*,*,#340,.F.);
#193=ORIENTED_EDGE('',*,*,#351,.T.);
#194=ORIENTED_EDGE('',*,*,#352,.T.);
#195=ORIENTED_EDGE('',*,*,#317,.F.);
#196=ORIENTED_EDGE('',*,*,#325,.T.);
#197=ORIENTED_EDGE('',*,*,#353,.T.);
#198=ORIENTED_EDGE('',*,*,#354,.F.);
#199=ORIENTED_EDGE('',*,*,#355,.F.);
#200=ORIENTED_EDGE('',*,*,#338,.T.);
#201=ORIENTED_EDGE('',*,*,#356,.T.);
#202=ORIENTED_EDGE('',*,*,#357,.T.);
#203=ORIENTED_EDGE('',*,*,#307,.F.);
#204=ORIENTED_EDGE('',*,*,#358,.F.);
#205=ORIENTED_EDGE('',*,*,#314,.T.);
#206=ORIENTED_EDGE('',*,*,#359,.F.);
#207=ORIENTED_EDGE('',*,*,#360,.F.);
#208=ORIENTED_EDGE('',*,*,#311,.F.);
#209=ORIENTED_EDGE('',*,*,#326,.T.);
#210=ORIENTED_EDGE('',*,*,#315,.T.);
#211=ORIENTED_EDGE('',*,*,#358,.T.);
#212=ORIENTED_EDGE('',*,*,#319,.T.);
#213=ORIENTED_EDGE('',*,*,#343,.T.);
#214=ORIENTED_EDGE('',*,*,#328,.T.);
#215=ORIENTED_EDGE('',*,*,#342,.F.);
#216=ORIENTED_EDGE('',*,*,#361,.T.);
#217=ORIENTED_EDGE('',*,*,#362,.F.);
#218=ORIENTED_EDGE('',*,*,#363,.F.);
#219=ORIENTED_EDGE('',*,*,#364,.F.);
#220=ORIENTED_EDGE('',*,*,#345,.F.);
#221=ORIENTED_EDGE('',*,*,#365,.F.);
#222=ORIENTED_EDGE('',*,*,#366,.F.);
#223=ORIENTED_EDGE('',*,*,#367,.T.);
#224=ORIENTED_EDGE('',*,*,#347,.T.);
#225=ORIENTED_EDGE('',*,*,#368,.T.);
#226=ORIENTED_EDGE('',*,*,#369,.T.);
#227=ORIENTED_EDGE('',*,*,#370,.T.);
#228=ORIENTED_EDGE('',*,*,#344,.T.);
#229=ORIENTED_EDGE('',*,*,#367,.F.);
#230=ORIENTED_EDGE('',*,*,#371,.F.);
#231=ORIENTED_EDGE('',*,*,#365,.T.);
#232=ORIENTED_EDGE('',*,*,#346,.T.);
#233=ORIENTED_EDGE('',*,*,#364,.T.);
#234=ORIENTED_EDGE('',*,*,#372,.T.);
#235=ORIENTED_EDGE('',*,*,#368,.F.);
#236=ORIENTED_EDGE('',*,*,#361,.F.);
#237=ORIENTED_EDGE('',*,*,#371,.T.);
#238=ORIENTED_EDGE('',*,*,#366,.T.);
#239=ORIENTED_EDGE('',*,*,#373,.T.);
#240=ORIENTED_EDGE('',*,*,#363,.T.);
#241=ORIENTED_EDGE('',*,*,#374,.F.);
#242=ORIENTED_EDGE('',*,*,#369,.F.);
#243=ORIENTED_EDGE('',*,*,#372,.F.);
#244=ORIENTED_EDGE('',*,*,#327,.F.);
#245=ORIENTED_EDGE('',*,*,#348,.F.);
#246=ORIENTED_EDGE('',*,*,#322,.F.);
#247=ORIENTED_EDGE('',*,*,#329,.F.);
#248=ORIENTED_EDGE('',*,*,#354,.T.);
#249=ORIENTED_EDGE('',*,*,#318,.F.);
#250=ORIENTED_EDGE('',*,*,#353,.F.);
#251=ORIENTED_EDGE('',*,*,#324,.F.);
#252=ORIENTED_EDGE('',*,*,#320,.F.);
#253=ORIENTED_EDGE('',*,*,#355,.T.);
#254=ORIENTED_EDGE('',*,*,#334,.T.);
#255=ORIENTED_EDGE('',*,*,#375,.F.);
#256=ORIENTED_EDGE('',*,*,#376,.F.);
#257=ORIENTED_EDGE('',*,*,#377,.T.);
#258=ORIENTED_EDGE('',*,*,#335,.F.);
#259=ORIENTED_EDGE('',*,*,#377,.F.);
#260=ORIENTED_EDGE('',*,*,#378,.T.);
#261=ORIENTED_EDGE('',*,*,#379,.T.);
#262=ORIENTED_EDGE('',*,*,#336,.F.);
#263=ORIENTED_EDGE('',*,*,#379,.F.);
#264=ORIENTED_EDGE('',*,*,#380,.T.);
#265=ORIENTED_EDGE('',*,*,#381,.T.);
#266=ORIENTED_EDGE('',*,*,#337,.T.);
#267=ORIENTED_EDGE('',*,*,#381,.F.);
#268=ORIENTED_EDGE('',*,*,#382,.F.);
#269=ORIENTED_EDGE('',*,*,#375,.T.);
#270=ORIENTED_EDGE('',*,*,#374,.T.);
#271=ORIENTED_EDGE('',*,*,#362,.T.);
#272=ORIENTED_EDGE('',*,*,#373,.F.);
#273=ORIENTED_EDGE('',*,*,#370,.F.);
#274=ORIENTED_EDGE('',*,*,#376,.T.);
#275=ORIENTED_EDGE('',*,*,#382,.T.);
#276=ORIENTED_EDGE('',*,*,#380,.F.);
#277=ORIENTED_EDGE('',*,*,#378,.F.);
#278=ORIENTED_EDGE('',*,*,#383,.F.);
#279=ORIENTED_EDGE('',*,*,#384,.F.);
#280=ORIENTED_EDGE('',*,*,#313,.T.);
#281=ORIENTED_EDGE('',*,*,#352,.F.);
#282=ORIENTED_EDGE('',*,*,#385,.F.);
#283=ORIENTED_EDGE('',*,*,#359,.T.);
#284=ORIENTED_EDGE('',*,*,#360,.T.);
#285=ORIENTED_EDGE('',*,*,#385,.T.);
#286=ORIENTED_EDGE('',*,*,#351,.F.);
#287=ORIENTED_EDGE('',*,*,#339,.F.);
#288=ORIENTED_EDGE('',*,*,#386,.T.);
#289=ORIENTED_EDGE('',*,*,#387,.T.);
#290=ORIENTED_EDGE('',*,*,#308,.F.);
#291=ORIENTED_EDGE('',*,*,#357,.F.);
#292=ORIENTED_EDGE('',*,*,#388,.T.);
#293=ORIENTED_EDGE('',*,*,#349,.T.);
#294=ORIENTED_EDGE('',*,*,#356,.F.);
#295=ORIENTED_EDGE('',*,*,#341,.T.);
#296=ORIENTED_EDGE('',*,*,#350,.T.);
#297=ORIENTED_EDGE('',*,*,#388,.F.);
#298=ORIENTED_EDGE('',*,*,#332,.F.);
#299=ORIENTED_EDGE('',*,*,#387,.F.);
#300=ORIENTED_EDGE('',*,*,#331,.F.);
#301=ORIENTED_EDGE('',*,*,#386,.F.);
#302=ORIENTED_EDGE('',*,*,#333,.F.);
#303=ORIENTED_EDGE('',*,*,#384,.T.);
#304=ORIENTED_EDGE('',*,*,#330,.F.);
#305=ORIENTED_EDGE('',*,*,#383,.T.);
#306=EDGE_CURVE('',#389,#389,#451,.T.);
#307=EDGE_CURVE('',#390,#391,#30,.T.);
#308=EDGE_CURVE('',#391,#392,#31,.T.);
#309=EDGE_CURVE('',#393,#392,#32,.T.);
#310=EDGE_CURVE('',#393,#394,#452,.T.);
#311=EDGE_CURVE('',#394,#390,#33,.T.);
#312=EDGE_CURVE('',#395,#395,#453,.F.);
#313=EDGE_CURVE('',#396,#397,#34,.T.);
#314=EDGE_CURVE('',#398,#396,#35,.T.);
#315=EDGE_CURVE('',#399,#398,#36,.T.);
#316=EDGE_CURVE('',#399,#400,#454,.F.);
#317=EDGE_CURVE('',#400,#397,#37,.T.);
#318=EDGE_CURVE('',#401,#401,#12,.T.);
#319=EDGE_CURVE('',#402,#402,#455,.T.);
#320=EDGE_CURVE('',#403,#403,#13,.T.);
#321=EDGE_CURVE('',#404,#393,#38,.T.);
#322=EDGE_CURVE('',#404,#405,#14,.T.);
#323=EDGE_CURVE('',#406,#405,#39,.T.);
#324=EDGE_CURVE('',#406,#407,#15,.T.);
#325=EDGE_CURVE('',#400,#407,#40,.T.);
#326=EDGE_CURVE('',#394,#399,#41,.F.);
#327=EDGE_CURVE('',#408,#408,#16,.T.);
#328=EDGE_CURVE('',#409,#409,#456,.T.);
#329=EDGE_CURVE('',#410,#410,#17,.T.);
#330=EDGE_CURVE('',#411,#411,#457,.F.);
#331=EDGE_CURVE('',#412,#412,#458,.F.);
#332=EDGE_CURVE('',#413,#413,#459,.F.);
#333=EDGE_CURVE('',#414,#414,#460,.F.);
#334=EDGE_CURVE('',#415,#416,#42,.T.);
#335=EDGE_CURVE('',#415,#417,#43,.T.);
#336=EDGE_CURVE('',#417,#418,#44,.T.);
#337=EDGE_CURVE('',#416,#418,#45,.T.);
#338=EDGE_CURVE('',#419,#420,#46,.T.);
#339=EDGE_CURVE('',#419,#421,#47,.T.);
#340=EDGE_CURVE('',#421,#422,#48,.T.);
#341=EDGE_CURVE('',#420,#422,#49,.T.);
#342=EDGE_CURVE('',#423,#423,#461,.T.);
#343=EDGE_CURVE('',#424,#424,#462,.T.);
#344=EDGE_CURVE('',#425,#426,#50,.F.);
#345=EDGE_CURVE('',#425,#427,#463,.F.);
#346=EDGE_CURVE('',#428,#427,#51,.T.);
#347=EDGE_CURVE('',#426,#428,#464,.F.);
#348=EDGE_CURVE('',#405,#404,#465,.T.);
#349=EDGE_CURVE('',#429,#392,#52,.T.);
#350=EDGE_CURVE('',#422,#429,#53,.T.);
#351=EDGE_CURVE('',#421,#430,#54,.T.);
#352=EDGE_CURVE('',#430,#397,#55,.T.);
#353=EDGE_CURVE('',#407,#406,#466,.T.);
#354=EDGE_CURVE('',#431,#431,#467,.F.);
#355=EDGE_CURVE('',#432,#432,#468,.F.);
#356=EDGE_CURVE('',#420,#433,#56,.T.);
#357=EDGE_CURVE('',#433,#391,#57,.T.);
#358=EDGE_CURVE('',#398,#390,#58,.T.);
#359=EDGE_CURVE('',#434,#396,#59,.T.);
#360=EDGE_CURVE('',#419,#434,#60,.T.);
#361=EDGE_CURVE('',#435,#436,#61,.T.);
#362=EDGE_CURVE('',#437,#436,#62,.T.);
#363=EDGE_CURVE('',#438,#437,#63,.T.);
#364=EDGE_CURVE('',#427,#438,#64,.T.);
#365=EDGE_CURVE('',#435,#425,#65,.T.);
#366=EDGE_CURVE('',#439,#440,#66,.T.);
#367=EDGE_CURVE('',#439,#426,#67,.T.);
#368=EDGE_CURVE('',#428,#441,#68,.T.);
#369=EDGE_CURVE('',#441,#442,#69,.T.);
#370=EDGE_CURVE('',#442,#440,#70,.T.);
#371=EDGE_CURVE('',#435,#439,#71,.T.);
#372=EDGE_CURVE('',#438,#441,#72,.T.);
#373=EDGE_CURVE('',#440,#436,#73,.T.);
#374=EDGE_CURVE('',#442,#437,#74,.T.);
#375=EDGE_CURVE('',#443,#416,#75,.T.);
#376=EDGE_CURVE('',#444,#443,#76,.T.);
#377=EDGE_CURVE('',#444,#415,#77,.T.);
#378=EDGE_CURVE('',#444,#445,#78,.T.);
#379=EDGE_CURVE('',#445,#417,#79,.T.);
#380=EDGE_CURVE('',#445,#446,#80,.T.);
#381=EDGE_CURVE('',#446,#418,#81,.T.);
#382=EDGE_CURVE('',#443,#446,#82,.T.);
#383=EDGE_CURVE('',#447,#447,#469,.F.);
#384=EDGE_CURVE('',#448,#448,#470,.F.);
#385=EDGE_CURVE('',#434,#430,#83,.T.);
#386=EDGE_CURVE('',#449,#449,#471,.F.);
#387=EDGE_CURVE('',#450,#450,#472,.F.);
#388=EDGE_CURVE('',#433,#429,#84,.T.);
#389=VERTEX_POINT('',#909);
#390=VERTEX_POINT('',#911);
#391=VERTEX_POINT('',#912);
#392=VERTEX_POINT('',#914);
#393=VERTEX_POINT('',#916);
#394=VERTEX_POINT('',#918);
#395=VERTEX_POINT('',#922);
#396=VERTEX_POINT('',#924);
#397=VERTEX_POINT('',#925);
#398=VERTEX_POINT('',#927);
#399=VERTEX_POINT('',#929);
#400=VERTEX_POINT('',#931);
#401=VERTEX_POINT('',#945);
#402=VERTEX_POINT('',#947);
#403=VERTEX_POINT('',#959);
#404=VERTEX_POINT('',#962);
#405=VERTEX_POINT('',#970);
#406=VERTEX_POINT('',#972);
#407=VERTEX_POINT('',#980);
#408=VERTEX_POINT('',#995);
#409=VERTEX_POINT('',#997);
#410=VERTEX_POINT('',#1009);
#411=VERTEX_POINT('',#1012);
#412=VERTEX_POINT('',#1014);
#413=VERTEX_POINT('',#1016);
#414=VERTEX_POINT('',#1018);
#415=VERTEX_POINT('',#1020);
#416=VERTEX_POINT('',#1021);
#417=VERTEX_POINT('',#1023);
#418=VERTEX_POINT('',#1025);
#419=VERTEX_POINT('',#1028);
#420=VERTEX_POINT('',#1029);
#421=VERTEX_POINT('',#1031);
#422=VERTEX_POINT('',#1033);
#423=VERTEX_POINT('',#1037);
#424=VERTEX_POINT('',#1039);
#425=VERTEX_POINT('',#1041);
#426=VERTEX_POINT('',#1042);
#427=VERTEX_POINT('',#1044);
#428=VERTEX_POINT('',#1046);
#429=VERTEX_POINT('',#1051);
#430=VERTEX_POINT('',#1054);
#431=VERTEX_POINT('',#1059);
#432=VERTEX_POINT('',#1061);
#433=VERTEX_POINT('',#1063);
#434=VERTEX_POINT('',#1067);
#435=VERTEX_POINT('',#1074);
#436=VERTEX_POINT('',#1075);
#437=VERTEX_POINT('',#1077);
#438=VERTEX_POINT('',#1079);
#439=VERTEX_POINT('',#1084);
#440=VERTEX_POINT('',#1085);
#441=VERTEX_POINT('',#1088);
#442=VERTEX_POINT('',#1090);
#443=VERTEX_POINT('',#1106);
#444=VERTEX_POINT('',#1108);
#445=VERTEX_POINT('',#1112);
#446=VERTEX_POINT('',#1116);
#447=VERTEX_POINT('',#1123);
#448=VERTEX_POINT('',#1125);
#449=VERTEX_POINT('',#1130);
#450=VERTEX_POINT('',#1132);
#451=CIRCLE('',#679,0.0145);
#452=CIRCLE('',#680,0.0175);
#453=CIRCLE('',#682,0.0145);
#454=CIRCLE('',#683,0.0175);
#455=CIRCLE('',#685,0.0145);
#456=CIRCLE('',#688,0.0145);
#457=CIRCLE('',#690,0.00165);
#458=CIRCLE('',#691,0.00165);
#459=CIRCLE('',#692,0.00165);
#460=CIRCLE('',#693,0.00165);
#461=CIRCLE('',#695,0.0115);
#462=CIRCLE('',#696,0.0115);
#463=CIRCLE('',#697,0.0115);
#464=CIRCLE('',#698,0.0115);
#465=CIRCLE('',#700,0.00165);
#466=CIRCLE('',#701,0.00165);
#467=CIRCLE('',#703,0.00165);
#468=CIRCLE('',#704,0.00165);
#469=CIRCLE('',#724,0.00165);
#470=CIRCLE('',#725,0.00165);
#471=CIRCLE('',#728,0.00165);
#472=CIRCLE('',#729,0.00165);
#473=EDGE_LOOP('',(#140));
#474=EDGE_LOOP('',(#141,#142,#143,#144,#145));
#475=EDGE_LOOP('',(#146));
#476=EDGE_LOOP('',(#147,#148,#149,#150,#151));
#477=EDGE_LOOP('',(#152));
#478=EDGE_LOOP('',(#153));
#479=EDGE_LOOP('',(#154));
#480=EDGE_LOOP('',(#155));
#481=EDGE_LOOP('',(#156,#157,#158,#159,#160,#161,#162,#163));
#482=EDGE_LOOP('',(#164));
#483=EDGE_LOOP('',(#165));
#484=EDGE_LOOP('',(#166));
#485=EDGE_LOOP('',(#167));
#486=EDGE_LOOP('',(#168));
#487=EDGE_LOOP('',(#169));
#488=EDGE_LOOP('',(#170));
#489=EDGE_LOOP('',(#171));
#490=EDGE_LOOP('',(#172,#173,#174,#175));
#491=EDGE_LOOP('',(#176,#177,#178,#179));
#492=EDGE_LOOP('',(#180));
#493=EDGE_LOOP('',(#181));
#494=EDGE_LOOP('',(#182,#183,#184,#185));
#495=EDGE_LOOP('',(#186,#187,#188,#189,#190,#191,#192,#193,#194,#195,#196,
#197));
#496=EDGE_LOOP('',(#198));
#497=EDGE_LOOP('',(#199));
#498=EDGE_LOOP('',(#200,#201,#202,#203,#204,#205,#206,#207));
#499=EDGE_LOOP('',(#208,#209,#210,#211));
#500=EDGE_LOOP('',(#212));
#501=EDGE_LOOP('',(#213));
#502=EDGE_LOOP('',(#214));
#503=EDGE_LOOP('',(#215));
#504=EDGE_LOOP('',(#216,#217,#218,#219,#220,#221));
#505=EDGE_LOOP('',(#222,#223,#224,#225,#226,#227));
#506=EDGE_LOOP('',(#228,#229,#230,#231));
#507=EDGE_LOOP('',(#232,#233,#234,#235));
#508=EDGE_LOOP('',(#236,#237,#238,#239));
#509=EDGE_LOOP('',(#240,#241,#242,#243));
#510=EDGE_LOOP('',(#244));
#511=EDGE_LOOP('',(#245,#246));
#512=EDGE_LOOP('',(#247));
#513=EDGE_LOOP('',(#248));
#514=EDGE_LOOP('',(#249));
#515=EDGE_LOOP('',(#250,#251));
#516=EDGE_LOOP('',(#252));
#517=EDGE_LOOP('',(#253));
#518=EDGE_LOOP('',(#254,#255,#256,#257));
#519=EDGE_LOOP('',(#258,#259,#260,#261));
#520=EDGE_LOOP('',(#262,#263,#264,#265));
#521=EDGE_LOOP('',(#266,#267,#268,#269));
#522=EDGE_LOOP('',(#270,#271,#272,#273));
#523=EDGE_LOOP('',(#274,#275,#276,#277));
#524=EDGE_LOOP('',(#278));
#525=EDGE_LOOP('',(#279));
#526=EDGE_LOOP('',(#280,#281,#282,#283));
#527=EDGE_LOOP('',(#284,#285,#286,#287));
#528=EDGE_LOOP('',(#288));
#529=EDGE_LOOP('',(#289));
#530=EDGE_LOOP('',(#290,#291,#292,#293));
#531=EDGE_LOOP('',(#294,#295,#296,#297));
#532=EDGE_LOOP('',(#298));
#533=EDGE_LOOP('',(#299));
#534=EDGE_LOOP('',(#300));
#535=EDGE_LOOP('',(#301));
#536=EDGE_LOOP('',(#302));
#537=EDGE_LOOP('',(#303));
#538=EDGE_LOOP('',(#304));
#539=EDGE_LOOP('',(#305));
#540=FACE_BOUND('',#473,.T.);
#541=FACE_BOUND('',#474,.T.);
#542=FACE_BOUND('',#475,.T.);
#543=FACE_BOUND('',#476,.T.);
#544=FACE_BOUND('',#477,.T.);
#545=FACE_BOUND('',#478,.T.);
#546=FACE_BOUND('',#479,.T.);
#547=FACE_BOUND('',#480,.T.);
#548=FACE_BOUND('',#481,.T.);
#549=FACE_BOUND('',#482,.T.);
#550=FACE_BOUND('',#483,.T.);
#551=FACE_BOUND('',#484,.T.);
#552=FACE_BOUND('',#485,.T.);
#553=FACE_BOUND('',#486,.T.);
#554=FACE_BOUND('',#487,.T.);
#555=FACE_BOUND('',#488,.T.);
#556=FACE_BOUND('',#489,.T.);
#557=FACE_BOUND('',#490,.T.);
#558=FACE_BOUND('',#491,.T.);
#559=FACE_BOUND('',#492,.T.);
#560=FACE_BOUND('',#493,.T.);
#561=FACE_BOUND('',#494,.T.);
#562=FACE_BOUND('',#495,.T.);
#563=FACE_BOUND('',#496,.T.);
#564=FACE_BOUND('',#497,.T.);
#565=FACE_BOUND('',#498,.T.);
#566=FACE_BOUND('',#499,.T.);
#567=FACE_BOUND('',#500,.T.);
#568=FACE_BOUND('',#501,.T.);
#569=FACE_BOUND('',#502,.T.);
#570=FACE_BOUND('',#503,.T.);
#571=FACE_BOUND('',#504,.T.);
#572=FACE_BOUND('',#505,.T.);
#573=FACE_BOUND('',#506,.T.);
#574=FACE_BOUND('',#507,.T.);
#575=FACE_BOUND('',#508,.T.);
#576=FACE_BOUND('',#509,.T.);
#577=FACE_BOUND('',#510,.T.);
#578=FACE_BOUND('',#511,.T.);
#579=FACE_BOUND('',#512,.T.);
#580=FACE_BOUND('',#513,.T.);
#581=FACE_BOUND('',#514,.T.);
#582=FACE_BOUND('',#515,.T.);
#583=FACE_BOUND('',#516,.T.);
#584=FACE_BOUND('',#517,.T.);
#585=FACE_BOUND('',#518,.T.);
#586=FACE_BOUND('',#519,.T.);
#587=FACE_BOUND('',#520,.T.);
#588=FACE_BOUND('',#521,.T.);
#589=FACE_BOUND('',#522,.T.);
#590=FACE_BOUND('',#523,.T.);
#591=FACE_BOUND('',#524,.T.);
#592=FACE_BOUND('',#525,.T.);
#593=FACE_BOUND('',#526,.T.);
#594=FACE_BOUND('',#527,.T.);
#595=FACE_BOUND('',#528,.T.);
#596=FACE_BOUND('',#529,.T.);
#597=FACE_BOUND('',#530,.T.);
#598=FACE_BOUND('',#531,.T.);
#599=FACE_BOUND('',#532,.T.);
#600=FACE_BOUND('',#533,.T.);
#601=FACE_BOUND('',#534,.T.);
#602=FACE_BOUND('',#535,.T.);
#603=FACE_BOUND('',#536,.T.);
#604=FACE_BOUND('',#537,.T.);
#605=FACE_BOUND('',#538,.T.);
#606=FACE_BOUND('',#539,.T.);
#607=PLANE('',#678);
#608=PLANE('',#681);
#609=PLANE('',#689);
#610=PLANE('',#699);
#611=PLANE('',#702);
#612=PLANE('',#705);
#613=PLANE('',#706);
#614=PLANE('',#707);
#615=PLANE('',#708);
#616=PLANE('',#709);
#617=PLANE('',#710);
#618=PLANE('',#711);
#619=PLANE('',#712);
#620=PLANE('',#713);
#621=PLANE('',#718);
#622=PLANE('',#719);
#623=PLANE('',#720);
#624=PLANE('',#721);
#625=PLANE('',#722);
#626=PLANE('',#723);
#627=PLANE('',#726);
#628=PLANE('',#727);
#629=PLANE('',#730);
#630=ADVANCED_FACE('',(#540,#541),#607,.T.);
#631=ADVANCED_FACE('',(#542,#543),#608,.F.);
#632=ADVANCED_FACE('',(#544,#545,#546,#547),#18,.F.);
#633=ADVANCED_FACE('',(#548),#19,.T.);
#634=ADVANCED_FACE('',(#549,#550,#551,#552),#20,.F.);
#635=ADVANCED_FACE('',(#553,#554,#555,#556,#557,#558),#609,.T.);
#636=ADVANCED_FACE('',(#559,#560,#561),#21,.F.);
#637=ADVANCED_FACE('',(#562),#610,.T.);
#638=ADVANCED_FACE('',(#563,#564,#565),#611,.F.);
#639=ADVANCED_FACE('',(#566),#612,.F.);
#640=ADVANCED_FACE('',(#567,#568),#613,.F.);
#641=ADVANCED_FACE('',(#569,#570),#614,.T.);
#642=ADVANCED_FACE('',(#571),#615,.F.);
#643=ADVANCED_FACE('',(#572),#616,.T.);
#644=ADVANCED_FACE('',(#573),#617,.T.);
#645=ADVANCED_FACE('',(#574),#618,.T.);
#646=ADVANCED_FACE('',(#575),#619,.T.);
#647=ADVANCED_FACE('',(#576),#620,.F.);
#648=ADVANCED_FACE('',(#577,#578),#22,.F.);
#649=ADVANCED_FACE('',(#579,#580),#23,.F.);
#650=ADVANCED_FACE('',(#581,#582),#24,.F.);
#651=ADVANCED_FACE('',(#583,#584),#25,.F.);
#652=ADVANCED_FACE('',(#585),#621,.F.);
#653=ADVANCED_FACE('',(#586),#622,.T.);
#654=ADVANCED_FACE('',(#587),#623,.T.);
#655=ADVANCED_FACE('',(#588),#624,.F.);
#656=ADVANCED_FACE('',(#589,#590),#625,.F.);
#657=ADVANCED_FACE('',(#591,#592,#593),#626,.F.);
#658=ADVANCED_FACE('',(#594),#627,.T.);
#659=ADVANCED_FACE('',(#595,#596,#597),#628,.T.);
#660=ADVANCED_FACE('',(#598),#629,.F.);
#661=ADVANCED_FACE('',(#599,#600),#26,.F.);
#662=ADVANCED_FACE('',(#601,#602),#27,.F.);
#663=ADVANCED_FACE('',(#603,#604),#28,.F.);
#664=ADVANCED_FACE('',(#605,#606),#29,.F.);
#665=CLOSED_SHELL('',(#630,#631,#632,#633,#634,#635,#636,#637,#638,#639,
#640,#641,#642,#643,#644,#645,#646,#647,#648,#649,#650,#651,#652,#653,#654,
#655,#656,#657,#658,#659,#660,#661,#662,#663,#664));
#666=STYLED_ITEM('',(#667),#674);
#667=PRESENTATION_STYLE_ASSIGNMENT((#668));
#668=SURFACE_STYLE_USAGE(.BOTH.,#669);
#669=SURFACE_SIDE_STYLE('',(#670));
#670=SURFACE_STYLE_FILL_AREA(#671);
#671=FILL_AREA_STYLE('',(#672));
#672=FILL_AREA_STYLE_COLOUR('',#673);
#673=COLOUR_RGB('',0.0666666666666667,0.490196078431373,0.);
#674=MANIFOLD_SOLID_BREP('Right hand',#665);
#675=SHAPE_DEFINITION_REPRESENTATION(#1145,#676);
#676=SHAPE_REPRESENTATION('Right hand',(#677),#1140);
#677=AXIS2_PLACEMENT_3D('',#906,#735,#736);
#678=AXIS2_PLACEMENT_3D('',#907,#737,#738);
#679=AXIS2_PLACEMENT_3D('',#908,#739,#740);
#680=AXIS2_PLACEMENT_3D('',#917,#744,#745);
#681=AXIS2_PLACEMENT_3D('',#920,#747,#748);
#682=AXIS2_PLACEMENT_3D('',#921,#749,#750);
#683=AXIS2_PLACEMENT_3D('',#930,#754,#755);
#684=AXIS2_PLACEMENT_3D('',#933,#757,#758);
#685=AXIS2_PLACEMENT_3D('',#946,#759,#760);
#686=AXIS2_PLACEMENT_3D('',#960,#761,#762);
#687=AXIS2_PLACEMENT_3D('',#983,#767,#768);
#688=AXIS2_PLACEMENT_3D('',#996,#769,#770);
#689=AXIS2_PLACEMENT_3D('',#1010,#771,#772);
#690=AXIS2_PLACEMENT_3D('',#1011,#773,#774);
#691=AXIS2_PLACEMENT_3D('',#1013,#775,#776);
#692=AXIS2_PLACEMENT_3D('',#1015,#777,#778);
#693=AXIS2_PLACEMENT_3D('',#1017,#779,#780);
#694=AXIS2_PLACEMENT_3D('',#1035,#789,#790);
#695=AXIS2_PLACEMENT_3D('',#1036,#791,#792);
#696=AXIS2_PLACEMENT_3D('',#1038,#793,#794);
#697=AXIS2_PLACEMENT_3D('',#1043,#796,#797);
#698=AXIS2_PLACEMENT_3D('',#1047,#799,#800);
#699=AXIS2_PLACEMENT_3D('',#1048,#801,#802);
#700=AXIS2_PLACEMENT_3D('',#1049,#803,#804);
#701=AXIS2_PLACEMENT_3D('',#1056,#809,#810);
#702=AXIS2_PLACEMENT_3D('',#1057,#811,#812);
#703=AXIS2_PLACEMENT_3D('',#1058,#813,#814);
#704=AXIS2_PLACEMENT_3D('',#1060,#815,#816);
#705=AXIS2_PLACEMENT_3D('',#1069,#822,#823);
#706=AXIS2_PLACEMENT_3D('',#1070,#824,#825);
#707=AXIS2_PLACEMENT_3D('',#1071,#826,#827);
#708=AXIS2_PLACEMENT_3D('',#1072,#828,#829);
#709=AXIS2_PLACEMENT_3D('',#1082,#835,#836);
#710=AXIS2_PLACEMENT_3D('',#1092,#842,#843);
#711=AXIS2_PLACEMENT_3D('',#1094,#845,#846);
#712=AXIS2_PLACEMENT_3D('',#1096,#848,#849);
#713=AXIS2_PLACEMENT_3D('',#1098,#851,#852);
#714=AXIS2_PLACEMENT_3D('',#1100,#854,#855);
#715=AXIS2_PLACEMENT_3D('',#1101,#856,#857);
#716=AXIS2_PLACEMENT_3D('',#1102,#858,#859);
#717=AXIS2_PLACEMENT_3D('',#1103,#860,#861);
#718=AXIS2_PLACEMENT_3D('',#1104,#862,#863);
#719=AXIS2_PLACEMENT_3D('',#1110,#867,#868);
#720=AXIS2_PLACEMENT_3D('',#1114,#871,#872);
#721=AXIS2_PLACEMENT_3D('',#1118,#875,#876);
#722=AXIS2_PLACEMENT_3D('',#1120,#878,#879);
#723=AXIS2_PLACEMENT_3D('',#1121,#880,#881);
#724=AXIS2_PLACEMENT_3D('',#1122,#882,#883);
#725=AXIS2_PLACEMENT_3D('',#1124,#884,#885);
#726=AXIS2_PLACEMENT_3D('',#1127,#887,#888);
#727=AXIS2_PLACEMENT_3D('',#1128,#889,#890);
#728=AXIS2_PLACEMENT_3D('',#1129,#891,#892);
#729=AXIS2_PLACEMENT_3D('',#1131,#893,#894);
#730=AXIS2_PLACEMENT_3D('',#1134,#896,#897);
#731=AXIS2_PLACEMENT_3D('',#1135,#898,#899);
#732=AXIS2_PLACEMENT_3D('',#1136,#900,#901);
#733=AXIS2_PLACEMENT_3D('',#1137,#902,#903);
#734=AXIS2_PLACEMENT_3D('',#1138,#904,#905);
#735=DIRECTION('',(0.,0.,1.));
#736=DIRECTION('',(1.,0.,0.));
#737=DIRECTION('',(0.,-3.09772049281573E-16,1.));
#738=DIRECTION('',(0.,-1.,-3.09772049281573E-16));
#739=DIRECTION('',(0.,3.09772049281573E-16,-1.));
#740=DIRECTION('',(0.,-1.,-3.09772049281573E-16));
#741=DIRECTION('',(1.,0.,0.));
#742=DIRECTION('',(0.,1.,0.));
#743=DIRECTION('',(1.,0.,0.));
#744=DIRECTION('',(0.,-3.09772049281573E-16,1.));
#745=DIRECTION('',(0.,-1.,-3.09772049281573E-16));
#746=DIRECTION('',(0.,-1.,-3.09772049281573E-16));
#747=DIRECTION('',(0.,0.,1.));
#748=DIRECTION('',(0.,-1.,0.));
#749=DIRECTION('',(0.,0.,1.));
#750=DIRECTION('',(0.,-1.,0.));
#751=DIRECTION('',(0.,1.,0.));
#752=DIRECTION('',(1.,0.,0.));
#753=DIRECTION('',(0.,-1.,0.));
#754=DIRECTION('',(0.,0.,1.));
#755=DIRECTION('',(0.,-1.,0.));
#756=DIRECTION('',(1.,0.,0.));
#757=DIRECTION('',(0.,-3.09772049281573E-16,1.));
#758=DIRECTION('',(0.,-1.,-3.09772049281573E-16));
#759=DIRECTION('',(0.,3.09772049281573E-16,-1.));
#760=DIRECTION('',(0.,-1.,-3.09772049281573E-16));
#761=DIRECTION('',(0.,0.,-1.));
#762=DIRECTION('',(0.,1.,0.));
#763=DIRECTION('',(0.,0.,1.));
#764=DIRECTION('',(0.,0.,1.));
#765=DIRECTION('',(0.,0.,1.));
#766=DIRECTION('',(0.,0.,1.));
#767=DIRECTION('',(0.,-3.09772049281573E-16,1.));
#768=DIRECTION('',(0.,-1.,-3.09772049281573E-16));
#769=DIRECTION('',(0.,-3.09772049281573E-16,1.));
#770=DIRECTION('',(0.,-1.,-3.09772049281573E-16));
#771=DIRECTION('',(1.,0.,0.));
#772=DIRECTION('',(0.,0.,-1.));
#773=DIRECTION('',(1.,0.,0.));
#774=DIRECTION('',(0.,-1.,0.));
#775=DIRECTION('',(1.,0.,0.));
#776=DIRECTION('',(0.,-1.,0.));
#777=DIRECTION('',(1.,0.,0.));
#778=DIRECTION('',(0.,-1.,0.));
#779=DIRECTION('',(1.,0.,0.));
#780=DIRECTION('',(0.,-1.,0.));
#781=DIRECTION('',(0.,0.,1.));
#782=DIRECTION('',(0.,-1.,-2.77555756156289E-16));
#783=DIRECTION('',(0.,0.,1.));
#784=DIRECTION('',(0.,-1.,-2.08166817117217E-16));
#785=DIRECTION('',(0.,0.,1.));
#786=DIRECTION('',(0.,1.,0.));
#787=DIRECTION('',(0.,0.,1.));
#788=DIRECTION('',(0.,1.,0.));
#789=DIRECTION('',(0.,-3.09772049281573E-16,1.));
#790=DIRECTION('',(0.,-1.,-3.09772049281573E-16));
#791=DIRECTION('',(0.,-3.09772049281573E-16,1.));
#792=DIRECTION('',(0.,-1.,-3.09772049281573E-16));
#793=DIRECTION('',(0.,-3.09772049281573E-16,1.));
#794=DIRECTION('',(0.,-1.,-3.09772049281573E-16));
#795=DIRECTION('',(0.,-3.09772049281573E-16,1.));
#796=DIRECTION('',(0.,0.,1.));
#797=DIRECTION('',(0.,-1.,0.));
#798=DIRECTION('',(0.,-3.09772049281573E-16,1.));
#799=DIRECTION('',(0.,0.,1.));
#800=DIRECTION('',(0.,-1.,0.));
#801=DIRECTION('',(0.,1.,0.));
#802=DIRECTION('',(1.,0.,0.));
#803=DIRECTION('',(0.,-1.,0.));
#804=DIRECTION('',(-1.,0.,0.));
#805=DIRECTION('',(0.,0.,-1.));
#806=DIRECTION('',(-1.,0.,0.));
#807=DIRECTION('',(-1.,0.,0.));
#808=DIRECTION('',(0.,0.,1.));
#809=DIRECTION('',(0.,-1.,0.));
#810=DIRECTION('',(-1.,0.,0.));
#811=DIRECTION('',(0.,1.,0.));
#812=DIRECTION('',(1.,0.,0.));
#813=DIRECTION('',(0.,1.,0.));
#814=DIRECTION('',(1.,0.,0.));
#815=DIRECTION('',(0.,1.,0.));
#816=DIRECTION('',(1.,0.,0.));
#817=DIRECTION('',(-1.,0.,0.));
#818=DIRECTION('',(0.,0.,-1.));
#819=DIRECTION('',(0.,0.,1.));
#820=DIRECTION('',(0.,0.,1.));
#821=DIRECTION('',(-1.,0.,0.));
#822=DIRECTION('',(1.,0.,0.));
#823=DIRECTION('',(0.,0.,-1.));
#824=DIRECTION('',(0.,-3.09772049281573E-16,1.));
#825=DIRECTION('',(1.,0.,0.));
#826=DIRECTION('',(0.,-3.09772049281573E-16,1.));
#827=DIRECTION('',(1.,0.,0.));
#828=DIRECTION('',(0.,0.,1.));
#829=DIRECTION('',(0.,-1.,0.));
#830=DIRECTION('',(1.,0.,0.));
#831=DIRECTION('',(0.,1.,0.));
#832=DIRECTION('',(1.,0.,0.));
#833=DIRECTION('',(0.,-1.,0.));
#834=DIRECTION('',(0.,-1.,0.));
#835=DIRECTION('',(0.,0.,1.));
#836=DIRECTION('',(0.,-1.,0.));
#837=DIRECTION('',(1.,0.,0.));
#838=DIRECTION('',(0.,-1.,0.));
#839=DIRECTION('',(0.,-1.,0.));
#840=DIRECTION('',(1.,0.,0.));
#841=DIRECTION('',(0.,1.,0.));
#842=DIRECTION('',(1.,0.,0.));
#843=DIRECTION('',(0.,0.,-1.));
#844=DIRECTION('',(0.,3.46944695195362E-16,-1.));
#845=DIRECTION('',(1.,0.,0.));
#846=DIRECTION('',(0.,0.,-1.));
#847=DIRECTION('',(0.,0.,-1.));
#848=DIRECTION('',(0.,-1.,-3.46944695195362E-16));
#849=DIRECTION('',(0.,3.46944695195362E-16,-1.));
#850=DIRECTION('',(0.,-3.46944695195362E-16,1.));
#851=DIRECTION('',(0.,-1.,0.));
#852=DIRECTION('',(-1.,0.,0.));
#853=DIRECTION('',(0.,0.,1.));
#854=DIRECTION('',(0.,-1.,0.));
#855=DIRECTION('',(-1.,0.,0.));
#856=DIRECTION('',(0.,-1.,0.));
#857=DIRECTION('',(-1.,0.,0.));
#858=DIRECTION('',(0.,-1.,0.));
#859=DIRECTION('',(-1.,0.,0.));
#860=DIRECTION('',(0.,-1.,0.));
#861=DIRECTION('',(-1.,0.,0.));
#862=DIRECTION('',(0.,-1.,0.));
#863=DIRECTION('',(-1.,0.,0.));
#864=DIRECTION('',(-1.,0.,0.));
#865=DIRECTION('',(0.,0.,1.));
#866=DIRECTION('',(-1.,0.,0.));
#867=DIRECTION('',(0.,2.77555756156289E-16,-1.));
#868=DIRECTION('',(0.,1.,2.77555756156289E-16));
#869=DIRECTION('',(0.,-1.,-2.77555756156289E-16));
#870=DIRECTION('',(-1.,0.,0.));
#871=DIRECTION('',(0.,-1.,0.));
#872=DIRECTION('',(-1.,0.,0.));
#873=DIRECTION('',(0.,0.,1.));
#874=DIRECTION('',(-1.,0.,0.));
#875=DIRECTION('',(0.,2.08166817117217E-16,-1.));
#876=DIRECTION('',(0.,1.,2.08166817117217E-16));
#877=DIRECTION('',(0.,-1.,-2.08166817117217E-16));
#878=DIRECTION('',(-1.,0.,0.));
#879=DIRECTION('',(0.,0.,1.));
#880=DIRECTION('',(1.,0.,0.));
#881=DIRECTION('',(0.,-1.,0.));
#882=DIRECTION('',(1.,0.,0.));
#883=DIRECTION('',(0.,-1.,0.));
#884=DIRECTION('',(1.,0.,0.));
#885=DIRECTION('',(0.,-1.,0.));
#886=DIRECTION('',(0.,1.,0.));
#887=DIRECTION('',(0.,0.,-1.));
#888=DIRECTION('',(-1.,0.,0.));
#889=DIRECTION('',(-1.,0.,0.));
#890=DIRECTION('',(0.,1.,0.));
#891=DIRECTION('',(-1.,0.,0.));
#892=DIRECTION('',(0.,1.,0.));
#893=DIRECTION('',(-1.,0.,0.));
#894=DIRECTION('',(0.,1.,0.));
#895=DIRECTION('',(0.,1.,0.));
#896=DIRECTION('',(0.,0.,-1.));
#897=DIRECTION('',(-1.,0.,0.));
#898=DIRECTION('',(-1.,0.,0.));
#899=DIRECTION('',(0.,1.,0.));
#900=DIRECTION('',(-1.,0.,0.));
#901=DIRECTION('',(0.,1.,0.));
#902=DIRECTION('',(-1.,0.,0.));
#903=DIRECTION('',(0.,1.,0.));
#904=DIRECTION('',(-1.,0.,0.));
#905=DIRECTION('',(0.,1.,0.));
#906=CARTESIAN_POINT('',(0.,0.,0.));
#907=CARTESIAN_POINT('',(-0.1415,0.0175,0.003));
#908=CARTESIAN_POINT('',(-0.124,0.0175,0.003));
#909=CARTESIAN_POINT('',(-0.124,0.003,0.003));
#910=CARTESIAN_POINT('',(-0.1415,0.,0.003));
#911=CARTESIAN_POINT('',(-0.1415,0.,0.003));
#912=CARTESIAN_POINT('',(-0.103,0.,0.003));
#913=CARTESIAN_POINT('',(-0.103,0.0175,0.003));
#914=CARTESIAN_POINT('',(-0.103,0.035,0.003));
#915=CARTESIAN_POINT('',(-0.1415,0.035,0.003));
#916=CARTESIAN_POINT('',(-0.124,0.035,0.003));
#917=CARTESIAN_POINT('',(-0.124,0.0175,0.003));
#918=CARTESIAN_POINT('',(-0.1415,0.0175,0.003));
#919=CARTESIAN_POINT('',(-0.1415,0.0175,0.003));
#920=CARTESIAN_POINT('',(-0.1415,0.0175,-0.077));
#921=CARTESIAN_POINT('',(-0.124,0.0175,-0.077));
#922=CARTESIAN_POINT('',(-0.124,0.003,-0.077));
#923=CARTESIAN_POINT('',(-0.103,0.0175,-0.077));
#924=CARTESIAN_POINT('',(-0.103,0.,-0.077));
#925=CARTESIAN_POINT('',(-0.103,0.035,-0.077));
#926=CARTESIAN_POINT('',(-0.1415,0.,-0.077));
#927=CARTESIAN_POINT('',(-0.1415,0.,-0.077));
#928=CARTESIAN_POINT('',(-0.1415,0.0175,-0.077));
#929=CARTESIAN_POINT('',(-0.1415,0.0175,-0.077));
#930=CARTESIAN_POINT('',(-0.124,0.0175,-0.077));
#931=CARTESIAN_POINT('',(-0.124,0.035,-0.077));
#932=CARTESIAN_POINT('',(-0.1415,0.035,-0.077));
#933=CARTESIAN_POINT('',(-0.124,0.0175,-0.1051));
#934=CARTESIAN_POINT('',(-0.125291910557156,0.0319531790123637,-0.0632943970389938));
#935=CARTESIAN_POINT('',(-0.125828945229216,0.031882154925754,-0.0619996785603712));
#936=CARTESIAN_POINT('',(-0.125292308525982,0.0319530900738128,-0.0607068887195214));
#937=CARTESIAN_POINT('',(-0.124001455507721,0.0320234478091223,-0.0601716872094326));
#938=CARTESIAN_POINT('',(-0.122707325170545,0.0319531185186349,-0.060706363946029));
#939=CARTESIAN_POINT('',(-0.122171737888052,0.0318822129606193,-0.0619996498218166));
#940=CARTESIAN_POINT('',(-0.122705723961258,0.0319529185064247,-0.0632913566282074));
#941=CARTESIAN_POINT('',(-0.123998295297452,0.0320234754991086,-0.0638285605181589));
#942=CARTESIAN_POINT('',(-0.125291910557156,0.0319531790123637,-0.0632943970389938));
#943=CARTESIAN_POINT('',(-0.125828945229216,0.031882154925754,-0.0619996785603712));
#944=CARTESIAN_POINT('',(-0.125292308525982,0.0319530900738128,-0.0607068887195214));
#945=CARTESIAN_POINT('',(-0.12565,0.0319058147981987,-0.062));
#946=CARTESIAN_POINT('',(-0.124,0.0175,-0.047));
#947=CARTESIAN_POINT('',(-0.124,0.003,-0.047));
#948=CARTESIAN_POINT('',(-0.125294403807609,0.00304705796496662,-0.0632919041699424));
#949=CARTESIAN_POINT('',(-0.123999678539869,0.00297649325410314,-0.0638289485651668));
#950=CARTESIAN_POINT('',(-0.122706882032913,0.00304696901862083,-0.0632923015693904));
#951=CARTESIAN_POINT('',(-0.122171690465686,0.00311778614847444,-0.0620014564825255));
#952=CARTESIAN_POINT('',(-0.122706357609256,0.00304699742592068,-0.0607073311924297));
#953=CARTESIAN_POINT('',(-0.123999650155116,0.00297655129862749,-0.0601717346010405));
#954=CARTESIAN_POINT('',(-0.125291363324162,0.00304679745733346,-0.0607057310867902));
#955=CARTESIAN_POINT('',(-0.125828557150786,0.00311781382499934,-0.0619982937866255));
#956=CARTESIAN_POINT('',(-0.125294403807609,0.00304705796496662,-0.0632919041699424));
#957=CARTESIAN_POINT('',(-0.123999678539869,0.00297649325410314,-0.0638289485651668));
#958=CARTESIAN_POINT('',(-0.122706882032913,0.00304696901862083,-0.0632923015693904));
#959=CARTESIAN_POINT('',(-0.124,0.003,-0.06365));
#960=CARTESIAN_POINT('',(-0.124,0.0175,-0.058));
#961=CARTESIAN_POINT('',(-0.124,0.035,0.003));
#962=CARTESIAN_POINT('',(-0.124,0.035,-0.01035));
#963=CARTESIAN_POINT('',(-0.124,0.035,-0.01035));
#964=CARTESIAN_POINT('',(-0.12443624233701,0.035,-0.01035));
#965=CARTESIAN_POINT('',(-0.125290490734154,0.0349610966706625,-0.0107075533364945));
#966=CARTESIAN_POINT('',(-0.125829420969746,0.0349025349368641,-0.0119983511025738));
#967=CARTESIAN_POINT('',(-0.125291822921874,0.0349610076446904,-0.0132920560705738));
#968=CARTESIAN_POINT('',(-0.124436241612788,0.035,-0.01365));
#969=CARTESIAN_POINT('',(-0.124,0.035,-0.01365));
#970=CARTESIAN_POINT('',(-0.124,0.035,-0.01365));
#971=CARTESIAN_POINT('',(-0.124,0.035,0.003));
#972=CARTESIAN_POINT('',(-0.124,0.035,-0.06035));
#973=CARTESIAN_POINT('',(-0.124,0.035,-0.06035));
#974=CARTESIAN_POINT('',(-0.12443624233701,0.035,-0.06035));
#975=CARTESIAN_POINT('',(-0.125290490734153,0.0349610966706625,-0.0607075533364945));
#976=CARTESIAN_POINT('',(-0.125829420969746,0.0349025349368641,-0.0619983511025738));
#977=CARTESIAN_POINT('',(-0.125291822921874,0.0349610076446904,-0.0632920560705738));
#978=CARTESIAN_POINT('',(-0.124436241612788,0.035,-0.06365));
#979=CARTESIAN_POINT('',(-0.124,0.035,-0.06365));
#980=CARTESIAN_POINT('',(-0.124,0.035,-0.06365));
#981=CARTESIAN_POINT('',(-0.124,0.035,0.003));
#982=CARTESIAN_POINT('',(-0.1415,0.0175,-0.077));
#983=CARTESIAN_POINT('',(-0.124,0.0175,-0.1051));
#984=CARTESIAN_POINT('',(-0.125291910557156,0.0319531790123636,-0.0132943970389938));
#985=CARTESIAN_POINT('',(-0.125828945229216,0.0318821549257539,-0.0119996785603712));
#986=CARTESIAN_POINT('',(-0.125292308525982,0.0319530900738128,-0.0107068887195214));
#987=CARTESIAN_POINT('',(-0.124001455507721,0.0320234478091223,-0.0101716872094326));
#988=CARTESIAN_POINT('',(-0.122707325170545,0.0319531185186348,-0.010706363946029));
#989=CARTESIAN_POINT('',(-0.122171737888052,0.0318822129606193,-0.0119996498218166));
#990=CARTESIAN_POINT('',(-0.122705723961258,0.0319529185064247,-0.0132913566282074));
#991=CARTESIAN_POINT('',(-0.123998295297452,0.0320234754991086,-0.0138285605181589));
#992=CARTESIAN_POINT('',(-0.125291910557156,0.0319531790123636,-0.0132943970389938));
#993=CARTESIAN_POINT('',(-0.125828945229216,0.0318821549257539,-0.0119996785603712));
#994=CARTESIAN_POINT('',(-0.125292308525982,0.0319530900738128,-0.0107068887195214));
#995=CARTESIAN_POINT('',(-0.12565,0.0319058147981987,-0.012));
#996=CARTESIAN_POINT('',(-0.124,0.0175,-0.027));
#997=CARTESIAN_POINT('',(-0.124,0.003,-0.027));
#998=CARTESIAN_POINT('',(-0.125294403807609,0.00304705796496659,-0.0132919041699424));
#999=CARTESIAN_POINT('',(-0.123999678539869,0.00297649325410315,-0.0138289485651668));
#1000=CARTESIAN_POINT('',(-0.122706882032913,0.00304696901862081,-0.0132923015693904));
#1001=CARTESIAN_POINT('',(-0.122171690465686,0.00311778614847443,-0.0120014564825254));
#1002=CARTESIAN_POINT('',(-0.122706357609256,0.00304699742592067,-0.0107073311924298));
#1003=CARTESIAN_POINT('',(-0.123999650155116,0.00297655129862748,-0.0101717346010405));
#1004=CARTESIAN_POINT('',(-0.125291363324161,0.00304679745733344,-0.0107057310867902));
#1005=CARTESIAN_POINT('',(-0.125828557150786,0.00311781382499933,-0.0119982937866255));
#1006=CARTESIAN_POINT('',(-0.125294403807609,0.00304705796496659,-0.0132919041699424));
#1007=CARTESIAN_POINT('',(-0.123999678539869,0.00297649325410315,-0.0138289485651668));
#1008=CARTESIAN_POINT('',(-0.122706882032913,0.00304696901862081,-0.0132923015693904));
#1009=CARTESIAN_POINT('',(-0.124,0.003,-0.01365));
#1010=CARTESIAN_POINT('',(-0.1,0.0175,-0.058));
#1011=CARTESIAN_POINT('',(-0.1,0.00875,-0.082));
#1012=CARTESIAN_POINT('',(-0.1,0.0071,-0.082));
#1013=CARTESIAN_POINT('',(-0.1,0.02625,0.008));
#1014=CARTESIAN_POINT('',(-0.1,0.0246,0.008));
#1015=CARTESIAN_POINT('',(-0.1,0.00875,0.008));
#1016=CARTESIAN_POINT('',(-0.1,0.0071,0.008));
#1017=CARTESIAN_POINT('',(-0.1,0.02625,-0.082));
#1018=CARTESIAN_POINT('',(-0.1,0.0246,-0.082));
#1019=CARTESIAN_POINT('',(-0.1,0.03,-0.037));
#1020=CARTESIAN_POINT('',(-0.1,0.03,-0.062));
#1021=CARTESIAN_POINT('',(-0.1,0.03,-0.012));
#1022=CARTESIAN_POINT('',(-0.1,0.0175,-0.062));
#1023=CARTESIAN_POINT('',(-0.1,0.005,-0.062));
#1024=CARTESIAN_POINT('',(-0.1,0.005,-0.037));
#1025=CARTESIAN_POINT('',(-0.1,0.005,-0.012));
#1026=CARTESIAN_POINT('',(-0.1,0.0175,-0.012));
#1027=CARTESIAN_POINT('',(-0.1,0.,-0.058));
#1028=CARTESIAN_POINT('',(-0.1,0.,-0.087));
#1029=CARTESIAN_POINT('',(-0.1,0.,0.013));
#1030=CARTESIAN_POINT('',(-0.1,0.0175,-0.087));
#1031=CARTESIAN_POINT('',(-0.1,0.035,-0.087));
#1032=CARTESIAN_POINT('',(-0.1,0.035,-0.058));
#1033=CARTESIAN_POINT('',(-0.1,0.035,0.013));
#1034=CARTESIAN_POINT('',(-0.1,0.0175,0.013));
#1035=CARTESIAN_POINT('',(-0.124,0.0175,-0.047));
#1036=CARTESIAN_POINT('',(-0.124,0.0175,-0.027));
#1037=CARTESIAN_POINT('',(-0.124,0.006,-0.027));
#1038=CARTESIAN_POINT('',(-0.124,0.0175,-0.047));
#1039=CARTESIAN_POINT('',(-0.124,0.006,-0.047));
#1040=CARTESIAN_POINT('',(-0.119,0.027856157588604,-0.047));
#1041=CARTESIAN_POINT('',(-0.119,0.027856157588604,-0.032));
#1042=CARTESIAN_POINT('',(-0.119,0.027856157588604,-0.042));
#1043=CARTESIAN_POINT('',(-0.124,0.0175,-0.032));
#1044=CARTESIAN_POINT('',(-0.119,0.00714384241139599,-0.032));
#1045=CARTESIAN_POINT('',(-0.119,0.00714384241139599,-0.047));
#1046=CARTESIAN_POINT('',(-0.119,0.00714384241139599,-0.042));
#1047=CARTESIAN_POINT('',(-0.124,0.0175,-0.042));
#1048=CARTESIAN_POINT('',(-0.1415,0.035,-0.058));
#1049=CARTESIAN_POINT('',(-0.124,0.035,-0.012));
#1050=CARTESIAN_POINT('',(-0.103,0.035,0.013));
#1051=CARTESIAN_POINT('',(-0.103,0.035,0.013));
#1052=CARTESIAN_POINT('',(-0.1015,0.035,0.013));
#1053=CARTESIAN_POINT('',(-0.1015,0.035,-0.087));
#1054=CARTESIAN_POINT('',(-0.103,0.035,-0.087));
#1055=CARTESIAN_POINT('',(-0.103,0.035,-0.087));
#1056=CARTESIAN_POINT('',(-0.124,0.035,-0.062));
#1057=CARTESIAN_POINT('',(-0.1415,0.,-0.058));
#1058=CARTESIAN_POINT('',(-0.124,0.,-0.012));
#1059=CARTESIAN_POINT('',(-0.12235,0.,-0.012));
#1060=CARTESIAN_POINT('',(-0.124,0.,-0.062));
#1061=CARTESIAN_POINT('',(-0.12235,0.,-0.062));
#1062=CARTESIAN_POINT('',(-0.1015,0.,0.013));
#1063=CARTESIAN_POINT('',(-0.103,0.,0.013));
#1064=CARTESIAN_POINT('',(-0.103,0.,0.013));
#1065=CARTESIAN_POINT('',(-0.1415,0.,-0.058));
#1066=CARTESIAN_POINT('',(-0.103,0.,-0.087));
#1067=CARTESIAN_POINT('',(-0.103,0.,-0.087));
#1068=CARTESIAN_POINT('',(-0.1015,0.,-0.087));
#1069=CARTESIAN_POINT('',(-0.1415,0.0175,-0.058));
#1070=CARTESIAN_POINT('',(0.0015,0.0245238225907087,-0.047));
#1071=CARTESIAN_POINT('',(0.0015,0.0245238225907087,-0.027));
#1072=CARTESIAN_POINT('',(-0.119,0.0175,-0.032));
#1073=CARTESIAN_POINT('',(-0.119,0.02825,-0.032));
#1074=CARTESIAN_POINT('',(-0.119,0.02825,-0.032));
#1075=CARTESIAN_POINT('',(-0.096,0.02825,-0.032));
#1076=CARTESIAN_POINT('',(-0.096,0.0175,-0.032));
#1077=CARTESIAN_POINT('',(-0.096,0.00675,-0.032));
#1078=CARTESIAN_POINT('',(-0.119,0.00675,-0.032));
#1079=CARTESIAN_POINT('',(-0.119,0.00675,-0.032));
#1080=CARTESIAN_POINT('',(-0.119,0.0175,-0.032));
#1081=CARTESIAN_POINT('',(-0.119,0.0175,-0.032));
#1082=CARTESIAN_POINT('',(-0.119,0.0175,-0.042));
#1083=CARTESIAN_POINT('',(-0.119,0.02825,-0.042));
#1084=CARTESIAN_POINT('',(-0.119,0.02825,-0.042));
#1085=CARTESIAN_POINT('',(-0.096,0.02825,-0.042));
#1086=CARTESIAN_POINT('',(-0.119,0.0175,-0.042));
#1087=CARTESIAN_POINT('',(-0.119,0.0175,-0.042));
#1088=CARTESIAN_POINT('',(-0.119,0.00675,-0.042));
#1089=CARTESIAN_POINT('',(-0.119,0.00675,-0.042));
#1090=CARTESIAN_POINT('',(-0.096,0.00675,-0.042));
#1091=CARTESIAN_POINT('',(-0.096,0.0175,-0.042));
#1092=CARTESIAN_POINT('',(-0.119,0.0175,-0.058));
#1093=CARTESIAN_POINT('',(-0.119,0.02825,-0.037));
#1094=CARTESIAN_POINT('',(-0.119,0.0175,-0.058));
#1095=CARTESIAN_POINT('',(-0.119,0.00675,-0.037));
#1096=CARTESIAN_POINT('',(-0.119,0.02825,-0.037));
#1097=CARTESIAN_POINT('',(-0.096,0.02825,-0.058));
#1098=CARTESIAN_POINT('',(-0.119,0.00675,-0.037));
#1099=CARTESIAN_POINT('',(-0.096,0.00675,-0.058));
#1100=CARTESIAN_POINT('',(-0.124,0.035,-0.012));
#1101=CARTESIAN_POINT('',(-0.124,0.035,-0.012));
#1102=CARTESIAN_POINT('',(-0.124,0.035,-0.062));
#1103=CARTESIAN_POINT('',(-0.124,0.035,-0.062));
#1104=CARTESIAN_POINT('',(-0.096,0.03,-0.037));
#1105=CARTESIAN_POINT('',(-0.096,0.03,-0.012));
#1106=CARTESIAN_POINT('',(-0.096,0.03,-0.012));
#1107=CARTESIAN_POINT('',(-0.096,0.03,-0.037));
#1108=CARTESIAN_POINT('',(-0.096,0.03,-0.062));
#1109=CARTESIAN_POINT('',(-0.096,0.03,-0.062));
#1110=CARTESIAN_POINT('',(-0.096,0.0175,-0.062));
#1111=CARTESIAN_POINT('',(-0.096,0.0175,-0.062));
#1112=CARTESIAN_POINT('',(-0.096,0.005,-0.062));
#1113=CARTESIAN_POINT('',(-0.096,0.005,-0.062));
#1114=CARTESIAN_POINT('',(-0.096,0.005,-0.037));
#1115=CARTESIAN_POINT('',(-0.096,0.005,-0.037));
#1116=CARTESIAN_POINT('',(-0.096,0.005,-0.012));
#1117=CARTESIAN_POINT('',(-0.096,0.005,-0.012));
#1118=CARTESIAN_POINT('',(-0.096,0.0175,-0.012));
#1119=CARTESIAN_POINT('',(-0.096,0.0175,-0.012));
#1120=CARTESIAN_POINT('',(-0.096,0.0175,-0.037));
#1121=CARTESIAN_POINT('',(-0.103,0.0175,-0.087));
#1122=CARTESIAN_POINT('',(-0.103,0.00875,-0.082));
#1123=CARTESIAN_POINT('',(-0.103,0.0071,-0.082));
#1124=CARTESIAN_POINT('',(-0.103,0.02625,-0.082));
#1125=CARTESIAN_POINT('',(-0.103,0.0246,-0.082));
#1126=CARTESIAN_POINT('',(-0.103,0.0175,-0.087));
#1127=CARTESIAN_POINT('',(0.01925,0.0175703819841147,-0.087));
#1128=CARTESIAN_POINT('',(-0.103,0.0175,0.013));
#1129=CARTESIAN_POINT('',(-0.103,0.02625,0.008));
#1130=CARTESIAN_POINT('',(-0.103,0.0279,0.008));
#1131=CARTESIAN_POINT('',(-0.103,0.00875,0.008));
#1132=CARTESIAN_POINT('',(-0.103,0.0104,0.008));
#1133=CARTESIAN_POINT('',(-0.103,0.0175,0.013));
#1134=CARTESIAN_POINT('',(0.01925,0.0175703819841147,0.013));
#1135=CARTESIAN_POINT('',(0.103,0.00875,0.008));
#1136=CARTESIAN_POINT('',(0.103,0.02625,0.008));
#1137=CARTESIAN_POINT('',(0.103,0.02625,-0.082));
#1138=CARTESIAN_POINT('',(0.103,0.00875,-0.082));
#1139=MECHANICAL_DESIGN_GEOMETRIC_PRESENTATION_REPRESENTATION('',(#666),
#1140);
#1140=(
GEOMETRIC_REPRESENTATION_CONTEXT(3)
GLOBAL_UNCERTAINTY_ASSIGNED_CONTEXT((#1141))
GLOBAL_UNIT_ASSIGNED_CONTEXT((#1144,#1143,#1142))
REPRESENTATION_CONTEXT('Right hand','TOP_LEVEL_ASSEMBLY_PART')
);
#1141=UNCERTAINTY_MEASURE_WITH_UNIT(LENGTH_MEASURE(2.E-5),#1144,
'DISTANCE_ACCURACY_VALUE','Maximum Tolerance applied to model');
#1142=(
NAMED_UNIT(*)
SI_UNIT($,.STERADIAN.)
SOLID_ANGLE_UNIT()
);
#1143=(
NAMED_UNIT(*)
PLANE_ANGLE_UNIT()
SI_UNIT($,.RADIAN.)
);
#1144=(
LENGTH_UNIT()
NAMED_UNIT(*)
SI_UNIT($,.METRE.)
);
#1145=PRODUCT_DEFINITION_SHAPE('','',#1146);
#1146=PRODUCT_DEFINITION('','',#1148,#1147);
#1147=PRODUCT_DEFINITION_CONTEXT('',#1154,'design');
#1148=PRODUCT_DEFINITION_FORMATION_WITH_SPECIFIED_SOURCE('','',#1150,
 .NOT_KNOWN.);
#1149=PRODUCT_RELATED_PRODUCT_CATEGORY('','',(#1150));
#1150=PRODUCT('Right hand','Right hand','Right hand',(#1152));
#1151=PRODUCT_CATEGORY('','');
#1152=PRODUCT_CONTEXT('',#1154,'mechanical');
#1153=APPLICATION_PROTOCOL_DEFINITION('international standard',
'ap242_managed_model_based_3d_engineering',2020,#1154);
#1154=APPLICATION_CONTEXT('managed model based 3d engineering');
ENDSEC;
END-ISO-10303-21;
