ISO-10303-21;
HEADER;
/* Generated by software containing ST-Developer
 * from STEP Tools, Inc. (www.steptools.com) 
 */
/* OPTION: using custom renumber hook */

FILE_DESCRIPTION(
/* description */ ('STEP AP242 Edition 2',
'CAx-IF Rec.Pracs.---Representation and Presentation of Product Manufa
cturing Information (PMI)---4.0---2014-10-13',
'CAx-IF Rec.Pracs.---3D Tessellated Geometry---0.4---2014-09-14','2;1',
'CAx-IF Rec.Pracs.---User Defined Attributes---1.5---2016-08-15'),
/* implementation_level */ '2;1');

FILE_NAME(
/* name */ 'Chasis - Front Cover',
/* time_stamp */ '2026-08-09T23:12:34Z',
/* author */ (''),
/* organization */ (''),
/* preprocessor_version */ 'ST-DEVELOPER v20',
/* originating_system */ 'ONSHAPE BY PTC INC, 1.219',
/* authorisation */ '  ');

FILE_SCHEMA (('AP242_MANAGED_MODEL_BASED_3D_ENGINEERING_MIM_LF { 1 0 10303 442 3 1 4 }'));
ENDSEC;

DATA;
#10=SHAPE_REPRESENTATION_RELATIONSHIP('','',#1464,#11);
#11=ADVANCED_BREP_SHAPE_REPRESENTATION('',(#1462),#2350);
#12=CYLINDRICAL_SURFACE('',#1473,0.0051);
#13=CYLINDRICAL_SURFACE('',#1481,0.0051);
#14=CYLINDRICAL_SURFACE('',#1492,0.00165);
#15=CYLINDRICAL_SURFACE('',#1495,0.00165);
#16=CYLINDRICAL_SURFACE('',#1526,0.004);
#17=CYLINDRICAL_SURFACE('',#1527,0.004);
#18=CYLINDRICAL_SURFACE('',#1551,0.00165);
#19=CYLINDRICAL_SURFACE('',#1552,0.00165);
#20=CYLINDRICAL_SURFACE('',#1563,0.00165);
#21=CYLINDRICAL_SURFACE('',#1564,0.00165);
#22=CYLINDRICAL_SURFACE('',#1565,0.00165);
#23=CYLINDRICAL_SURFACE('',#1566,0.00165);
#24=ELLIPSE('',#1471,0.00525695967266252,0.0051);
#25=ELLIPSE('',#1472,0.00525695967266253,0.0051);
#26=ELLIPSE('',#1475,0.00665757717559464,0.0051);
#27=ELLIPSE('',#1482,0.00665757717559462,0.0051);
#28=CIRCLE('',#1469,0.0051);
#29=CIRCLE('',#1474,0.0051);
#30=CIRCLE('',#1476,0.0051);
#31=CIRCLE('',#1483,0.0051);
#32=CIRCLE('',#1484,0.0051);
#33=CIRCLE('',#1485,0.0051);
#34=CIRCLE('',#1493,0.00165);
#35=CIRCLE('',#1494,0.00165);
#36=CIRCLE('',#1496,0.00165);
#37=CIRCLE('',#1497,0.00165);
#38=CIRCLE('',#1499,0.00165);
#39=CIRCLE('',#1500,0.00165);
#40=CIRCLE('',#1501,0.00165);
#41=CIRCLE('',#1502,0.00165);
#42=CIRCLE('',#1503,0.004);
#43=CIRCLE('',#1504,0.004);
#44=CIRCLE('',#1506,0.00165);
#45=CIRCLE('',#1507,0.00165);
#46=CIRCLE('',#1520,0.00165);
#47=CIRCLE('',#1521,0.00165);
#48=CIRCLE('',#1522,0.00165);
#49=CIRCLE('',#1523,0.00165);
#50=CIRCLE('',#1524,0.004);
#51=CIRCLE('',#1525,0.004);
#52=CIRCLE('',#1548,0.00165);
#53=CIRCLE('',#1549,0.00165);
#54=ORIENTED_EDGE('',*,*,#456,.F.);
#55=ORIENTED_EDGE('',*,*,#457,.T.);
#56=ORIENTED_EDGE('',*,*,#458,.T.);
#57=ORIENTED_EDGE('',*,*,#459,.F.);
#58=ORIENTED_EDGE('',*,*,#460,.T.);
#59=ORIENTED_EDGE('',*,*,#461,.T.);
#60=ORIENTED_EDGE('',*,*,#462,.T.);
#61=ORIENTED_EDGE('',*,*,#463,.T.);
#62=ORIENTED_EDGE('',*,*,#464,.F.);
#63=ORIENTED_EDGE('',*,*,#465,.T.);
#64=ORIENTED_EDGE('',*,*,#466,.F.);
#65=ORIENTED_EDGE('',*,*,#467,.T.);
#66=ORIENTED_EDGE('',*,*,#468,.T.);
#67=ORIENTED_EDGE('',*,*,#469,.F.);
#68=ORIENTED_EDGE('',*,*,#470,.T.);
#69=ORIENTED_EDGE('',*,*,#471,.T.);
#70=ORIENTED_EDGE('',*,*,#472,.F.);
#71=ORIENTED_EDGE('',*,*,#473,.T.);
#72=ORIENTED_EDGE('',*,*,#458,.F.);
#73=ORIENTED_EDGE('',*,*,#474,.F.);
#74=ORIENTED_EDGE('',*,*,#475,.F.);
#75=ORIENTED_EDGE('',*,*,#476,.F.);
#76=ORIENTED_EDGE('',*,*,#477,.F.);
#77=ORIENTED_EDGE('',*,*,#478,.F.);
#78=ORIENTED_EDGE('',*,*,#479,.F.);
#79=ORIENTED_EDGE('',*,*,#480,.F.);
#80=ORIENTED_EDGE('',*,*,#481,.F.);
#81=ORIENTED_EDGE('',*,*,#482,.F.);
#82=ORIENTED_EDGE('',*,*,#483,.T.);
#83=ORIENTED_EDGE('',*,*,#484,.F.);
#84=ORIENTED_EDGE('',*,*,#476,.T.);
#85=ORIENTED_EDGE('',*,*,#485,.F.);
#86=ORIENTED_EDGE('',*,*,#486,.F.);
#87=ORIENTED_EDGE('',*,*,#470,.F.);
#88=ORIENTED_EDGE('',*,*,#487,.F.);
#89=ORIENTED_EDGE('',*,*,#488,.T.);
#90=ORIENTED_EDGE('',*,*,#466,.T.);
#91=ORIENTED_EDGE('',*,*,#489,.T.);
#92=ORIENTED_EDGE('',*,*,#490,.T.);
#93=ORIENTED_EDGE('',*,*,#491,.F.);
#94=ORIENTED_EDGE('',*,*,#492,.T.);
#95=ORIENTED_EDGE('',*,*,#493,.T.);
#96=ORIENTED_EDGE('',*,*,#494,.F.);
#97=ORIENTED_EDGE('',*,*,#468,.F.);
#98=ORIENTED_EDGE('',*,*,#495,.T.);
#99=ORIENTED_EDGE('',*,*,#491,.T.);
#100=ORIENTED_EDGE('',*,*,#496,.F.);
#101=ORIENTED_EDGE('',*,*,#497,.F.);
#102=ORIENTED_EDGE('',*,*,#498,.F.);
#103=ORIENTED_EDGE('',*,*,#499,.T.);
#104=ORIENTED_EDGE('',*,*,#500,.T.);
#105=ORIENTED_EDGE('',*,*,#501,.F.);
#106=ORIENTED_EDGE('',*,*,#502,.F.);
#107=ORIENTED_EDGE('',*,*,#503,.T.);
#108=ORIENTED_EDGE('',*,*,#504,.T.);
#109=ORIENTED_EDGE('',*,*,#505,.F.);
#110=ORIENTED_EDGE('',*,*,#506,.T.);
#111=ORIENTED_EDGE('',*,*,#507,.F.);
#112=ORIENTED_EDGE('',*,*,#508,.T.);
#113=ORIENTED_EDGE('',*,*,#509,.F.);
#114=ORIENTED_EDGE('',*,*,#493,.F.);
#115=ORIENTED_EDGE('',*,*,#510,.T.);
#116=ORIENTED_EDGE('',*,*,#511,.T.);
#117=ORIENTED_EDGE('',*,*,#512,.F.);
#118=ORIENTED_EDGE('',*,*,#471,.F.);
#119=ORIENTED_EDGE('',*,*,#513,.F.);
#120=ORIENTED_EDGE('',*,*,#514,.T.);
#121=ORIENTED_EDGE('',*,*,#515,.T.);
#122=ORIENTED_EDGE('',*,*,#516,.T.);
#123=ORIENTED_EDGE('',*,*,#517,.F.);
#124=ORIENTED_EDGE('',*,*,#518,.F.);
#125=ORIENTED_EDGE('',*,*,#519,.T.);
#126=ORIENTED_EDGE('',*,*,#520,.T.);
#127=ORIENTED_EDGE('',*,*,#521,.F.);
#128=ORIENTED_EDGE('',*,*,#522,.F.);
#129=ORIENTED_EDGE('',*,*,#523,.T.);
#130=ORIENTED_EDGE('',*,*,#524,.F.);
#131=ORIENTED_EDGE('',*,*,#525,.F.);
#132=ORIENTED_EDGE('',*,*,#526,.F.);
#133=ORIENTED_EDGE('',*,*,#527,.F.);
#134=ORIENTED_EDGE('',*,*,#528,.F.);
#135=ORIENTED_EDGE('',*,*,#529,.T.);
#136=ORIENTED_EDGE('',*,*,#530,.F.);
#137=ORIENTED_EDGE('',*,*,#531,.F.);
#138=ORIENTED_EDGE('',*,*,#532,.F.);
#139=ORIENTED_EDGE('',*,*,#533,.T.);
#140=ORIENTED_EDGE('',*,*,#534,.T.);
#141=ORIENTED_EDGE('',*,*,#535,.F.);
#142=ORIENTED_EDGE('',*,*,#536,.T.);
#143=ORIENTED_EDGE('',*,*,#537,.F.);
#144=ORIENTED_EDGE('',*,*,#538,.F.);
#145=ORIENTED_EDGE('',*,*,#515,.F.);
#146=ORIENTED_EDGE('',*,*,#539,.F.);
#147=ORIENTED_EDGE('',*,*,#518,.T.);
#148=ORIENTED_EDGE('',*,*,#540,.T.);
#149=ORIENTED_EDGE('',*,*,#541,.T.);
#150=ORIENTED_EDGE('',*,*,#542,.F.);
#151=ORIENTED_EDGE('',*,*,#543,.F.);
#152=ORIENTED_EDGE('',*,*,#544,.T.);
#153=ORIENTED_EDGE('',*,*,#513,.T.);
#154=ORIENTED_EDGE('',*,*,#481,.T.);
#155=ORIENTED_EDGE('',*,*,#545,.T.);
#156=ORIENTED_EDGE('',*,*,#546,.T.);
#157=ORIENTED_EDGE('',*,*,#547,.T.);
#158=ORIENTED_EDGE('',*,*,#548,.F.);
#159=ORIENTED_EDGE('',*,*,#549,.T.);
#160=ORIENTED_EDGE('',*,*,#550,.F.);
#161=ORIENTED_EDGE('',*,*,#551,.F.);
#162=ORIENTED_EDGE('',*,*,#552,.F.);
#163=ORIENTED_EDGE('',*,*,#553,.F.);
#164=ORIENTED_EDGE('',*,*,#554,.F.);
#165=ORIENTED_EDGE('',*,*,#555,.T.);
#166=ORIENTED_EDGE('',*,*,#556,.F.);
#167=ORIENTED_EDGE('',*,*,#557,.T.);
#168=ORIENTED_EDGE('',*,*,#558,.T.);
#169=ORIENTED_EDGE('',*,*,#487,.T.);
#170=ORIENTED_EDGE('',*,*,#559,.T.);
#171=ORIENTED_EDGE('',*,*,#560,.T.);
#172=ORIENTED_EDGE('',*,*,#561,.T.);
#173=ORIENTED_EDGE('',*,*,#524,.T.);
#174=ORIENTED_EDGE('',*,*,#562,.T.);
#175=ORIENTED_EDGE('',*,*,#563,.F.);
#176=ORIENTED_EDGE('',*,*,#564,.F.);
#177=ORIENTED_EDGE('',*,*,#565,.F.);
#178=ORIENTED_EDGE('',*,*,#566,.T.);
#179=ORIENTED_EDGE('',*,*,#464,.T.);
#180=ORIENTED_EDGE('',*,*,#567,.T.);
#181=ORIENTED_EDGE('',*,*,#568,.T.);
#182=ORIENTED_EDGE('',*,*,#569,.T.);
#183=ORIENTED_EDGE('',*,*,#570,.T.);
#184=ORIENTED_EDGE('',*,*,#571,.F.);
#185=ORIENTED_EDGE('',*,*,#530,.T.);
#186=ORIENTED_EDGE('',*,*,#572,.T.);
#187=ORIENTED_EDGE('',*,*,#573,.T.);
#188=ORIENTED_EDGE('',*,*,#574,.T.);
#189=ORIENTED_EDGE('',*,*,#549,.F.);
#190=ORIENTED_EDGE('',*,*,#547,.F.);
#191=ORIENTED_EDGE('',*,*,#575,.T.);
#192=ORIENTED_EDGE('',*,*,#576,.T.);
#193=ORIENTED_EDGE('',*,*,#577,.F.);
#194=ORIENTED_EDGE('',*,*,#578,.F.);
#195=ORIENTED_EDGE('',*,*,#579,.F.);
#196=ORIENTED_EDGE('',*,*,#580,.T.);
#197=ORIENTED_EDGE('',*,*,#581,.T.);
#198=ORIENTED_EDGE('',*,*,#479,.T.);
#199=ORIENTED_EDGE('',*,*,#582,.F.);
#200=ORIENTED_EDGE('',*,*,#580,.F.);
#201=ORIENTED_EDGE('',*,*,#583,.T.);
#202=ORIENTED_EDGE('',*,*,#584,.T.);
#203=ORIENTED_EDGE('',*,*,#532,.T.);
#204=ORIENTED_EDGE('',*,*,#585,.T.);
#205=ORIENTED_EDGE('',*,*,#585,.F.);
#206=ORIENTED_EDGE('',*,*,#531,.T.);
#207=ORIENTED_EDGE('',*,*,#571,.T.);
#208=ORIENTED_EDGE('',*,*,#586,.F.);
#209=ORIENTED_EDGE('',*,*,#523,.F.);
#210=ORIENTED_EDGE('',*,*,#587,.T.);
#211=ORIENTED_EDGE('',*,*,#588,.F.);
#212=ORIENTED_EDGE('',*,*,#562,.F.);
#213=ORIENTED_EDGE('',*,*,#545,.F.);
#214=ORIENTED_EDGE('',*,*,#480,.T.);
#215=ORIENTED_EDGE('',*,*,#581,.F.);
#216=ORIENTED_EDGE('',*,*,#582,.T.);
#217=ORIENTED_EDGE('',*,*,#586,.T.);
#218=ORIENTED_EDGE('',*,*,#570,.F.);
#219=ORIENTED_EDGE('',*,*,#484,.T.);
#220=ORIENTED_EDGE('',*,*,#589,.T.);
#221=ORIENTED_EDGE('',*,*,#590,.T.);
#222=ORIENTED_EDGE('',*,*,#591,.T.);
#223=ORIENTED_EDGE('',*,*,#592,.F.);
#224=ORIENTED_EDGE('',*,*,#477,.T.);
#225=ORIENTED_EDGE('',*,*,#588,.T.);
#226=ORIENTED_EDGE('',*,*,#593,.F.);
#227=ORIENTED_EDGE('',*,*,#577,.T.);
#228=ORIENTED_EDGE('',*,*,#478,.T.);
#229=ORIENTED_EDGE('',*,*,#592,.T.);
#230=ORIENTED_EDGE('',*,*,#563,.T.);
#231=ORIENTED_EDGE('',*,*,#587,.F.);
#232=ORIENTED_EDGE('',*,*,#522,.T.);
#233=ORIENTED_EDGE('',*,*,#594,.F.);
#234=ORIENTED_EDGE('',*,*,#595,.T.);
#235=ORIENTED_EDGE('',*,*,#578,.T.);
#236=ORIENTED_EDGE('',*,*,#593,.T.);
#237=ORIENTED_EDGE('',*,*,#596,.T.);
#238=ORIENTED_EDGE('',*,*,#564,.T.);
#239=ORIENTED_EDGE('',*,*,#591,.F.);
#240=ORIENTED_EDGE('',*,*,#597,.F.);
#241=ORIENTED_EDGE('',*,*,#598,.T.);
#242=ORIENTED_EDGE('',*,*,#565,.T.);
#243=ORIENTED_EDGE('',*,*,#596,.F.);
#244=ORIENTED_EDGE('',*,*,#590,.F.);
#245=ORIENTED_EDGE('',*,*,#568,.F.);
#246=ORIENTED_EDGE('',*,*,#599,.T.);
#247=ORIENTED_EDGE('',*,*,#600,.T.);
#248=ORIENTED_EDGE('',*,*,#544,.F.);
#249=ORIENTED_EDGE('',*,*,#601,.T.);
#250=ORIENTED_EDGE('',*,*,#569,.F.);
#251=ORIENTED_EDGE('',*,*,#601,.F.);
#252=ORIENTED_EDGE('',*,*,#546,.F.);
#253=ORIENTED_EDGE('',*,*,#602,.T.);
#254=ORIENTED_EDGE('',*,*,#603,.T.);
#255=ORIENTED_EDGE('',*,*,#604,.T.);
#256=ORIENTED_EDGE('',*,*,#605,.T.);
#257=ORIENTED_EDGE('',*,*,#606,.T.);
#258=ORIENTED_EDGE('',*,*,#462,.F.);
#259=ORIENTED_EDGE('',*,*,#607,.T.);
#260=ORIENTED_EDGE('',*,*,#597,.T.);
#261=ORIENTED_EDGE('',*,*,#608,.T.);
#262=ORIENTED_EDGE('',*,*,#482,.T.);
#263=ORIENTED_EDGE('',*,*,#609,.F.);
#264=ORIENTED_EDGE('',*,*,#489,.F.);
#265=ORIENTED_EDGE('',*,*,#486,.T.);
#266=ORIENTED_EDGE('',*,*,#610,.T.);
#267=ORIENTED_EDGE('',*,*,#611,.T.);
#268=ORIENTED_EDGE('',*,*,#612,.F.);
#269=ORIENTED_EDGE('',*,*,#613,.T.);
#270=ORIENTED_EDGE('',*,*,#460,.F.);
#271=ORIENTED_EDGE('',*,*,#614,.F.);
#272=ORIENTED_EDGE('',*,*,#615,.T.);
#273=ORIENTED_EDGE('',*,*,#516,.F.);
#274=ORIENTED_EDGE('',*,*,#616,.F.);
#275=ORIENTED_EDGE('',*,*,#617,.F.);
#276=ORIENTED_EDGE('',*,*,#514,.F.);
#277=ORIENTED_EDGE('',*,*,#600,.F.);
#278=ORIENTED_EDGE('',*,*,#548,.T.);
#279=ORIENTED_EDGE('',*,*,#550,.T.);
#280=ORIENTED_EDGE('',*,*,#607,.F.);
#281=ORIENTED_EDGE('',*,*,#465,.F.);
#282=ORIENTED_EDGE('',*,*,#566,.F.);
#283=ORIENTED_EDGE('',*,*,#598,.F.);
#284=ORIENTED_EDGE('',*,*,#606,.F.);
#285=ORIENTED_EDGE('',*,*,#599,.F.);
#286=ORIENTED_EDGE('',*,*,#567,.F.);
#287=ORIENTED_EDGE('',*,*,#463,.F.);
#288=ORIENTED_EDGE('',*,*,#618,.F.);
#289=ORIENTED_EDGE('',*,*,#619,.T.);
#290=ORIENTED_EDGE('',*,*,#620,.T.);
#291=ORIENTED_EDGE('',*,*,#621,.F.);
#292=ORIENTED_EDGE('',*,*,#622,.T.);
#293=ORIENTED_EDGE('',*,*,#618,.T.);
#294=ORIENTED_EDGE('',*,*,#623,.T.);
#295=ORIENTED_EDGE('',*,*,#572,.F.);
#296=ORIENTED_EDGE('',*,*,#529,.F.);
#297=ORIENTED_EDGE('',*,*,#525,.T.);
#298=ORIENTED_EDGE('',*,*,#561,.F.);
#299=ORIENTED_EDGE('',*,*,#624,.F.);
#300=ORIENTED_EDGE('',*,*,#542,.T.);
#301=ORIENTED_EDGE('',*,*,#625,.T.);
#302=ORIENTED_EDGE('',*,*,#560,.F.);
#303=ORIENTED_EDGE('',*,*,#626,.F.);
#304=ORIENTED_EDGE('',*,*,#496,.T.);
#305=ORIENTED_EDGE('',*,*,#494,.T.);
#306=ORIENTED_EDGE('',*,*,#509,.T.);
#307=ORIENTED_EDGE('',*,*,#627,.T.);
#308=ORIENTED_EDGE('',*,*,#543,.T.);
#309=ORIENTED_EDGE('',*,*,#624,.T.);
#310=ORIENTED_EDGE('',*,*,#559,.F.);
#311=ORIENTED_EDGE('',*,*,#490,.F.);
#312=ORIENTED_EDGE('',*,*,#609,.T.);
#313=ORIENTED_EDGE('',*,*,#469,.T.);
#314=ORIENTED_EDGE('',*,*,#626,.T.);
#315=ORIENTED_EDGE('',*,*,#628,.F.);
#316=ORIENTED_EDGE('',*,*,#555,.F.);
#317=ORIENTED_EDGE('',*,*,#629,.F.);
#318=ORIENTED_EDGE('',*,*,#616,.T.);
#319=ORIENTED_EDGE('',*,*,#538,.T.);
#320=ORIENTED_EDGE('',*,*,#574,.F.);
#321=ORIENTED_EDGE('',*,*,#630,.F.);
#322=ORIENTED_EDGE('',*,*,#539,.T.);
#323=ORIENTED_EDGE('',*,*,#617,.T.);
#324=ORIENTED_EDGE('',*,*,#629,.T.);
#325=ORIENTED_EDGE('',*,*,#573,.F.);
#326=ORIENTED_EDGE('',*,*,#623,.F.);
#327=ORIENTED_EDGE('',*,*,#621,.T.);
#328=ORIENTED_EDGE('',*,*,#631,.T.);
#329=ORIENTED_EDGE('',*,*,#503,.F.);
#330=ORIENTED_EDGE('',*,*,#632,.F.);
#331=ORIENTED_EDGE('',*,*,#519,.F.);
#332=ORIENTED_EDGE('',*,*,#630,.T.);
#333=ORIENTED_EDGE('',*,*,#526,.T.);
#334=ORIENTED_EDGE('',*,*,#625,.F.);
#335=ORIENTED_EDGE('',*,*,#633,.T.);
#336=ORIENTED_EDGE('',*,*,#533,.F.);
#337=ORIENTED_EDGE('',*,*,#634,.T.);
#338=ORIENTED_EDGE('',*,*,#527,.T.);
#339=ORIENTED_EDGE('',*,*,#634,.F.);
#340=ORIENTED_EDGE('',*,*,#536,.F.);
#341=ORIENTED_EDGE('',*,*,#506,.F.);
#342=ORIENTED_EDGE('',*,*,#635,.F.);
#343=ORIENTED_EDGE('',*,*,#636,.T.);
#344=ORIENTED_EDGE('',*,*,#528,.T.);
#345=ORIENTED_EDGE('',*,*,#636,.F.);
#346=ORIENTED_EDGE('',*,*,#637,.F.);
#347=ORIENTED_EDGE('',*,*,#638,.T.);
#348=ORIENTED_EDGE('',*,*,#622,.F.);
#349=ORIENTED_EDGE('',*,*,#639,.T.);
#350=ORIENTED_EDGE('',*,*,#640,.T.);
#351=ORIENTED_EDGE('',*,*,#637,.T.);
#352=ORIENTED_EDGE('',*,*,#635,.T.);
#353=ORIENTED_EDGE('',*,*,#641,.F.);
#354=ORIENTED_EDGE('',*,*,#520,.F.);
#355=ORIENTED_EDGE('',*,*,#632,.T.);
#356=ORIENTED_EDGE('',*,*,#502,.T.);
#357=ORIENTED_EDGE('',*,*,#505,.T.);
#358=ORIENTED_EDGE('',*,*,#642,.T.);
#359=ORIENTED_EDGE('',*,*,#639,.F.);
#360=ORIENTED_EDGE('',*,*,#535,.T.);
#361=ORIENTED_EDGE('',*,*,#643,.T.);
#362=ORIENTED_EDGE('',*,*,#507,.T.);
#363=ORIENTED_EDGE('',*,*,#508,.F.);
#364=ORIENTED_EDGE('',*,*,#643,.F.);
#365=ORIENTED_EDGE('',*,*,#644,.F.);
#366=ORIENTED_EDGE('',*,*,#540,.F.);
#367=ORIENTED_EDGE('',*,*,#627,.F.);
#368=ORIENTED_EDGE('',*,*,#633,.F.);
#369=ORIENTED_EDGE('',*,*,#541,.F.);
#370=ORIENTED_EDGE('',*,*,#644,.T.);
#371=ORIENTED_EDGE('',*,*,#534,.F.);
#372=ORIENTED_EDGE('',*,*,#631,.F.);
#373=ORIENTED_EDGE('',*,*,#620,.F.);
#374=ORIENTED_EDGE('',*,*,#645,.F.);
#375=ORIENTED_EDGE('',*,*,#642,.F.);
#376=ORIENTED_EDGE('',*,*,#504,.F.);
#377=ORIENTED_EDGE('',*,*,#645,.T.);
#378=ORIENTED_EDGE('',*,*,#619,.F.);
#379=ORIENTED_EDGE('',*,*,#638,.F.);
#380=ORIENTED_EDGE('',*,*,#640,.F.);
#381=ORIENTED_EDGE('',*,*,#646,.F.);
#382=ORIENTED_EDGE('',*,*,#647,.F.);
#383=ORIENTED_EDGE('',*,*,#521,.T.);
#384=ORIENTED_EDGE('',*,*,#584,.F.);
#385=ORIENTED_EDGE('',*,*,#648,.F.);
#386=ORIENTED_EDGE('',*,*,#594,.T.);
#387=ORIENTED_EDGE('',*,*,#595,.F.);
#388=ORIENTED_EDGE('',*,*,#648,.T.);
#389=ORIENTED_EDGE('',*,*,#583,.F.);
#390=ORIENTED_EDGE('',*,*,#579,.T.);
#391=ORIENTED_EDGE('',*,*,#576,.F.);
#392=ORIENTED_EDGE('',*,*,#647,.T.);
#393=ORIENTED_EDGE('',*,*,#575,.F.);
#394=ORIENTED_EDGE('',*,*,#646,.T.);
#395=ORIENTED_EDGE('',*,*,#457,.F.);
#396=ORIENTED_EDGE('',*,*,#649,.F.);
#397=ORIENTED_EDGE('',*,*,#497,.T.);
#398=ORIENTED_EDGE('',*,*,#650,.F.);
#399=ORIENTED_EDGE('',*,*,#611,.F.);
#400=ORIENTED_EDGE('',*,*,#651,.T.);
#401=ORIENTED_EDGE('',*,*,#474,.T.);
#402=ORIENTED_EDGE('',*,*,#614,.T.);
#403=ORIENTED_EDGE('',*,*,#459,.T.);
#404=ORIENTED_EDGE('',*,*,#473,.F.);
#405=ORIENTED_EDGE('',*,*,#652,.F.);
#406=ORIENTED_EDGE('',*,*,#556,.T.);
#407=ORIENTED_EDGE('',*,*,#628,.T.);
#408=ORIENTED_EDGE('',*,*,#537,.T.);
#409=ORIENTED_EDGE('',*,*,#517,.T.);
#410=ORIENTED_EDGE('',*,*,#641,.T.);
#411=ORIENTED_EDGE('',*,*,#501,.T.);
#412=ORIENTED_EDGE('',*,*,#653,.F.);
#413=ORIENTED_EDGE('',*,*,#612,.T.);
#414=ORIENTED_EDGE('',*,*,#650,.T.);
#415=ORIENTED_EDGE('',*,*,#511,.F.);
#416=ORIENTED_EDGE('',*,*,#654,.F.);
#417=ORIENTED_EDGE('',*,*,#557,.F.);
#418=ORIENTED_EDGE('',*,*,#653,.T.);
#419=ORIENTED_EDGE('',*,*,#500,.F.);
#420=ORIENTED_EDGE('',*,*,#655,.F.);
#421=ORIENTED_EDGE('',*,*,#488,.F.);
#422=ORIENTED_EDGE('',*,*,#558,.F.);
#423=ORIENTED_EDGE('',*,*,#654,.T.);
#424=ORIENTED_EDGE('',*,*,#510,.F.);
#425=ORIENTED_EDGE('',*,*,#492,.F.);
#426=ORIENTED_EDGE('',*,*,#495,.F.);
#427=ORIENTED_EDGE('',*,*,#467,.F.);
#428=ORIENTED_EDGE('',*,*,#610,.F.);
#429=ORIENTED_EDGE('',*,*,#485,.T.);
#430=ORIENTED_EDGE('',*,*,#475,.T.);
#431=ORIENTED_EDGE('',*,*,#651,.F.);
#432=ORIENTED_EDGE('',*,*,#652,.T.);
#433=ORIENTED_EDGE('',*,*,#472,.T.);
#434=ORIENTED_EDGE('',*,*,#512,.T.);
#435=ORIENTED_EDGE('',*,*,#615,.F.);
#436=ORIENTED_EDGE('',*,*,#608,.F.);
#437=ORIENTED_EDGE('',*,*,#589,.F.);
#438=ORIENTED_EDGE('',*,*,#483,.F.);
#439=ORIENTED_EDGE('',*,*,#498,.T.);
#440=ORIENTED_EDGE('',*,*,#649,.T.);
#441=ORIENTED_EDGE('',*,*,#456,.T.);
#442=ORIENTED_EDGE('',*,*,#656,.F.);
#443=ORIENTED_EDGE('',*,*,#656,.T.);
#444=ORIENTED_EDGE('',*,*,#461,.F.);
#445=ORIENTED_EDGE('',*,*,#613,.F.);
#446=ORIENTED_EDGE('',*,*,#655,.T.);
#447=ORIENTED_EDGE('',*,*,#499,.F.);
#448=ORIENTED_EDGE('',*,*,#605,.F.);
#449=ORIENTED_EDGE('',*,*,#554,.T.);
#450=ORIENTED_EDGE('',*,*,#604,.F.);
#451=ORIENTED_EDGE('',*,*,#553,.T.);
#452=ORIENTED_EDGE('',*,*,#603,.F.);
#453=ORIENTED_EDGE('',*,*,#552,.T.);
#454=ORIENTED_EDGE('',*,*,#602,.F.);
#455=ORIENTED_EDGE('',*,*,#551,.T.);
#456=EDGE_CURVE('',#657,#658,#791,.T.);
#457=EDGE_CURVE('',#657,#659,#792,.T.);
#458=EDGE_CURVE('',#659,#660,#793,.T.);
#459=EDGE_CURVE('',#661,#660,#794,.T.);
#460=EDGE_CURVE('',#661,#662,#795,.T.);
#461=EDGE_CURVE('',#662,#658,#796,.T.);
#462=EDGE_CURVE('',#663,#664,#797,.T.);
#463=EDGE_CURVE('',#664,#665,#798,.T.);
#464=EDGE_CURVE('',#666,#665,#799,.T.);
#465=EDGE_CURVE('',#666,#663,#800,.F.);
#466=EDGE_CURVE('',#667,#668,#801,.T.);
#467=EDGE_CURVE('',#667,#669,#802,.T.);
#468=EDGE_CURVE('',#669,#670,#803,.T.);
#469=EDGE_CURVE('',#671,#670,#804,.T.);
#470=EDGE_CURVE('',#671,#668,#28,.T.);
#471=EDGE_CURVE('',#672,#673,#24,.T.);
#472=EDGE_CURVE('',#674,#673,#805,.T.);
#473=EDGE_CURVE('',#674,#660,#806,.T.);
#474=EDGE_CURVE('',#675,#659,#807,.T.);
#475=EDGE_CURVE('',#676,#675,#808,.T.);
#476=EDGE_CURVE('',#677,#676,#25,.F.);
#477=EDGE_CURVE('',#678,#677,#809,.T.);
#478=EDGE_CURVE('',#679,#678,#810,.T.);
#479=EDGE_CURVE('',#680,#679,#811,.T.);
#480=EDGE_CURVE('',#681,#680,#812,.F.);
#481=EDGE_CURVE('',#672,#681,#813,.F.);
#482=EDGE_CURVE('',#682,#671,#29,.T.);
#483=EDGE_CURVE('',#682,#683,#814,.T.);
#484=EDGE_CURVE('',#677,#683,#26,.F.);
#485=EDGE_CURVE('',#684,#676,#815,.T.);
#486=EDGE_CURVE('',#668,#684,#30,.T.);
#487=EDGE_CURVE('',#685,#686,#816,.T.);
#488=EDGE_CURVE('',#685,#667,#817,.T.);
#489=EDGE_CURVE('',#668,#687,#818,.T.);
#490=EDGE_CURVE('',#687,#686,#819,.T.);
#491=EDGE_CURVE('',#688,#689,#820,.T.);
#492=EDGE_CURVE('',#688,#690,#821,.T.);
#493=EDGE_CURVE('',#690,#691,#822,.T.);
#494=EDGE_CURVE('',#689,#691,#823,.T.);
#495=EDGE_CURVE('',#669,#688,#824,.T.);
#496=EDGE_CURVE('',#670,#689,#825,.T.);
#497=EDGE_CURVE('',#692,#693,#826,.T.);
#498=EDGE_CURVE('',#694,#692,#827,.T.);
#499=EDGE_CURVE('',#694,#695,#828,.T.);
#500=EDGE_CURVE('',#695,#696,#829,.T.);
#501=EDGE_CURVE('',#697,#696,#830,.T.);
#502=EDGE_CURVE('',#698,#697,#831,.T.);
#503=EDGE_CURVE('',#698,#699,#832,.T.);
#504=EDGE_CURVE('',#699,#700,#833,.T.);
#505=EDGE_CURVE('',#701,#700,#834,.T.);
#506=EDGE_CURVE('',#701,#702,#835,.T.);
#507=EDGE_CURVE('',#703,#702,#836,.T.);
#508=EDGE_CURVE('',#703,#704,#837,.F.);
#509=EDGE_CURVE('',#691,#704,#838,.T.);
#510=EDGE_CURVE('',#690,#705,#839,.T.);
#511=EDGE_CURVE('',#705,#693,#840,.T.);
#512=EDGE_CURVE('',#673,#706,#841,.F.);
#513=EDGE_CURVE('',#707,#672,#27,.F.);
#514=EDGE_CURVE('',#707,#708,#31,.T.);
#515=EDGE_CURVE('',#708,#709,#32,.T.);
#516=EDGE_CURVE('',#709,#706,#33,.T.);
#517=EDGE_CURVE('',#710,#711,#842,.T.);
#518=EDGE_CURVE('',#712,#710,#843,.T.);
#519=EDGE_CURVE('',#712,#713,#844,.T.);
#520=EDGE_CURVE('',#713,#711,#845,.T.);
#521=EDGE_CURVE('',#714,#715,#846,.T.);
#522=EDGE_CURVE('',#716,#714,#847,.T.);
#523=EDGE_CURVE('',#716,#717,#848,.T.);
#524=EDGE_CURVE('',#718,#717,#849,.T.);
#525=EDGE_CURVE('',#719,#718,#850,.T.);
#526=EDGE_CURVE('',#720,#719,#851,.T.);
#527=EDGE_CURVE('',#721,#720,#852,.T.);
#528=EDGE_CURVE('',#722,#721,#853,.T.);
#529=EDGE_CURVE('',#722,#723,#854,.T.);
#530=EDGE_CURVE('',#724,#723,#855,.T.);
#531=EDGE_CURVE('',#725,#724,#856,.T.);
#532=EDGE_CURVE('',#715,#725,#857,.F.);
#533=EDGE_CURVE('',#726,#727,#858,.T.);
#534=EDGE_CURVE('',#727,#728,#859,.T.);
#535=EDGE_CURVE('',#702,#728,#860,.T.);
#536=EDGE_CURVE('',#702,#726,#861,.T.);
#537=EDGE_CURVE('',#729,#710,#862,.T.);
#538=EDGE_CURVE('',#709,#729,#863,.T.);
#539=EDGE_CURVE('',#712,#708,#864,.T.);
#540=EDGE_CURVE('',#730,#731,#865,.T.);
#541=EDGE_CURVE('',#731,#732,#866,.T.);
#542=EDGE_CURVE('',#733,#732,#867,.T.);
#543=EDGE_CURVE('',#730,#733,#868,.T.);
#544=EDGE_CURVE('',#734,#707,#869,.T.);
#545=EDGE_CURVE('',#681,#735,#870,.T.);
#546=EDGE_CURVE('',#735,#734,#871,.T.);
#547=EDGE_CURVE('',#736,#736,#34,.F.);
#548=EDGE_CURVE('',#737,#737,#35,.F.);
#549=EDGE_CURVE('',#738,#738,#36,.F.);
#550=EDGE_CURVE('',#739,#739,#37,.F.);
#551=EDGE_CURVE('',#740,#740,#38,.F.);
#552=EDGE_CURVE('',#741,#741,#39,.F.);
#553=EDGE_CURVE('',#742,#742,#40,.F.);
#554=EDGE_CURVE('',#743,#743,#41,.F.);
#555=EDGE_CURVE('',#744,#745,#872,.T.);
#556=EDGE_CURVE('',#746,#745,#873,.T.);
#557=EDGE_CURVE('',#746,#747,#874,.T.);
#558=EDGE_CURVE('',#747,#685,#875,.T.);
#559=EDGE_CURVE('',#686,#748,#876,.T.);
#560=EDGE_CURVE('',#748,#749,#877,.T.);
#561=EDGE_CURVE('',#749,#718,#878,.T.);
#562=EDGE_CURVE('',#717,#750,#879,.T.);
#563=EDGE_CURVE('',#751,#750,#880,.F.);
#564=EDGE_CURVE('',#752,#751,#881,.T.);
#565=EDGE_CURVE('',#753,#752,#882,.T.);
#566=EDGE_CURVE('',#753,#666,#42,.F.);
#567=EDGE_CURVE('',#665,#754,#43,.F.);
#568=EDGE_CURVE('',#754,#755,#883,.T.);
#569=EDGE_CURVE('',#755,#735,#884,.T.);
#570=EDGE_CURVE('',#735,#756,#885,.T.);
#571=EDGE_CURVE('',#724,#756,#886,.T.);
#572=EDGE_CURVE('',#723,#757,#887,.T.);
#573=EDGE_CURVE('',#757,#758,#888,.T.);
#574=EDGE_CURVE('',#758,#744,#889,.T.);
#575=EDGE_CURVE('',#759,#759,#44,.T.);
#576=EDGE_CURVE('',#760,#760,#45,.T.);
#577=EDGE_CURVE('',#761,#679,#890,.F.);
#578=EDGE_CURVE('',#762,#761,#891,.T.);
#579=EDGE_CURVE('',#763,#762,#892,.T.);
#580=EDGE_CURVE('',#763,#764,#893,.T.);
#581=EDGE_CURVE('',#764,#680,#894,.T.);
#582=EDGE_CURVE('',#764,#765,#895,.F.);
#583=EDGE_CURVE('',#763,#766,#896,.F.);
#584=EDGE_CURVE('',#766,#715,#897,.T.);
#585=EDGE_CURVE('',#725,#765,#898,.T.);
#586=EDGE_CURVE('',#765,#756,#899,.T.);
#587=EDGE_CURVE('',#716,#767,#900,.T.);
#588=EDGE_CURVE('',#750,#767,#901,.F.);
#589=EDGE_CURVE('',#683,#768,#902,.F.);
#590=EDGE_CURVE('',#768,#769,#903,.F.);
#591=EDGE_CURVE('',#769,#751,#904,.F.);
#592=EDGE_CURVE('',#678,#751,#905,.T.);
#593=EDGE_CURVE('',#761,#767,#906,.F.);
#594=EDGE_CURVE('',#770,#714,#907,.T.);
#595=EDGE_CURVE('',#770,#762,#908,.T.);
#596=EDGE_CURVE('',#769,#752,#909,.T.);
#597=EDGE_CURVE('',#771,#768,#910,.F.);
#598=EDGE_CURVE('',#771,#753,#911,.T.);
#599=EDGE_CURVE('',#754,#772,#912,.F.);
#600=EDGE_CURVE('',#772,#707,#913,.T.);
#601=EDGE_CURVE('',#734,#755,#914,.T.);
#602=EDGE_CURVE('',#773,#773,#46,.T.);
#603=EDGE_CURVE('',#774,#774,#47,.T.);
#604=EDGE_CURVE('',#775,#775,#48,.T.);
#605=EDGE_CURVE('',#776,#776,#49,.T.);
#606=EDGE_CURVE('',#772,#664,#50,.T.);
#607=EDGE_CURVE('',#663,#771,#51,.T.);
#608=EDGE_CURVE('',#768,#682,#915,.T.);
#609=EDGE_CURVE('',#687,#671,#916,.T.);
#610=EDGE_CURVE('',#684,#777,#917,.T.);
#611=EDGE_CURVE('',#777,#778,#918,.T.);
#612=EDGE_CURVE('',#779,#778,#919,.T.);
#613=EDGE_CURVE('',#779,#662,#920,.T.);
#614=EDGE_CURVE('',#780,#661,#921,.T.);
#615=EDGE_CURVE('',#780,#706,#922,.T.);
#616=EDGE_CURVE('',#781,#709,#923,.T.);
#617=EDGE_CURVE('',#708,#781,#924,.T.);
#618=EDGE_CURVE('',#782,#783,#925,.T.);
#619=EDGE_CURVE('',#782,#784,#926,.T.);
#620=EDGE_CURVE('',#784,#785,#927,.T.);
#621=EDGE_CURVE('',#783,#785,#928,.T.);
#622=EDGE_CURVE('',#722,#782,#929,.T.);
#623=EDGE_CURVE('',#783,#757,#930,.T.);
#624=EDGE_CURVE('',#733,#749,#931,.T.);
#625=EDGE_CURVE('',#732,#719,#932,.T.);
#626=EDGE_CURVE('',#670,#748,#933,.T.);
#627=EDGE_CURVE('',#704,#730,#934,.F.);
#628=EDGE_CURVE('',#745,#729,#935,.T.);
#629=EDGE_CURVE('',#781,#744,#936,.T.);
#630=EDGE_CURVE('',#712,#758,#937,.T.);
#631=EDGE_CURVE('',#785,#699,#938,.T.);
#632=EDGE_CURVE('',#713,#698,#939,.T.);
#633=EDGE_CURVE('',#732,#727,#940,.T.);
#634=EDGE_CURVE('',#726,#720,#941,.T.);
#635=EDGE_CURVE('',#786,#701,#942,.T.);
#636=EDGE_CURVE('',#786,#721,#943,.T.);
#637=EDGE_CURVE('',#787,#786,#944,.T.);
#638=EDGE_CURVE('',#787,#782,#945,.T.);
#639=EDGE_CURVE('',#701,#788,#946,.T.);
#640=EDGE_CURVE('',#788,#787,#947,.T.);
#641=EDGE_CURVE('',#711,#697,#948,.T.);
#642=EDGE_CURVE('',#700,#788,#949,.T.);
#643=EDGE_CURVE('',#728,#703,#950,.T.);
#644=EDGE_CURVE('',#731,#728,#951,.T.);
#645=EDGE_CURVE('',#788,#784,#952,.F.);
#646=EDGE_CURVE('',#789,#789,#52,.F.);
#647=EDGE_CURVE('',#790,#790,#53,.F.);
#648=EDGE_CURVE('',#770,#766,#953,.T.);
#649=EDGE_CURVE('',#692,#657,#954,.T.);
#650=EDGE_CURVE('',#778,#693,#955,.T.);
#651=EDGE_CURVE('',#777,#675,#956,.T.);
#652=EDGE_CURVE('',#780,#674,#957,.T.);
#653=EDGE_CURVE('',#746,#696,#958,.T.);
#654=EDGE_CURVE('',#747,#705,#959,.T.);
#655=EDGE_CURVE('',#779,#695,#960,.T.);
#656=EDGE_CURVE('',#694,#658,#961,.T.);
#657=VERTEX_POINT('',#1945);
#658=VERTEX_POINT('',#1946);
#659=VERTEX_POINT('',#1948);
#660=VERTEX_POINT('',#1950);
#661=VERTEX_POINT('',#1952);
#662=VERTEX_POINT('',#1954);
#663=VERTEX_POINT('',#1958);
#664=VERTEX_POINT('',#1959);
#665=VERTEX_POINT('',#1961);
#666=VERTEX_POINT('',#1963);
#667=VERTEX_POINT('',#1967);
#668=VERTEX_POINT('',#1968);
#669=VERTEX_POINT('',#1970);
#670=VERTEX_POINT('',#1972);
#671=VERTEX_POINT('',#1974);
#672=VERTEX_POINT('',#1978);
#673=VERTEX_POINT('',#1979);
#674=VERTEX_POINT('',#1981);
#675=VERTEX_POINT('',#1984);
#676=VERTEX_POINT('',#1986);
#677=VERTEX_POINT('',#1988);
#678=VERTEX_POINT('',#1990);
#679=VERTEX_POINT('',#1992);
#680=VERTEX_POINT('',#1994);
#681=VERTEX_POINT('',#1996);
#682=VERTEX_POINT('',#2000);
#683=VERTEX_POINT('',#2002);
#684=VERTEX_POINT('',#2005);
#685=VERTEX_POINT('',#2009);
#686=VERTEX_POINT('',#2010);
#687=VERTEX_POINT('',#2013);
#688=VERTEX_POINT('',#2017);
#689=VERTEX_POINT('',#2018);
#690=VERTEX_POINT('',#2020);
#691=VERTEX_POINT('',#2022);
#692=VERTEX_POINT('',#2029);
#693=VERTEX_POINT('',#2030);
#694=VERTEX_POINT('',#2032);
#695=VERTEX_POINT('',#2034);
#696=VERTEX_POINT('',#2036);
#697=VERTEX_POINT('',#2038);
#698=VERTEX_POINT('',#2040);
#699=VERTEX_POINT('',#2042);
#700=VERTEX_POINT('',#2044);
#701=VERTEX_POINT('',#2046);
#702=VERTEX_POINT('',#2048);
#703=VERTEX_POINT('',#2050);
#704=VERTEX_POINT('',#2052);
#705=VERTEX_POINT('',#2055);
#706=VERTEX_POINT('',#2059);
#707=VERTEX_POINT('',#2061);
#708=VERTEX_POINT('',#2063);
#709=VERTEX_POINT('',#2065);
#710=VERTEX_POINT('',#2069);
#711=VERTEX_POINT('',#2070);
#712=VERTEX_POINT('',#2072);
#713=VERTEX_POINT('',#2074);
#714=VERTEX_POINT('',#2078);
#715=VERTEX_POINT('',#2079);
#716=VERTEX_POINT('',#2081);
#717=VERTEX_POINT('',#2083);
#718=VERTEX_POINT('',#2085);
#719=VERTEX_POINT('',#2087);
#720=VERTEX_POINT('',#2089);
#721=VERTEX_POINT('',#2091);
#722=VERTEX_POINT('',#2093);
#723=VERTEX_POINT('',#2095);
#724=VERTEX_POINT('',#2097);
#725=VERTEX_POINT('',#2099);
#726=VERTEX_POINT('',#2103);
#727=VERTEX_POINT('',#2104);
#728=VERTEX_POINT('',#2106);
#729=VERTEX_POINT('',#2111);
#730=VERTEX_POINT('',#2116);
#731=VERTEX_POINT('',#2117);
#732=VERTEX_POINT('',#2119);
#733=VERTEX_POINT('',#2121);
#734=VERTEX_POINT('',#2125);
#735=VERTEX_POINT('',#2127);
#736=VERTEX_POINT('',#2131);
#737=VERTEX_POINT('',#2133);
#738=VERTEX_POINT('',#2136);
#739=VERTEX_POINT('',#2138);
#740=VERTEX_POINT('',#2141);
#741=VERTEX_POINT('',#2143);
#742=VERTEX_POINT('',#2145);
#743=VERTEX_POINT('',#2147);
#744=VERTEX_POINT('',#2149);
#745=VERTEX_POINT('',#2150);
#746=VERTEX_POINT('',#2152);
#747=VERTEX_POINT('',#2154);
#748=VERTEX_POINT('',#2157);
#749=VERTEX_POINT('',#2159);
#750=VERTEX_POINT('',#2162);
#751=VERTEX_POINT('',#2164);
#752=VERTEX_POINT('',#2166);
#753=VERTEX_POINT('',#2168);
#754=VERTEX_POINT('',#2171);
#755=VERTEX_POINT('',#2173);
#756=VERTEX_POINT('',#2176);
#757=VERTEX_POINT('',#2179);
#758=VERTEX_POINT('',#2181);
#759=VERTEX_POINT('',#2185);
#760=VERTEX_POINT('',#2187);
#761=VERTEX_POINT('',#2189);
#762=VERTEX_POINT('',#2191);
#763=VERTEX_POINT('',#2193);
#764=VERTEX_POINT('',#2195);
#765=VERTEX_POINT('',#2199);
#766=VERTEX_POINT('',#2201);
#767=VERTEX_POINT('',#2208);
#768=VERTEX_POINT('',#2213);
#769=VERTEX_POINT('',#2215);
#770=VERTEX_POINT('',#2222);
#771=VERTEX_POINT('',#2228);
#772=VERTEX_POINT('',#2232);
#773=VERTEX_POINT('',#2238);
#774=VERTEX_POINT('',#2240);
#775=VERTEX_POINT('',#2242);
#776=VERTEX_POINT('',#2244);
#777=VERTEX_POINT('',#2250);
#778=VERTEX_POINT('',#2252);
#779=VERTEX_POINT('',#2254);
#780=VERTEX_POINT('',#2257);
#781=VERTEX_POINT('',#2260);
#782=VERTEX_POINT('',#2266);
#783=VERTEX_POINT('',#2267);
#784=VERTEX_POINT('',#2269);
#785=VERTEX_POINT('',#2271);
#786=VERTEX_POINT('',#2296);
#787=VERTEX_POINT('',#2300);
#788=VERTEX_POINT('',#2304);
#789=VERTEX_POINT('',#2320);
#790=VERTEX_POINT('',#2322);
#791=LINE('',#1944,#962);
#792=LINE('',#1947,#963);
#793=LINE('',#1949,#964);
#794=LINE('',#1951,#965);
#795=LINE('',#1953,#966);
#796=LINE('',#1955,#967);
#797=LINE('',#1957,#968);
#798=LINE('',#1960,#969);
#799=LINE('',#1962,#970);
#800=LINE('',#1964,#971);
#801=LINE('',#1966,#972);
#802=LINE('',#1969,#973);
#803=LINE('',#1971,#974);
#804=LINE('',#1973,#975);
#805=LINE('',#1980,#976);
#806=LINE('',#1982,#977);
#807=LINE('',#1983,#978);
#808=LINE('',#1985,#979);
#809=LINE('',#1989,#980);
#810=LINE('',#1991,#981);
#811=LINE('',#1993,#982);
#812=LINE('',#1995,#983);
#813=LINE('',#1997,#984);
#814=LINE('',#2001,#985);
#815=LINE('',#2004,#986);
#816=LINE('',#2008,#987);
#817=LINE('',#2011,#988);
#818=LINE('',#2012,#989);
#819=LINE('',#2014,#990);
#820=LINE('',#2016,#991);
#821=LINE('',#2019,#992);
#822=LINE('',#2021,#993);
#823=LINE('',#2023,#994);
#824=LINE('',#2025,#995);
#825=LINE('',#2026,#996);
#826=LINE('',#2028,#997);
#827=LINE('',#2031,#998);
#828=LINE('',#2033,#999);
#829=LINE('',#2035,#1000);
#830=LINE('',#2037,#1001);
#831=LINE('',#2039,#1002);
#832=LINE('',#2041,#1003);
#833=LINE('',#2043,#1004);
#834=LINE('',#2045,#1005);
#835=LINE('',#2047,#1006);
#836=LINE('',#2049,#1007);
#837=LINE('',#2051,#1008);
#838=LINE('',#2053,#1009);
#839=LINE('',#2054,#1010);
#840=LINE('',#2056,#1011);
#841=LINE('',#2058,#1012);
#842=LINE('',#2068,#1013);
#843=LINE('',#2071,#1014);
#844=LINE('',#2073,#1015);
#845=LINE('',#2075,#1016);
#846=LINE('',#2077,#1017);
#847=LINE('',#2080,#1018);
#848=LINE('',#2082,#1019);
#849=LINE('',#2084,#1020);
#850=LINE('',#2086,#1021);
#851=LINE('',#2088,#1022);
#852=LINE('',#2090,#1023);
#853=LINE('',#2092,#1024);
#854=LINE('',#2094,#1025);
#855=LINE('',#2096,#1026);
#856=LINE('',#2098,#1027);
#857=LINE('',#2100,#1028);
#858=LINE('',#2102,#1029);
#859=LINE('',#2105,#1030);
#860=LINE('',#2107,#1031);
#861=LINE('',#2108,#1032);
#862=LINE('',#2110,#1033);
#863=LINE('',#2112,#1034);
#864=LINE('',#2113,#1035);
#865=LINE('',#2115,#1036);
#866=LINE('',#2118,#1037);
#867=LINE('',#2120,#1038);
#868=LINE('',#2122,#1039);
#869=LINE('',#2124,#1040);
#870=LINE('',#2126,#1041);
#871=LINE('',#2128,#1042);
#872=LINE('',#2148,#1043);
#873=LINE('',#2151,#1044);
#874=LINE('',#2153,#1045);
#875=LINE('',#2155,#1046);
#876=LINE('',#2156,#1047);
#877=LINE('',#2158,#1048);
#878=LINE('',#2160,#1049);
#879=LINE('',#2161,#1050);
#880=LINE('',#2163,#1051);
#881=LINE('',#2165,#1052);
#882=LINE('',#2167,#1053);
#883=LINE('',#2172,#1054);
#884=LINE('',#2174,#1055);
#885=LINE('',#2175,#1056);
#886=LINE('',#2177,#1057);
#887=LINE('',#2178,#1058);
#888=LINE('',#2180,#1059);
#889=LINE('',#2182,#1060);
#890=LINE('',#2188,#1061);
#891=LINE('',#2190,#1062);
#892=LINE('',#2192,#1063);
#893=LINE('',#2194,#1064);
#894=LINE('',#2196,#1065);
#895=LINE('',#2198,#1066);
#896=LINE('',#2200,#1067);
#897=LINE('',#2202,#1068);
#898=LINE('',#2203,#1069);
#899=LINE('',#2205,#1070);
#900=LINE('',#2207,#1071);
#901=LINE('',#2209,#1072);
#902=LINE('',#2212,#1073);
#903=LINE('',#2214,#1074);
#904=LINE('',#2216,#1075);
#905=LINE('',#2217,#1076);
#906=LINE('',#2219,#1077);
#907=LINE('',#2221,#1078);
#908=LINE('',#2223,#1079);
#909=LINE('',#2225,#1080);
#910=LINE('',#2227,#1081);
#911=LINE('',#2229,#1082);
#912=LINE('',#2231,#1083);
#913=LINE('',#2233,#1084);
#914=LINE('',#2234,#1085);
#915=LINE('',#2247,#1086);
#916=LINE('',#2248,#1087);
#917=LINE('',#2249,#1088);
#918=LINE('',#2251,#1089);
#919=LINE('',#2253,#1090);
#920=LINE('',#2255,#1091);
#921=LINE('',#2256,#1092);
#922=LINE('',#2258,#1093);
#923=LINE('',#2259,#1094);
#924=LINE('',#2261,#1095);
#925=LINE('',#2265,#1096);
#926=LINE('',#2268,#1097);
#927=LINE('',#2270,#1098);
#928=LINE('',#2272,#1099);
#929=LINE('',#2274,#1100);
#930=LINE('',#2275,#1101);
#931=LINE('',#2277,#1102);
#932=LINE('',#2278,#1103);
#933=LINE('',#2280,#1104);
#934=LINE('',#2281,#1105);
#935=LINE('',#2284,#1106);
#936=LINE('',#2285,#1107);
#937=LINE('',#2287,#1108);
#938=LINE('',#2289,#1109);
#939=LINE('',#2290,#1110);
#940=LINE('',#2292,#1111);
#941=LINE('',#2293,#1112);
#942=LINE('',#2295,#1113);
#943=LINE('',#2297,#1114);
#944=LINE('',#2299,#1115);
#945=LINE('',#2301,#1116);
#946=LINE('',#2303,#1117);
#947=LINE('',#2305,#1118);
#948=LINE('',#2307,#1119);
#949=LINE('',#2309,#1120);
#950=LINE('',#2311,#1121);
#951=LINE('',#2313,#1122);
#952=LINE('',#2316,#1123);
#953=LINE('',#2323,#1124);
#954=LINE('',#2328,#1125);
#955=LINE('',#2329,#1126);
#956=LINE('',#2330,#1127);
#957=LINE('',#2332,#1128);
#958=LINE('',#2334,#1129);
#959=LINE('',#2336,#1130);
#960=LINE('',#2337,#1131);
#961=LINE('',#2343,#1132);
#962=VECTOR('',#1571,1.);
#963=VECTOR('',#1572,1.);
#964=VECTOR('',#1573,1.);
#965=VECTOR('',#1574,1.);
#966=VECTOR('',#1575,1.);
#967=VECTOR('',#1576,1.);
#968=VECTOR('',#1579,1.);
#969=VECTOR('',#1580,1.);
#970=VECTOR('',#1581,1.);
#971=VECTOR('',#1582,1.);
#972=VECTOR('',#1585,1.);
#973=VECTOR('',#1586,1.);
#974=VECTOR('',#1587,1.);
#975=VECTOR('',#1588,1.);
#976=VECTOR('',#1595,1.);
#977=VECTOR('',#1596,1.);
#978=VECTOR('',#1597,1.);
#979=VECTOR('',#1598,1.);
#980=VECTOR('',#1601,1.);
#981=VECTOR('',#1602,1.);
#982=VECTOR('',#1603,1.);
#983=VECTOR('',#1604,1.);
#984=VECTOR('',#1605,1.);
#985=VECTOR('',#1610,1.);
#986=VECTOR('',#1613,1.);
#987=VECTOR('',#1618,1.);
#988=VECTOR('',#1619,1.);
#989=VECTOR('',#1620,1.);
#990=VECTOR('',#1621,1.);
#991=VECTOR('',#1624,1.);
#992=VECTOR('',#1625,1.);
#993=VECTOR('',#1626,1.);
#994=VECTOR('',#1627,1.);
#995=VECTOR('',#1630,1.);
#996=VECTOR('',#1631,1.);
#997=VECTOR('',#1634,1.);
#998=VECTOR('',#1635,1.);
#999=VECTOR('',#1636,1.);
#1000=VECTOR('',#1637,1.);
#1001=VECTOR('',#1638,1.);
#1002=VECTOR('',#1639,1.);
#1003=VECTOR('',#1640,1.);
#1004=VECTOR('',#1641,1.);
#1005=VECTOR('',#1642,1.);
#1006=VECTOR('',#1643,1.);
#1007=VECTOR('',#1644,1.);
#1008=VECTOR('',#1645,1.);
#1009=VECTOR('',#1646,1.);
#1010=VECTOR('',#1647,1.);
#1011=VECTOR('',#1648,1.);
#1012=VECTOR('',#1651,1.);
#1013=VECTOR('',#1662,1.);
#1014=VECTOR('',#1663,1.);
#1015=VECTOR('',#1664,1.);
#1016=VECTOR('',#1665,1.);
#1017=VECTOR('',#1668,1.);
#1018=VECTOR('',#1669,1.);
#1019=VECTOR('',#1670,1.);
#1020=VECTOR('',#1671,1.);
#1021=VECTOR('',#1672,1.);
#1022=VECTOR('',#1673,1.);
#1023=VECTOR('',#1674,1.);
#1024=VECTOR('',#1675,1.);
#1025=VECTOR('',#1676,1.);
#1026=VECTOR('',#1677,1.);
#1027=VECTOR('',#1678,1.);
#1028=VECTOR('',#1679,1.);
#1029=VECTOR('',#1682,1.);
#1030=VECTOR('',#1683,1.);
#1031=VECTOR('',#1684,1.);
#1032=VECTOR('',#1685,1.);
#1033=VECTOR('',#1688,1.);
#1034=VECTOR('',#1689,1.);
#1035=VECTOR('',#1690,1.);
#1036=VECTOR('',#1693,1.);
#1037=VECTOR('',#1694,1.);
#1038=VECTOR('',#1695,1.);
#1039=VECTOR('',#1696,1.);
#1040=VECTOR('',#1699,1.);
#1041=VECTOR('',#1700,1.);
#1042=VECTOR('',#1701,1.);
#1043=VECTOR('',#1724,1.);
#1044=VECTOR('',#1725,1.);
#1045=VECTOR('',#1726,1.);
#1046=VECTOR('',#1727,1.);
#1047=VECTOR('',#1728,1.);
#1048=VECTOR('',#1729,1.);
#1049=VECTOR('',#1730,1.);
#1050=VECTOR('',#1731,1.);
#1051=VECTOR('',#1732,1.);
#1052=VECTOR('',#1733,1.);
#1053=VECTOR('',#1734,1.);
#1054=VECTOR('',#1739,1.);
#1055=VECTOR('',#1740,1.);
#1056=VECTOR('',#1741,1.);
#1057=VECTOR('',#1742,1.);
#1058=VECTOR('',#1743,1.);
#1059=VECTOR('',#1744,1.);
#1060=VECTOR('',#1745,1.);
#1061=VECTOR('',#1752,1.);
#1062=VECTOR('',#1753,1.);
#1063=VECTOR('',#1754,1.);
#1064=VECTOR('',#1755,1.);
#1065=VECTOR('',#1756,1.);
#1066=VECTOR('',#1759,1.);
#1067=VECTOR('',#1760,1.);
#1068=VECTOR('',#1761,1.);
#1069=VECTOR('',#1762,1.);
#1070=VECTOR('',#1765,1.);
#1071=VECTOR('',#1768,1.);
#1072=VECTOR('',#1769,1.);
#1073=VECTOR('',#1774,1.);
#1074=VECTOR('',#1775,1.);
#1075=VECTOR('',#1776,1.);
#1076=VECTOR('',#1777,1.);
#1077=VECTOR('',#1780,1.);
#1078=VECTOR('',#1783,1.);
#1079=VECTOR('',#1784,1.);
#1080=VECTOR('',#1787,1.);
#1081=VECTOR('',#1790,1.);
#1082=VECTOR('',#1791,1.);
#1083=VECTOR('',#1794,1.);
#1084=VECTOR('',#1795,1.);
#1085=VECTOR('',#1796,1.);
#1086=VECTOR('',#1813,1.);
#1087=VECTOR('',#1814,1.);
#1088=VECTOR('',#1815,1.);
#1089=VECTOR('',#1816,1.);
#1090=VECTOR('',#1817,1.);
#1091=VECTOR('',#1818,1.);
#1092=VECTOR('',#1819,1.);
#1093=VECTOR('',#1820,1.);
#1094=VECTOR('',#1821,1.);
#1095=VECTOR('',#1822,1.);
#1096=VECTOR('',#1829,1.);
#1097=VECTOR('',#1830,1.);
#1098=VECTOR('',#1831,1.);
#1099=VECTOR('',#1832,1.);
#1100=VECTOR('',#1835,1.);
#1101=VECTOR('',#1836,1.);
#1102=VECTOR('',#1839,1.);
#1103=VECTOR('',#1840,1.);
#1104=VECTOR('',#1843,1.);
#1105=VECTOR('',#1844,1.);
#1106=VECTOR('',#1849,1.);
#1107=VECTOR('',#1850,1.);
#1108=VECTOR('',#1853,1.);
#1109=VECTOR('',#1856,1.);
#1110=VECTOR('',#1857,1.);
#1111=VECTOR('',#1860,1.);
#1112=VECTOR('',#1861,1.);
#1113=VECTOR('',#1864,1.);
#1114=VECTOR('',#1865,1.);
#1115=VECTOR('',#1868,1.);
#1116=VECTOR('',#1869,1.);
#1117=VECTOR('',#1872,1.);
#1118=VECTOR('',#1873,1.);
#1119=VECTOR('',#1876,1.);
#1120=VECTOR('',#1879,1.);
#1121=VECTOR('',#1882,1.);
#1122=VECTOR('',#1885,1.);
#1123=VECTOR('',#1890,1.);
#1124=VECTOR('',#1899,1.);
#1125=VECTOR('',#1908,1.);
#1126=VECTOR('',#1909,1.);
#1127=VECTOR('',#1910,1.);
#1128=VECTOR('',#1913,1.);
#1129=VECTOR('',#1916,1.);
#1130=VECTOR('',#1919,1.);
#1131=VECTOR('',#1920,1.);
#1132=VECTOR('',#1931,1.);
#1133=EDGE_LOOP('',(#54,#55,#56,#57,#58,#59));
#1134=EDGE_LOOP('',(#60,#61,#62,#63));
#1135=EDGE_LOOP('',(#64,#65,#66,#67,#68));
#1136=EDGE_LOOP('',(#69,#70,#71,#72,#73,#74,#75,#76,#77,#78,#79,#80));
#1137=EDGE_LOOP('',(#81,#82,#83,#84,#85,#86,#87));
#1138=EDGE_LOOP('',(#88,#89,#90,#91,#92));
#1139=EDGE_LOOP('',(#93,#94,#95,#96));
#1140=EDGE_LOOP('',(#97,#98,#99,#100));
#1141=EDGE_LOOP('',(#101,#102,#103,#104,#105,#106,#107,#108,#109,#110,#111,
#112,#113,#114,#115,#116));
#1142=EDGE_LOOP('',(#117,#118,#119,#120,#121,#122));
#1143=EDGE_LOOP('',(#123,#124,#125,#126));
#1144=EDGE_LOOP('',(#127,#128,#129,#130,#131,#132,#133,#134,#135,#136,#137,
#138));
#1145=EDGE_LOOP('',(#139,#140,#141,#142));
#1146=EDGE_LOOP('',(#143,#144,#145,#146,#147));
#1147=EDGE_LOOP('',(#148,#149,#150,#151));
#1148=EDGE_LOOP('',(#152,#153,#154,#155,#156));
#1149=EDGE_LOOP('',(#157));
#1150=EDGE_LOOP('',(#158));
#1151=EDGE_LOOP('',(#159));
#1152=EDGE_LOOP('',(#160));
#1153=EDGE_LOOP('',(#161));
#1154=EDGE_LOOP('',(#162));
#1155=EDGE_LOOP('',(#163));
#1156=EDGE_LOOP('',(#164));
#1157=EDGE_LOOP('',(#165,#166,#167,#168,#169,#170,#171,#172,#173,#174,#175,
#176,#177,#178,#179,#180,#181,#182,#183,#184,#185,#186,#187,#188));
#1158=EDGE_LOOP('',(#189));
#1159=EDGE_LOOP('',(#190));
#1160=EDGE_LOOP('',(#191));
#1161=EDGE_LOOP('',(#192));
#1162=EDGE_LOOP('',(#193,#194,#195,#196,#197,#198));
#1163=EDGE_LOOP('',(#199,#200,#201,#202,#203,#204));
#1164=EDGE_LOOP('',(#205,#206,#207,#208));
#1165=EDGE_LOOP('',(#209,#210,#211,#212));
#1166=EDGE_LOOP('',(#213,#214,#215,#216,#217,#218));
#1167=EDGE_LOOP('',(#219,#220,#221,#222,#223,#224));
#1168=EDGE_LOOP('',(#225,#226,#227,#228,#229,#230));
#1169=EDGE_LOOP('',(#231,#232,#233,#234,#235,#236));
#1170=EDGE_LOOP('',(#237,#238,#239));
#1171=EDGE_LOOP('',(#240,#241,#242,#243,#244));
#1172=EDGE_LOOP('',(#245,#246,#247,#248,#249));
#1173=EDGE_LOOP('',(#250,#251,#252));
#1174=EDGE_LOOP('',(#253));
#1175=EDGE_LOOP('',(#254));
#1176=EDGE_LOOP('',(#255));
#1177=EDGE_LOOP('',(#256));
#1178=EDGE_LOOP('',(#257,#258,#259,#260,#261,#262,#263,#264,#265,#266,#267,
#268,#269,#270,#271,#272,#273,#274,#275,#276,#277));
#1179=EDGE_LOOP('',(#278));
#1180=EDGE_LOOP('',(#279));
#1181=EDGE_LOOP('',(#280,#281,#282,#283));
#1182=EDGE_LOOP('',(#284,#285,#286,#287));
#1183=EDGE_LOOP('',(#288,#289,#290,#291));
#1184=EDGE_LOOP('',(#292,#293,#294,#295,#296));
#1185=EDGE_LOOP('',(#297,#298,#299,#300,#301));
#1186=EDGE_LOOP('',(#302,#303,#304,#305,#306,#307,#308,#309));
#1187=EDGE_LOOP('',(#310,#311,#312,#313,#314));
#1188=EDGE_LOOP('',(#315,#316,#317,#318,#319));
#1189=EDGE_LOOP('',(#320,#321,#322,#323,#324));
#1190=EDGE_LOOP('',(#325,#326,#327,#328,#329,#330,#331,#332));
#1191=EDGE_LOOP('',(#333,#334,#335,#336,#337));
#1192=EDGE_LOOP('',(#338,#339,#340,#341,#342,#343));
#1193=EDGE_LOOP('',(#344,#345,#346,#347,#348));
#1194=EDGE_LOOP('',(#349,#350,#351,#352));
#1195=EDGE_LOOP('',(#353,#354,#355,#356));
#1196=EDGE_LOOP('',(#357,#358,#359));
#1197=EDGE_LOOP('',(#360,#361,#362));
#1198=EDGE_LOOP('',(#363,#364,#365,#366,#367));
#1199=EDGE_LOOP('',(#368,#369,#370,#371));
#1200=EDGE_LOOP('',(#372,#373,#374,#375,#376));
#1201=EDGE_LOOP('',(#377,#378,#379,#380));
#1202=EDGE_LOOP('',(#381));
#1203=EDGE_LOOP('',(#382));
#1204=EDGE_LOOP('',(#383,#384,#385,#386));
#1205=EDGE_LOOP('',(#387,#388,#389,#390));
#1206=EDGE_LOOP('',(#391));
#1207=EDGE_LOOP('',(#392));
#1208=EDGE_LOOP('',(#393));
#1209=EDGE_LOOP('',(#394));
#1210=EDGE_LOOP('',(#395,#396,#397,#398,#399,#400,#401));
#1211=EDGE_LOOP('',(#402,#403,#404,#405));
#1212=EDGE_LOOP('',(#406,#407,#408,#409,#410,#411,#412));
#1213=EDGE_LOOP('',(#413,#414,#415,#416,#417,#418,#419,#420));
#1214=EDGE_LOOP('',(#421,#422,#423,#424,#425,#426,#427));
#1215=EDGE_LOOP('',(#428,#429,#430,#431));
#1216=EDGE_LOOP('',(#432,#433,#434,#435));
#1217=EDGE_LOOP('',(#436,#437,#438));
#1218=EDGE_LOOP('',(#439,#440,#441,#442));
#1219=EDGE_LOOP('',(#443,#444,#445,#446,#447));
#1220=EDGE_LOOP('',(#448));
#1221=EDGE_LOOP('',(#449));
#1222=EDGE_LOOP('',(#450));
#1223=EDGE_LOOP('',(#451));
#1224=EDGE_LOOP('',(#452));
#1225=EDGE_LOOP('',(#453));
#1226=EDGE_LOOP('',(#454));
#1227=EDGE_LOOP('',(#455));
#1228=FACE_BOUND('',#1133,.T.);
#1229=FACE_BOUND('',#1134,.T.);
#1230=FACE_BOUND('',#1135,.T.);
#1231=FACE_BOUND('',#1136,.T.);
#1232=FACE_BOUND('',#1137,.T.);
#1233=FACE_BOUND('',#1138,.T.);
#1234=FACE_BOUND('',#1139,.T.);
#1235=FACE_BOUND('',#1140,.T.);
#1236=FACE_BOUND('',#1141,.T.);
#1237=FACE_BOUND('',#1142,.T.);
#1238=FACE_BOUND('',#1143,.T.);
#1239=FACE_BOUND('',#1144,.T.);
#1240=FACE_BOUND('',#1145,.T.);
#1241=FACE_BOUND('',#1146,.T.);
#1242=FACE_BOUND('',#1147,.T.);
#1243=FACE_BOUND('',#1148,.T.);
#1244=FACE_BOUND('',#1149,.T.);
#1245=FACE_BOUND('',#1150,.T.);
#1246=FACE_BOUND('',#1151,.T.);
#1247=FACE_BOUND('',#1152,.T.);
#1248=FACE_BOUND('',#1153,.T.);
#1249=FACE_BOUND('',#1154,.T.);
#1250=FACE_BOUND('',#1155,.T.);
#1251=FACE_BOUND('',#1156,.T.);
#1252=FACE_BOUND('',#1157,.T.);
#1253=FACE_BOUND('',#1158,.T.);
#1254=FACE_BOUND('',#1159,.T.);
#1255=FACE_BOUND('',#1160,.T.);
#1256=FACE_BOUND('',#1161,.T.);
#1257=FACE_BOUND('',#1162,.T.);
#1258=FACE_BOUND('',#1163,.T.);
#1259=FACE_BOUND('',#1164,.T.);
#1260=FACE_BOUND('',#1165,.T.);
#1261=FACE_BOUND('',#1166,.T.);
#1262=FACE_BOUND('',#1167,.T.);
#1263=FACE_BOUND('',#1168,.T.);
#1264=FACE_BOUND('',#1169,.T.);
#1265=FACE_BOUND('',#1170,.T.);
#1266=FACE_BOUND('',#1171,.T.);
#1267=FACE_BOUND('',#1172,.T.);
#1268=FACE_BOUND('',#1173,.T.);
#1269=FACE_BOUND('',#1174,.T.);
#1270=FACE_BOUND('',#1175,.T.);
#1271=FACE_BOUND('',#1176,.T.);
#1272=FACE_BOUND('',#1177,.T.);
#1273=FACE_BOUND('',#1178,.T.);
#1274=FACE_BOUND('',#1179,.T.);
#1275=FACE_BOUND('',#1180,.T.);
#1276=FACE_BOUND('',#1181,.T.);
#1277=FACE_BOUND('',#1182,.T.);
#1278=FACE_BOUND('',#1183,.T.);
#1279=FACE_BOUND('',#1184,.T.);
#1280=FACE_BOUND('',#1185,.T.);
#1281=FACE_BOUND('',#1186,.T.);
#1282=FACE_BOUND('',#1187,.T.);
#1283=FACE_BOUND('',#1188,.T.);
#1284=FACE_BOUND('',#1189,.T.);
#1285=FACE_BOUND('',#1190,.T.);
#1286=FACE_BOUND('',#1191,.T.);
#1287=FACE_BOUND('',#1192,.T.);
#1288=FACE_BOUND('',#1193,.T.);
#1289=FACE_BOUND('',#1194,.T.);
#1290=FACE_BOUND('',#1195,.T.);
#1291=FACE_BOUND('',#1196,.T.);
#1292=FACE_BOUND('',#1197,.T.);
#1293=FACE_BOUND('',#1198,.T.);
#1294=FACE_BOUND('',#1199,.T.);
#1295=FACE_BOUND('',#1200,.T.);
#1296=FACE_BOUND('',#1201,.T.);
#1297=FACE_BOUND('',#1202,.T.);
#1298=FACE_BOUND('',#1203,.T.);
#1299=FACE_BOUND('',#1204,.T.);
#1300=FACE_BOUND('',#1205,.T.);
#1301=FACE_BOUND('',#1206,.T.);
#1302=FACE_BOUND('',#1207,.T.);
#1303=FACE_BOUND('',#1208,.T.);
#1304=FACE_BOUND('',#1209,.T.);
#1305=FACE_BOUND('',#1210,.T.);
#1306=FACE_BOUND('',#1211,.T.);
#1307=FACE_BOUND('',#1212,.T.);
#1308=FACE_BOUND('',#1213,.T.);
#1309=FACE_BOUND('',#1214,.T.);
#1310=FACE_BOUND('',#1215,.T.);
#1311=FACE_BOUND('',#1216,.T.);
#1312=FACE_BOUND('',#1217,.T.);
#1313=FACE_BOUND('',#1218,.T.);
#1314=FACE_BOUND('',#1219,.T.);
#1315=FACE_BOUND('',#1220,.T.);
#1316=FACE_BOUND('',#1221,.T.);
#1317=FACE_BOUND('',#1222,.T.);
#1318=FACE_BOUND('',#1223,.T.);
#1319=FACE_BOUND('',#1224,.T.);
#1320=FACE_BOUND('',#1225,.T.);
#1321=FACE_BOUND('',#1226,.T.);
#1322=FACE_BOUND('',#1227,.T.);
#1323=PLANE('',#1466);
#1324=PLANE('',#1467);
#1325=PLANE('',#1468);
#1326=PLANE('',#1470);
#1327=PLANE('',#1477);
#1328=PLANE('',#1478);
#1329=PLANE('',#1479);
#1330=PLANE('',#1480);
#1331=PLANE('',#1486);
#1332=PLANE('',#1487);
#1333=PLANE('',#1488);
#1334=PLANE('',#1489);
#1335=PLANE('',#1490);
#1336=PLANE('',#1491);
#1337=PLANE('',#1498);
#1338=PLANE('',#1505);
#1339=PLANE('',#1508);
#1340=PLANE('',#1509);
#1341=PLANE('',#1510);
#1342=PLANE('',#1511);
#1343=PLANE('',#1512);
#1344=PLANE('',#1513);
#1345=PLANE('',#1514);
#1346=PLANE('',#1515);
#1347=PLANE('',#1516);
#1348=PLANE('',#1517);
#1349=PLANE('',#1518);
#1350=PLANE('',#1519);
#1351=PLANE('',#1528);
#1352=PLANE('',#1529);
#1353=PLANE('',#1530);
#1354=PLANE('',#1531);
#1355=PLANE('',#1532);
#1356=PLANE('',#1533);
#1357=PLANE('',#1534);
#1358=PLANE('',#1535);
#1359=PLANE('',#1536);
#1360=PLANE('',#1537);
#1361=PLANE('',#1538);
#1362=PLANE('',#1539);
#1363=PLANE('',#1540);
#1364=PLANE('',#1541);
#1365=PLANE('',#1542);
#1366=PLANE('',#1543);
#1367=PLANE('',#1544);
#1368=PLANE('',#1545);
#1369=PLANE('',#1546);
#1370=PLANE('',#1547);
#1371=PLANE('',#1550);
#1372=PLANE('',#1553);
#1373=PLANE('',#1554);
#1374=PLANE('',#1555);
#1375=PLANE('',#1556);
#1376=PLANE('',#1557);
#1377=PLANE('',#1558);
#1378=PLANE('',#1559);
#1379=PLANE('',#1560);
#1380=PLANE('',#1561);
#1381=PLANE('',#1562);
#1382=ADVANCED_FACE('',(#1228),#1323,.F.);
#1383=ADVANCED_FACE('',(#1229),#1324,.T.);
#1384=ADVANCED_FACE('',(#1230),#1325,.T.);
#1385=ADVANCED_FACE('',(#1231),#1326,.F.);
#1386=ADVANCED_FACE('',(#1232),#12,.F.);
#1387=ADVANCED_FACE('',(#1233),#1327,.T.);
#1388=ADVANCED_FACE('',(#1234),#1328,.T.);
#1389=ADVANCED_FACE('',(#1235),#1329,.T.);
#1390=ADVANCED_FACE('',(#1236),#1330,.T.);
#1391=ADVANCED_FACE('',(#1237),#13,.F.);
#1392=ADVANCED_FACE('',(#1238),#1331,.T.);
#1393=ADVANCED_FACE('',(#1239),#1332,.F.);
#1394=ADVANCED_FACE('',(#1240),#1333,.F.);
#1395=ADVANCED_FACE('',(#1241),#1334,.T.);
#1396=ADVANCED_FACE('',(#1242),#1335,.T.);
#1397=ADVANCED_FACE('',(#1243),#1336,.T.);
#1398=ADVANCED_FACE('',(#1244,#1245),#14,.F.);
#1399=ADVANCED_FACE('',(#1246,#1247),#15,.F.);
#1400=ADVANCED_FACE('',(#1248,#1249,#1250,#1251,#1252,#1253,#1254),#1337,
 .F.);
#1401=ADVANCED_FACE('',(#1255,#1256,#1257),#1338,.T.);
#1402=ADVANCED_FACE('',(#1258),#1339,.T.);
#1403=ADVANCED_FACE('',(#1259),#1340,.F.);
#1404=ADVANCED_FACE('',(#1260),#1341,.T.);
#1405=ADVANCED_FACE('',(#1261),#1342,.T.);
#1406=ADVANCED_FACE('',(#1262),#1343,.T.);
#1407=ADVANCED_FACE('',(#1263),#1344,.T.);
#1408=ADVANCED_FACE('',(#1264),#1345,.F.);
#1409=ADVANCED_FACE('',(#1265),#1346,.F.);
#1410=ADVANCED_FACE('',(#1266),#1347,.F.);
#1411=ADVANCED_FACE('',(#1267),#1348,.T.);
#1412=ADVANCED_FACE('',(#1268),#1349,.T.);
#1413=ADVANCED_FACE('',(#1269,#1270,#1271,#1272,#1273,#1274,#1275),#1350,
 .T.);
#1414=ADVANCED_FACE('',(#1276),#16,.T.);
#1415=ADVANCED_FACE('',(#1277),#17,.T.);
#1416=ADVANCED_FACE('',(#1278),#1351,.T.);
#1417=ADVANCED_FACE('',(#1279),#1352,.T.);
#1418=ADVANCED_FACE('',(#1280),#1353,.T.);
#1419=ADVANCED_FACE('',(#1281),#1354,.T.);
#1420=ADVANCED_FACE('',(#1282),#1355,.T.);
#1421=ADVANCED_FACE('',(#1283),#1356,.T.);
#1422=ADVANCED_FACE('',(#1284),#1357,.T.);
#1423=ADVANCED_FACE('',(#1285),#1358,.T.);
#1424=ADVANCED_FACE('',(#1286),#1359,.F.);
#1425=ADVANCED_FACE('',(#1287),#1360,.F.);
#1426=ADVANCED_FACE('',(#1288),#1361,.F.);
#1427=ADVANCED_FACE('',(#1289),#1362,.F.);
#1428=ADVANCED_FACE('',(#1290),#1363,.T.);
#1429=ADVANCED_FACE('',(#1291),#1364,.F.);
#1430=ADVANCED_FACE('',(#1292),#1365,.T.);
#1431=ADVANCED_FACE('',(#1293),#1366,.F.);
#1432=ADVANCED_FACE('',(#1294),#1367,.T.);
#1433=ADVANCED_FACE('',(#1295),#1368,.T.);
#1434=ADVANCED_FACE('',(#1296),#1369,.T.);
#1435=ADVANCED_FACE('',(#1297,#1298,#1299),#1370,.F.);
#1436=ADVANCED_FACE('',(#1300),#1371,.T.);
#1437=ADVANCED_FACE('',(#1301,#1302),#18,.F.);
#1438=ADVANCED_FACE('',(#1303,#1304),#19,.F.);
#1439=ADVANCED_FACE('',(#1305),#1372,.F.);
#1440=ADVANCED_FACE('',(#1306),#1373,.T.);
#1441=ADVANCED_FACE('',(#1307),#1374,.T.);
#1442=ADVANCED_FACE('',(#1308),#1375,.F.);
#1443=ADVANCED_FACE('',(#1309),#1376,.F.);
#1444=ADVANCED_FACE('',(#1310),#1377,.F.);
#1445=ADVANCED_FACE('',(#1311),#1378,.F.);
#1446=ADVANCED_FACE('',(#1312),#1379,.F.);
#1447=ADVANCED_FACE('',(#1313),#1380,.F.);
#1448=ADVANCED_FACE('',(#1314),#1381,.T.);
#1449=ADVANCED_FACE('',(#1315,#1316),#20,.F.);
#1450=ADVANCED_FACE('',(#1317,#1318),#21,.F.);
#1451=ADVANCED_FACE('',(#1319,#1320),#22,.F.);
#1452=ADVANCED_FACE('',(#1321,#1322),#23,.F.);
#1453=CLOSED_SHELL('',(#1382,#1383,#1384,#1385,#1386,#1387,#1388,#1389,
#1390,#1391,#1392,#1393,#1394,#1395,#1396,#1397,#1398,#1399,#1400,#1401,
#1402,#1403,#1404,#1405,#1406,#1407,#1408,#1409,#1410,#1411,#1412,#1413,
#1414,#1415,#1416,#1417,#1418,#1419,#1420,#1421,#1422,#1423,#1424,#1425,
#1426,#1427,#1428,#1429,#1430,#1431,#1432,#1433,#1434,#1435,#1436,#1437,
#1438,#1439,#1440,#1441,#1442,#1443,#1444,#1445,#1446,#1447,#1448,#1449,
#1450,#1451,#1452));
#1454=STYLED_ITEM('',(#1455),#1462);
#1455=PRESENTATION_STYLE_ASSIGNMENT((#1456));
#1456=SURFACE_STYLE_USAGE(.BOTH.,#1457);
#1457=SURFACE_SIDE_STYLE('',(#1458));
#1458=SURFACE_STYLE_FILL_AREA(#1459);
#1459=FILL_AREA_STYLE('',(#1460));
#1460=FILL_AREA_STYLE_COLOUR('',#1461);
#1461=COLOUR_RGB('',0.282352941176471,0.549019607843137,0.16078431372549);
#1462=MANIFOLD_SOLID_BREP('Front Cover',#1453);
#1463=SHAPE_DEFINITION_REPRESENTATION(#2355,#1464);
#1464=SHAPE_REPRESENTATION('Front Cover',(#1465),#2350);
#1465=AXIS2_PLACEMENT_3D('',#1942,#1567,#1568);
#1466=AXIS2_PLACEMENT_3D('',#1943,#1569,#1570);
#1467=AXIS2_PLACEMENT_3D('',#1956,#1577,#1578);
#1468=AXIS2_PLACEMENT_3D('',#1965,#1583,#1584);
#1469=AXIS2_PLACEMENT_3D('',#1975,#1589,#1590);
#1470=AXIS2_PLACEMENT_3D('',#1976,#1591,#1592);
#1471=AXIS2_PLACEMENT_3D('',#1977,#1593,#1594);
#1472=AXIS2_PLACEMENT_3D('',#1987,#1599,#1600);
#1473=AXIS2_PLACEMENT_3D('',#1998,#1606,#1607);
#1474=AXIS2_PLACEMENT_3D('',#1999,#1608,#1609);
#1475=AXIS2_PLACEMENT_3D('',#2003,#1611,#1612);
#1476=AXIS2_PLACEMENT_3D('',#2006,#1614,#1615);
#1477=AXIS2_PLACEMENT_3D('',#2007,#1616,#1617);
#1478=AXIS2_PLACEMENT_3D('',#2015,#1622,#1623);
#1479=AXIS2_PLACEMENT_3D('',#2024,#1628,#1629);
#1480=AXIS2_PLACEMENT_3D('',#2027,#1632,#1633);
#1481=AXIS2_PLACEMENT_3D('',#2057,#1649,#1650);
#1482=AXIS2_PLACEMENT_3D('',#2060,#1652,#1653);
#1483=AXIS2_PLACEMENT_3D('',#2062,#1654,#1655);
#1484=AXIS2_PLACEMENT_3D('',#2064,#1656,#1657);
#1485=AXIS2_PLACEMENT_3D('',#2066,#1658,#1659);
#1486=AXIS2_PLACEMENT_3D('',#2067,#1660,#1661);
#1487=AXIS2_PLACEMENT_3D('',#2076,#1666,#1667);
#1488=AXIS2_PLACEMENT_3D('',#2101,#1680,#1681);
#1489=AXIS2_PLACEMENT_3D('',#2109,#1686,#1687);
#1490=AXIS2_PLACEMENT_3D('',#2114,#1691,#1692);
#1491=AXIS2_PLACEMENT_3D('',#2123,#1697,#1698);
#1492=AXIS2_PLACEMENT_3D('',#2129,#1702,#1703);
#1493=AXIS2_PLACEMENT_3D('',#2130,#1704,#1705);
#1494=AXIS2_PLACEMENT_3D('',#2132,#1706,#1707);
#1495=AXIS2_PLACEMENT_3D('',#2134,#1708,#1709);
#1496=AXIS2_PLACEMENT_3D('',#2135,#1710,#1711);
#1497=AXIS2_PLACEMENT_3D('',#2137,#1712,#1713);
#1498=AXIS2_PLACEMENT_3D('',#2139,#1714,#1715);
#1499=AXIS2_PLACEMENT_3D('',#2140,#1716,#1717);
#1500=AXIS2_PLACEMENT_3D('',#2142,#1718,#1719);
#1501=AXIS2_PLACEMENT_3D('',#2144,#1720,#1721);
#1502=AXIS2_PLACEMENT_3D('',#2146,#1722,#1723);
#1503=AXIS2_PLACEMENT_3D('',#2169,#1735,#1736);
#1504=AXIS2_PLACEMENT_3D('',#2170,#1737,#1738);
#1505=AXIS2_PLACEMENT_3D('',#2183,#1746,#1747);
#1506=AXIS2_PLACEMENT_3D('',#2184,#1748,#1749);
#1507=AXIS2_PLACEMENT_3D('',#2186,#1750,#1751);
#1508=AXIS2_PLACEMENT_3D('',#2197,#1757,#1758);
#1509=AXIS2_PLACEMENT_3D('',#2204,#1763,#1764);
#1510=AXIS2_PLACEMENT_3D('',#2206,#1766,#1767);
#1511=AXIS2_PLACEMENT_3D('',#2210,#1770,#1771);
#1512=AXIS2_PLACEMENT_3D('',#2211,#1772,#1773);
#1513=AXIS2_PLACEMENT_3D('',#2218,#1778,#1779);
#1514=AXIS2_PLACEMENT_3D('',#2220,#1781,#1782);
#1515=AXIS2_PLACEMENT_3D('',#2224,#1785,#1786);
#1516=AXIS2_PLACEMENT_3D('',#2226,#1788,#1789);
#1517=AXIS2_PLACEMENT_3D('',#2230,#1792,#1793);
#1518=AXIS2_PLACEMENT_3D('',#2235,#1797,#1798);
#1519=AXIS2_PLACEMENT_3D('',#2236,#1799,#1800);
#1520=AXIS2_PLACEMENT_3D('',#2237,#1801,#1802);
#1521=AXIS2_PLACEMENT_3D('',#2239,#1803,#1804);
#1522=AXIS2_PLACEMENT_3D('',#2241,#1805,#1806);
#1523=AXIS2_PLACEMENT_3D('',#2243,#1807,#1808);
#1524=AXIS2_PLACEMENT_3D('',#2245,#1809,#1810);
#1525=AXIS2_PLACEMENT_3D('',#2246,#1811,#1812);
#1526=AXIS2_PLACEMENT_3D('',#2262,#1823,#1824);
#1527=AXIS2_PLACEMENT_3D('',#2263,#1825,#1826);
#1528=AXIS2_PLACEMENT_3D('',#2264,#1827,#1828);
#1529=AXIS2_PLACEMENT_3D('',#2273,#1833,#1834);
#1530=AXIS2_PLACEMENT_3D('',#2276,#1837,#1838);
#1531=AXIS2_PLACEMENT_3D('',#2279,#1841,#1842);
#1532=AXIS2_PLACEMENT_3D('',#2282,#1845,#1846);
#1533=AXIS2_PLACEMENT_3D('',#2283,#1847,#1848);
#1534=AXIS2_PLACEMENT_3D('',#2286,#1851,#1852);
#1535=AXIS2_PLACEMENT_3D('',#2288,#1854,#1855);
#1536=AXIS2_PLACEMENT_3D('',#2291,#1858,#1859);
#1537=AXIS2_PLACEMENT_3D('',#2294,#1862,#1863);
#1538=AXIS2_PLACEMENT_3D('',#2298,#1866,#1867);
#1539=AXIS2_PLACEMENT_3D('',#2302,#1870,#1871);
#1540=AXIS2_PLACEMENT_3D('',#2306,#1874,#1875);
#1541=AXIS2_PLACEMENT_3D('',#2308,#1877,#1878);
#1542=AXIS2_PLACEMENT_3D('',#2310,#1880,#1881);
#1543=AXIS2_PLACEMENT_3D('',#2312,#1883,#1884);
#1544=AXIS2_PLACEMENT_3D('',#2314,#1886,#1887);
#1545=AXIS2_PLACEMENT_3D('',#2315,#1888,#1889);
#1546=AXIS2_PLACEMENT_3D('',#2317,#1891,#1892);
#1547=AXIS2_PLACEMENT_3D('',#2318,#1893,#1894);
#1548=AXIS2_PLACEMENT_3D('',#2319,#1895,#1896);
#1549=AXIS2_PLACEMENT_3D('',#2321,#1897,#1898);
#1550=AXIS2_PLACEMENT_3D('',#2324,#1900,#1901);
#1551=AXIS2_PLACEMENT_3D('',#2325,#1902,#1903);
#1552=AXIS2_PLACEMENT_3D('',#2326,#1904,#1905);
#1553=AXIS2_PLACEMENT_3D('',#2327,#1906,#1907);
#1554=AXIS2_PLACEMENT_3D('',#2331,#1911,#1912);
#1555=AXIS2_PLACEMENT_3D('',#2333,#1914,#1915);
#1556=AXIS2_PLACEMENT_3D('',#2335,#1917,#1918);
#1557=AXIS2_PLACEMENT_3D('',#2338,#1921,#1922);
#1558=AXIS2_PLACEMENT_3D('',#2339,#1923,#1924);
#1559=AXIS2_PLACEMENT_3D('',#2340,#1925,#1926);
#1560=AXIS2_PLACEMENT_3D('',#2341,#1927,#1928);
#1561=AXIS2_PLACEMENT_3D('',#2342,#1929,#1930);
#1562=AXIS2_PLACEMENT_3D('',#2344,#1932,#1933);
#1563=AXIS2_PLACEMENT_3D('',#2345,#1934,#1935);
#1564=AXIS2_PLACEMENT_3D('',#2346,#1936,#1937);
#1565=AXIS2_PLACEMENT_3D('',#2347,#1938,#1939);
#1566=AXIS2_PLACEMENT_3D('',#2348,#1940,#1941);
#1567=DIRECTION('',(0.,0.,1.));
#1568=DIRECTION('',(1.,0.,0.));
#1569=DIRECTION('',(0.,0.,-1.));
#1570=DIRECTION('',(0.,1.,0.));
#1571=DIRECTION('',(-1.,0.,0.));
#1572=DIRECTION('',(0.,1.,0.));
#1573=DIRECTION('',(-1.,0.,0.));
#1574=DIRECTION('',(0.,1.,0.));
#1575=DIRECTION('',(1.,0.,0.));
#1576=DIRECTION('',(0.,1.,0.));
#1577=DIRECTION('',(0.,0.,1.));
#1578=DIRECTION('',(0.,-1.,0.));
#1579=DIRECTION('',(-1.,0.,0.));
#1580=DIRECTION('',(0.,-1.,0.));
#1581=DIRECTION('',(-1.,0.,0.));
#1582=DIRECTION('',(0.,-1.,0.));
#1583=DIRECTION('',(0.,-1.,0.));
#1584=DIRECTION('',(1.,0.,0.));
#1585=DIRECTION('',(1.,0.,0.));
#1586=DIRECTION('',(0.,0.,-1.));
#1587=DIRECTION('',(1.,0.,0.));
#1588=DIRECTION('',(0.23780003071277,0.,-0.971314133220044));
#1589=DIRECTION('',(0.,1.,0.));
#1590=DIRECTION('',(1.,0.,0.));
#1591=DIRECTION('',(0.,-0.970142500145332,-0.242535625036333));
#1592=DIRECTION('',(-1.,0.,0.));
#1593=DIRECTION('',(0.,-0.970142500145332,-0.242535625036333));
#1594=DIRECTION('',(0.,0.242535625036333,-0.970142500145332));
#1595=DIRECTION('',(-1.,0.,0.));
#1596=DIRECTION('',(-1.8359225127763E-16,0.242535625036333,-0.970142500145332));
#1597=DIRECTION('',(-1.8359225127763E-16,0.242535625036333,-0.970142500145332));
#1598=DIRECTION('',(-1.,0.,0.));
#1599=DIRECTION('',(0.,-0.970142500145332,-0.242535625036333));
#1600=DIRECTION('',(0.,0.242535625036333,-0.970142500145332));
#1601=DIRECTION('',(0.0599577629053838,-0.242099282826571,0.968397131306285));
#1602=DIRECTION('',(-0.422663271624158,-0.219806834826555,0.87922733930622));
#1603=DIRECTION('',(1.,0.,0.));
#1604=DIRECTION('',(0.422663271624158,-0.219806834826555,0.87922733930622));
#1605=DIRECTION('',(-0.059957762905384,-0.242099282826571,0.968397131306285));
#1606=DIRECTION('',(0.,1.,0.));
#1607=DIRECTION('',(1.,0.,0.));
#1608=DIRECTION('',(0.,1.,0.));
#1609=DIRECTION('',(1.,0.,0.));
#1610=DIRECTION('',(0.,1.,0.));
#1611=DIRECTION('',(0.624348689947265,0.766044443118978,0.152854913325247));
#1612=DIRECTION('',(-0.744069794276142,0.64278760968654,-0.182165392101039));
#1613=DIRECTION('',(0.,1.,0.));
#1614=DIRECTION('',(0.,1.,0.));
#1615=DIRECTION('',(1.,0.,0.));
#1616=DIRECTION('',(0.,0.,-1.));
#1617=DIRECTION('',(0.,1.,0.));
#1618=DIRECTION('',(1.,0.,0.));
#1619=DIRECTION('',(0.,1.,0.));
#1620=DIRECTION('',(1.,0.,0.));
#1621=DIRECTION('',(0.,-1.,0.));
#1622=DIRECTION('',(0.,-1.,0.));
#1623=DIRECTION('',(1.,0.,0.));
#1624=DIRECTION('',(1.,0.,0.));
#1625=DIRECTION('',(0.,0.,-1.));
#1626=DIRECTION('',(1.,0.,0.));
#1627=DIRECTION('',(0.57002546199432,0.,-0.821627027718881));
#1628=DIRECTION('',(0.,0.,-1.));
#1629=DIRECTION('',(0.,1.,0.));
#1630=DIRECTION('',(0.,1.,0.));
#1631=DIRECTION('',(0.,1.,0.));
#1632=DIRECTION('',(0.,-0.970142500145332,-0.242535625036333));
#1633=DIRECTION('',(-1.,0.,0.));
#1634=DIRECTION('',(0.,-0.242535625036333,0.970142500145332));
#1635=DIRECTION('',(1.,0.,0.));
#1636=DIRECTION('',(0.,-0.242535625036333,0.970142500145332));
#1637=DIRECTION('',(-1.,0.,0.));
#1638=DIRECTION('',(-2.38056357678566E-16,0.242535625036333,-0.970142500145332));
#1639=DIRECTION('',(1.,0.,0.));
#1640=DIRECTION('',(-0.558367845827836,0.201205974175365,-0.804823896701461));
#1641=DIRECTION('',(0.235702260395516,0.235702260395516,-0.942809041582063));
#1642=DIRECTION('',(7.18801960559229E-17,-0.242535625036333,0.970142500145332));
#1643=DIRECTION('',(1.,0.,0.));
#1644=DIRECTION('',(7.18801960559229E-17,0.242535625036333,-0.970142500145332));
#1645=DIRECTION('',(-0.235702260395516,0.235702260395516,-0.942809041582063));
#1646=DIRECTION('',(0.558367845827836,0.201205974175365,-0.804823896701461));
#1647=DIRECTION('',(0.,0.242535625036333,-0.970142500145332));
#1648=DIRECTION('',(-1.,0.,0.));
#1649=DIRECTION('',(0.,1.,0.));
#1650=DIRECTION('',(1.,0.,0.));
#1651=DIRECTION('',(0.,1.,0.));
#1652=DIRECTION('',(-0.624348689947265,0.766044443118978,0.152854913325247));
#1653=DIRECTION('',(0.744069794276142,0.64278760968654,-0.182165392101039));
#1654=DIRECTION('',(0.,-1.,0.));
#1655=DIRECTION('',(1.,0.,0.));
#1656=DIRECTION('',(0.,-1.,0.));
#1657=DIRECTION('',(1.,0.,0.));
#1658=DIRECTION('',(0.,-1.,0.));
#1659=DIRECTION('',(1.,0.,0.));
#1660=DIRECTION('',(0.,0.,-1.));
#1661=DIRECTION('',(0.,1.,0.));
#1662=DIRECTION('',(0.,1.,0.));
#1663=DIRECTION('',(1.,0.,0.));
#1664=DIRECTION('',(0.,1.,0.));
#1665=DIRECTION('',(1.,0.,0.));
#1666=DIRECTION('',(0.,0.,1.));
#1667=DIRECTION('',(1.,0.,0.));
#1668=DIRECTION('',(-1.,1.52782985040159E-16,0.));
#1669=DIRECTION('',(-0.316227766016838,0.948683298050514,0.));
#1670=DIRECTION('',(0.,-1.,0.));
#1671=DIRECTION('',(1.,0.,0.));
#1672=DIRECTION('',(0.,-1.,0.));
#1673=DIRECTION('',(0.316227766016838,-0.948683298050514,0.));
#1674=DIRECTION('',(1.,0.,0.));
#1675=DIRECTION('',(0.316227766016838,0.948683298050514,0.));
#1676=DIRECTION('',(0.,-1.,0.));
#1677=DIRECTION('',(1.,0.,0.));
#1678=DIRECTION('',(0.,-1.,0.));
#1679=DIRECTION('',(0.316227766016838,0.948683298050514,0.));
#1680=DIRECTION('',(0.,0.,1.));
#1681=DIRECTION('',(1.,0.,0.));
#1682=DIRECTION('',(0.316227766016838,-0.948683298050514,0.));
#1683=DIRECTION('',(-1.,0.,0.));
#1684=DIRECTION('',(0.,-1.,0.));
#1685=DIRECTION('',(1.,0.,0.));
#1686=DIRECTION('',(0.,-1.,0.));
#1687=DIRECTION('',(1.,0.,0.));
#1688=DIRECTION('',(-2.45382876889636E-16,0.,-1.));
#1689=DIRECTION('',(1.,0.,0.));
#1690=DIRECTION('',(0.237800030712769,0.,0.971314133220044));
#1691=DIRECTION('',(0.,-1.,0.));
#1692=DIRECTION('',(1.,0.,0.));
#1693=DIRECTION('',(7.40924101821691E-17,0.,-1.));
#1694=DIRECTION('',(1.,0.,0.));
#1695=DIRECTION('',(0.,0.,-1.));
#1696=DIRECTION('',(0.57002546199432,0.,-0.821627027718881));
#1697=DIRECTION('',(-0.624348689947265,0.766044443118978,0.152854913325247));
#1698=DIRECTION('',(0.744069794276142,0.642787609686539,-0.182165392101039));
#1699=DIRECTION('',(0.237800030712769,7.04814774935919E-17,0.971314133220044));
#1700=DIRECTION('',(-0.739583215197751,-0.516722504728331,-0.431294007499566));
#1701=DIRECTION('',(0.545888860506669,0.287911644795925,0.786836855241057));
#1702=DIRECTION('',(0.,1.,0.));
#1703=DIRECTION('',(1.,0.,0.));
#1704=DIRECTION('',(0.,1.,0.));
#1705=DIRECTION('',(1.,0.,0.));
#1706=DIRECTION('',(0.,1.,0.));
#1707=DIRECTION('',(1.,0.,0.));
#1708=DIRECTION('',(0.,1.,0.));
#1709=DIRECTION('',(1.,0.,0.));
#1710=DIRECTION('',(0.,1.,0.));
#1711=DIRECTION('',(1.,0.,0.));
#1712=DIRECTION('',(0.,1.,0.));
#1713=DIRECTION('',(1.,0.,0.));
#1714=DIRECTION('',(0.,1.,0.));
#1715=DIRECTION('',(1.,0.,0.));
#1716=DIRECTION('',(0.,1.,0.));
#1717=DIRECTION('',(1.,0.,0.));
#1718=DIRECTION('',(0.,1.,0.));
#1719=DIRECTION('',(1.,0.,0.));
#1720=DIRECTION('',(0.,1.,0.));
#1721=DIRECTION('',(1.,0.,0.));
#1722=DIRECTION('',(0.,1.,0.));
#1723=DIRECTION('',(1.,0.,0.));
#1724=DIRECTION('',(1.,0.,0.));
#1725=DIRECTION('',(2.45382876889636E-16,0.,1.));
#1726=DIRECTION('',(1.,0.,0.));
#1727=DIRECTION('',(0.,0.,1.));
#1728=DIRECTION('',(0.23780003071277,0.,-0.971314133220044));
#1729=DIRECTION('',(0.57002546199432,0.,-0.821627027718881));
#1730=DIRECTION('',(0.,0.,-1.));
#1731=DIRECTION('',(0.,0.,1.));
#1732=DIRECTION('',(-0.57002546199432,0.,0.821627027718881));
#1733=DIRECTION('',(0.57002546199432,0.,-0.821627027718881));
#1734=DIRECTION('',(0.23780003071277,0.,-0.971314133220044));
#1735=DIRECTION('',(0.,1.,0.));
#1736=DIRECTION('',(1.,0.,0.));
#1737=DIRECTION('',(0.,1.,0.));
#1738=DIRECTION('',(1.,0.,0.));
#1739=DIRECTION('',(-0.237800030712769,0.,-0.971314133220044));
#1740=DIRECTION('',(-0.57002546199432,0.,-0.821627027718881));
#1741=DIRECTION('',(-0.57002546199432,0.,-0.821627027718881));
#1742=DIRECTION('',(0.,0.,1.));
#1743=DIRECTION('',(0.,0.,1.));
#1744=DIRECTION('',(0.57002546199432,0.,0.821627027718881));
#1745=DIRECTION('',(0.237800030712769,0.,0.971314133220044));
#1746=DIRECTION('',(0.,1.,0.));
#1747=DIRECTION('',(1.,0.,0.));
#1748=DIRECTION('',(0.,-1.,0.));
#1749=DIRECTION('',(-1.,0.,0.));
#1750=DIRECTION('',(0.,-1.,0.));
#1751=DIRECTION('',(-1.,0.,0.));
#1752=DIRECTION('',(0.57002546199432,0.,-0.821627027718881));
#1753=DIRECTION('',(0.,0.,1.));
#1754=DIRECTION('',(1.,0.,0.));
#1755=DIRECTION('',(0.,0.,1.));
#1756=DIRECTION('',(0.57002546199432,0.,0.821627027718881));
#1757=DIRECTION('',(-0.948683298050514,0.316227766016838,0.));
#1758=DIRECTION('',(0.,0.,-1.));
#1759=DIRECTION('',(0.257903144747588,0.773709434242765,-0.578670613815015));
#1760=DIRECTION('',(0.316227766016838,0.948683298050514,0.));
#1761=DIRECTION('',(0.,0.,1.));
#1762=DIRECTION('',(0.,0.,1.));
#1763=DIRECTION('',(1.,0.,0.));
#1764=DIRECTION('',(0.,-1.,0.));
#1765=DIRECTION('',(0.,-0.63133074951795,0.775513690861163));
#1766=DIRECTION('',(1.,0.,0.));
#1767=DIRECTION('',(0.,-1.,0.));
#1768=DIRECTION('',(0.,0.,1.));
#1769=DIRECTION('',(0.,-0.63133074951795,0.775513690861163));
#1770=DIRECTION('',(-0.673037459399009,0.573576436351046,0.466937522489424));
#1771=DIRECTION('',(0.471265902568698,0.819152044288992,-0.326953173120061));
#1772=DIRECTION('',(0.624348689947265,0.766044443118978,0.152854913325247));
#1773=DIRECTION('',(-0.744069794276142,0.642787609686539,-0.182165392101039));
#1774=DIRECTION('',(-0.775153551157613,0.631772880177474,0.));
#1775=DIRECTION('',(-0.23780003071277,7.15740159481116E-17,0.971314133220044));
#1776=DIRECTION('',(-0.545888860506669,0.287911644795924,0.786836855241057));
#1777=DIRECTION('',(0.739583215197752,-0.516722504728331,-0.431294007499566));
#1778=DIRECTION('',(0.673037459399009,0.573576436351046,0.466937522489424));
#1779=DIRECTION('',(-0.471265902568698,0.819152044288992,-0.326953173120061));
#1780=DIRECTION('',(-0.257903144747588,0.773709434242765,-0.578670613815015));
#1781=DIRECTION('',(-0.948683298050514,-0.316227766016838,0.));
#1782=DIRECTION('',(0.,0.,1.));
#1783=DIRECTION('',(0.,0.,1.));
#1784=DIRECTION('',(-0.316227766016838,0.948683298050514,0.));
#1785=DIRECTION('',(-0.821627027718881,0.,-0.57002546199432));
#1786=DIRECTION('',(-0.57002546199432,0.,0.821627027718881));
#1787=DIRECTION('',(0.,-1.,0.));
#1788=DIRECTION('',(-0.971314133220044,0.,-0.23780003071277));
#1789=DIRECTION('',(-0.23780003071277,0.,0.971314133220044));
#1790=DIRECTION('',(-0.23780003071277,7.15740159481116E-17,0.971314133220044));
#1791=DIRECTION('',(0.,-1.,0.));
#1792=DIRECTION('',(-0.971314133220045,0.,0.237800030712769));
#1793=DIRECTION('',(0.237800030712769,0.,0.971314133220044));
#1794=DIRECTION('',(0.,-1.,0.));
#1795=DIRECTION('',(-0.237800030712769,0.,-0.971314133220044));
#1796=DIRECTION('',(0.,-1.,0.));
#1797=DIRECTION('',(-0.821627027718881,0.,0.57002546199432));
#1798=DIRECTION('',(0.57002546199432,0.,0.821627027718881));
#1799=DIRECTION('',(0.,1.,0.));
#1800=DIRECTION('',(1.,0.,0.));
#1801=DIRECTION('',(0.,-1.,0.));
#1802=DIRECTION('',(-1.,0.,0.));
#1803=DIRECTION('',(0.,-1.,0.));
#1804=DIRECTION('',(-1.,0.,0.));
#1805=DIRECTION('',(0.,-1.,0.));
#1806=DIRECTION('',(-1.,0.,0.));
#1807=DIRECTION('',(0.,-1.,0.));
#1808=DIRECTION('',(-1.,0.,0.));
#1809=DIRECTION('',(0.,1.,0.));
#1810=DIRECTION('',(1.,0.,0.));
#1811=DIRECTION('',(0.,1.,0.));
#1812=DIRECTION('',(1.,0.,0.));
#1813=DIRECTION('',(-1.,0.,0.));
#1814=DIRECTION('',(0.23780003071277,0.,-0.971314133220044));
#1815=DIRECTION('',(-1.,0.,0.));
#1816=DIRECTION('',(-1.89242561015651E-16,0.,-1.));
#1817=DIRECTION('',(1.,0.,0.));
#1818=DIRECTION('',(0.,0.,1.));
#1819=DIRECTION('',(-1.89242561015651E-16,0.,-1.));
#1820=DIRECTION('',(-1.,0.,0.));
#1821=DIRECTION('',(1.,0.,0.));
#1822=DIRECTION('',(0.237800030712769,0.,0.971314133220044));
#1823=DIRECTION('',(0.,1.,0.));
#1824=DIRECTION('',(1.,0.,0.));
#1825=DIRECTION('',(0.,-1.,0.));
#1826=DIRECTION('',(-1.,0.,0.));
#1827=DIRECTION('',(0.,-1.,0.));
#1828=DIRECTION('',(1.,0.,0.));
#1829=DIRECTION('',(0.,0.,1.));
#1830=DIRECTION('',(1.,0.,0.));
#1831=DIRECTION('',(7.4092410182169E-17,0.,1.));
#1832=DIRECTION('',(0.57002546199432,0.,0.821627027718881));
#1833=DIRECTION('',(1.,0.,0.));
#1834=DIRECTION('',(0.,-1.,0.));
#1835=DIRECTION('',(0.,0.,1.));
#1836=DIRECTION('',(0.,-1.,0.));
#1837=DIRECTION('',(-1.,0.,0.));
#1838=DIRECTION('',(0.,1.,0.));
#1839=DIRECTION('',(0.,-1.,0.));
#1840=DIRECTION('',(0.,0.,-1.));
#1841=DIRECTION('',(-0.821627027718881,0.,-0.57002546199432));
#1842=DIRECTION('',(-0.57002546199432,0.,0.821627027718881));
#1843=DIRECTION('',(0.,-1.,0.));
#1844=DIRECTION('',(-0.49521973994041,0.49521973994041,0.713803066921616));
#1845=DIRECTION('',(-0.971314133220044,0.,-0.23780003071277));
#1846=DIRECTION('',(-0.23780003071277,0.,0.971314133220044));
#1847=DIRECTION('',(0.,0.,-1.));
#1848=DIRECTION('',(0.,1.,0.));
#1849=DIRECTION('',(0.,1.,0.));
#1850=DIRECTION('',(0.,-1.,0.));
#1851=DIRECTION('',(0.971314133220044,0.,-0.237800030712769));
#1852=DIRECTION('',(-0.237800030712769,0.,-0.971314133220044));
#1853=DIRECTION('',(0.,-1.,0.));
#1854=DIRECTION('',(0.821627027718881,0.,-0.57002546199432));
#1855=DIRECTION('',(-0.57002546199432,0.,-0.821627027718881));
#1856=DIRECTION('',(0.49521973994041,0.49521973994041,0.713803066921616));
#1857=DIRECTION('',(-0.57002546199432,0.,-0.821627027718881));
#1858=DIRECTION('',(0.948683298050514,0.316227766016838,0.));
#1859=DIRECTION('',(0.316227766016838,-0.948683298050514,0.));
#1860=DIRECTION('',(-0.229415733870562,0.688247201611685,-0.688247201611685));
#1861=DIRECTION('',(0.,0.,-1.));
#1862=DIRECTION('',(0.,1.,0.));
#1863=DIRECTION('',(1.,0.,0.));
#1864=DIRECTION('',(1.,0.,0.));
#1865=DIRECTION('',(0.,0.,-1.));
#1866=DIRECTION('',(-0.948683298050514,0.316227766016838,0.));
#1867=DIRECTION('',(0.316227766016838,0.948683298050514,0.));
#1868=DIRECTION('',(0.316227766016838,0.948683298050514,0.));
#1869=DIRECTION('',(-0.229415733870562,-0.688247201611685,0.688247201611685));
#1870=DIRECTION('',(0.,0.,1.));
#1871=DIRECTION('',(1.,0.,0.));
#1872=DIRECTION('',(0.,-1.,0.));
#1873=DIRECTION('',(-1.,0.,0.));
#1874=DIRECTION('',(0.,-1.,0.));
#1875=DIRECTION('',(1.,0.,0.));
#1876=DIRECTION('',(-2.45382876889636E-16,0.,-1.));
#1877=DIRECTION('',(-1.,0.,7.4092410182169E-17));
#1878=DIRECTION('',(7.4092410182169E-17,0.,1.));
#1879=DIRECTION('',(-7.4092410182169E-17,0.,-1.));
#1880=DIRECTION('',(-1.,0.,-7.40924101821691E-17));
#1881=DIRECTION('',(-7.40924101821691E-17,0.,1.));
#1882=DIRECTION('',(-7.40924101821691E-17,0.,1.));
#1883=DIRECTION('',(0.707106781186548,0.707106781186548,5.23912456742669E-17));
#1884=DIRECTION('',(7.40924101821691E-17,0.,-1.));
#1885=DIRECTION('',(-0.577350269189626,0.577350269189626,-0.577350269189626));
#1886=DIRECTION('',(0.,-0.707106781186548,-0.707106781186548));
#1887=DIRECTION('',(1.,0.,0.));
#1888=DIRECTION('',(0.707106781186548,-0.707106781186548,-5.23912456742669E-17));
#1889=DIRECTION('',(7.4092410182169E-17,0.,1.));
#1890=DIRECTION('',(0.577350269189626,0.577350269189626,-0.577350269189626));
#1891=DIRECTION('',(0.,-0.707106781186548,-0.707106781186548));
#1892=DIRECTION('',(1.,0.,0.));
#1893=DIRECTION('',(1.52782985040159E-16,1.,0.));
#1894=DIRECTION('',(1.,-1.52782985040159E-16,0.));
#1895=DIRECTION('',(1.52782985040159E-16,1.,0.));
#1896=DIRECTION('',(1.,-1.52782985040159E-16,0.));
#1897=DIRECTION('',(1.52782985040159E-16,1.,0.));
#1898=DIRECTION('',(1.,-1.52782985040159E-16,0.));
#1899=DIRECTION('',(-1.,1.52782985040159E-16,0.));
#1900=DIRECTION('',(0.,0.,-1.));
#1901=DIRECTION('',(-1.,0.,0.));
#1902=DIRECTION('',(0.,-1.,0.));
#1903=DIRECTION('',(-1.,0.,0.));
#1904=DIRECTION('',(0.,-1.,0.));
#1905=DIRECTION('',(-1.,0.,0.));
#1906=DIRECTION('',(1.,0.,-1.89242561015651E-16));
#1907=DIRECTION('',(-1.89242561015651E-16,0.,-1.));
#1908=DIRECTION('',(0.,0.,1.));
#1909=DIRECTION('',(0.,1.,0.));
#1910=DIRECTION('',(0.,1.,0.));
#1911=DIRECTION('',(1.,0.,-1.89242561015651E-16));
#1912=DIRECTION('',(-1.89242561015651E-16,0.,-1.));
#1913=DIRECTION('',(0.,1.,0.));
#1914=DIRECTION('',(-1.,0.,2.45382876889636E-16));
#1915=DIRECTION('',(2.45382876889636E-16,0.,1.));
#1916=DIRECTION('',(0.,1.,0.));
#1917=DIRECTION('',(0.,0.,1.));
#1918=DIRECTION('',(0.,-1.,0.));
#1919=DIRECTION('',(0.,1.,0.));
#1920=DIRECTION('',(0.,1.,0.));
#1921=DIRECTION('',(-1.,0.,0.));
#1922=DIRECTION('',(0.,1.,0.));
#1923=DIRECTION('',(0.,0.,-1.));
#1924=DIRECTION('',(0.,1.,0.));
#1925=DIRECTION('',(0.,0.,-1.));
#1926=DIRECTION('',(0.,1.,0.));
#1927=DIRECTION('',(0.,0.,-1.));
#1928=DIRECTION('',(0.,1.,0.));
#1929=DIRECTION('',(0.,1.,0.));
#1930=DIRECTION('',(1.,0.,0.));
#1931=DIRECTION('',(0.,0.,1.));
#1932=DIRECTION('',(1.,0.,0.));
#1933=DIRECTION('',(0.,-1.,0.));
#1934=DIRECTION('',(0.,-1.,0.));
#1935=DIRECTION('',(-1.,0.,0.));
#1936=DIRECTION('',(0.,-1.,0.));
#1937=DIRECTION('',(-1.,0.,0.));
#1938=DIRECTION('',(0.,-1.,0.));
#1939=DIRECTION('',(-1.,0.,0.));
#1940=DIRECTION('',(0.,-1.,0.));
#1941=DIRECTION('',(-1.,0.,0.));
#1942=CARTESIAN_POINT('',(0.,0.,0.));
#1943=CARTESIAN_POINT('',(-1.38777878078145E-17,0.04,0.095));
#1944=CARTESIAN_POINT('',(0.02,0.047,0.095));
#1945=CARTESIAN_POINT('',(0.0275,0.047,0.095));
#1946=CARTESIAN_POINT('',(0.0125,0.047,0.095));
#1947=CARTESIAN_POINT('',(0.0275,0.04,0.095));
#1948=CARTESIAN_POINT('',(0.0275,0.05375,0.095));
#1949=CARTESIAN_POINT('',(-1.38777878078145E-17,0.05375,0.095));
#1950=CARTESIAN_POINT('',(-0.0275,0.05375,0.095));
#1951=CARTESIAN_POINT('',(-0.0275,0.04,0.095));
#1952=CARTESIAN_POINT('',(-0.0275,0.04,0.095));
#1953=CARTESIAN_POINT('',(-2.08166817117217E-17,0.04,0.095));
#1954=CARTESIAN_POINT('',(0.0125,0.04,0.095));
#1955=CARTESIAN_POINT('',(0.0125,0.0435,0.095));
#1956=CARTESIAN_POINT('',(0.,0.07,0.15));
#1957=CARTESIAN_POINT('',(0.,0.04,0.15));
#1958=CARTESIAN_POINT('',(0.0368611597701747,0.04,0.15));
#1959=CARTESIAN_POINT('',(-0.0368611597701747,0.04,0.15));
#1960=CARTESIAN_POINT('',(-0.0368611597701747,0.07,0.15));
#1961=CARTESIAN_POINT('',(-0.0368611597701747,0.035,0.15));
#1962=CARTESIAN_POINT('',(0.,0.035,0.15));
#1963=CARTESIAN_POINT('',(0.0368611597701747,0.035,0.15));
#1964=CARTESIAN_POINT('',(0.0368611597701747,0.04,0.15));
#1965=CARTESIAN_POINT('',(0.,0.04,0.0757102930953693));
#1966=CARTESIAN_POINT('',(-2.08166817117217E-17,0.04,0.1425));
#1967=CARTESIAN_POINT('',(0.0325,0.04,0.1425));
#1968=CARTESIAN_POINT('',(0.0328136359166202,0.04,0.1425));
#1969=CARTESIAN_POINT('',(0.0325,0.04,0.0757102930953693));
#1970=CARTESIAN_POINT('',(0.0325,0.04,0.095072471543729));
#1971=CARTESIAN_POINT('',(0.,0.04,0.095072471543729));
#1972=CARTESIAN_POINT('',(0.0457260239130256,0.04,0.095072471543729));
#1973=CARTESIAN_POINT('',(0.0399203492410516,0.04,0.118786235771864));
#1974=CARTESIAN_POINT('',(0.034417710591927,0.04,0.141262223995572));
#1975=CARTESIAN_POINT('',(0.0366692321856073,0.04,0.145838319548901));
#1976=CARTESIAN_POINT('',(0.,0.04,0.15));
#1977=CARTESIAN_POINT('',(-0.0366692321856073,0.0410404201127749,0.145838319548901));
#1978=CARTESIAN_POINT('',(-0.0394788039032266,0.042104501487822,0.141581994048712));
#1979=CARTESIAN_POINT('',(-0.0325,0.0417747353968361,0.142901058412656));
#1980=CARTESIAN_POINT('',(0.0881,0.0417747353968361,0.142901058412656));
#1981=CARTESIAN_POINT('',(-0.0275,0.0417747353968361,0.142901058412656));
#1982=CARTESIAN_POINT('',(-0.0275,0.0464705882352941,0.124117647058823));
#1983=CARTESIAN_POINT('',(0.0275,0.0464705882352941,0.124117647058823));
#1984=CARTESIAN_POINT('',(0.0275,0.0417747353968361,0.142901058412656));
#1985=CARTESIAN_POINT('',(0.0881,0.0417747353968361,0.142901058412656));
#1986=CARTESIAN_POINT('',(0.0325,0.0417747353968361,0.142901058412656));
#1987=CARTESIAN_POINT('',(0.0366692321856073,0.0410404201127749,0.145838319548901));
#1988=CARTESIAN_POINT('',(0.0394788039032265,0.042104501487822,0.141581994048712));
#1989=CARTESIAN_POINT('',(0.0398562026666952,0.0405806292559712,0.147677482976115));
#1990=CARTESIAN_POINT('',(0.0368606362993702,0.052676218451539,0.0992951261938439));
#1991=CARTESIAN_POINT('',(0.0102552226524762,0.0388400227004796,0.154639909198081));
#1992=CARTESIAN_POINT('',(0.0701722764581145,0.07,0.03));
#1993=CARTESIAN_POINT('',(-1.38777878078145E-17,0.07,0.03));
#1994=CARTESIAN_POINT('',(-0.0701722764581145,0.07,0.03));
#1995=CARTESIAN_POINT('',(-0.0590759525694002,0.0642293357480149,0.0530826570079403));
#1996=CARTESIAN_POINT('',(-0.0368606362993703,0.052676218451539,0.099295126193844));
#1997=CARTESIAN_POINT('',(-0.0324406368385181,0.07052342701492,0.0279062919403203));
#1998=CARTESIAN_POINT('',(0.0366692321856073,0.04,0.145838319548901));
#1999=CARTESIAN_POINT('',(0.0366692321856073,0.04,0.145838319548901));
#2000=CARTESIAN_POINT('',(0.0408384643712147,0.04,0.142901058412656));
#2001=CARTESIAN_POINT('',(0.0408384643712147,0.04,0.142901058412656));
#2002=CARTESIAN_POINT('',(0.0408384643712147,0.040733134969314,0.142901058412656));
#2003=CARTESIAN_POINT('',(0.0366692321856073,0.0435450865161527,0.145838319548901));
#2004=CARTESIAN_POINT('',(0.0325,0.04,0.142901058412656));
#2005=CARTESIAN_POINT('',(0.0325,0.04,0.142901058412656));
#2006=CARTESIAN_POINT('',(0.0366692321856073,0.04,0.145838319548901));
#2007=CARTESIAN_POINT('',(-2.08166817117217E-17,0.04,0.1425));
#2008=CARTESIAN_POINT('',(-2.08166817117217E-17,0.035,0.1425));
#2009=CARTESIAN_POINT('',(0.0325,0.035,0.1425));
#2010=CARTESIAN_POINT('',(0.0341146745690777,0.035,0.1425));
#2011=CARTESIAN_POINT('',(0.0325,0.04,0.1425));
#2012=CARTESIAN_POINT('',(-2.08166817117217E-17,0.04,0.1425));
#2013=CARTESIAN_POINT('',(0.0341146745690777,0.04,0.1425));
#2014=CARTESIAN_POINT('',(0.0341146745690777,0.04,0.1425));
#2015=CARTESIAN_POINT('',(0.,0.045,0.0757102930953693));
#2016=CARTESIAN_POINT('',(0.,0.045,0.095072471543729));
#2017=CARTESIAN_POINT('',(0.0325,0.045,0.095072471543729));
#2018=CARTESIAN_POINT('',(0.0457260239130257,0.045,0.095072471543729));
#2019=CARTESIAN_POINT('',(0.0325,0.045,0.0757102930953693));
#2020=CARTESIAN_POINT('',(0.0325,0.045,0.0944205861907387));
#2021=CARTESIAN_POINT('',(0.0457260239130257,0.045,0.0944205861907387));
#2022=CARTESIAN_POINT('',(0.0461782866027491,0.045,0.0944205861907387));
#2023=CARTESIAN_POINT('',(0.0399365553048833,0.045,0.103417333662585));
#2024=CARTESIAN_POINT('',(0.,0.045,0.095072471543729));
#2025=CARTESIAN_POINT('',(0.0325,0.045,0.095072471543729));
#2026=CARTESIAN_POINT('',(0.0457260239130257,0.045,0.095072471543729));
#2027=CARTESIAN_POINT('',(0.,0.045,0.0944205861907387));
#2028=CARTESIAN_POINT('',(0.0275,0.045,0.0944205861907387));
#2029=CARTESIAN_POINT('',(0.0275,0.047,0.0864205861907387));
#2030=CARTESIAN_POINT('',(0.0275,0.0461051465476847,0.09));
#2031=CARTESIAN_POINT('',(0.,0.047,0.0864205861907387));
#2032=CARTESIAN_POINT('',(0.0125,0.047,0.0864205861907386));
#2033=CARTESIAN_POINT('',(0.0125,0.045,0.0944205861907387));
#2034=CARTESIAN_POINT('',(0.0125,0.0461051465476847,0.09));
#2035=CARTESIAN_POINT('',(0.,0.0461051465476847,0.09));
#2036=CARTESIAN_POINT('',(-0.0325,0.0461051465476847,0.09));
#2037=CARTESIAN_POINT('',(-0.0325,0.045,0.0944205861907387));
#2038=CARTESIAN_POINT('',(-0.0325,0.045,0.0944205861907387));
#2039=CARTESIAN_POINT('',(0.0457260239130257,0.045,0.0944205861907387));
#2040=CARTESIAN_POINT('',(-0.0461782866027491,0.045,0.0944205861907387));
#2041=CARTESIAN_POINT('',(-0.0676227913802624,0.0527274551296391,0.0635107656721824));
#2042=CARTESIAN_POINT('',(-0.048051145508903,0.0456748784041227,0.091721072574248));
#2043=CARTESIAN_POINT('',(-0.0381317889522468,0.0555942349607789,0.0520436463476233));
#2044=CARTESIAN_POINT('',(-0.0457260239130257,0.048,0.0824205861907387));
#2045=CARTESIAN_POINT('',(-0.0457260239130257,0.0558644840761188,0.0509626498862635));
#2046=CARTESIAN_POINT('',(-0.0457260239130257,0.065,0.0144205861907387));
#2047=CARTESIAN_POINT('',(0.,0.065,0.0144205861907387));
#2048=CARTESIAN_POINT('',(0.0457260239130257,0.065,0.0144205861907387));
#2049=CARTESIAN_POINT('',(0.0457260239130257,0.045,0.0944205861907387));
#2050=CARTESIAN_POINT('',(0.0457260239130257,0.048,0.0824205861907387));
#2051=CARTESIAN_POINT('',(0.0451237365584991,0.0486022873545265,0.0800114367726326));
#2052=CARTESIAN_POINT('',(0.048051145508903,0.0456748784041227,0.091721072574248));
#2053=CARTESIAN_POINT('',(0.0317810674016505,0.0398120105116753,0.115172544144038));
#2054=CARTESIAN_POINT('',(0.0325,0.045,0.0944205861907387));
#2055=CARTESIAN_POINT('',(0.0325,0.0461051465476847,0.09));
#2056=CARTESIAN_POINT('',(0.,0.0461051465476847,0.09));
#2057=CARTESIAN_POINT('',(-0.0366692321856073,0.04,0.145838319548901));
#2058=CARTESIAN_POINT('',(-0.0325,0.04,0.142901058412656));
#2059=CARTESIAN_POINT('',(-0.0325,0.04,0.142901058412656));
#2060=CARTESIAN_POINT('',(-0.0366692321856073,0.0435450865161527,0.145838319548901));
#2061=CARTESIAN_POINT('',(-0.0414522203421376,0.04,0.144068284437811));
#2062=CARTESIAN_POINT('',(-0.0366692321856073,0.04,0.145838319548901));
#2063=CARTESIAN_POINT('',(-0.0344177105919271,0.04,0.141262223995572));
#2064=CARTESIAN_POINT('',(-0.0366692321856073,0.04,0.145838319548901));
#2065=CARTESIAN_POINT('',(-0.0328136359166201,0.04,0.1425));
#2066=CARTESIAN_POINT('',(-0.0366692321856073,0.04,0.145838319548901));
#2067=CARTESIAN_POINT('',(0.,0.045,0.095072471543729));
#2068=CARTESIAN_POINT('',(-0.0325,0.045,0.095072471543729));
#2069=CARTESIAN_POINT('',(-0.0325,0.04,0.095072471543729));
#2070=CARTESIAN_POINT('',(-0.0325,0.045,0.095072471543729));
#2071=CARTESIAN_POINT('',(0.,0.04,0.095072471543729));
#2072=CARTESIAN_POINT('',(-0.0457260239130257,0.04,0.095072471543729));
#2073=CARTESIAN_POINT('',(-0.0457260239130257,0.04,0.095072471543729));
#2074=CARTESIAN_POINT('',(-0.0457260239130257,0.045,0.095072471543729));
#2075=CARTESIAN_POINT('',(0.,0.045,0.095072471543729));
#2076=CARTESIAN_POINT('',(-0.09,0.07,0.00142058619073867));
#2077=CARTESIAN_POINT('',(0.,0.0675,0.00142058619073867));
#2078=CARTESIAN_POINT('',(0.0908333333333333,0.0675,0.00142058619073867));
#2079=CARTESIAN_POINT('',(-0.0908333333333333,0.0675,0.00142058619073867));
#2080=CARTESIAN_POINT('',(0.1,0.04,0.00142058619073867));
#2081=CARTESIAN_POINT('',(0.1,0.04,0.00142058619073867));
#2082=CARTESIAN_POINT('',(0.1,0.07,0.00142058619073867));
#2083=CARTESIAN_POINT('',(0.1,0.035,0.00142058619073867));
#2084=CARTESIAN_POINT('',(-1.38777878078145E-17,0.035,0.00142058619073867));
#2085=CARTESIAN_POINT('',(0.0925,0.035,0.00142058619073867));
#2086=CARTESIAN_POINT('',(0.0925,0.04,0.00142058619073867));
#2087=CARTESIAN_POINT('',(0.0925,0.04,0.00142058619073867));
#2088=CARTESIAN_POINT('',(0.0883333333333333,0.0525,0.00142058619073867));
#2089=CARTESIAN_POINT('',(0.0841666666666666,0.065,0.00142058619073867));
#2090=CARTESIAN_POINT('',(0.,0.065,0.00142058619073867));
#2091=CARTESIAN_POINT('',(-0.0841666666666666,0.065,0.00142058619073867));
#2092=CARTESIAN_POINT('',(-0.0883333333333333,0.0525,0.00142058619073867));
#2093=CARTESIAN_POINT('',(-0.0925,0.04,0.00142058619073867));
#2094=CARTESIAN_POINT('',(-0.0925,0.04,0.00142058619073867));
#2095=CARTESIAN_POINT('',(-0.0925,0.035,0.00142058619073867));
#2096=CARTESIAN_POINT('',(-1.38777878078145E-17,0.035,0.00142058619073867));
#2097=CARTESIAN_POINT('',(-0.1,0.035,0.00142058619073867));
#2098=CARTESIAN_POINT('',(-0.1,0.07,0.00142058619073867));
#2099=CARTESIAN_POINT('',(-0.1,0.04,0.00142058619073867));
#2100=CARTESIAN_POINT('',(-0.09,0.07,0.00142058619073867));
#2101=CARTESIAN_POINT('',(0.,0.0525,0.0144205861907387));
#2102=CARTESIAN_POINT('',(0.0883333333333333,0.0525,0.0144205861907387));
#2103=CARTESIAN_POINT('',(0.0841666666666666,0.065,0.0144205861907387));
#2104=CARTESIAN_POINT('',(0.0898333333333333,0.048,0.0144205861907387));
#2105=CARTESIAN_POINT('',(0.0457260239130257,0.048,0.0144205861907387));
#2106=CARTESIAN_POINT('',(0.0457260239130257,0.048,0.0144205861907387));
#2107=CARTESIAN_POINT('',(0.0457260239130257,0.0525,0.0144205861907387));
#2108=CARTESIAN_POINT('',(0.,0.065,0.0144205861907387));
#2109=CARTESIAN_POINT('',(0.,0.04,0.0757102930953693));
#2110=CARTESIAN_POINT('',(-0.0325,0.04,0.0757102930953694));
#2111=CARTESIAN_POINT('',(-0.0325,0.04,0.1425));
#2112=CARTESIAN_POINT('',(-2.08166817117217E-17,0.04,0.1425));
#2113=CARTESIAN_POINT('',(-0.0399203492410516,0.04,0.118786235771864));
#2114=CARTESIAN_POINT('',(0.,0.04,0.0757102930953693));
#2115=CARTESIAN_POINT('',(0.0537260239130257,0.04,0.0757102930953693));
#2116=CARTESIAN_POINT('',(0.0537260239130257,0.04,0.0835413792329498));
#2117=CARTESIAN_POINT('',(0.0537260239130257,0.04,0.0224205861907387));
#2118=CARTESIAN_POINT('',(0.0925,0.04,0.0224205861907387));
#2119=CARTESIAN_POINT('',(0.0925,0.04,0.0224205861907387));
#2120=CARTESIAN_POINT('',(0.0925,0.04,0.0145368391171664));
#2121=CARTESIAN_POINT('',(0.0925,0.04,0.0276530920435942));
#2122=CARTESIAN_POINT('',(0.0691130119565128,0.04,0.0613627817936616));
#2123=CARTESIAN_POINT('',(-0.0723647283612416,0.04,0.0178035575484323));
#2124=CARTESIAN_POINT('',(-0.0723647283612416,0.04,0.0178035575484323));
#2125=CARTESIAN_POINT('',(-0.0526804038507603,0.04,0.0982058289132093));
#2126=CARTESIAN_POINT('',(-0.0816885476204472,0.0213564289490516,0.0731533626651343));
#2127=CARTESIAN_POINT('',(-0.0621605494157929,0.035,0.0845412747094574));
#2128=CARTESIAN_POINT('',(-0.0930810509486097,0.018691969010019,0.039972880025645));
#2129=CARTESIAN_POINT('',(-0.0366692321856073,0.,0.145838319548901));
#2130=CARTESIAN_POINT('',(-0.0366692321856073,0.035,0.145838319548901));
#2131=CARTESIAN_POINT('',(-0.0350192321856073,0.035,0.145838319548901));
#2132=CARTESIAN_POINT('',(-0.0366692321856073,0.04,0.145838319548901));
#2133=CARTESIAN_POINT('',(-0.0350192321856073,0.04,0.145838319548901));
#2134=CARTESIAN_POINT('',(0.0366692321856073,0.,0.145838319548901));
#2135=CARTESIAN_POINT('',(0.0366692321856073,0.035,0.145838319548901));
#2136=CARTESIAN_POINT('',(0.0383192321856073,0.035,0.145838319548901));
#2137=CARTESIAN_POINT('',(0.0366692321856073,0.04,0.145838319548901));
#2138=CARTESIAN_POINT('',(0.0383192321856073,0.04,0.145838319548901));
#2139=CARTESIAN_POINT('',(-1.38777878078145E-17,0.035,0.));
#2140=CARTESIAN_POINT('',(0.02,0.035,0.1025));
#2141=CARTESIAN_POINT('',(0.02165,0.035,0.1025));
#2142=CARTESIAN_POINT('',(0.02,0.035,0.1425));
#2143=CARTESIAN_POINT('',(0.02165,0.035,0.1425));
#2144=CARTESIAN_POINT('',(-0.02,0.035,0.1425));
#2145=CARTESIAN_POINT('',(-0.01835,0.035,0.1425));
#2146=CARTESIAN_POINT('',(-0.02,0.035,0.1025));
#2147=CARTESIAN_POINT('',(-0.01835,0.035,0.1025));
#2148=CARTESIAN_POINT('',(-2.08166817117217E-17,0.035,0.1425));
#2149=CARTESIAN_POINT('',(-0.0341146745690777,0.035,0.1425));
#2150=CARTESIAN_POINT('',(-0.0325,0.035,0.1425));
#2151=CARTESIAN_POINT('',(-0.0325,0.035,0.118277824401855));
#2152=CARTESIAN_POINT('',(-0.0325,0.035,0.09));
#2153=CARTESIAN_POINT('',(-1.38777878078145E-17,0.035,0.09));
#2154=CARTESIAN_POINT('',(0.0325,0.035,0.09));
#2155=CARTESIAN_POINT('',(0.0325,0.035,0.148277824401855));
#2156=CARTESIAN_POINT('',(0.0399203492410516,0.035,0.118786235771864));
#2157=CARTESIAN_POINT('',(0.0457260239130256,0.035,0.095072471543729));
#2158=CARTESIAN_POINT('',(0.0691130119565128,0.035,0.0613627817936616));
#2159=CARTESIAN_POINT('',(0.0925,0.035,0.0276530920435942));
#2160=CARTESIAN_POINT('',(0.0925,0.035,0.0145368391171664));
#2161=CARTESIAN_POINT('',(0.1,0.035,-0.058));
#2162=CARTESIAN_POINT('',(0.1,0.035,0.03));
#2163=CARTESIAN_POINT('',(0.0815575470496904,0.035,0.0565827034259026));
#2164=CARTESIAN_POINT('',(0.0621605494157929,0.035,0.0845412747094573));
#2165=CARTESIAN_POINT('',(0.0574204766332765,0.035,0.0913735518113334));
#2166=CARTESIAN_POINT('',(0.0526804038507602,0.035,0.0982058289132092));
#2167=CARTESIAN_POINT('',(0.0463402019253801,0.035,0.124102914456605));
#2168=CARTESIAN_POINT('',(0.0407464163030549,0.035,0.146951200122851));
#2169=CARTESIAN_POINT('',(0.0368611597701747,0.035,0.146));
#2170=CARTESIAN_POINT('',(-0.0368611597701747,0.035,0.146));
#2171=CARTESIAN_POINT('',(-0.0407464163030549,0.035,0.146951200122851));
#2172=CARTESIAN_POINT('',(-0.0463402019253801,0.035,0.124102914456605));
#2173=CARTESIAN_POINT('',(-0.0526804038507603,0.035,0.0982058289132093));
#2174=CARTESIAN_POINT('',(-0.0574204766332766,0.035,0.0913735518113333));
#2175=CARTESIAN_POINT('',(-0.0815575470496905,0.035,0.0565827034259026));
#2176=CARTESIAN_POINT('',(-0.1,0.035,0.03));
#2177=CARTESIAN_POINT('',(-0.1,0.035,-0.058));
#2178=CARTESIAN_POINT('',(-0.0925,0.035,0.0145368391171664));
#2179=CARTESIAN_POINT('',(-0.0925,0.035,0.0276530920435942));
#2180=CARTESIAN_POINT('',(-0.0691130119565128,0.035,0.0613627817936616));
#2181=CARTESIAN_POINT('',(-0.0457260239130257,0.035,0.095072471543729));
#2182=CARTESIAN_POINT('',(-0.0399203492410516,0.035,0.118786235771864));
#2183=CARTESIAN_POINT('',(-1.38777878078145E-17,0.07,0.));
#2184=CARTESIAN_POINT('',(-0.083,0.07,-0.0165794138092614));
#2185=CARTESIAN_POINT('',(-0.08465,0.07,-0.0165794138092614));
#2186=CARTESIAN_POINT('',(0.083,0.07,-0.0165794138092614));
#2187=CARTESIAN_POINT('',(0.08135,0.07,-0.0165794138092614));
#2188=CARTESIAN_POINT('',(0.0614217167054945,0.07,0.0426129390348063));
#2189=CARTESIAN_POINT('',(0.09,0.07,0.0014205861907386));
#2190=CARTESIAN_POINT('',(0.09,0.07,-0.0235794138092614));
#2191=CARTESIAN_POINT('',(0.09,0.07,-0.0235794138092614));
#2192=CARTESIAN_POINT('',(-1.38777878078145E-17,0.07,-0.0235794138092613));
#2193=CARTESIAN_POINT('',(-0.09,0.07,-0.0235794138092613));
#2194=CARTESIAN_POINT('',(-0.09,0.07,-0.0235794138092613));
#2195=CARTESIAN_POINT('',(-0.09,0.07,0.00142058619073867));
#2196=CARTESIAN_POINT('',(-0.0614217167054946,0.07,0.0426129390348063));
#2197=CARTESIAN_POINT('',(-0.09,0.07,0.015));
#2198=CARTESIAN_POINT('',(-0.0920266049035358,0.0639201852893927,0.00596778434389548));
#2199=CARTESIAN_POINT('',(-0.1,0.04,0.0238581029717521));
#2200=CARTESIAN_POINT('',(-0.09,0.07,-0.0235794138092613));
#2201=CARTESIAN_POINT('',(-0.0908333333333333,0.0675,-0.0235794138092613));
#2202=CARTESIAN_POINT('',(-0.0908333333333333,0.0675,-0.0235794138092613));
#2203=CARTESIAN_POINT('',(-0.1,0.04,-0.058));
#2204=CARTESIAN_POINT('',(-0.1,0.07,-0.058));
#2205=CARTESIAN_POINT('',(-0.1,0.0920355443297687,-0.0400612880447015));
#2206=CARTESIAN_POINT('',(0.1,0.07,-0.058));
#2207=CARTESIAN_POINT('',(0.1,0.04,-0.058));
#2208=CARTESIAN_POINT('',(0.1,0.04,0.023858102971752));
#2209=CARTESIAN_POINT('',(0.1,0.0920355443297686,-0.0400612880447015));
#2210=CARTESIAN_POINT('',(-0.0815575470496905,0.035,0.0565827034259026));
#2211=CARTESIAN_POINT('',(0.0723647283612417,0.04,0.0178035575484323));
#2212=CARTESIAN_POINT('',(0.0601404623939076,0.0250014404350306,0.142901058412656));
#2213=CARTESIAN_POINT('',(0.041737984108089,0.04,0.142901058412656));
#2214=CARTESIAN_POINT('',(0.0723647283612417,0.04,0.0178035575484323));
#2215=CARTESIAN_POINT('',(0.0526804038507602,0.04,0.0982058289132093));
#2216=CARTESIAN_POINT('',(0.0930810509486097,0.018691969010019,0.039972880025645));
#2217=CARTESIAN_POINT('',(0.0871191195425077,0.0175622666857503,0.0699864801843658));
#2218=CARTESIAN_POINT('',(0.0815575470496904,0.035,0.0565827034259026));
#2219=CARTESIAN_POINT('',(0.096452378755343,0.0506428637339709,0.015898121850785));
#2220=CARTESIAN_POINT('',(0.1,0.04,8.70083515454312E-5));
#2221=CARTESIAN_POINT('',(0.0908333333333333,0.0675,-0.0235794138092613));
#2222=CARTESIAN_POINT('',(0.0908333333333333,0.0675,-0.0235794138092613));
#2223=CARTESIAN_POINT('',(0.1,0.04,-0.0235794138092613));
#2224=CARTESIAN_POINT('',(0.0574204766332765,0.06,0.0913735518113334));
#2225=CARTESIAN_POINT('',(0.0526804038507602,0.06,0.0982058289132092));
#2226=CARTESIAN_POINT('',(0.0463402019253801,0.06,0.124102914456605));
#2227=CARTESIAN_POINT('',(0.0723647283612417,0.04,0.0178035575484323));
#2228=CARTESIAN_POINT('',(0.0407464163030549,0.04,0.146951200122851));
#2229=CARTESIAN_POINT('',(0.0407464163030549,0.035,0.146951200122851));
#2230=CARTESIAN_POINT('',(-0.0463402019253801,0.06,0.124102914456605));
#2231=CARTESIAN_POINT('',(-0.0407464163030549,0.06,0.146951200122851));
#2232=CARTESIAN_POINT('',(-0.0407464163030549,0.04,0.146951200122851));
#2233=CARTESIAN_POINT('',(-0.0409180862140002,0.04,0.14625));
#2234=CARTESIAN_POINT('',(-0.0526804038507603,0.06,0.0982058289132093));
#2235=CARTESIAN_POINT('',(-0.0574204766332766,0.06,0.0913735518113333));
#2236=CARTESIAN_POINT('',(0.,0.04,8.70083515454312E-5));
#2237=CARTESIAN_POINT('',(0.02,0.04,0.1025));
#2238=CARTESIAN_POINT('',(0.01835,0.04,0.1025));
#2239=CARTESIAN_POINT('',(0.02,0.04,0.1425));
#2240=CARTESIAN_POINT('',(0.01835,0.04,0.1425));
#2241=CARTESIAN_POINT('',(-0.02,0.04,0.1425));
#2242=CARTESIAN_POINT('',(-0.02165,0.04,0.1425));
#2243=CARTESIAN_POINT('',(-0.02,0.04,0.1025));
#2244=CARTESIAN_POINT('',(-0.02165,0.04,0.1025));
#2245=CARTESIAN_POINT('',(-0.0368611597701747,0.04,0.146));
#2246=CARTESIAN_POINT('',(0.0368611597701747,0.04,0.146));
#2247=CARTESIAN_POINT('',(0.0881,0.04,0.142901058412656));
#2248=CARTESIAN_POINT('',(0.0399203492410516,0.04,0.118786235771864));
#2249=CARTESIAN_POINT('',(0.0881,0.04,0.142901058412656));
#2250=CARTESIAN_POINT('',(0.0275,0.04,0.142901058412656));
#2251=CARTESIAN_POINT('',(0.0275,0.04,0.1225));
#2252=CARTESIAN_POINT('',(0.0275,0.04,0.09));
#2253=CARTESIAN_POINT('',(-1.38777878078145E-17,0.04,0.09));
#2254=CARTESIAN_POINT('',(0.0125,0.04,0.09));
#2255=CARTESIAN_POINT('',(0.0125,0.04,0.07));
#2256=CARTESIAN_POINT('',(-0.0275,0.04,0.1225));
#2257=CARTESIAN_POINT('',(-0.0275,0.04,0.142901058412656));
#2258=CARTESIAN_POINT('',(0.0881,0.04,0.142901058412656));
#2259=CARTESIAN_POINT('',(-2.08166817117217E-17,0.04,0.1425));
#2260=CARTESIAN_POINT('',(-0.0341146745690777,0.04,0.1425));
#2261=CARTESIAN_POINT('',(-0.0399203492410516,0.04,0.118786235771864));
#2262=CARTESIAN_POINT('',(0.0368611597701747,0.06,0.146));
#2263=CARTESIAN_POINT('',(-0.0368611597701747,0.07,0.146));
#2264=CARTESIAN_POINT('',(0.,0.04,0.0757102930953693));
#2265=CARTESIAN_POINT('',(-0.0925,0.04,0.0145368391171664));
#2266=CARTESIAN_POINT('',(-0.0925,0.04,0.0224205861907387));
#2267=CARTESIAN_POINT('',(-0.0925,0.04,0.0276530920435942));
#2268=CARTESIAN_POINT('',(-0.0457260239130257,0.04,0.0224205861907387));
#2269=CARTESIAN_POINT('',(-0.0537260239130257,0.04,0.0224205861907387));
#2270=CARTESIAN_POINT('',(-0.0537260239130257,0.04,0.095072471543729));
#2271=CARTESIAN_POINT('',(-0.0537260239130257,0.04,0.0835413792329498));
#2272=CARTESIAN_POINT('',(-0.0691130119565128,0.04,0.0613627817936616));
#2273=CARTESIAN_POINT('',(-0.0925,0.04,0.0145368391171664));
#2274=CARTESIAN_POINT('',(-0.0925,0.04,0.0145368391171664));
#2275=CARTESIAN_POINT('',(-0.0925,0.04,0.0276530920435942));
#2276=CARTESIAN_POINT('',(0.0925,0.04,0.0145368391171664));
#2277=CARTESIAN_POINT('',(0.0925,0.04,0.0276530920435942));
#2278=CARTESIAN_POINT('',(0.0925,0.04,0.0144205861907387));
#2279=CARTESIAN_POINT('',(0.0691130119565128,0.04,0.0613627817936616));
#2280=CARTESIAN_POINT('',(0.0457260239130256,0.04,0.095072471543729));
#2281=CARTESIAN_POINT('',(0.0564942296117117,0.037231794301314,0.0795513248021031));
#2282=CARTESIAN_POINT('',(0.0399203492410516,0.04,0.118786235771864));
#2283=CARTESIAN_POINT('',(-2.08166817117217E-17,0.04,0.1425));
#2284=CARTESIAN_POINT('',(-0.0325,0.04,0.1425));
#2285=CARTESIAN_POINT('',(-0.0341146745690777,0.04,0.1425));
#2286=CARTESIAN_POINT('',(-0.0399203492410516,0.04,0.118786235771864));
#2287=CARTESIAN_POINT('',(-0.0457260239130257,0.04,0.095072471543729));
#2288=CARTESIAN_POINT('',(-0.0691130119565128,0.04,0.0613627817936616));
#2289=CARTESIAN_POINT('',(-0.0622784968505113,0.0314475270625144,0.0712139598670014));
#2290=CARTESIAN_POINT('',(-0.0691130119565128,0.045,0.0613627817936616));
#2291=CARTESIAN_POINT('',(0.0883333333333333,0.0525,0.0144205861907387));
#2292=CARTESIAN_POINT('',(0.0890438596491228,0.0503684210526316,0.0120521651381071));
#2293=CARTESIAN_POINT('',(0.0841666666666666,0.065,0.0144205861907387));
#2294=CARTESIAN_POINT('',(0.,0.065,0.0144205861907387));
#2295=CARTESIAN_POINT('',(0.,0.065,0.0144205861907387));
#2296=CARTESIAN_POINT('',(-0.0841666666666666,0.065,0.0144205861907387));
#2297=CARTESIAN_POINT('',(-0.0841666666666666,0.065,0.0144205861907387));
#2298=CARTESIAN_POINT('',(-0.0883333333333333,0.0525,0.0144205861907387));
#2299=CARTESIAN_POINT('',(-0.0883333333333333,0.0525,0.0144205861907387));
#2300=CARTESIAN_POINT('',(-0.0898333333333333,0.048,0.0144205861907387));
#2301=CARTESIAN_POINT('',(-0.0890438596491228,0.0503684210526316,0.0120521651381071));
#2302=CARTESIAN_POINT('',(0.,0.0525,0.0144205861907387));
#2303=CARTESIAN_POINT('',(-0.0457260239130257,0.0525,0.0144205861907387));
#2304=CARTESIAN_POINT('',(-0.0457260239130257,0.048,0.0144205861907387));
#2305=CARTESIAN_POINT('',(-0.0925,0.048,0.0144205861907387));
#2306=CARTESIAN_POINT('',(0.,0.045,0.0757102930953693));
#2307=CARTESIAN_POINT('',(-0.0325,0.045,0.0757102930953694));
#2308=CARTESIAN_POINT('',(-0.0457260239130257,0.045,0.0482465288672338));
#2309=CARTESIAN_POINT('',(-0.0457260239130257,0.048,0.0144205861907387));
#2310=CARTESIAN_POINT('',(0.0457260239130257,0.045,0.0482465288672338));
#2311=CARTESIAN_POINT('',(0.0457260239130257,0.048,0.0482465288672338));
#2312=CARTESIAN_POINT('',(0.0537260239130257,0.04,0.0757102930953693));
#2313=CARTESIAN_POINT('',(0.0714892595479025,0.0222367643651231,0.0401838218256155));
#2314=CARTESIAN_POINT('',(0.,0.048,0.0144205861907387));
#2315=CARTESIAN_POINT('',(-0.0457260239130257,0.048,0.0482465288672338));
#2316=CARTESIAN_POINT('',(-0.057001338138524,0.0367246857745016,0.025695900416237));
#2317=CARTESIAN_POINT('',(0.,0.048,0.0144205861907387));
#2318=CARTESIAN_POINT('',(0.,0.0675,-0.0235794138092613));
#2319=CARTESIAN_POINT('',(-0.083,0.0675,-0.0165794138092614));
#2320=CARTESIAN_POINT('',(-0.08135,0.0675,-0.0165794138092614));
#2321=CARTESIAN_POINT('',(0.083,0.0675,-0.0165794138092614));
#2322=CARTESIAN_POINT('',(0.08465,0.0675,-0.0165794138092614));
#2323=CARTESIAN_POINT('',(0.,0.0675,-0.0235794138092613));
#2324=CARTESIAN_POINT('',(0.,0.0525,-0.0235794138092613));
#2325=CARTESIAN_POINT('',(0.083,0.07,-0.0165794138092614));
#2326=CARTESIAN_POINT('',(-0.083,0.07,-0.0165794138092614));
#2327=CARTESIAN_POINT('',(0.0275,0.04,0.1225));
#2328=CARTESIAN_POINT('',(0.0275,0.047,0.07));
#2329=CARTESIAN_POINT('',(0.0275,0.035,0.09));
#2330=CARTESIAN_POINT('',(0.0275,0.04,0.142901058412656));
#2331=CARTESIAN_POINT('',(-0.0275,0.04,0.1225));
#2332=CARTESIAN_POINT('',(-0.0275,0.04,0.142901058412656));
#2333=CARTESIAN_POINT('',(-0.0325,0.035,0.118277824401855));
#2334=CARTESIAN_POINT('',(-0.0325,0.035,0.09));
#2335=CARTESIAN_POINT('',(-1.38777878078145E-17,0.035,0.09));
#2336=CARTESIAN_POINT('',(0.0325,0.035,0.09));
#2337=CARTESIAN_POINT('',(0.0125,0.035,0.09));
#2338=CARTESIAN_POINT('',(0.0325,0.035,0.148277824401855));
#2339=CARTESIAN_POINT('',(0.0881,0.04,0.142901058412656));
#2340=CARTESIAN_POINT('',(0.0881,0.04,0.142901058412656));
#2341=CARTESIAN_POINT('',(0.0881,0.04,0.142901058412656));
#2342=CARTESIAN_POINT('',(0.02,0.047,0.07));
#2343=CARTESIAN_POINT('',(0.0125,0.047,0.07));
#2344=CARTESIAN_POINT('',(0.0125,0.0435,0.07));
#2345=CARTESIAN_POINT('',(-0.02,0.04,0.1025));
#2346=CARTESIAN_POINT('',(-0.02,0.04,0.1425));
#2347=CARTESIAN_POINT('',(0.02,0.04,0.1425));
#2348=CARTESIAN_POINT('',(0.02,0.04,0.1025));
#2349=MECHANICAL_DESIGN_GEOMETRIC_PRESENTATION_REPRESENTATION('',(#1454),
#2350);
#2350=(
GEOMETRIC_REPRESENTATION_CONTEXT(3)
GLOBAL_UNCERTAINTY_ASSIGNED_CONTEXT((#2351))
GLOBAL_UNIT_ASSIGNED_CONTEXT((#2354,#2353,#2352))
REPRESENTATION_CONTEXT('Front Cover','TOP_LEVEL_ASSEMBLY_PART')
);
#2351=UNCERTAINTY_MEASURE_WITH_UNIT(LENGTH_MEASURE(1.E-8),#2354,
'DISTANCE_ACCURACY_VALUE','Maximum Tolerance applied to model');
#2352=(
NAMED_UNIT(*)
SI_UNIT($,.STERADIAN.)
SOLID_ANGLE_UNIT()
);
#2353=(
NAMED_UNIT(*)
PLANE_ANGLE_UNIT()
SI_UNIT($,.RADIAN.)
);
#2354=(
LENGTH_UNIT()
NAMED_UNIT(*)
SI_UNIT($,.METRE.)
);
#2355=PRODUCT_DEFINITION_SHAPE('','',#2356);
#2356=PRODUCT_DEFINITION('','',#2358,#2357);
#2357=PRODUCT_DEFINITION_CONTEXT('',#2364,'design');
#2358=PRODUCT_DEFINITION_FORMATION_WITH_SPECIFIED_SOURCE('','',#2360,
 .NOT_KNOWN.);
#2359=PRODUCT_RELATED_PRODUCT_CATEGORY('','',(#2360));
#2360=PRODUCT('Front Cover','Front Cover','Front Cover',(#2362));
#2361=PRODUCT_CATEGORY('','');
#2362=PRODUCT_CONTEXT('',#2364,'mechanical');
#2363=APPLICATION_PROTOCOL_DEFINITION('international standard',
'ap242_managed_model_based_3d_engineering',2020,#2364);
#2364=APPLICATION_CONTEXT('managed model based 3d engineering');
ENDSEC;
END-ISO-10303-21;
